{
	"patcher" : 	{
		"fileversion" : 1,
		"appversion" : 		{
			"major" : 8,
			"minor" : 1,
			"revision" : 1,
			"architecture" : "x64",
			"modernui" : 1
		}
,
		"classnamespace" : "box",
		"rect" : [ 34.0, 79.0, 1372.0, 730.0 ],
		"bglocked" : 0,
		"openinpresentation" : 0,
		"default_fontsize" : 12.0,
		"default_fontface" : 0,
		"default_fontname" : "Arial",
		"gridonopen" : 1,
		"gridsize" : [ 15.0, 15.0 ],
		"gridsnaponopen" : 1,
		"objectsnaponopen" : 1,
		"statusbarvisible" : 2,
		"toolbarvisible" : 1,
		"lefttoolbarpinned" : 0,
		"toptoolbarpinned" : 0,
		"righttoolbarpinned" : 0,
		"bottomtoolbarpinned" : 0,
		"toolbars_unpinned_last_save" : 0,
		"tallnewobj" : 0,
		"boxanimatetime" : 200,
		"enablehscroll" : 1,
		"enablevscroll" : 1,
		"devicewidth" : 0.0,
		"description" : "",
		"digest" : "",
		"tags" : "",
		"style" : "",
		"subpatcher_template" : "",
		"boxes" : [ 			{
				"box" : 				{
					"fontface" : 0,
					"id" : "obj-10",
					"maxclass" : "newobj",
					"numinlets" : 5,
					"numoutlets" : 5,
					"outlettype" : [ "", "", "", "", "" ],
					"patching_rect" : [ 999.0, 384.0, 176.0, 22.0 ],
					"text" : "route #1 self melodic harmonic"
				}

			}
, 			{
				"box" : 				{
					"id" : "obj-8",
					"maxclass" : "newobj",
					"numinlets" : 4,
					"numoutlets" : 4,
					"outlettype" : [ "", "", "", "" ],
					"patching_rect" : [ 727.928687429802721, 167.439567114741294, 166.0, 22.0 ],
					"text" : "route state corpus_info peaks"
				}

			}
, 			{
				"box" : 				{
					"fontface" : 1,
					"fontsize" : 10.0,
					"id" : "obj-486",
					"maxclass" : "comment",
					"numinlets" : 1,
					"numoutlets" : 0,
					"patching_rect" : [ 224.477272727272748, 1069.5, 49.0, 18.0 ],
					"presentation" : 1,
					"presentation_rect" : [ 399.848049362055008, 595.962500303983688, 40.0, 18.0 ],
					"text" : "0",
					"textcolor" : [ 0.481437705647327, 0.846666309931507, 0.361908344245232, 1.0 ],
					"textjustification" : 1
				}

			}
, 			{
				"box" : 				{
					"fontface" : 1,
					"fontsize" : 10.0,
					"id" : "obj-485",
					"maxclass" : "comment",
					"numinlets" : 1,
					"numoutlets" : 0,
					"patching_rect" : [ 292.454545454545496, 1069.5, 49.0, 18.0 ],
					"presentation" : 1,
					"presentation_rect" : [ 452.868721950076861, 595.962500303983688, 40.333333611488342, 18.0 ],
					"text" : "0",
					"textcolor" : [ 0.996078431372549, 0.423529411764706, 0.423529411764706, 1.0 ],
					"textjustification" : 1
				}

			}
, 			{
				"box" : 				{
					"fontface" : 1,
					"fontsize" : 10.0,
					"id" : "obj-484",
					"maxclass" : "comment",
					"numinlets" : 1,
					"numoutlets" : 0,
					"patching_rect" : [ 360.25, 1069.5, 49.0, 18.0 ],
					"presentation" : 1,
					"presentation_rect" : [ 506.04012014085788, 595.962500303983688, 40.0, 18.0 ],
					"text" : "0",
					"textcolor" : [ 0.423529411764706, 0.494117647058824, 0.996078431372549, 1.0 ],
					"textjustification" : 1
				}

			}
, 			{
				"box" : 				{
					"fontface" : 1,
					"fontsize" : 10.0,
					"id" : "obj-483",
					"maxclass" : "comment",
					"numinlets" : 1,
					"numoutlets" : 0,
					"patching_rect" : [ 156.5, 1069.5, 49.0, 18.0 ],
					"presentation" : 1,
					"presentation_rect" : [ 347.691144912015943, 594.962500303983688, 39.0, 18.0 ],
					"text" : "0",
					"textcolor" : [ 0.933333333333333, 0.933333333333333, 0.933333333333333, 1.0 ],
					"textjustification" : 1
				}

			}
, 			{
				"box" : 				{
					"id" : "obj-481",
					"maxclass" : "message",
					"numinlets" : 2,
					"numoutlets" : 1,
					"outlettype" : [ "" ],
					"patching_rect" : [ 360.25, 1042.5, 41.0, 22.0 ],
					"text" : "set $1"
				}

			}
, 			{
				"box" : 				{
					"id" : "obj-482",
					"maxclass" : "newobj",
					"numinlets" : 1,
					"numoutlets" : 2,
					"outlettype" : [ "int", "int" ],
					"patching_rect" : [ 337.931818181818244, 1014.5, 41.5, 22.0 ],
					"text" : "t i i"
				}

			}
, 			{
				"box" : 				{
					"id" : "obj-479",
					"maxclass" : "message",
					"numinlets" : 2,
					"numoutlets" : 1,
					"outlettype" : [ "" ],
					"patching_rect" : [ 292.454545454545496, 1042.5, 41.0, 22.0 ],
					"text" : "set $1"
				}

			}
, 			{
				"box" : 				{
					"id" : "obj-480",
					"maxclass" : "newobj",
					"numinlets" : 1,
					"numoutlets" : 2,
					"outlettype" : [ "int", "int" ],
					"patching_rect" : [ 269.954545454545496, 1014.5, 41.5, 22.0 ],
					"text" : "t i i"
				}

			}
, 			{
				"box" : 				{
					"id" : "obj-477",
					"maxclass" : "message",
					"numinlets" : 2,
					"numoutlets" : 1,
					"outlettype" : [ "" ],
					"patching_rect" : [ 224.477272727272748, 1042.5, 41.0, 22.0 ],
					"text" : "set $1"
				}

			}
, 			{
				"box" : 				{
					"id" : "obj-478",
					"maxclass" : "newobj",
					"numinlets" : 1,
					"numoutlets" : 2,
					"outlettype" : [ "int", "int" ],
					"patching_rect" : [ 201.977272727272748, 1014.5, 41.5, 22.0 ],
					"text" : "t i i"
				}

			}
, 			{
				"box" : 				{
					"id" : "obj-475",
					"maxclass" : "message",
					"numinlets" : 2,
					"numoutlets" : 1,
					"outlettype" : [ "" ],
					"patching_rect" : [ 156.5, 1042.5, 41.0, 22.0 ],
					"text" : "set $1"
				}

			}
, 			{
				"box" : 				{
					"id" : "obj-476",
					"maxclass" : "newobj",
					"numinlets" : 1,
					"numoutlets" : 2,
					"outlettype" : [ "int", "int" ],
					"patching_rect" : [ 134.0, 1014.5, 41.5, 22.0 ],
					"text" : "t i i"
				}

			}
, 			{
				"box" : 				{
					"fontface" : 1,
					"fontsize" : 10.0,
					"id" : "obj-240",
					"linecount" : 2,
					"maxclass" : "comment",
					"numinlets" : 1,
					"numoutlets" : 0,
					"patching_rect" : [ 344.900000000000091, 1211.0, 173.0, 29.0 ],
					"presentation" : 1,
					"presentation_rect" : [ 345.691144912015943, 614.962500303983688, 200.348975228841937, 18.0 ],
					"text" : "Number of peaks [total/self/mel./harm.]",
					"textcolor" : [ 0.933333333333333, 0.933333333333333, 0.933333333333333, 1.0 ],
					"textjustification" : 1
				}

			}
, 			{
				"box" : 				{
					"color" : [ 0.8266150951, 0.1539679319, 0.6292977333, 1.0 ],
					"fontface" : 0,
					"id" : "obj-45",
					"maxclass" : "newobj",
					"numinlets" : 1,
					"numoutlets" : 1,
					"outlettype" : [ "" ],
					"patching_rect" : [ 354.400000000000091, 958.5, 80.0, 22.0 ],
					"text" : "loadmess 0"
				}

			}
, 			{
				"box" : 				{
					"color" : [ 1.0, 0.0, 0.0, 1.0 ],
					"fontface" : 0,
					"id" : "obj-40",
					"maxclass" : "newobj",
					"numinlets" : 0,
					"numoutlets" : 1,
					"outlettype" : [ "" ],
					"patching_rect" : [ 353.900000000000091, 917.0, 137.0, 22.0 ],
					"text" : "r #0_pre_instantiation"
				}

			}
, 			{
				"box" : 				{
					"id" : "obj-468",
					"maxclass" : "multislider",
					"numinlets" : 1,
					"numoutlets" : 2,
					"outlettype" : [ "", "" ],
					"parameter_enable" : 0,
					"patching_rect" : [ 248.75, 1206.104538929064802, 31.0, 33.0 ],
					"presentation" : 1,
					"presentation_rect" : [ 506.04012014085788, 577.962500303983688, 40.0, 16.0 ],
					"setminmax" : [ 0.0, 1.0 ],
					"setstyle" : 5,
					"slidercolor" : [ 0.423529411764706, 0.494117647058824, 0.996078431372549, 1.0 ]
				}

			}
, 			{
				"box" : 				{
					"id" : "obj-467",
					"maxclass" : "multislider",
					"numinlets" : 1,
					"numoutlets" : 2,
					"outlettype" : [ "", "" ],
					"parameter_enable" : 0,
					"patching_rect" : [ 210.5, 1206.104538929064802, 31.0, 33.0 ],
					"presentation" : 1,
					"presentation_rect" : [ 452.868721950076861, 577.962500303983688, 40.333333611488342, 16.0 ],
					"setminmax" : [ 0.0, 1.0 ],
					"setstyle" : 5,
					"slidercolor" : [ 0.996078431372549, 0.423529411764706, 0.423529411764706, 1.0 ]
				}

			}
, 			{
				"box" : 				{
					"id" : "obj-466",
					"maxclass" : "multislider",
					"numinlets" : 1,
					"numoutlets" : 2,
					"outlettype" : [ "", "" ],
					"parameter_enable" : 0,
					"patching_rect" : [ 172.0, 1206.104538929064802, 31.0, 33.0 ],
					"presentation" : 1,
					"presentation_rect" : [ 399.848049362055008, 577.962500303983688, 40.0, 16.0 ],
					"setminmax" : [ 0.0, 1.0 ],
					"setstyle" : 5,
					"slidercolor" : [ 0.481437705647327, 0.846666309931507, 0.361908344245232, 1.0 ]
				}

			}
, 			{
				"box" : 				{
					"fontface" : 0,
					"id" : "obj-465",
					"maxclass" : "newobj",
					"numinlets" : 1,
					"numoutlets" : 1,
					"outlettype" : [ "" ],
					"patching_rect" : [ 248.75, 1173.5, 137.0, 22.0 ],
					"text" : "expr log10($f1 + 1) / 3"
				}

			}
, 			{
				"box" : 				{
					"fontface" : 0,
					"id" : "obj-464",
					"maxclass" : "newobj",
					"numinlets" : 1,
					"numoutlets" : 1,
					"outlettype" : [ "" ],
					"patching_rect" : [ 210.5, 1149.5, 137.0, 22.0 ],
					"text" : "expr log10($f1 + 1) / 3"
				}

			}
, 			{
				"box" : 				{
					"fontface" : 0,
					"id" : "obj-463",
					"maxclass" : "newobj",
					"numinlets" : 1,
					"numoutlets" : 1,
					"outlettype" : [ "" ],
					"patching_rect" : [ 172.0, 1123.5, 137.0, 22.0 ],
					"text" : "expr log10($f1 + 1) / 3"
				}

			}
, 			{
				"box" : 				{
					"fontface" : 0,
					"id" : "obj-447",
					"maxclass" : "newobj",
					"numinlets" : 1,
					"numoutlets" : 1,
					"outlettype" : [ "" ],
					"patching_rect" : [ 134.0, 1093.5, 137.0, 22.0 ],
					"text" : "expr log10($f1 + 1) / 3"
				}

			}
, 			{
				"box" : 				{
					"id" : "obj-431",
					"maxclass" : "multislider",
					"numinlets" : 1,
					"numoutlets" : 2,
					"outlettype" : [ "", "" ],
					"parameter_enable" : 0,
					"patching_rect" : [ 134.0, 1206.104538929064802, 31.0, 33.0 ],
					"presentation" : 1,
					"presentation_rect" : [ 347.691144912015943, 577.962500303983688, 39.0, 16.0 ],
					"setminmax" : [ 0.0, 1.0 ],
					"setstyle" : 5,
					"slidercolor" : [ 0.933333333333333, 0.933333333333333, 0.933333333333333, 1.0 ]
				}

			}
, 			{
				"box" : 				{
					"fontface" : 0,
					"id" : "obj-305",
					"maxclass" : "newobj",
					"numinlets" : 5,
					"numoutlets" : 5,
					"outlettype" : [ "", "", "", "", "" ],
					"patching_rect" : [ 134.0, 920.0, 176.0, 22.0 ],
					"text" : "route #1 self melodic harmonic"
				}

			}
, 			{
				"box" : 				{
					"angle" : 270.0,
					"bgcolor" : [ 0.2, 0.2, 0.2, 1.0 ],
					"id" : "obj-487",
					"maxclass" : "panel",
					"mode" : 0,
					"numinlets" : 1,
					"numoutlets" : 0,
					"patching_rect" : [ 477.900000000000091, 1211.0, 40.0, 36.0 ],
					"presentation" : 1,
					"presentation_rect" : [ 345.691144912015943, 573.962500303983688, 43.0, 39.0 ],
					"proportion" : 0.5
				}

			}
, 			{
				"box" : 				{
					"angle" : 270.0,
					"bgcolor" : [ 0.2, 0.2, 0.2, 1.0 ],
					"id" : "obj-488",
					"maxclass" : "panel",
					"mode" : 0,
					"numinlets" : 1,
					"numoutlets" : 0,
					"patching_rect" : [ 394.400000000000091, 1211.0, 40.0, 32.0 ],
					"presentation" : 1,
					"presentation_rect" : [ 398.348049362055008, 573.962500303983688, 43.0, 39.0 ],
					"proportion" : 0.5
				}

			}
, 			{
				"box" : 				{
					"angle" : 270.0,
					"bgcolor" : [ 0.2, 0.2, 0.2, 1.0 ],
					"id" : "obj-489",
					"maxclass" : "panel",
					"mode" : 0,
					"numinlets" : 1,
					"numoutlets" : 0,
					"patching_rect" : [ 439.828687429802812, 1211.0, 32.571312570197279, 32.0 ],
					"presentation" : 1,
					"presentation_rect" : [ 451.535388755821032, 573.962500303983688, 43.0, 39.0 ],
					"proportion" : 0.5
				}

			}
, 			{
				"box" : 				{
					"angle" : 270.0,
					"bgcolor" : [ 0.2, 0.2, 0.2, 1.0 ],
					"id" : "obj-491",
					"maxclass" : "panel",
					"mode" : 0,
					"numinlets" : 1,
					"numoutlets" : 0,
					"patching_rect" : [ 354.400000000000091, 1211.0, 31.349999999999909, 32.0 ],
					"presentation" : 1,
					"presentation_rect" : [ 504.04012014085788, 573.962500303983688, 43.0, 39.0 ],
					"proportion" : 0.5
				}

			}
, 			{
				"box" : 				{
					"id" : "obj-6",
					"maxclass" : "newobj",
					"numinlets" : 4,
					"numoutlets" : 4,
					"outlettype" : [ "", "", "", "" ],
					"patching_rect" : [ 928.499999999999773, 257.0, 225.0, 22.0 ],
					"text" : "route refreshcorpora setcorpus statemax"
				}

			}
, 			{
				"box" : 				{
					"bgmode" : 0,
					"border" : 0,
					"clickthrough" : 0,
					"enablehscroll" : 0,
					"enablevscroll" : 0,
					"id" : "obj-5",
					"lockeddragscroll" : 0,
					"maxclass" : "bpatcher",
					"name" : "somax.corpusview.maxpat",
					"numinlets" : 2,
					"numoutlets" : 1,
					"offset" : [ 0.0, 0.0 ],
					"outlettype" : [ "" ],
					"patching_rect" : [ 778.0, 302.0, 211.0, 43.0 ],
					"viewvisibility" : 1
				}

			}
, 			{
				"box" : 				{
					"id" : "obj-3",
					"linecount" : 2,
					"maxclass" : "comment",
					"numinlets" : 1,
					"numoutlets" : 0,
					"patching_rect" : [ 1220.0, 153.0, 150.0, 33.0 ],
					"text" : "+ State, peaks, corpus selection"
				}

			}
, 			{
				"box" : 				{
					"fontface" : 0,
					"id" : "obj-193",
					"maxclass" : "newobj",
					"numinlets" : 1,
					"numoutlets" : 1,
					"outlettype" : [ "" ],
					"patching_rect" : [ 230.0, 804.615384615384755, 124.0, 22.0 ],
					"text" : "prepend set classifier"
				}

			}
, 			{
				"box" : 				{
					"fontface" : 0,
					"id" : "obj-194",
					"maxclass" : "newobj",
					"numinlets" : 2,
					"numoutlets" : 2,
					"outlettype" : [ "", "" ],
					"patching_rect" : [ 230.0, 772.615384615384755, 80.0, 22.0 ],
					"text" : "route symbol"
				}

			}
, 			{
				"box" : 				{
					"coll_data" : 					{
						"count" : 2,
						"data" : [ 							{
								"key" : 0,
								"value" : [ "TopNoteClassifier" ]
							}
, 							{
								"key" : 1,
								"value" : [ "PitchClassClassifier" ]
							}
 ]
					}
,
					"color" : [ 0.980525732040405, 0.526075959205627, 0.0, 1.0 ],
					"fontface" : 0,
					"id" : "obj-204",
					"linecount" : 2,
					"maxclass" : "newobj",
					"numinlets" : 1,
					"numoutlets" : 4,
					"outlettype" : [ "", "", "", "" ],
					"patching_rect" : [ 230.0, 722.615384615384755, 92.0, 35.0 ],
					"presentation_linecount" : 2,
					"saved_object_attributes" : 					{
						"embed" : 1
					}
,
					"text" : "coll classifiers @embed 1"
				}

			}
, 			{
				"box" : 				{
					"fontface" : 0,
					"id" : "obj-205",
					"maxclass" : "message",
					"numinlets" : 2,
					"numoutlets" : 1,
					"outlettype" : [ "" ],
					"patching_rect" : [ 124.0, 633.615384615384755, 49.0, 22.0 ],
					"text" : "set $1"
				}

			}
, 			{
				"box" : 				{
					"fontface" : 0,
					"id" : "obj-206",
					"maxclass" : "newobj",
					"numinlets" : 1,
					"numoutlets" : 2,
					"outlettype" : [ "int", "int" ],
					"patching_rect" : [ 124.0, 600.615384615384755, 125.0, 22.0 ],
					"text" : "t i i"
				}

			}
, 			{
				"box" : 				{
					"fontface" : 0,
					"id" : "obj-208",
					"maxclass" : "newobj",
					"numinlets" : 2,
					"numoutlets" : 2,
					"outlettype" : [ "", "" ],
					"patching_rect" : [ 124.0, 772.615384615384755, 80.0, 22.0 ],
					"text" : "route symbol"
				}

			}
, 			{
				"box" : 				{
					"coll_data" : 					{
						"count" : 2,
						"data" : [ 							{
								"key" : 0,
								"value" : [ "TopNoteClassifier" ]
							}
, 							{
								"key" : 1,
								"value" : [ "PitchClassClassifier" ]
							}
 ]
					}
,
					"color" : [ 0.980525732040405, 0.526075959205627, 0.0, 1.0 ],
					"fontface" : 0,
					"id" : "obj-209",
					"linecount" : 2,
					"maxclass" : "newobj",
					"numinlets" : 1,
					"numoutlets" : 4,
					"outlettype" : [ "", "", "", "" ],
					"patching_rect" : [ 124.0, 722.615384615384755, 92.0, 35.0 ],
					"presentation_linecount" : 2,
					"saved_object_attributes" : 					{
						"embed" : 1
					}
,
					"text" : "coll classifiers @embed 1"
				}

			}
, 			{
				"box" : 				{
					"color" : [ 0.1421581805, 0.6723723412, 0.2530546784, 1.0 ],
					"fontface" : 0,
					"id" : "obj-210",
					"maxclass" : "newobj",
					"numinlets" : 1,
					"numoutlets" : 0,
					"patching_rect" : [ 124.0, 859.615384615384755, 95.0, 22.0 ],
					"text" : "s #0_self_atom"
				}

			}
, 			{
				"box" : 				{
					"color" : [ 0.8266150951, 0.1539679319, 0.6292977333, 1.0 ],
					"fontface" : 0,
					"id" : "obj-211",
					"maxclass" : "newobj",
					"numinlets" : 1,
					"numoutlets" : 1,
					"outlettype" : [ "" ],
					"patching_rect" : [ 124.0, 567.0, 75.0, 22.0 ],
					"text" : "loadmess 0"
				}

			}
, 			{
				"box" : 				{
					"fontface" : 0,
					"id" : "obj-212",
					"maxclass" : "newobj",
					"numinlets" : 1,
					"numoutlets" : 1,
					"outlettype" : [ "" ],
					"patching_rect" : [ 124.0, 804.615384615384755, 104.0, 22.0 ],
					"text" : "prepend classifier"
				}

			}
, 			{
				"box" : 				{
					"fontface" : 0,
					"id" : "obj-213",
					"maxclass" : "comment",
					"numinlets" : 1,
					"numoutlets" : 0,
					"patching_rect" : [ 173.5, 673.269230769230944, 59.0, 20.0 ],
					"text" : "mod12"
				}

			}
, 			{
				"box" : 				{
					"fontface" : 0,
					"id" : "obj-188",
					"maxclass" : "newobj",
					"numinlets" : 1,
					"numoutlets" : 1,
					"outlettype" : [ "" ],
					"patching_rect" : [ 470.0, 804.615384615384755, 124.0, 22.0 ],
					"text" : "prepend set classifier"
				}

			}
, 			{
				"box" : 				{
					"fontface" : 0,
					"id" : "obj-185",
					"maxclass" : "newobj",
					"numinlets" : 2,
					"numoutlets" : 2,
					"outlettype" : [ "", "" ],
					"patching_rect" : [ 470.0, 772.615384615384755, 80.0, 22.0 ],
					"text" : "route symbol"
				}

			}
, 			{
				"box" : 				{
					"coll_data" : 					{
						"count" : 2,
						"data" : [ 							{
								"key" : 0,
								"value" : [ "TopNoteClassifier" ]
							}
, 							{
								"key" : 1,
								"value" : [ "PitchClassClassifier" ]
							}
 ]
					}
,
					"color" : [ 0.980525732040405, 0.526075959205627, 0.0, 1.0 ],
					"fontface" : 0,
					"id" : "obj-187",
					"linecount" : 2,
					"maxclass" : "newobj",
					"numinlets" : 1,
					"numoutlets" : 4,
					"outlettype" : [ "", "", "", "" ],
					"patching_rect" : [ 470.0, 722.615384615384755, 92.0, 35.0 ],
					"presentation_linecount" : 2,
					"saved_object_attributes" : 					{
						"embed" : 1
					}
,
					"text" : "coll classifiers @embed 1"
				}

			}
, 			{
				"box" : 				{
					"fontface" : 0,
					"id" : "obj-184",
					"maxclass" : "message",
					"numinlets" : 2,
					"numoutlets" : 1,
					"outlettype" : [ "" ],
					"patching_rect" : [ 364.0, 633.615384615384755, 49.0, 22.0 ],
					"text" : "set $1"
				}

			}
, 			{
				"box" : 				{
					"fontface" : 0,
					"id" : "obj-179",
					"maxclass" : "newobj",
					"numinlets" : 1,
					"numoutlets" : 2,
					"outlettype" : [ "int", "int" ],
					"patching_rect" : [ 364.0, 600.615384615384755, 124.0, 22.0 ],
					"text" : "t i i"
				}

			}
, 			{
				"box" : 				{
					"fontface" : 0,
					"id" : "obj-177",
					"maxclass" : "newobj",
					"numinlets" : 2,
					"numoutlets" : 2,
					"outlettype" : [ "", "" ],
					"patching_rect" : [ 364.0, 772.615384615384755, 80.0, 22.0 ],
					"text" : "route symbol"
				}

			}
, 			{
				"box" : 				{
					"coll_data" : 					{
						"count" : 2,
						"data" : [ 							{
								"key" : 0,
								"value" : [ "TopNoteClassifier" ]
							}
, 							{
								"key" : 1,
								"value" : [ "PitchClassClassifier" ]
							}
 ]
					}
,
					"color" : [ 0.980525732040405, 0.526075959205627, 0.0, 1.0 ],
					"fontface" : 0,
					"id" : "obj-175",
					"linecount" : 2,
					"maxclass" : "newobj",
					"numinlets" : 1,
					"numoutlets" : 4,
					"outlettype" : [ "", "", "", "" ],
					"patching_rect" : [ 364.0, 722.615384615384755, 92.0, 35.0 ],
					"presentation_linecount" : 2,
					"saved_object_attributes" : 					{
						"embed" : 1
					}
,
					"text" : "coll classifiers @embed 1"
				}

			}
, 			{
				"box" : 				{
					"color" : [ 0.1421581805, 0.6723723412, 0.2530546784, 1.0 ],
					"fontface" : 0,
					"id" : "obj-57",
					"maxclass" : "newobj",
					"numinlets" : 1,
					"numoutlets" : 0,
					"patching_rect" : [ 364.0, 859.615384615384755, 116.0, 22.0 ],
					"text" : "s #0_melodic_atom"
				}

			}
, 			{
				"box" : 				{
					"color" : [ 0.8266150951, 0.1539679319, 0.6292977333, 1.0 ],
					"fontface" : 0,
					"id" : "obj-235",
					"maxclass" : "newobj",
					"numinlets" : 1,
					"numoutlets" : 1,
					"outlettype" : [ "" ],
					"patching_rect" : [ 364.0, 567.0, 75.0, 22.0 ],
					"text" : "loadmess 0"
				}

			}
, 			{
				"box" : 				{
					"fontface" : 0,
					"id" : "obj-226",
					"maxclass" : "newobj",
					"numinlets" : 1,
					"numoutlets" : 1,
					"outlettype" : [ "" ],
					"patching_rect" : [ 364.0, 804.615384615384755, 104.0, 22.0 ],
					"text" : "prepend classifier"
				}

			}
, 			{
				"box" : 				{
					"fontface" : 0,
					"id" : "obj-195",
					"maxclass" : "comment",
					"numinlets" : 1,
					"numoutlets" : 0,
					"patching_rect" : [ 409.0, 673.269230769230944, 59.0, 20.0 ],
					"text" : "mod12"
				}

			}
, 			{
				"box" : 				{
					"id" : "obj-412",
					"maxclass" : "newobj",
					"numinlets" : 1,
					"numoutlets" : 1,
					"outlettype" : [ "" ],
					"patching_rect" : [ 1301.0, 604.685641972137319, 87.0, 22.0 ],
					"text" : "prepend setlist"
				}

			}
, 			{
				"box" : 				{
					"id" : "obj-324",
					"maxclass" : "comment",
					"numinlets" : 1,
					"numoutlets" : 0,
					"patching_rect" : [ 1440.572155821158958, 657.938828785323722, 150.0, 20.0 ],
					"text" : "Note: Not exposed to pattr"
				}

			}
, 			{
				"box" : 				{
					"color" : [ 0.1421581805, 0.6723723412, 0.2530546784, 1.0 ],
					"fontface" : 0,
					"id" : "obj-322",
					"maxclass" : "newobj",
					"numinlets" : 1,
					"numoutlets" : 0,
					"patching_rect" : [ 1530.572155821159413, 734.441685928181187, 103.0, 22.0 ],
					"text" : "s #0_parameters"
				}

			}
, 			{
				"box" : 				{
					"fontface" : 0,
					"id" : "obj-304",
					"maxclass" : "newobj",
					"numinlets" : 1,
					"numoutlets" : 1,
					"outlettype" : [ "" ],
					"patching_rect" : [ 1530.572155821159413, 706.441685928181187, 101.0, 22.0 ],
					"text" : "prepend weights"
				}

			}
, 			{
				"box" : 				{
					"fontface" : 0,
					"id" : "obj-258",
					"maxclass" : "newobj",
					"numinlets" : 1,
					"numoutlets" : 1,
					"outlettype" : [ "" ],
					"patching_rect" : [ 1451.0, 604.685641972137319, 91.0, 22.0 ],
					"text" : "prepend select"
				}

			}
, 			{
				"box" : 				{
					"color" : [ 1.0, 0.0, 0.0, 1.0 ],
					"fontface" : 0,
					"id" : "obj-247",
					"maxclass" : "newobj",
					"numinlets" : 0,
					"numoutlets" : 1,
					"outlettype" : [ "" ],
					"patching_rect" : [ 1451.0, 576.070257356752563, 90.0, 22.0 ],
					"text" : "r #0_setweight"
				}

			}
, 			{
				"box" : 				{
					"color" : [ 0.1421581805, 0.6723723412, 0.2530546784, 1.0 ],
					"fontface" : 0,
					"id" : "obj-138",
					"maxclass" : "newobj",
					"numinlets" : 1,
					"numoutlets" : 0,
					"patching_rect" : [ 1415.786077910579934, 835.685641972137319, 115.0, 22.0 ],
					"text" : "s #0_melodic_atom"
				}

			}
, 			{
				"box" : 				{
					"color" : [ 0.1421581805, 0.6723723412, 0.2530546784, 1.0 ],
					"fontface" : 0,
					"id" : "obj-135",
					"maxclass" : "newobj",
					"numinlets" : 1,
					"numoutlets" : 0,
					"patching_rect" : [ 1301.0, 835.685641972137319, 94.0, 22.0 ],
					"text" : "s #0_self_atom"
				}

			}
, 			{
				"box" : 				{
					"color" : [ 0.1421581805, 0.6723723412, 0.2530546784, 1.0 ],
					"fontface" : 0,
					"id" : "obj-122",
					"maxclass" : "newobj",
					"numinlets" : 1,
					"numoutlets" : 0,
					"patching_rect" : [ 1530.572155821159413, 835.685641972137319, 129.0, 22.0 ],
					"text" : "s #0_harmonic_atom"
				}

			}
, 			{
				"box" : 				{
					"fontface" : 1,
					"fontsize" : 10.0,
					"id" : "obj-301",
					"linecount" : 4,
					"maxclass" : "comment",
					"numinlets" : 1,
					"numoutlets" : 0,
					"patching_rect" : [ 1412.75, 657.938828785323722, 22.0, 51.0 ],
					"presentation" : 1,
					"presentation_rect" : [ 463.227624432390485, 174.0, 57.0, 18.0 ],
					"text" : "harmonic",
					"textcolor" : [ 0.933333333333333, 0.933333333333333, 0.933333333333333, 1.0 ],
					"textjustification" : 1
				}

			}
, 			{
				"box" : 				{
					"fontface" : 1,
					"fontsize" : 10.0,
					"id" : "obj-302",
					"linecount" : 5,
					"maxclass" : "comment",
					"numinlets" : 1,
					"numoutlets" : 0,
					"patching_rect" : [ 1385.0, 657.938828785323722, 19.0, 62.0 ],
					"presentation" : 1,
					"presentation_rect" : [ 402.977624432390485, 174.0, 55.0, 18.0 ],
					"text" : "melodic",
					"textcolor" : [ 0.933333333333333, 0.933333333333333, 0.933333333333333, 1.0 ],
					"textjustification" : 1
				}

			}
, 			{
				"box" : 				{
					"fontface" : 1,
					"fontsize" : 10.0,
					"id" : "obj-303",
					"linecount" : 2,
					"maxclass" : "comment",
					"numinlets" : 1,
					"numoutlets" : 0,
					"patching_rect" : [ 1357.0, 657.938828785323722, 21.0, 29.0 ],
					"presentation" : 1,
					"presentation_rect" : [ 342.269291099056545, 174.0, 55.0, 18.0 ],
					"text" : "self",
					"textcolor" : [ 0.933333333333333, 0.933333333333333, 0.933333333333333, 1.0 ],
					"textjustification" : 1
				}

			}
, 			{
				"box" : 				{
					"candicane2" : [ 0.996078431372549, 0.423529411764706, 0.423529411764706, 1.0 ],
					"candicane3" : [ 0.423529411764706, 0.494117647058824, 0.996078431372549, 1.0 ],
					"candycane" : 3,
					"contdata" : 1,
					"ghostbar" : 15,
					"id" : "obj-300",
					"maxclass" : "multislider",
					"numinlets" : 1,
					"numoutlets" : 2,
					"outlettype" : [ "", "" ],
					"parameter_enable" : 0,
					"patching_rect" : [ 1301.0, 648.070257356752563, 44.0, 34.0 ],
					"presentation" : 1,
					"presentation_rect" : [ 342.269291099056545, 173.0, 177.354166666668789, 83.0 ],
					"setminmax" : [ 0.001000000047497, 1.0 ],
					"setstyle" : 1,
					"size" : 3,
					"slidercolor" : [ 0.481437705647327, 0.846666309931507, 0.361908344245232, 1.0 ]
				}

			}
, 			{
				"box" : 				{
					"color" : [ 0.82661509513855, 0.153967931866646, 0.629297733306885, 1.0 ],
					"fontface" : 0,
					"id" : "obj-299",
					"maxclass" : "newobj",
					"numinlets" : 1,
					"numoutlets" : 1,
					"outlettype" : [ "" ],
					"patching_rect" : [ 1301.0, 576.070257356752563, 144.0, 22.0 ],
					"text" : "loadmess 0.33 0.33 0.33"
				}

			}
, 			{
				"box" : 				{
					"fontface" : 0,
					"id" : "obj-273",
					"maxclass" : "message",
					"numinlets" : 2,
					"numoutlets" : 1,
					"outlettype" : [ "" ],
					"patching_rect" : [ 1530.572155821159413, 777.070257356752563, 65.0, 22.0 ],
					"text" : "weight $1"
				}

			}
, 			{
				"box" : 				{
					"fontface" : 0,
					"id" : "obj-272",
					"maxclass" : "message",
					"numinlets" : 2,
					"numoutlets" : 1,
					"outlettype" : [ "" ],
					"patching_rect" : [ 1415.786077910579934, 777.070257356752563, 65.0, 22.0 ],
					"text" : "weight $1"
				}

			}
, 			{
				"box" : 				{
					"fontface" : 0,
					"id" : "obj-271",
					"maxclass" : "message",
					"numinlets" : 2,
					"numoutlets" : 1,
					"outlettype" : [ "" ],
					"patching_rect" : [ 1301.0, 777.070257356752563, 65.0, 22.0 ],
					"text" : "weight $1"
				}

			}
, 			{
				"box" : 				{
					"fontface" : 0,
					"id" : "obj-268",
					"maxclass" : "newobj",
					"numinlets" : 1,
					"numoutlets" : 4,
					"outlettype" : [ "", "", "", "" ],
					"patching_rect" : [ 1301.0, 734.441685928181187, 220.0, 22.0 ],
					"text" : "unjoin 3"
				}

			}
, 			{
				"box" : 				{
					"fontface" : 1,
					"fontsize" : 10.0,
					"id" : "obj-118",
					"maxclass" : "comment",
					"numinlets" : 1,
					"numoutlets" : 0,
					"patching_rect" : [ 1305.0, 551.0, 136.0, 18.0 ],
					"presentation" : 1,
					"presentation_rect" : [ 342.269291099056545, 257.0, 177.354166666668789, 18.0 ],
					"text" : " Balance",
					"textcolor" : [ 0.933333333333333, 0.933333333333333, 0.933333333333333, 1.0 ],
					"textjustification" : 1
				}

			}
, 			{
				"box" : 				{
					"fontface" : 0,
					"id" : "obj-131",
					"maxclass" : "message",
					"numinlets" : 2,
					"numoutlets" : 1,
					"outlettype" : [ "" ],
					"patching_rect" : [ 1009.0, 671.0, 64.0, 22.0 ],
					"text" : "set $1"
				}

			}
, 			{
				"box" : 				{
					"floatoutput" : 1,
					"id" : "obj-162",
					"knobcolor" : [ 0.423529411764706, 0.494117647058824, 0.996078431372549, 1.0 ],
					"maxclass" : "slider",
					"numinlets" : 1,
					"numoutlets" : 1,
					"outlettype" : [ "" ],
					"parameter_enable" : 0,
					"patching_rect" : [ 1009.0, 701.865384615384755, 37.0, 15.75 ],
					"presentation" : 1,
					"presentation_rect" : [ 455.165124432391394, 295.999999999999943, 45.95833333333394, 10.125 ],
					"size" : 10.0
				}

			}
, 			{
				"box" : 				{
					"fontface" : 0,
					"id" : "obj-102",
					"maxclass" : "message",
					"numinlets" : 2,
					"numoutlets" : 1,
					"outlettype" : [ "" ],
					"patching_rect" : [ 909.0, 671.0, 64.0, 22.0 ],
					"text" : "set $1"
				}

			}
, 			{
				"box" : 				{
					"floatoutput" : 1,
					"id" : "obj-128",
					"knobcolor" : [ 0.996078431372549, 0.423529411764706, 0.423529411764706, 1.0 ],
					"maxclass" : "slider",
					"numinlets" : 1,
					"numoutlets" : 1,
					"outlettype" : [ "" ],
					"parameter_enable" : 0,
					"patching_rect" : [ 909.0, 701.865384615384755, 37.0, 15.75 ],
					"presentation" : 1,
					"presentation_rect" : [ 394.081791099057455, 295.999999999999943, 45.95833333333394, 10.0 ],
					"size" : 10.0
				}

			}
, 			{
				"box" : 				{
					"fontface" : 0,
					"id" : "obj-84",
					"maxclass" : "message",
					"numinlets" : 2,
					"numoutlets" : 1,
					"outlettype" : [ "" ],
					"patching_rect" : [ 807.428687429802721, 671.0, 64.0, 22.0 ],
					"text" : "set $1"
				}

			}
, 			{
				"box" : 				{
					"floatoutput" : 1,
					"id" : "obj-86",
					"knobcolor" : [ 0.481437705647327, 0.846666309931507, 0.361908344245232, 1.0 ],
					"maxclass" : "slider",
					"numinlets" : 1,
					"numoutlets" : 1,
					"outlettype" : [ "" ],
					"parameter_enable" : 0,
					"patching_rect" : [ 807.428687429802721, 701.865384615384755, 37.0, 15.75 ],
					"presentation" : 1,
					"presentation_rect" : [ 332.727624432390485, 295.999999999999943, 45.95833333333394, 10.0 ],
					"size" : 10.0
				}

			}
, 			{
				"box" : 				{
					"fontface" : 0,
					"id" : "obj-139",
					"maxclass" : "newobj",
					"numinlets" : 1,
					"numoutlets" : 2,
					"outlettype" : [ "int", "int" ],
					"patching_rect" : [ 769.0, 593.615384615384755, 321.0, 22.0 ],
					"text" : "t i i"
				}

			}
, 			{
				"box" : 				{
					"color" : [ 0.1421581805, 0.6723723412, 0.2530546784, 1.0 ],
					"fontface" : 0,
					"id" : "obj-70",
					"maxclass" : "newobj",
					"numinlets" : 1,
					"numoutlets" : 0,
					"patching_rect" : [ 769.0, 852.615384615384755, 204.0, 22.0 ],
					"text" : "s #0_self_memspace_parameters"
				}

			}
, 			{
				"box" : 				{
					"color" : [ 0.1421581805, 0.6723723412, 0.2530546784, 1.0 ],
					"fontface" : 0,
					"id" : "obj-59",
					"maxclass" : "newobj",
					"numinlets" : 1,
					"numoutlets" : 0,
					"patching_rect" : [ 870.5, 881.615384615384755, 226.0, 22.0 ],
					"text" : "s #0_melodic_memspace_parameters"
				}

			}
, 			{
				"box" : 				{
					"color" : [ 0.1421581805, 0.6723723412, 0.2530546784, 1.0 ],
					"fontface" : 0,
					"id" : "obj-47",
					"maxclass" : "newobj",
					"numinlets" : 1,
					"numoutlets" : 0,
					"patching_rect" : [ 972.0, 852.615384615384755, 233.0, 22.0 ],
					"text" : "s #0_harmonic_memspace_parameters"
				}

			}
, 			{
				"box" : 				{
					"fontface" : 0,
					"id" : "obj-39",
					"maxclass" : "message",
					"numinlets" : 2,
					"numoutlets" : 1,
					"outlettype" : [ "" ],
					"patching_rect" : [ 1071.0, 794.0, 125.0, 22.0 ],
					"text" : "set ngram_size $1"
				}

			}
, 			{
				"box" : 				{
					"fontface" : 0,
					"id" : "obj-37",
					"maxclass" : "message",
					"numinlets" : 2,
					"numoutlets" : 1,
					"outlettype" : [ "" ],
					"patching_rect" : [ 769.0, 626.615384615384755, 64.0, 22.0 ],
					"text" : "set $1"
				}

			}
, 			{
				"box" : 				{
					"fontface" : 0,
					"id" : "obj-267",
					"maxclass" : "message",
					"numinlets" : 2,
					"numoutlets" : 1,
					"outlettype" : [ "" ],
					"patching_rect" : [ 972.0, 794.0, 107.0, 22.0 ],
					"text" : "ngram_size $1"
				}

			}
, 			{
				"box" : 				{
					"fontface" : 0,
					"id" : "obj-266",
					"maxclass" : "message",
					"numinlets" : 2,
					"numoutlets" : 1,
					"outlettype" : [ "" ],
					"patching_rect" : [ 870.5, 794.0, 107.0, 22.0 ],
					"text" : "ngram_size $1"
				}

			}
, 			{
				"box" : 				{
					"fontface" : 0,
					"id" : "obj-264",
					"maxclass" : "message",
					"numinlets" : 2,
					"numoutlets" : 1,
					"outlettype" : [ "" ],
					"patching_rect" : [ 769.0, 794.0, 107.0, 22.0 ],
					"text" : "ngram_size $1"
				}

			}
, 			{
				"box" : 				{
					"color" : [ 0.82661509513855, 0.153967931866646, 0.629297733306885, 1.0 ],
					"fontface" : 0,
					"id" : "obj-173",
					"maxclass" : "newobj",
					"numinlets" : 1,
					"numoutlets" : 1,
					"outlettype" : [ "" ],
					"patching_rect" : [ 769.0, 560.0, 90.0, 22.0 ],
					"text" : "loadmess 3"
				}

			}
, 			{
				"box" : 				{
					"fontface" : 1,
					"fontsize" : 10.0,
					"id" : "obj-158",
					"linecount" : 2,
					"maxclass" : "comment",
					"numinlets" : 1,
					"numoutlets" : 0,
					"patching_rect" : [ 948.0, 561.0, 134.0, 29.0 ],
					"presentation" : 1,
					"presentation_rect" : [ 332.727624432390485, 328.999999999999943, 161.5, 18.0 ],
					"text" : "Memory length (n-gram order)",
					"textcolor" : [ 0.933333333333333, 0.933333333333333, 0.933333333333333, 1.0 ],
					"textjustification" : 1
				}

			}
, 			{
				"box" : 				{
					"fontface" : 1,
					"fontsize" : 10.0,
					"id" : "obj-154",
					"maxclass" : "number",
					"minimum" : 1,
					"numinlets" : 1,
					"numoutlets" : 2,
					"outlettype" : [ "", "bang" ],
					"parameter_enable" : 0,
					"patching_rect" : [ 870.5, 722.115384615384755, 48.0, 20.0 ],
					"presentation" : 1,
					"presentation_rect" : [ 394.081791099057455, 306.624999999999943, 45.95833333333394, 20.0 ],
					"textcolor" : [ 0.933333333333333, 0.933333333333333, 0.933333333333333, 1.0 ],
					"tricolor" : [ 0.996078431372549, 0.423529411764706, 0.423529411764706, 1.0 ],
					"varname" : "melodicngramorder"
				}

			}
, 			{
				"box" : 				{
					"fontface" : 1,
					"fontsize" : 10.0,
					"id" : "obj-152",
					"maxclass" : "number",
					"minimum" : 1,
					"numinlets" : 1,
					"numoutlets" : 2,
					"outlettype" : [ "", "bang" ],
					"parameter_enable" : 0,
					"patching_rect" : [ 769.0, 723.115384615384755, 50.0, 20.0 ],
					"presentation" : 1,
					"presentation_rect" : [ 332.727624432390485, 306.624999999999943, 45.95833333333394, 20.0 ],
					"textcolor" : [ 0.933333333333333, 0.933333333333333, 0.933333333333333, 1.0 ],
					"tricolor" : [ 0.481437705647327, 0.846666309931507, 0.361908344245232, 1.0 ],
					"varname" : "selfngramorder"
				}

			}
, 			{
				"box" : 				{
					"fontface" : 1,
					"fontsize" : 10.0,
					"id" : "obj-144",
					"maxclass" : "number",
					"minimum" : 1,
					"numinlets" : 1,
					"numoutlets" : 2,
					"outlettype" : [ "", "bang" ],
					"parameter_enable" : 0,
					"patching_rect" : [ 972.0, 722.115384615384755, 48.0, 20.0 ],
					"presentation" : 1,
					"presentation_rect" : [ 455.165124432391394, 306.624999999999943, 45.95833333333394, 20.0 ],
					"textcolor" : [ 0.933333333333333, 0.933333333333333, 0.933333333333333, 1.0 ],
					"tricolor" : [ 0.423529411764706, 0.494117647058824, 0.996078431372549, 1.0 ],
					"varname" : "harmonicngramorder"
				}

			}
, 			{
				"box" : 				{
					"angle" : 270.0,
					"bgcolor" : [ 0.2, 0.2, 0.2, 1.0 ],
					"id" : "obj-54",
					"maxclass" : "panel",
					"mode" : 0,
					"numinlets" : 1,
					"numoutlets" : 0,
					"patching_rect" : [ 939.999999999999773, 553.0, 150.0, 36.0 ],
					"presentation" : 1,
					"presentation_rect" : [ 328.727624432390485, 289.999999999999943, 175.895833333334849, 38.625 ],
					"proportion" : 0.5
				}

			}
, 			{
				"box" : 				{
					"color" : [ 0.82661509513855, 0.153967931866646, 0.629297733306885, 1.0 ],
					"fontface" : 0,
					"id" : "obj-7",
					"linecount" : 3,
					"maxclass" : "newobj",
					"numinlets" : 1,
					"numoutlets" : 2,
					"outlettype" : [ "", "" ],
					"patching_rect" : [ 670.5, 66.5, 396.0, 49.0 ],
					"presentation_linecount" : 3,
					"text" : "patcherargs Player 1236 @mergeaction DistanceMergeAction @scaleactions [PhaseModulationScaleAction NextStateScaleAction] @corpus ''"
				}

			}
, 			{
				"box" : 				{
					"floatoutput" : 1,
					"id" : "obj-340",
					"knobcolor" : [ 1.0, 0.709803921568627, 0.196078431372549, 1.0 ],
					"maxclass" : "slider",
					"numinlets" : 1,
					"numoutlets" : 1,
					"outlettype" : [ "" ],
					"parameter_enable" : 0,
					"patching_rect" : [ 1567.0, 334.759019754428664, 37.0, 15.75 ],
					"presentation" : 1,
					"presentation_rect" : [ 222.571614092544678, 370.0, 43.199999958276749, 10.0 ],
					"size" : 1.0
				}

			}
, 			{
				"box" : 				{
					"fontface" : 1,
					"fontsize" : 10.0,
					"format" : 6,
					"id" : "obj-134",
					"maxclass" : "flonum",
					"minimum" : 0.0,
					"numdecimalplaces" : 2,
					"numinlets" : 1,
					"numoutlets" : 2,
					"outlettype" : [ "", "bang" ],
					"parameter_enable" : 0,
					"patching_rect" : [ 1508.0, 265.0, 48.0, 20.0 ],
					"presentation" : 1,
					"presentation_rect" : [ 177.271614050821427, 365.0, 46.0, 20.0 ],
					"textcolor" : [ 0.933333333333333, 0.933333333333333, 0.933333333333333, 1.0 ],
					"tricolor" : [ 1.0, 0.709803921568627, 0.196078431372549, 1.0 ],
					"varname" : "continuity"
				}

			}
, 			{
				"box" : 				{
					"fontface" : 1,
					"fontsize" : 10.0,
					"id" : "obj-137",
					"maxclass" : "comment",
					"numinlets" : 1,
					"numoutlets" : 0,
					"patching_rect" : [ 1567.0, 267.0, 142.0, 18.0 ],
					"presentation" : 1,
					"presentation_rect" : [ 60.41666666666697, 366.0, 99.0, 18.0 ],
					"text" : "Continuity Factor:",
					"textcolor" : [ 0.933333333333333, 0.933333333333333, 0.933333333333333, 1.0 ]
				}

			}
, 			{
				"box" : 				{
					"angle" : 270.0,
					"bgcolor" : [ 0.2, 0.2, 0.2, 1.0 ],
					"id" : "obj-356",
					"maxclass" : "panel",
					"mode" : 0,
					"numinlets" : 1,
					"numoutlets" : 0,
					"patching_rect" : [ 1563.0, 266.0, 146.0, 15.0 ],
					"presentation" : 1,
					"presentation_rect" : [ 56.41666666666697, 364.0, 215.688280717488396, 22.0 ],
					"proportion" : 0.5
				}

			}
, 			{
				"box" : 				{
					"comment" : "(list) Parameters",
					"id" : "obj-236",
					"index" : 0,
					"maxclass" : "inlet",
					"numinlets" : 0,
					"numoutlets" : 1,
					"outlettype" : [ "" ],
					"patching_rect" : [ 510.25, 163.439567114741294, 30.0, 30.0 ]
				}

			}
, 			{
				"box" : 				{
					"comment" : "(list) parameters",
					"id" : "obj-388",
					"index" : 0,
					"maxclass" : "outlet",
					"numinlets" : 1,
					"numoutlets" : 0,
					"patching_rect" : [ 624.5, 370.0, 30.0, 30.0 ]
				}

			}
, 			{
				"box" : 				{
					"comment" : "(list) info messages from server",
					"id" : "obj-119",
					"index" : 0,
					"maxclass" : "outlet",
					"numinlets" : 1,
					"numoutlets" : 0,
					"patching_rect" : [ 477.0, 370.0, 30.0, 30.0 ]
				}

			}
, 			{
				"box" : 				{
					"comment" : "(list) midi note out ",
					"id" : "obj-92",
					"index" : 0,
					"maxclass" : "outlet",
					"numinlets" : 1,
					"numoutlets" : 0,
					"patching_rect" : [ 427.0, 370.0, 30.0, 30.0 ]
				}

			}
, 			{
				"box" : 				{
					"comment" : "(list) messages to server",
					"id" : "obj-9",
					"index" : 0,
					"maxclass" : "outlet",
					"numinlets" : 1,
					"numoutlets" : 0,
					"patching_rect" : [ 533.0, 370.0, 30.0, 30.0 ]
				}

			}
, 			{
				"box" : 				{
					"id" : "obj-1",
					"maxclass" : "newobj",
					"numinlets" : 2,
					"numoutlets" : 4,
					"outlettype" : [ "", "", "", "" ],
					"patching_rect" : [ 427.0, 263.0, 135.0, 22.0 ],
					"text" : "somax.newplayer #1 #2",
					"varname" : "somax.newplayer"
				}

			}
 ],
		"lines" : [ 			{
				"patchline" : 				{
					"destination" : [ "obj-119", 0 ],
					"source" : [ "obj-1", 1 ]
				}

			}
, 			{
				"patchline" : 				{
					"destination" : [ "obj-388", 0 ],
					"source" : [ "obj-1", 3 ]
				}

			}
, 			{
				"patchline" : 				{
					"destination" : [ "obj-9", 0 ],
					"source" : [ "obj-1", 2 ]
				}

			}
, 			{
				"patchline" : 				{
					"destination" : [ "obj-92", 0 ],
					"source" : [ "obj-1", 0 ]
				}

			}
, 			{
				"patchline" : 				{
					"destination" : [ "obj-128", 0 ],
					"source" : [ "obj-102", 0 ]
				}

			}
, 			{
				"patchline" : 				{
					"destination" : [ "obj-154", 0 ],
					"source" : [ "obj-128", 0 ]
				}

			}
, 			{
				"patchline" : 				{
					"destination" : [ "obj-162", 0 ],
					"source" : [ "obj-131", 0 ]
				}

			}
, 			{
				"patchline" : 				{
					"destination" : [ "obj-102", 0 ],
					"midpoints" : [ 778.5, 620.807692307692378, 918.5, 620.807692307692378 ],
					"order" : 1,
					"source" : [ "obj-139", 0 ]
				}

			}
, 			{
				"patchline" : 				{
					"destination" : [ "obj-131", 0 ],
					"midpoints" : [ 778.5, 620.807692307692378, 1018.5, 620.807692307692378 ],
					"order" : 0,
					"source" : [ "obj-139", 0 ]
				}

			}
, 			{
				"patchline" : 				{
					"destination" : [ "obj-37", 0 ],
					"order" : 3,
					"source" : [ "obj-139", 0 ]
				}

			}
, 			{
				"patchline" : 				{
					"destination" : [ "obj-39", 0 ],
					"source" : [ "obj-139", 1 ]
				}

			}
, 			{
				"patchline" : 				{
					"destination" : [ "obj-84", 0 ],
					"midpoints" : [ 778.5, 620.807692307692378, 816.928687429802721, 620.807692307692378 ],
					"order" : 2,
					"source" : [ "obj-139", 0 ]
				}

			}
, 			{
				"patchline" : 				{
					"destination" : [ "obj-131", 0 ],
					"midpoints" : [ 981.5, 754.115384615384755, 1057.0, 754.115384615384755, 1057.0, 660.0, 1018.5, 660.0 ],
					"order" : 0,
					"source" : [ "obj-144", 0 ]
				}

			}
, 			{
				"patchline" : 				{
					"destination" : [ "obj-267", 0 ],
					"order" : 1,
					"source" : [ "obj-144", 0 ]
				}

			}
, 			{
				"patchline" : 				{
					"destination" : [ "obj-264", 0 ],
					"order" : 1,
					"source" : [ "obj-152", 0 ]
				}

			}
, 			{
				"patchline" : 				{
					"destination" : [ "obj-84", 0 ],
					"midpoints" : [ 778.5, 754.115384615384755, 860.714343714901361, 754.115384615384755, 860.714343714901361, 660.0, 816.928687429802721, 660.0 ],
					"order" : 0,
					"source" : [ "obj-152", 0 ]
				}

			}
, 			{
				"patchline" : 				{
					"destination" : [ "obj-102", 0 ],
					"midpoints" : [ 880.0, 754.115384615384755, 957.25, 754.115384615384755, 957.25, 660.0, 918.5, 660.0 ],
					"order" : 0,
					"source" : [ "obj-154", 0 ]
				}

			}
, 			{
				"patchline" : 				{
					"destination" : [ "obj-266", 0 ],
					"order" : 1,
					"source" : [ "obj-154", 0 ]
				}

			}
, 			{
				"patchline" : 				{
					"destination" : [ "obj-144", 0 ],
					"source" : [ "obj-162", 0 ]
				}

			}
, 			{
				"patchline" : 				{
					"destination" : [ "obj-139", 0 ],
					"source" : [ "obj-173", 0 ]
				}

			}
, 			{
				"patchline" : 				{
					"destination" : [ "obj-177", 0 ],
					"source" : [ "obj-175", 0 ]
				}

			}
, 			{
				"patchline" : 				{
					"destination" : [ "obj-226", 0 ],
					"source" : [ "obj-177", 0 ]
				}

			}
, 			{
				"patchline" : 				{
					"destination" : [ "obj-184", 0 ],
					"source" : [ "obj-179", 0 ]
				}

			}
, 			{
				"patchline" : 				{
					"destination" : [ "obj-188", 0 ],
					"source" : [ "obj-185", 0 ]
				}

			}
, 			{
				"patchline" : 				{
					"destination" : [ "obj-185", 0 ],
					"source" : [ "obj-187", 0 ]
				}

			}
, 			{
				"patchline" : 				{
					"destination" : [ "obj-57", 0 ],
					"midpoints" : [ 479.5, 842.615384615384755, 373.5, 842.615384615384755 ],
					"source" : [ "obj-188", 0 ]
				}

			}
, 			{
				"patchline" : 				{
					"destination" : [ "obj-210", 0 ],
					"midpoints" : [ 239.5, 842.615384615384755, 133.5, 842.615384615384755 ],
					"source" : [ "obj-193", 0 ]
				}

			}
, 			{
				"patchline" : 				{
					"destination" : [ "obj-193", 0 ],
					"source" : [ "obj-194", 0 ]
				}

			}
, 			{
				"patchline" : 				{
					"destination" : [ "obj-194", 0 ],
					"source" : [ "obj-204", 0 ]
				}

			}
, 			{
				"patchline" : 				{
					"destination" : [ "obj-204", 0 ],
					"source" : [ "obj-206", 1 ]
				}

			}
, 			{
				"patchline" : 				{
					"destination" : [ "obj-205", 0 ],
					"source" : [ "obj-206", 0 ]
				}

			}
, 			{
				"patchline" : 				{
					"destination" : [ "obj-212", 0 ],
					"source" : [ "obj-208", 0 ]
				}

			}
, 			{
				"patchline" : 				{
					"destination" : [ "obj-208", 0 ],
					"source" : [ "obj-209", 0 ]
				}

			}
, 			{
				"patchline" : 				{
					"destination" : [ "obj-206", 0 ],
					"source" : [ "obj-211", 0 ]
				}

			}
, 			{
				"patchline" : 				{
					"destination" : [ "obj-210", 0 ],
					"source" : [ "obj-212", 0 ]
				}

			}
, 			{
				"patchline" : 				{
					"destination" : [ "obj-57", 0 ],
					"source" : [ "obj-226", 0 ]
				}

			}
, 			{
				"patchline" : 				{
					"destination" : [ "obj-179", 0 ],
					"source" : [ "obj-235", 0 ]
				}

			}
, 			{
				"patchline" : 				{
					"destination" : [ "obj-1", 1 ],
					"source" : [ "obj-236", 0 ]
				}

			}
, 			{
				"patchline" : 				{
					"destination" : [ "obj-258", 0 ],
					"source" : [ "obj-247", 0 ]
				}

			}
, 			{
				"patchline" : 				{
					"destination" : [ "obj-300", 0 ],
					"midpoints" : [ 1460.5, 640.877949664444941, 1310.5, 640.877949664444941 ],
					"source" : [ "obj-258", 0 ]
				}

			}
, 			{
				"patchline" : 				{
					"destination" : [ "obj-70", 0 ],
					"source" : [ "obj-264", 0 ]
				}

			}
, 			{
				"patchline" : 				{
					"destination" : [ "obj-59", 0 ],
					"source" : [ "obj-266", 0 ]
				}

			}
, 			{
				"patchline" : 				{
					"destination" : [ "obj-47", 0 ],
					"source" : [ "obj-267", 0 ]
				}

			}
, 			{
				"patchline" : 				{
					"destination" : [ "obj-271", 0 ],
					"source" : [ "obj-268", 0 ]
				}

			}
, 			{
				"patchline" : 				{
					"destination" : [ "obj-272", 0 ],
					"midpoints" : [ 1377.5, 766.255971642466875, 1425.286077910579934, 766.255971642466875 ],
					"source" : [ "obj-268", 1 ]
				}

			}
, 			{
				"patchline" : 				{
					"destination" : [ "obj-273", 0 ],
					"midpoints" : [ 1444.5, 766.255971642466875, 1540.072155821159413, 766.255971642466875 ],
					"source" : [ "obj-268", 2 ]
				}

			}
, 			{
				"patchline" : 				{
					"destination" : [ "obj-135", 0 ],
					"source" : [ "obj-271", 0 ]
				}

			}
, 			{
				"patchline" : 				{
					"destination" : [ "obj-138", 0 ],
					"source" : [ "obj-272", 0 ]
				}

			}
, 			{
				"patchline" : 				{
					"destination" : [ "obj-122", 0 ],
					"source" : [ "obj-273", 0 ]
				}

			}
, 			{
				"patchline" : 				{
					"destination" : [ "obj-412", 0 ],
					"source" : [ "obj-299", 0 ]
				}

			}
, 			{
				"patchline" : 				{
					"destination" : [ "obj-268", 0 ],
					"order" : 1,
					"source" : [ "obj-300", 0 ]
				}

			}
, 			{
				"patchline" : 				{
					"destination" : [ "obj-304", 0 ],
					"midpoints" : [ 1310.5, 693.755971642466875, 1540.072155821159413, 693.755971642466875 ],
					"order" : 0,
					"source" : [ "obj-300", 0 ]
				}

			}
, 			{
				"patchline" : 				{
					"destination" : [ "obj-322", 0 ],
					"source" : [ "obj-304", 0 ]
				}

			}
, 			{
				"patchline" : 				{
					"destination" : [ "obj-476", 0 ],
					"source" : [ "obj-305", 0 ]
				}

			}
, 			{
				"patchline" : 				{
					"destination" : [ "obj-478", 0 ],
					"source" : [ "obj-305", 1 ]
				}

			}
, 			{
				"patchline" : 				{
					"destination" : [ "obj-480", 0 ],
					"source" : [ "obj-305", 2 ]
				}

			}
, 			{
				"patchline" : 				{
					"destination" : [ "obj-482", 0 ],
					"source" : [ "obj-305", 3 ]
				}

			}
, 			{
				"patchline" : 				{
					"destination" : [ "obj-144", 0 ],
					"midpoints" : [ 778.5, 653.307692307692378, 981.5, 653.307692307692378 ],
					"order" : 0,
					"source" : [ "obj-37", 0 ]
				}

			}
, 			{
				"patchline" : 				{
					"destination" : [ "obj-152", 0 ],
					"midpoints" : [ 778.5, 659.307692307692378, 778.5, 659.307692307692378 ],
					"order" : 2,
					"source" : [ "obj-37", 0 ]
				}

			}
, 			{
				"patchline" : 				{
					"destination" : [ "obj-154", 0 ],
					"midpoints" : [ 778.5, 653.307692307692378, 880.0, 653.307692307692378 ],
					"order" : 1,
					"source" : [ "obj-37", 0 ]
				}

			}
, 			{
				"patchline" : 				{
					"destination" : [ "obj-47", 0 ],
					"midpoints" : [ 1080.5, 846.807692307692378, 981.5, 846.807692307692378 ],
					"order" : 0,
					"source" : [ "obj-39", 0 ]
				}

			}
, 			{
				"patchline" : 				{
					"destination" : [ "obj-59", 0 ],
					"midpoints" : [ 1080.5, 837.230769230769511, 880.0, 837.230769230769511 ],
					"order" : 1,
					"source" : [ "obj-39", 0 ]
				}

			}
, 			{
				"patchline" : 				{
					"destination" : [ "obj-70", 0 ],
					"midpoints" : [ 1080.5, 828.307692307692378, 778.5, 828.307692307692378 ],
					"order" : 2,
					"source" : [ "obj-39", 0 ]
				}

			}
, 			{
				"patchline" : 				{
					"destination" : [ "obj-45", 0 ],
					"source" : [ "obj-40", 0 ]
				}

			}
, 			{
				"patchline" : 				{
					"destination" : [ "obj-300", 0 ],
					"source" : [ "obj-412", 0 ]
				}

			}
, 			{
				"patchline" : 				{
					"destination" : [ "obj-431", 0 ],
					"source" : [ "obj-447", 0 ]
				}

			}
, 			{
				"patchline" : 				{
					"destination" : [ "obj-476", 0 ],
					"order" : 3,
					"source" : [ "obj-45", 0 ]
				}

			}
, 			{
				"patchline" : 				{
					"destination" : [ "obj-478", 0 ],
					"order" : 2,
					"source" : [ "obj-45", 0 ]
				}

			}
, 			{
				"patchline" : 				{
					"destination" : [ "obj-480", 0 ],
					"order" : 1,
					"source" : [ "obj-45", 0 ]
				}

			}
, 			{
				"patchline" : 				{
					"destination" : [ "obj-482", 0 ],
					"order" : 0,
					"source" : [ "obj-45", 0 ]
				}

			}
, 			{
				"patchline" : 				{
					"destination" : [ "obj-466", 0 ],
					"source" : [ "obj-463", 0 ]
				}

			}
, 			{
				"patchline" : 				{
					"destination" : [ "obj-467", 0 ],
					"source" : [ "obj-464", 0 ]
				}

			}
, 			{
				"patchline" : 				{
					"destination" : [ "obj-468", 0 ],
					"source" : [ "obj-465", 0 ]
				}

			}
, 			{
				"patchline" : 				{
					"destination" : [ "obj-483", 0 ],
					"source" : [ "obj-475", 0 ]
				}

			}
, 			{
				"patchline" : 				{
					"destination" : [ "obj-447", 0 ],
					"source" : [ "obj-476", 0 ]
				}

			}
, 			{
				"patchline" : 				{
					"destination" : [ "obj-475", 0 ],
					"source" : [ "obj-476", 1 ]
				}

			}
, 			{
				"patchline" : 				{
					"destination" : [ "obj-486", 0 ],
					"source" : [ "obj-477", 0 ]
				}

			}
, 			{
				"patchline" : 				{
					"destination" : [ "obj-463", 0 ],
					"source" : [ "obj-478", 0 ]
				}

			}
, 			{
				"patchline" : 				{
					"destination" : [ "obj-477", 0 ],
					"source" : [ "obj-478", 1 ]
				}

			}
, 			{
				"patchline" : 				{
					"destination" : [ "obj-485", 0 ],
					"source" : [ "obj-479", 0 ]
				}

			}
, 			{
				"patchline" : 				{
					"destination" : [ "obj-464", 0 ],
					"source" : [ "obj-480", 0 ]
				}

			}
, 			{
				"patchline" : 				{
					"destination" : [ "obj-479", 0 ],
					"source" : [ "obj-480", 1 ]
				}

			}
, 			{
				"patchline" : 				{
					"destination" : [ "obj-484", 0 ],
					"source" : [ "obj-481", 0 ]
				}

			}
, 			{
				"patchline" : 				{
					"destination" : [ "obj-465", 0 ],
					"source" : [ "obj-482", 0 ]
				}

			}
, 			{
				"patchline" : 				{
					"destination" : [ "obj-481", 0 ],
					"source" : [ "obj-482", 1 ]
				}

			}
, 			{
				"patchline" : 				{
					"destination" : [ "obj-10", 0 ],
					"source" : [ "obj-8", 2 ]
				}

			}
, 			{
				"patchline" : 				{
					"destination" : [ "obj-5", 1 ],
					"source" : [ "obj-8", 1 ]
				}

			}
, 			{
				"patchline" : 				{
					"destination" : [ "obj-86", 0 ],
					"source" : [ "obj-84", 0 ]
				}

			}
, 			{
				"patchline" : 				{
					"destination" : [ "obj-152", 0 ],
					"source" : [ "obj-86", 0 ]
				}

			}
 ],
		"dependency_cache" : [ 			{
				"name" : "somax.newplayer.maxpat",
				"bootpath" : "~/Documents/Max 8/Packages/Somax2/abstractions/somax",
				"patcherrelativepath" : ".",
				"type" : "JSON",
				"implicit" : 1
			}
, 			{
				"name" : "somax.atom.maxpat",
				"bootpath" : "~/Documents/Max 8/Packages/Somax2/abstractions/somax",
				"patcherrelativepath" : ".",
				"type" : "JSON",
				"implicit" : 1
			}
, 			{
				"name" : "somax.corpusview.maxpat",
				"bootpath" : "~/Documents/Max 8/Packages/Somax2/abstractions/somax",
				"patcherrelativepath" : ".",
				"type" : "JSON",
				"implicit" : 1
			}
, 			{
				"name" : "OpenSoundControl.mxo",
				"type" : "iLaX"
			}
, 			{
				"name" : "OSC-route.mxo",
				"type" : "iLaX"
			}
 ],
		"autosave" : 0,
		"boxgroups" : [ 			{
				"boxes" : [ "obj-134", "obj-137", "obj-356", "obj-340" ]
			}
, 			{
				"boxes" : [ "obj-144", "obj-162" ]
			}
, 			{
				"boxes" : [ "obj-154", "obj-128" ]
			}
, 			{
				"boxes" : [ "obj-152", "obj-86" ]
			}
, 			{
				"boxes" : [ "obj-211", "obj-205", "obj-206", "obj-213", "obj-226", "obj-235", "obj-175", "obj-177", "obj-179", "obj-184", "obj-193", "obj-194", "obj-204", "obj-208", "obj-209", "obj-212", "obj-195", "obj-57", "obj-210", "obj-185", "obj-187", "obj-188" ]
			}
, 			{
				"boxes" : [ "obj-491", "obj-467", "obj-468", "obj-489", "obj-484", "obj-485", "obj-466", "obj-486", "obj-488", "obj-240", "obj-431", "obj-483", "obj-487", "obj-481", "obj-482", "obj-479", "obj-480", "obj-477", "obj-478", "obj-475", "obj-476", "obj-45", "obj-40", "obj-465", "obj-464", "obj-463", "obj-447", "obj-305" ]
			}
 ],
		"styles" : [ 			{
				"name" : "dUG Yello 01-1",
				"default" : 				{
					"fontface" : [ 1 ],
					"bgcolor" : [ 1.0, 0.941176, 0.803922, 1.0 ],
					"fontsize" : [ 10.0 ],
					"textcolor_inverse" : [ 0.0, 0.0, 0.0, 1.0 ],
					"bgfillcolor" : 					{
						"type" : "gradient",
						"color" : [ 0.290196, 0.309804, 0.301961, 1.0 ],
						"color1" : [ 0.94902, 0.992157, 1.0, 1.0 ],
						"color2" : [ 0.862745, 0.870588, 0.878431, 1.0 ],
						"angle" : 270.0,
						"proportion" : 0.39,
						"autogradient" : 0
					}

				}
,
				"newobj" : 				{
					"fontface" : [ 1 ],
					"bgcolor" : [ 1.0, 0.941176, 0.803922, 1.0 ],
					"fontsize" : [ 10.0 ],
					"textcolor_inverse" : [ 0.0, 0.0, 0.0, 1.0 ]
				}
,
				"message" : 				{
					"fontface" : [ 1 ],
					"fontsize" : [ 10.0 ],
					"textcolor_inverse" : [ 0.0, 0.0, 0.0, 1.0 ],
					"bgfillcolor" : 					{
						"type" : "gradient",
						"color" : [ 0.290196, 0.309804, 0.301961, 1.0 ],
						"color1" : [ 0.94902, 0.992157, 1.0, 1.0 ],
						"color2" : [ 0.862745, 0.870588, 0.878431, 1.0 ],
						"angle" : 270.0,
						"proportion" : 0.39,
						"autogradient" : 0
					}

				}
,
				"button" : 				{
					"bgcolor" : [ 1.0, 0.941176, 0.803922, 1.0 ]
				}
,
				"toggle" : 				{
					"bgcolor" : [ 1.0, 0.941176, 0.803922, 1.0 ]
				}
,
				"parentstyle" : "",
				"multi" : 0
			}
 ]
	}

}
