{
	"patcher" : 	{
		"fileversion" : 1,
		"appversion" : 		{
			"major" : 8,
			"minor" : 5,
			"revision" : 3,
			"architecture" : "x64",
			"modernui" : 1
		}
,
		"classnamespace" : "box",
		"rect" : [ 107.0, 102.0, 1340.0, 800.0 ],
		"openrect" : [ 0.0, 0.0, 1340.0, 800.0 ],
		"bglocked" : 0,
		"openinpresentation" : 0,
		"default_fontsize" : 14.0,
		"default_fontface" : 0,
		"default_fontname" : "Monaco",
		"gridonopen" : 1,
		"gridsize" : [ 15.0, 15.0 ],
		"gridsnaponopen" : 1,
		"objectsnaponopen" : 1,
		"statusbarvisible" : 2,
		"toolbarvisible" : 1,
		"lefttoolbarpinned" : 0,
		"toptoolbarpinned" : 0,
		"righttoolbarpinned" : 0,
		"bottomtoolbarpinned" : 0,
		"toolbars_unpinned_last_save" : 0,
		"tallnewobj" : 0,
		"boxanimatetime" : 200,
		"enablehscroll" : 1,
		"enablevscroll" : 1,
		"devicewidth" : 0.0,
		"description" : "",
		"digest" : "",
		"tags" : "",
		"style" : "IRCAM",
		"subpatcher_template" : "monaco_template",
		"showrootpatcherontab" : 0,
		"showontab" : 0,
		"assistshowspatchername" : 0,
		"boxes" : [ 			{
				"box" : 				{
					"id" : "obj-8",
					"linecount" : 2,
					"maxclass" : "newobj",
					"numinlets" : 0,
					"numoutlets" : 0,
					"patcher" : 					{
						"fileversion" : 1,
						"appversion" : 						{
							"major" : 8,
							"minor" : 5,
							"revision" : 3,
							"architecture" : "x64",
							"modernui" : 1
						}
,
						"classnamespace" : "box",
						"rect" : [ 107.0, 128.0, 1340.0, 774.0 ],
						"bglocked" : 0,
						"openinpresentation" : 0,
						"default_fontsize" : 12.0,
						"default_fontface" : 0,
						"default_fontname" : "Arial",
						"gridonopen" : 1,
						"gridsize" : [ 15.0, 15.0 ],
						"gridsnaponopen" : 1,
						"objectsnaponopen" : 1,
						"statusbarvisible" : 2,
						"toolbarvisible" : 1,
						"lefttoolbarpinned" : 0,
						"toptoolbarpinned" : 0,
						"righttoolbarpinned" : 0,
						"bottomtoolbarpinned" : 0,
						"toolbars_unpinned_last_save" : 0,
						"tallnewobj" : 0,
						"boxanimatetime" : 200,
						"enablehscroll" : 1,
						"enablevscroll" : 1,
						"devicewidth" : 0.0,
						"description" : "",
						"digest" : "",
						"tags" : "",
						"style" : "",
						"subpatcher_template" : "",
						"showontab" : 1,
						"assistshowspatchername" : 0,
						"boxes" : [ 							{
								"box" : 								{
									"checkedcolor" : [ 0.482352941176471, 0.847058823529412, 0.36078431372549, 1.0 ],
									"id" : "obj-70",
									"maxclass" : "toggle",
									"numinlets" : 1,
									"numoutlets" : 1,
									"outlettype" : [ "int" ],
									"parameter_enable" : 0,
									"patching_rect" : [ 209.333333333333314, 540.95832873049676, 24.0, 24.0 ]
								}

							}
, 							{
								"box" : 								{
									"id" : "obj-65",
									"maxclass" : "toggle",
									"numinlets" : 1,
									"numoutlets" : 1,
									"outlettype" : [ "int" ],
									"parameter_enable" : 0,
									"patching_rect" : [ 340.0, 445.624985286404922, 24.0, 24.0 ]
								}

							}
, 							{
								"box" : 								{
									"fontface" : 1,
									"id" : "obj-42",
									"maxclass" : "message",
									"numinlets" : 2,
									"numoutlets" : 1,
									"outlettype" : [ "" ],
									"patching_rect" : [ 250.0, 540.958329000000049, 150.0, 22.0 ],
									"text" : "1 ready"
								}

							}
, 							{
								"box" : 								{
									"color" : [ 0.1421581805, 0.6723723412, 0.2530546784, 1.0 ],
									"fontsize" : 10.0,
									"hidden" : 1,
									"id" : "obj-54",
									"maxclass" : "newobj",
									"numinlets" : 1,
									"numoutlets" : 0,
									"patching_rect" : [ 35.0, 501.95832873049676, 78.0, 20.0 ],
									"text" : "s server_param"
								}

							}
, 							{
								"box" : 								{
									"color" : [ 0.1421581805, 0.6723723412, 0.2530546784, 1.0 ],
									"fontsize" : 10.0,
									"hidden" : 1,
									"id" : "obj-2",
									"maxclass" : "newobj",
									"numinlets" : 1,
									"numoutlets" : 0,
									"patching_rect" : [ 190.166666666666629, 613.45832873049676, 87.0, 20.0 ],
									"text" : "s server_status_2"
								}

							}
, 							{
								"box" : 								{
									"bubble" : 1,
									"bubbleside" : 3,
									"fontface" : 0,
									"fontsize" : 12.0,
									"id" : "obj-33",
									"linecount" : 3,
									"maxclass" : "comment",
									"numinlets" : 1,
									"numoutlets" : 0,
									"patching_rect" : [ 83.5, 527.45832873049676, 123.0, 51.0 ],
									"text" : "The server will be auto-initialized when created"
								}

							}
, 							{
								"box" : 								{
									"id" : "obj-87",
									"linecount" : 2,
									"maxclass" : "comment",
									"numinlets" : 1,
									"numoutlets" : 0,
									"patching_rect" : [ 205.5, 569.499995397163275, 150.0, 33.0 ],
									"text" : "status outlet can be used to see status of server"
								}

							}
, 							{
								"box" : 								{
									"bubble" : 1,
									"fontface" : 0,
									"fontsize" : 12.0,
									"id" : "obj-180",
									"maxclass" : "comment",
									"numinlets" : 1,
									"numoutlets" : 0,
									"patching_rect" : [ 369.291666666666629, 445.624985286404922, 86.0, 24.0 ],
									"text" : "Run Server"
								}

							}
, 							{
								"box" : 								{
									"bubble" : 1,
									"fontsize" : 12.0,
									"id" : "obj-50",
									"maxclass" : "comment",
									"numinlets" : 1,
									"numoutlets" : 0,
									"patching_rect" : [ 228.333333333333371, 411.874992273427324, 170.0, 24.0 ],
									"text" : "initialize all existing players"
								}

							}
, 							{
								"box" : 								{
									"bgcolor" : [ 0.2, 0.2, 0.2, 1.0 ],
									"bgcolor2" : [ 0.2, 0.2, 0.2, 1 ],
									"bgfillcolor_autogradient" : 0.0,
									"bgfillcolor_color" : [ 0.2, 0.2, 0.2, 1 ],
									"bgfillcolor_color1" : [ 0.2, 0.2, 0.2, 1.0 ],
									"bgfillcolor_color2" : [ 0.2, 0.2, 0.2, 1 ],
									"bgfillcolor_type" : "gradient",
									"gradient" : 1,
									"id" : "obj-112",
									"maxclass" : "message",
									"numinlets" : 2,
									"numoutlets" : 1,
									"outlettype" : [ "" ],
									"patching_rect" : [ 133.0, 413.874992273427324, 90.0, 22.0 ],
									"text" : "initializeplayers"
								}

							}
, 							{
								"box" : 								{
									"color" : [ 1.0, 0.658823529411765, 0.149019607843137, 1.0 ],
									"id" : "obj-15",
									"maxclass" : "newobj",
									"numinlets" : 1,
									"numoutlets" : 3,
									"outlettype" : [ "", "", "" ],
									"patching_rect" : [ 133.0, 491.95832873049676, 171.666666666666629, 22.0 ],
									"text" : "somax.server"
								}

							}
, 							{
								"box" : 								{
									"id" : "obj-101",
									"linecount" : 13,
									"maxclass" : "comment",
									"numinlets" : 1,
									"numoutlets" : 0,
									"patching_rect" : [ 28.0, 79.166663542930593, 472.0, 181.0 ],
									"text" : "In order to better control the interaction with the user, the Player has a wide set of parameters, that helps to determine its behaviour.\nIn this tutorial we will introduce a small set of these really useful parameters that will let you co-improvise in a meaningful way.\n\nTo have a better understanding of what's going on, let's constantly monitor the index of output, corresponding to the event of the corpus currently output by the Player. \nThis index determines the position of the played event inside the corpus, and thus could give you hints on the temporal direction of the interaction.\n\nFurthermore, every time the Player finds a match between its known corpus and the incoming influences, these matches will be catalogued in different layers, shaping the harmonic or melodic direction of the improvisation."
								}

							}
, 							{
								"box" : 								{
									"id" : "obj-99",
									"linecount" : 2,
									"maxclass" : "comment",
									"numinlets" : 1,
									"numoutlets" : 0,
									"patching_rect" : [ 754.174999999999727, 722.0137523611387, 61.0, 33.0 ],
									"text" : "harmonic \ninternal"
								}

							}
, 							{
								"box" : 								{
									"id" : "obj-98",
									"linecount" : 2,
									"maxclass" : "comment",
									"numinlets" : 1,
									"numoutlets" : 0,
									"patching_rect" : [ 874.874999999999773, 722.0137523611387, 58.0, 33.0 ],
									"text" : "harmonic\nexternal"
								}

							}
, 							{
								"box" : 								{
									"id" : "obj-94",
									"linecount" : 2,
									"maxclass" : "comment",
									"numinlets" : 1,
									"numoutlets" : 0,
									"patching_rect" : [ 814.574999999999818, 722.0137523611387, 53.0, 33.0 ],
									"text" : "melodic \nexternal"
								}

							}
, 							{
								"box" : 								{
									"id" : "obj-93",
									"linecount" : 2,
									"maxclass" : "comment",
									"numinlets" : 1,
									"numoutlets" : 0,
									"patching_rect" : [ 692.462728333332961, 722.0137523611387, 58.0, 33.0 ],
									"text" : "melodic\ninternal"
								}

							}
, 							{
								"box" : 								{
									"id" : "obj-92",
									"maxclass" : "comment",
									"numinlets" : 1,
									"numoutlets" : 0,
									"patching_rect" : [ 630.374999999999773, 722.0137523611387, 31.0, 20.0 ],
									"text" : "total"
								}

							}
, 							{
								"box" : 								{
									"format" : 6,
									"id" : "obj-388",
									"maxclass" : "flonum",
									"minimum" : 0.0,
									"numinlets" : 1,
									"numoutlets" : 2,
									"outlettype" : [ "", "bang" ],
									"parameter_enable" : 0,
									"patching_rect" : [ 644.201155833333132, 367.95832873049676, 50.0, 22.0 ]
								}

							}
, 							{
								"box" : 								{
									"id" : "obj-380",
									"maxclass" : "message",
									"numinlets" : 2,
									"numoutlets" : 1,
									"outlettype" : [ "" ],
									"patching_rect" : [ 644.201155833333132, 399.958319732358234, 76.0, 22.0 ],
									"text" : "continuity $1"
								}

							}
, 							{
								"box" : 								{
									"id" : "obj-72",
									"linecount" : 7,
									"maxclass" : "comment",
									"numinlets" : 1,
									"numoutlets" : 0,
									"patching_rect" : [ 747.77083333333303, 227.708321743474301, 299.0, 100.0 ],
									"text" : "In reactive mode, output will be triggered whenever the Player receives an influence as input (note-by-note)\nIn continuous mode, the Player will independently generate its output, even in the absence of external influences. However, when a new influence arrives, the Player will react to it."
								}

							}
, 							{
								"box" : 								{
									"bubble" : 1,
									"bubbleside" : 2,
									"id" : "obj-139",
									"maxclass" : "comment",
									"numinlets" : 1,
									"numoutlets" : 0,
									"patching_rect" : [ 781.374999999999773, 592.985833801750232, 207.0, 39.0 ],
									"text" : "and the number of matches per layer"
								}

							}
, 							{
								"box" : 								{
									"id" : "obj-387",
									"maxclass" : "newobj",
									"numinlets" : 1,
									"numoutlets" : 3,
									"outlettype" : [ "", "", "" ],
									"patching_rect" : [ 633.374999999999773, 659.944167135083489, 51.0, 22.0 ],
									"text" : "unjoin 2"
								}

							}
, 							{
								"box" : 								{
									"fontface" : 1,
									"id" : "obj-386",
									"maxclass" : "number",
									"numinlets" : 1,
									"numoutlets" : 2,
									"outlettype" : [ "", "bang" ],
									"parameter_enable" : 0,
									"patching_rect" : [ 633.374999999999773, 694.944167135083489, 50.0, 22.0 ],
									"triangle" : 0
								}

							}
, 							{
								"box" : 								{
									"fontface" : 1,
									"id" : "obj-384",
									"maxclass" : "number",
									"numinlets" : 1,
									"numoutlets" : 2,
									"outlettype" : [ "", "bang" ],
									"parameter_enable" : 0,
									"patching_rect" : [ 754.174999999999727, 694.944167135083489, 50.0, 22.0 ],
									"textcolor" : [ 0.827450980392157, 0.423529411764706, 0.996078431372549, 1.0 ],
									"triangle" : 0
								}

							}
, 							{
								"box" : 								{
									"fontface" : 1,
									"id" : "obj-383",
									"maxclass" : "number",
									"numinlets" : 1,
									"numoutlets" : 2,
									"outlettype" : [ "", "bang" ],
									"parameter_enable" : 0,
									"patching_rect" : [ 874.874999999999773, 694.944167135083489, 50.0, 22.0 ],
									"textcolor" : [ 0.423529411764706, 0.494117647058824, 0.996078431372549, 1.0 ],
									"triangle" : 0
								}

							}
, 							{
								"box" : 								{
									"fontface" : 1,
									"id" : "obj-382",
									"maxclass" : "number",
									"numinlets" : 1,
									"numoutlets" : 2,
									"outlettype" : [ "", "bang" ],
									"parameter_enable" : 0,
									"patching_rect" : [ 814.574999999999818, 694.944167135083489, 50.0, 22.0 ],
									"textcolor" : [ 0.996078431372549, 0.423529411764706, 0.423529411764706, 1.0 ],
									"triangle" : 0
								}

							}
, 							{
								"box" : 								{
									"fontface" : 1,
									"id" : "obj-381",
									"maxclass" : "number",
									"numinlets" : 1,
									"numoutlets" : 2,
									"outlettype" : [ "", "bang" ],
									"parameter_enable" : 0,
									"patching_rect" : [ 693.774999999999864, 694.944167135083489, 50.0, 22.0 ],
									"textcolor" : [ 0.482352941176471, 0.847058823529412, 0.36078431372549, 1.0 ],
									"triangle" : 0
								}

							}
, 							{
								"box" : 								{
									"id" : "obj-371",
									"maxclass" : "newobj",
									"numinlets" : 6,
									"numoutlets" : 6,
									"outlettype" : [ "", "", "", "", "", "" ],
									"patching_rect" : [ 633.374999999999773, 627.222080169045739, 321.0, 22.0 ],
									"text" : "route total self selfharmonic melodic harmonic"
								}

							}
, 							{
								"box" : 								{
									"id" : "obj-53",
									"maxclass" : "message",
									"numinlets" : 2,
									"numoutlets" : 1,
									"outlettype" : [ "" ],
									"patching_rect" : [ 655.064697499999284, 266.708321743474301, 67.0, 22.0 ],
									"text" : "continuous"
								}

							}
, 							{
								"box" : 								{
									"fontface" : 0,
									"fontsize" : 12.0,
									"id" : "obj-345",
									"maxclass" : "message",
									"numinlets" : 2,
									"numoutlets" : 1,
									"outlettype" : [ "" ],
									"patching_rect" : [ 599.79580333600552, 266.708321743474301, 51.0, 22.0 ],
									"text" : "reactive"
								}

							}
, 							{
								"box" : 								{
									"id" : "obj-335",
									"maxclass" : "message",
									"numinlets" : 2,
									"numoutlets" : 1,
									"outlettype" : [ "" ],
									"patching_rect" : [ 599.79580333600552, 299.708321743474301, 55.0, 22.0 ],
									"text" : "mode $1"
								}

							}
, 							{
								"box" : 								{
									"id" : "obj-52",
									"maxclass" : "newobj",
									"numinlets" : 2,
									"numoutlets" : 1,
									"outlettype" : [ "" ],
									"patching_rect" : [ 1074.5, 157.0, 37.0, 22.0 ],
									"text" : "join 2"
								}

							}
, 							{
								"box" : 								{
									"id" : "obj-26",
									"linecount" : 4,
									"maxclass" : "comment",
									"numinlets" : 1,
									"numoutlets" : 0,
									"patching_rect" : [ 1214.0, 57.0, 101.0, 60.0 ],
									"text" : "Use this kslider or any MIDI controller of your choice"
								}

							}
, 							{
								"box" : 								{
									"fontname" : "Arial",
									"fontsize" : 13.0,
									"hidden" : 1,
									"id" : "obj-39",
									"maxclass" : "newobj",
									"numinlets" : 2,
									"numoutlets" : 1,
									"outlettype" : [ "" ],
									"patching_rect" : [ 909.27083333333303, 7.0, 55.0, 23.0 ],
									"text" : "midiinfo"
								}

							}
, 							{
								"box" : 								{
									"fontface" : 0,
									"fontname" : "Arial",
									"fontsize" : 12.0,
									"id" : "obj-44",
									"items" : [ "to Max 1", ",", "to Max 2" ],
									"maxclass" : "umenu",
									"numinlets" : 1,
									"numoutlets" : 3,
									"outlettype" : [ "int", "", "" ],
									"parameter_enable" : 0,
									"patching_rect" : [ 1074.5, 31.0, 150.0, 22.0 ]
								}

							}
, 							{
								"box" : 								{
									"hidden" : 1,
									"id" : "obj-34",
									"maxclass" : "newobj",
									"numinlets" : 1,
									"numoutlets" : 1,
									"outlettype" : [ "" ],
									"patching_rect" : [ 974.77083333333303, 7.0, 72.0, 22.0 ],
									"style" : "default",
									"text" : "loadmess 0"
								}

							}
, 							{
								"box" : 								{
									"fontname" : "Arial",
									"fontsize" : 12.0,
									"hidden" : 1,
									"id" : "obj-47",
									"maxclass" : "newobj",
									"numinlets" : 1,
									"numoutlets" : 3,
									"outlettype" : [ "int", "int", "int" ],
									"patching_rect" : [ 1005.77083333333303, 33.0, 41.0, 22.0 ],
									"text" : "notein"
								}

							}
, 							{
								"box" : 								{
									"id" : "obj-49",
									"maxclass" : "newobj",
									"numinlets" : 3,
									"numoutlets" : 2,
									"outlettype" : [ "float", "float" ],
									"patching_rect" : [ 1074.5, 120.5, 150.0, 22.0 ],
									"text" : "makenote 127 500"
								}

							}
, 							{
								"box" : 								{
									"id" : "obj-51",
									"maxclass" : "kslider",
									"numinlets" : 2,
									"numoutlets" : 2,
									"offset" : 48,
									"outlettype" : [ "int", "int" ],
									"parameter_enable" : 0,
									"patching_rect" : [ 1074.5, 57.0, 132.0, 53.0 ],
									"range" : 18
								}

							}
, 							{
								"box" : 								{
									"bubble" : 1,
									"id" : "obj-81",
									"linecount" : 2,
									"maxclass" : "comment",
									"numinlets" : 1,
									"numoutlets" : 0,
									"patching_rect" : [ 630.374999999999773, 578.430415043448193, 130.0, 37.0 ],
									"text" : "Monitor the current index of output "
								}

							}
, 							{
								"box" : 								{
									"id" : "obj-78",
									"maxclass" : "message",
									"numinlets" : 2,
									"numoutlets" : 1,
									"outlettype" : [ "" ],
									"patching_rect" : [ 554.874999999999773, 585.930415043448306, 50.0, 22.0 ],
									"text" : "55"
								}

							}
, 							{
								"box" : 								{
									"id" : "obj-9",
									"maxclass" : "newobj",
									"numinlets" : 2,
									"numoutlets" : 2,
									"outlettype" : [ "", "" ],
									"patching_rect" : [ 585.874999999999773, 557.930415043448306, 51.0, 22.0 ],
									"text" : "zl.mth 0"
								}

							}
, 							{
								"box" : 								{
									"id" : "obj-29",
									"maxclass" : "newobj",
									"numinlets" : 3,
									"numoutlets" : 3,
									"outlettype" : [ "", "", "" ],
									"patching_rect" : [ 585.874999999999773, 531.930415043448306, 114.0, 22.0 ],
									"text" : "route state matches"
								}

							}
, 							{
								"box" : 								{
									"fontname" : "Arial",
									"fontsize" : 12.0,
									"hidden" : 1,
									"id" : "obj-8",
									"maxclass" : "newobj",
									"numinlets" : 1,
									"numoutlets" : 0,
									"patching_rect" : [ 453.0, 27.0, 56.0, 22.0 ],
									"text" : "onecopy"
								}

							}
, 							{
								"box" : 								{
									"bubble" : 1,
									"bubbleside" : 0,
									"id" : "obj-41",
									"linecount" : 2,
									"maxclass" : "comment",
									"numinlets" : 1,
									"numoutlets" : 0,
									"patching_rect" : [ 621.462728333332961, 149.833327085861185, 121.0, 52.0 ],
									"text" : "Listen to the original corpus audio file"
								}

							}
, 							{
								"box" : 								{
									"id" : "obj-37",
									"maxclass" : "newobj",
									"numinlets" : 1,
									"numoutlets" : 0,
									"patcher" : 									{
										"fileversion" : 1,
										"appversion" : 										{
											"major" : 8,
											"minor" : 5,
											"revision" : 3,
											"architecture" : "x64",
											"modernui" : 1
										}
,
										"classnamespace" : "box",
										"rect" : [ 513.0, 262.0, 737.0, 632.0 ],
										"bglocked" : 0,
										"openinpresentation" : 0,
										"default_fontsize" : 12.0,
										"default_fontface" : 0,
										"default_fontname" : "Arial",
										"gridonopen" : 1,
										"gridsize" : [ 15.0, 15.0 ],
										"gridsnaponopen" : 1,
										"objectsnaponopen" : 1,
										"statusbarvisible" : 2,
										"toolbarvisible" : 1,
										"lefttoolbarpinned" : 0,
										"toptoolbarpinned" : 0,
										"righttoolbarpinned" : 0,
										"bottomtoolbarpinned" : 0,
										"toolbars_unpinned_last_save" : 0,
										"tallnewobj" : 0,
										"boxanimatetime" : 200,
										"enablehscroll" : 1,
										"enablevscroll" : 1,
										"devicewidth" : 0.0,
										"description" : "",
										"digest" : "",
										"tags" : "",
										"style" : "",
										"subpatcher_template" : "",
										"assistshowspatchername" : 0,
										"boxes" : [ 											{
												"box" : 												{
													"id" : "obj-28",
													"maxclass" : "message",
													"numinlets" : 2,
													"numoutlets" : 1,
													"outlettype" : [ "" ],
													"patching_rect" : [ 46.0, 400.0, 63.0, 22.0 ],
													"text" : "symbol $1"
												}

											}
, 											{
												"box" : 												{
													"id" : "obj-19",
													"maxclass" : "message",
													"numinlets" : 2,
													"numoutlets" : 1,
													"outlettype" : [ "" ],
													"patching_rect" : [ 123.0, 494.0, 55.0, 22.0 ],
													"text" : "prefix $1"
												}

											}
, 											{
												"box" : 												{
													"autopopulate" : 1,
													"id" : "obj-16",
													"items" : [ "Bach_Invention_1.gz", ",", "Carine_Intuition.gz", ",", "Debussy_Preludes.gz", ",", "Debussy_String_Quartet.gz", ",", "Dutilleux_Sonata_3.gz", ",", "Fabbrizio2c.pickle", ",", "Fabbrizio2c.wav", ",", "Joelle.pickle", ",", "Joelle.wav", ",", "Ligeti_Etudes.gz", ",", "Marco_guitar.pickle", ",", "Marco_guitar.wav", ",", "Palestrina_Missa_Papae.gz", ",", "Ravel_Miroirs.gz", ",", "Ten_Jazz_Standards.gz" ],
													"maxclass" : "umenu",
													"numinlets" : 1,
													"numoutlets" : 3,
													"outlettype" : [ "int", "", "" ],
													"parameter_enable" : 0,
													"patching_rect" : [ 46.0, 531.0, 100.0, 22.0 ],
													"prefix" : "~/Documents/GitHub/Somax2/max/somax/corpus/"
												}

											}
, 											{
												"box" : 												{
													"id" : "obj-11",
													"maxclass" : "newobj",
													"numinlets" : 1,
													"numoutlets" : 5,
													"outlettype" : [ "", "", "", "", "" ],
													"patching_rect" : [ 46.0, 369.0, 221.0, 22.0 ],
													"text" : "regexp pickle @substitute \\\"wav"
												}

											}
, 											{
												"box" : 												{
													"id" : "obj-10",
													"maxclass" : "newobj",
													"numinlets" : 2,
													"numoutlets" : 0,
													"patching_rect" : [ 339.0, 326.0, 101.75, 22.0 ],
													"text" : "dac~ 1 2"
												}

											}
, 											{
												"box" : 												{
													"id" : "obj-8",
													"maxclass" : "newobj",
													"numinlets" : 2,
													"numoutlets" : 2,
													"outlettype" : [ "", "" ],
													"patching_rect" : [ 46.0, 340.0, 100.0, 22.0 ],
													"text" : "route corpus"
												}

											}
, 											{
												"box" : 												{
													"id" : "obj-5",
													"maxclass" : "newobj",
													"numinlets" : 2,
													"numoutlets" : 2,
													"outlettype" : [ "", "" ],
													"patching_rect" : [ 123.0, 463.0, 99.0, 22.0 ],
													"text" : "route corpuspath"
												}

											}
, 											{
												"box" : 												{
													"color" : [ 0.870588235294118, 0.027450980392157, 0.027450980392157, 1.0 ],
													"id" : "obj-4",
													"maxclass" : "newobj",
													"numinlets" : 0,
													"numoutlets" : 1,
													"outlettype" : [ "" ],
													"patching_rect" : [ 123.0, 431.0, 90.0, 22.0 ],
													"text" : "r server_param"
												}

											}
, 											{
												"box" : 												{
													"color" : [ 0.1421581805, 0.6723723412, 0.2530546784, 1.0 ],
													"id" : "obj-3",
													"maxclass" : "newobj",
													"numinlets" : 1,
													"numoutlets" : 0,
													"patching_rect" : [ 192.5, 159.0, 90.0, 22.0 ],
													"text" : "s somax.server"
												}

											}
, 											{
												"box" : 												{
													"id" : "obj-6",
													"maxclass" : "message",
													"numinlets" : 2,
													"numoutlets" : 1,
													"outlettype" : [ "" ],
													"patching_rect" : [ 192.5, 130.0, 68.0, 22.0 ],
													"text" : "corpuspath"
												}

											}
, 											{
												"box" : 												{
													"id" : "obj-47",
													"maxclass" : "newobj",
													"numinlets" : 1,
													"numoutlets" : 3,
													"outlettype" : [ "", "bang", "clear" ],
													"patching_rect" : [ 46.0, 94.0, 312.0, 22.0 ],
													"text" : "t s b clear"
												}

											}
, 											{
												"box" : 												{
													"id" : "obj-44",
													"maxclass" : "message",
													"numinlets" : 2,
													"numoutlets" : 1,
													"outlettype" : [ "" ],
													"patching_rect" : [ 86.5, 571.0, 65.0, 22.0 ],
													"text" : "append $1"
												}

											}
, 											{
												"box" : 												{
													"basictuning" : 440,
													"clipheight" : 81.0,
													"data" : 													{
														"clips" : [ 															{
																"absolutepath" : "Macintosh HD:/Users/marcofiorini/Documents/GitHub/Somax2/max/somax/corpus/Joelle.wav",
																"filename" : "Joelle.wav",
																"filekind" : "audiofile",
																"id" : "u392012589",
																"loop" : 0,
																"content_state" : 																{

																}

															}
 ]
													}
,
													"followglobaltempo" : 0,
													"formantcorrection" : 0,
													"id" : "obj-2",
													"maxclass" : "playlist~",
													"mode" : "basic",
													"numinlets" : 1,
													"numoutlets" : 5,
													"originallength" : [ 0.0, "ticks" ],
													"originaltempo" : 120.0,
													"outlettype" : [ "signal", "signal", "signal", "", "dictionary" ],
													"parameter_enable" : 0,
													"patching_rect" : [ 339.0, 221.0, 350.0, 82.0 ],
													"pitchcorrection" : 0,
													"quality" : "basic",
													"timestretch" : [ 0 ]
												}

											}
, 											{
												"box" : 												{
													"comment" : "",
													"id" : "obj-1",
													"index" : 1,
													"maxclass" : "inlet",
													"numinlets" : 0,
													"numoutlets" : 1,
													"outlettype" : [ "" ],
													"patching_rect" : [ 46.0, 20.0, 30.0, 30.0 ]
												}

											}
 ],
										"lines" : [ 											{
												"patchline" : 												{
													"destination" : [ "obj-47", 0 ],
													"source" : [ "obj-1", 0 ]
												}

											}
, 											{
												"patchline" : 												{
													"destination" : [ "obj-28", 0 ],
													"source" : [ "obj-11", 0 ]
												}

											}
, 											{
												"patchline" : 												{
													"destination" : [ "obj-44", 0 ],
													"source" : [ "obj-16", 1 ]
												}

											}
, 											{
												"patchline" : 												{
													"destination" : [ "obj-16", 0 ],
													"midpoints" : [ 132.5, 523.0, 55.5, 523.0 ],
													"source" : [ "obj-19", 0 ]
												}

											}
, 											{
												"patchline" : 												{
													"destination" : [ "obj-10", 1 ],
													"source" : [ "obj-2", 1 ]
												}

											}
, 											{
												"patchline" : 												{
													"destination" : [ "obj-10", 0 ],
													"source" : [ "obj-2", 0 ]
												}

											}
, 											{
												"patchline" : 												{
													"destination" : [ "obj-16", 0 ],
													"source" : [ "obj-28", 0 ]
												}

											}
, 											{
												"patchline" : 												{
													"destination" : [ "obj-5", 0 ],
													"source" : [ "obj-4", 0 ]
												}

											}
, 											{
												"patchline" : 												{
													"destination" : [ "obj-2", 0 ],
													"midpoints" : [ 96.0, 603.0, 320.25, 603.0, 320.25, 210.0, 348.5, 210.0 ],
													"source" : [ "obj-44", 0 ]
												}

											}
, 											{
												"patchline" : 												{
													"destination" : [ "obj-2", 0 ],
													"source" : [ "obj-47", 2 ]
												}

											}
, 											{
												"patchline" : 												{
													"destination" : [ "obj-6", 0 ],
													"source" : [ "obj-47", 1 ]
												}

											}
, 											{
												"patchline" : 												{
													"destination" : [ "obj-8", 0 ],
													"source" : [ "obj-47", 0 ]
												}

											}
, 											{
												"patchline" : 												{
													"destination" : [ "obj-19", 0 ],
													"source" : [ "obj-5", 0 ]
												}

											}
, 											{
												"patchline" : 												{
													"destination" : [ "obj-3", 0 ],
													"source" : [ "obj-6", 0 ]
												}

											}
, 											{
												"patchline" : 												{
													"destination" : [ "obj-11", 0 ],
													"source" : [ "obj-8", 0 ]
												}

											}
 ]
									}
,
									"patching_rect" : [ 590.462728333332961, 131.333327085861185, 100.0, 22.0 ],
									"saved_object_attributes" : 									{
										"description" : "",
										"digest" : "",
										"globalpatchername" : "",
										"tags" : ""
									}
,
									"text" : "p listen_corpus"
								}

							}
, 							{
								"box" : 								{
									"id" : "obj-82",
									"local" : 1,
									"maxclass" : "ezdac~",
									"numinlets" : 2,
									"numoutlets" : 0,
									"patching_rect" : [ 52.0, 282.708321743474301, 45.0, 45.0 ]
								}

							}
, 							{
								"box" : 								{
									"id" : "obj-73",
									"maxclass" : "toggle",
									"numinlets" : 1,
									"numoutlets" : 1,
									"outlettype" : [ "int" ],
									"parameter_enable" : 0,
									"patching_rect" : [ 1120.027980836006009, 417.95832873049676, 24.0, 24.0 ]
								}

							}
, 							{
								"box" : 								{
									"fontname" : "Arial",
									"fontsize" : 12.0,
									"id" : "obj-21",
									"maxclass" : "comment",
									"numinlets" : 1,
									"numoutlets" : 0,
									"patching_rect" : [ 24.0, 49.0, 269.0, 20.0 ],
									"text" : "_______________________________________"
								}

							}
, 							{
								"box" : 								{
									"id" : "obj-22",
									"linecount" : 5,
									"maxclass" : "comment",
									"numinlets" : 1,
									"numoutlets" : 0,
									"patching_rect" : [ 692.462728333332961, 60.166663542930564, 111.0, 74.0 ],
									"text" : "this is a pre-build audio corpus, contained in the default corpuspath folder of Somax 2"
								}

							}
, 							{
								"box" : 								{
									"fontsize" : 10.0,
									"hidden" : 1,
									"id" : "obj-38",
									"maxclass" : "newobj",
									"numinlets" : 1,
									"numoutlets" : 1,
									"outlettype" : [ "" ],
									"patching_rect" : [ 1113.527980836006009, 551.458328999999935, 131.0, 20.0 ],
									"text" : "loadmess no loaded corpus"
								}

							}
, 							{
								"box" : 								{
									"hidden" : 1,
									"id" : "obj-55",
									"maxclass" : "newobj",
									"numinlets" : 1,
									"numoutlets" : 2,
									"outlettype" : [ "bang", "" ],
									"patching_rect" : [ 1235.0, 682.958328999999935, 55.5, 22.0 ],
									"text" : "t b l"
								}

							}
, 							{
								"box" : 								{
									"hidden" : 1,
									"id" : "obj-23",
									"maxclass" : "newobj",
									"numinlets" : 2,
									"numoutlets" : 2,
									"outlettype" : [ "", "" ],
									"patching_rect" : [ 1235.0, 654.541649098838775, 75.0, 22.0 ],
									"text" : "route corpus"
								}

							}
, 							{
								"box" : 								{
									"color" : [ 0.870588235294118, 0.027450980392157, 0.027450980392157, 1.0 ],
									"fontsize" : 10.0,
									"hidden" : 1,
									"id" : "obj-36",
									"maxclass" : "newobj",
									"numinlets" : 0,
									"numoutlets" : 1,
									"outlettype" : [ "" ],
									"patching_rect" : [ 1091.94383416933897, 367.45832873049676, 83.0, 20.0 ],
									"text" : "r player_enabled"
								}

							}
, 							{
								"box" : 								{
									"id" : "obj-28",
									"maxclass" : "live.line",
									"numinlets" : 1,
									"numoutlets" : 0,
									"patching_rect" : [ 524.0, 20.95832947004692, 6.0, 723.375 ]
								}

							}
, 							{
								"box" : 								{
									"fontsize" : 12.0,
									"id" : "obj-3",
									"linecount" : 3,
									"maxclass" : "comment",
									"numinlets" : 1,
									"numoutlets" : 0,
									"patching_rect" : [ 17.5, 691.930414773944904, 501.0, 47.0 ],
									"text" : "When this is the case, the object will ignore all messages while it's a duplicate (so it's safe to have multiple servers open). To attempt to clear duplicate flag (if all other servers have been closed) send \"reload\" to the server object"
								}

							}
, 							{
								"box" : 								{
									"fontface" : 1,
									"fontsize" : 12.0,
									"id" : "obj-88",
									"maxclass" : "comment",
									"numinlets" : 1,
									"numoutlets" : 0,
									"patching_rect" : [ 17.5, 672.930414773944904, 477.0, 20.0 ],
									"text" : "Note: if a server is open in another window, the status \"duplicate\" will be shown. ",
									"textcolor" : [ 0.996078431372549, 0.423529411764706, 0.423529411764706, 1.0 ]
								}

							}
, 							{
								"box" : 								{
									"fontface" : 2,
									"fontsize" : 16.0,
									"id" : "obj-10",
									"linecount" : 2,
									"maxclass" : "comment",
									"numinlets" : 1,
									"numoutlets" : 0,
									"patching_rect" : [ 52.0, 342.680407786922387, 443.0, 42.0 ],
									"text" : "NB: Only one server can be present in an open Max window -- take care not to instantiate multiple servers!",
									"textcolor" : [ 0.831372549019608, 0.035294117647059, 0.035294117647059, 1.0 ]
								}

							}
, 							{
								"box" : 								{
									"id" : "obj-84",
									"maxclass" : "multislider",
									"numinlets" : 1,
									"numoutlets" : 2,
									"outlettype" : [ "", "" ],
									"parameter_enable" : 0,
									"patching_rect" : [ 1186.583333333333258, 267.208321743474301, 60.0, 20.0 ],
									"setminmax" : [ 0.0, 1.0 ],
									"setstyle" : 1,
									"size" : 12,
									"slidercolor" : [ 0.423529411764706, 0.494117647058824, 0.996078431372549, 1.0 ],
									"spacing" : 2
								}

							}
, 							{
								"box" : 								{
									"fontsize" : 10.0,
									"id" : "obj-74",
									"maxclass" : "number",
									"numinlets" : 1,
									"numoutlets" : 2,
									"outlettype" : [ "", "bang" ],
									"parameter_enable" : 0,
									"patching_rect" : [ 1145.916666666666742, 267.208321743474301, 32.0, 20.0 ]
								}

							}
, 							{
								"box" : 								{
									"id" : "obj-79",
									"maxclass" : "button",
									"numinlets" : 1,
									"numoutlets" : 1,
									"outlettype" : [ "bang" ],
									"parameter_enable" : 0,
									"patching_rect" : [ 1105.25, 265.208321743474301, 24.0, 24.0 ]
								}

							}
, 							{
								"box" : 								{
									"id" : "obj-76",
									"maxclass" : "newobj",
									"numinlets" : 4,
									"numoutlets" : 4,
									"outlettype" : [ "", "", "", "" ],
									"patching_rect" : [ 1105.25, 235.208321743474301, 141.0, 22.0 ],
									"text" : "route onset pitch chroma"
								}

							}
, 							{
								"box" : 								{
									"id" : "obj-75",
									"maxclass" : "newobj",
									"numinlets" : 1,
									"numoutlets" : 1,
									"outlettype" : [ "" ],
									"patching_rect" : [ 1075.25, 306.208321743474301, 104.0, 22.0 ],
									"text" : "prepend influence"
								}

							}
, 							{
								"box" : 								{
									"color" : [ 0.3574509025, 0.5837691426, 0.6141206622, 1.0 ],
									"id" : "obj-71",
									"maxclass" : "newobj",
									"numinlets" : 1,
									"numoutlets" : 3,
									"outlettype" : [ "", "", "" ],
									"patching_rect" : [ 1074.5, 196.208328730496703, 129.0, 22.0 ],
									"text" : "somax.midiinfluencer",
									"varname" : "somax.audioinfluencer"
								}

							}
, 							{
								"box" : 								{
									"id" : "obj-219",
									"maxclass" : "newobj",
									"numinlets" : 1,
									"numoutlets" : 1,
									"outlettype" : [ "" ],
									"patching_rect" : [ 1120.027980836006009, 388.95832873049676, 70.0, 22.0 ],
									"text" : "loadmess 1"
								}

							}
, 							{
								"box" : 								{
									"id" : "obj-218",
									"maxclass" : "comment",
									"numinlets" : 1,
									"numoutlets" : 0,
									"patching_rect" : [ 1149.027980836006009, 419.95832873049676, 83.0, 20.0 ],
									"text" : "Enable Player"
								}

							}
, 							{
								"box" : 								{
									"id" : "obj-27",
									"maxclass" : "newobj",
									"numinlets" : 1,
									"numoutlets" : 3,
									"outlettype" : [ "multichannelsignal", "", "" ],
									"patching_rect" : [ 1075.25, 671.20832780790704, 122.0, 22.0 ],
									"text" : "somax.audiorenderer",
									"varname" : "somax.audiorenderer"
								}

							}
, 							{
								"box" : 								{
									"id" : "obj-66",
									"linecount" : 3,
									"maxclass" : "comment",
									"numinlets" : 1,
									"numoutlets" : 0,
									"patching_rect" : [ 1161.833333333333485, 507.250001541069082, 113.666666666666742, 47.0 ],
									"text" : "Status: whether player is initialized on server or not"
								}

							}
, 							{
								"box" : 								{
									"color" : [ 0.341176470588235, 0.752941176470588, 1.0, 1.0 ],
									"fontsize" : 12.0,
									"id" : "obj-143",
									"maxclass" : "newobj",
									"numinlets" : 1,
									"numoutlets" : 4,
									"outlettype" : [ "", "int", "", "" ],
									"patching_rect" : [ 1075.25, 471.958328999999992, 200.0, 22.0 ],
									"text" : "somax.player",
									"varname" : "somax.player"
								}

							}
, 							{
								"box" : 								{
									"bubble" : 1,
									"bubbleside" : 2,
									"fontsize" : 12.0,
									"id" : "obj-64",
									"maxclass" : "comment",
									"numinlets" : 1,
									"numoutlets" : 0,
									"patching_rect" : [ 567.381592499999556, 34.333327085861185, 87.0, 39.0 ],
									"text" : "Load a corpus"
								}

							}
, 							{
								"box" : 								{
									"bubble" : 1,
									"id" : "obj-61",
									"linecount" : 2,
									"maxclass" : "comment",
									"numinlets" : 1,
									"numoutlets" : 0,
									"patching_rect" : [ 107.333333333333314, 286.708321743474301, 54.166666666666686, 37.0 ],
									"text" : "Start DSP"
								}

							}
, 							{
								"box" : 								{
									"fontname" : "Arial",
									"fontsize" : 12.0,
									"hidden" : 1,
									"id" : "obj-30",
									"maxclass" : "newobj",
									"numinlets" : 1,
									"numoutlets" : 0,
									"patching_rect" : [ 1075.25, 779.506817257583407, 54.0, 22.0 ],
									"text" : "mc.dac~"
								}

							}
, 							{
								"box" : 								{
									"channels" : 1,
									"fontname" : "Arial",
									"fontsize" : 12.0,
									"id" : "obj-13",
									"lastchannelcount" : 1,
									"maxclass" : "mc.live.gain~",
									"numinlets" : 1,
									"numoutlets" : 4,
									"orientation" : 1,
									"outlettype" : [ "multichannelsignal", "", "float", "list" ],
									"parameter_enable" : 1,
									"parameter_mappable" : 0,
									"patching_rect" : [ 1075.25, 715.466083474878246, 88.0, 45.0 ],
									"saved_attribute_attributes" : 									{
										"valueof" : 										{
											"parameter_initial" : [ 0 ],
											"parameter_initial_enable" : 1,
											"parameter_linknames" : 1,
											"parameter_longname" : "somax2",
											"parameter_mmax" : 6.0,
											"parameter_mmin" : -70.0,
											"parameter_shortname" : "somax2",
											"parameter_type" : 0,
											"parameter_unitstyle" : 4
										}

									}
,
									"varname" : "somax2"
								}

							}
, 							{
								"box" : 								{
									"background" : 1,
									"bgcolor" : [ 1.0, 0.658824, 0.14902, 1.0 ],
									"fontname" : "Arial Bold",
									"fontsize" : 9.0,
									"hint" : "",
									"id" : "obj-83",
									"ignoreclick" : 1,
									"legacytextcolor" : 1,
									"maxclass" : "textbutton",
									"numinlets" : 1,
									"numoutlets" : 3,
									"outlettype" : [ "", "", "int" ],
									"parameter_enable" : 0,
									"patching_rect" : [ 963.375, 367.958328999999992, 14.0, 14.0 ],
									"rounded" : 60.0,
									"text" : "8",
									"textcolor" : [ 0.2, 0.2, 0.2, 1.0 ]
								}

							}
, 							{
								"box" : 								{
									"background" : 1,
									"bgcolor" : [ 1.0, 1.0, 1.0, 1.0 ],
									"bubble" : 1,
									"bubbleside" : 2,
									"fontface" : 0,
									"fontname" : "Arial",
									"fontsize" : 12.0,
									"id" : "obj-48",
									"maxclass" : "comment",
									"numinlets" : 1,
									"numoutlets" : 0,
									"patching_rect" : [ 1168.04166666666697, 575.708334874402567, 130.0, 39.0 ],
									"text" : "Wait for corpus to load",
									"varname" : "HelpTitle[11]"
								}

							}
, 							{
								"box" : 								{
									"background" : 1,
									"bgcolor" : [ 1.0, 0.658824, 0.14902, 1.0 ],
									"fontname" : "Arial Bold",
									"hint" : "",
									"id" : "obj-46",
									"ignoreclick" : 1,
									"legacytextcolor" : 1,
									"maxclass" : "textbutton",
									"numinlets" : 1,
									"numoutlets" : 3,
									"outlettype" : [ "", "", "int" ],
									"parameter_enable" : 0,
									"patching_rect" : [ 1143.537271666667039, 577.708334874402567, 20.0, 20.0 ],
									"rounded" : 60.0,
									"text" : "5",
									"textcolor" : [ 0.2, 0.2, 0.2, 1.0 ]
								}

							}
, 							{
								"box" : 								{
									"background" : 1,
									"bgcolor" : [ 1.0, 0.658824, 0.14902, 1.0 ],
									"fontname" : "Arial Bold",
									"fontsize" : 11.0,
									"hint" : "",
									"id" : "obj-77",
									"ignoreclick" : 1,
									"legacytextcolor" : 1,
									"maxclass" : "textbutton",
									"numinlets" : 1,
									"numoutlets" : 3,
									"outlettype" : [ "", "", "int" ],
									"parameter_enable" : 0,
									"patching_rect" : [ 724.201155833333132, 400.958319732358234, 20.0, 20.0 ],
									"rounded" : 60.0,
									"text" : "10",
									"textcolor" : [ 0.2, 0.2, 0.2, 1.0 ]
								}

							}
, 							{
								"box" : 								{
									"background" : 1,
									"id" : "obj-89",
									"linecount" : 7,
									"maxclass" : "comment",
									"numinlets" : 1,
									"numoutlets" : 0,
									"patching_rect" : [ 747.77083333333303, 351.45832873049676, 251.517822499999738, 100.0 ],
									"text" : "Continuity controls the order of the current state index of output (as shown at point     ):\n- Continuity > 1 will prioritize continuation (and result in fewer jumps).\n- Continuity = 1.00 will result in no alterations (no bias introduced by this parameter).\n- Continuity < 1 will prioritizing jumping."
								}

							}
, 							{
								"box" : 								{
									"background" : 1,
									"bgcolor" : [ 1.0, 0.658824, 0.14902, 1.0 ],
									"fontname" : "Arial Bold",
									"hint" : "",
									"id" : "obj-40",
									"ignoreclick" : 1,
									"legacytextcolor" : 1,
									"maxclass" : "textbutton",
									"numinlets" : 1,
									"numoutlets" : 3,
									"outlettype" : [ "", "", "int" ],
									"parameter_enable" : 0,
									"patching_rect" : [ 545.381592499999556, 69.166663542930564, 20.0, 20.0 ],
									"rounded" : 60.0,
									"text" : "4",
									"textcolor" : [ 0.2, 0.2, 0.2, 1.0 ]
								}

							}
, 							{
								"box" : 								{
									"background" : 1,
									"bgcolor" : [ 1.0, 0.658824, 0.14902, 1.0 ],
									"fontname" : "Arial Bold",
									"hint" : "",
									"id" : "obj-58",
									"ignoreclick" : 1,
									"legacytextcolor" : 1,
									"maxclass" : "textbutton",
									"numinlets" : 1,
									"numoutlets" : 3,
									"outlettype" : [ "", "", "int" ],
									"parameter_enable" : 0,
									"patching_rect" : [ 25.0, 282.708321743474301, 20.0, 20.0 ],
									"rounded" : 60.0,
									"text" : "1",
									"textcolor" : [ 0.2, 0.2, 0.2, 1.0 ]
								}

							}
, 							{
								"box" : 								{
									"background" : 1,
									"bgcolor" : [ 1.0, 0.658824, 0.14902, 1.0 ],
									"fontname" : "Arial Bold",
									"hint" : "",
									"id" : "obj-59",
									"ignoreclick" : 1,
									"legacytextcolor" : 1,
									"maxclass" : "textbutton",
									"numinlets" : 1,
									"numoutlets" : 3,
									"outlettype" : [ "", "", "int" ],
									"parameter_enable" : 0,
									"patching_rect" : [ 725.064697499999284, 267.708321743474301, 20.0, 20.0 ],
									"rounded" : 60.0,
									"text" : "9",
									"textcolor" : [ 0.2, 0.2, 0.2, 1.0 ]
								}

							}
, 							{
								"box" : 								{
									"background" : 1,
									"bgcolor" : [ 1.0, 0.658824, 0.14902, 1.0 ],
									"fontname" : "Arial Bold",
									"hint" : "",
									"id" : "obj-35",
									"ignoreclick" : 1,
									"legacytextcolor" : 1,
									"maxclass" : "textbutton",
									"numinlets" : 1,
									"numoutlets" : 3,
									"outlettype" : [ "", "", "int" ],
									"parameter_enable" : 0,
									"patching_rect" : [ 608.374999999999773, 586.930415043448306, 20.0, 20.0 ],
									"rounded" : 60.0,
									"text" : "8",
									"textcolor" : [ 0.2, 0.2, 0.2, 1.0 ]
								}

							}
, 							{
								"box" : 								{
									"background" : 1,
									"fontface" : 1,
									"fontname" : "Arial",
									"fontsize" : 16.0,
									"id" : "obj-17",
									"maxclass" : "comment",
									"numinlets" : 1,
									"numoutlets" : 0,
									"patching_rect" : [ 1233.416666666666515, 187.708324127660148, 88.0, 24.0 ],
									"text" : "Influences",
									"varname" : "HelpTitle[5]"
								}

							}
, 							{
								"box" : 								{
									"background" : 1,
									"fontface" : 1,
									"fontname" : "Arial",
									"fontsize" : 16.0,
									"id" : "obj-5",
									"maxclass" : "comment",
									"numinlets" : 1,
									"numoutlets" : 0,
									"patching_rect" : [ 744.962728333332848, 27.0, 64.0, 24.0 ],
									"text" : "Corpus",
									"textcolor" : [ 0.0, 0.0, 0.0, 1.0 ],
									"varname" : "HelpTitle[3]"
								}

							}
, 							{
								"box" : 								{
									"background" : 1,
									"bgcolor" : [ 1.0, 0.658824, 0.14902, 1.0 ],
									"fontname" : "Arial Bold",
									"hint" : "",
									"id" : "obj-18",
									"ignoreclick" : 1,
									"legacytextcolor" : 1,
									"maxclass" : "textbutton",
									"numinlets" : 1,
									"numoutlets" : 3,
									"outlettype" : [ "", "", "int" ],
									"parameter_enable" : 0,
									"patching_rect" : [ 60.0, 542.95832873049676, 20.0, 20.0 ],
									"rounded" : 60.0,
									"text" : "2",
									"textcolor" : [ 0.2, 0.2, 0.2, 1.0 ]
								}

							}
, 							{
								"box" : 								{
									"background" : 1,
									"bgcolor" : [ 1.0, 0.658824, 0.14902, 1.0 ],
									"fontname" : "Arial Bold",
									"hint" : "",
									"id" : "obj-90",
									"ignoreclick" : 1,
									"legacytextcolor" : 1,
									"maxclass" : "textbutton",
									"numinlets" : 1,
									"numoutlets" : 3,
									"outlettype" : [ "", "", "int" ],
									"parameter_enable" : 0,
									"patching_rect" : [ 108.5, 413.874992273427324, 20.0, 20.0 ],
									"rounded" : 60.0,
									"text" : "3",
									"textcolor" : [ 0.2, 0.2, 0.2, 1.0 ]
								}

							}
, 							{
								"box" : 								{
									"background" : 1,
									"bgcolor" : [ 1.0, 0.658824, 0.14902, 1.0 ],
									"fontname" : "Arial Bold",
									"hint" : "",
									"id" : "obj-91",
									"ignoreclick" : 1,
									"legacytextcolor" : 1,
									"maxclass" : "textbutton",
									"numinlets" : 1,
									"numoutlets" : 3,
									"outlettype" : [ "", "", "int" ],
									"parameter_enable" : 0,
									"patching_rect" : [ 317.0, 447.624985286404922, 20.0, 20.0 ],
									"rounded" : 60.0,
									"text" : "6",
									"textcolor" : [ 0.2, 0.2, 0.2, 1.0 ]
								}

							}
, 							{
								"box" : 								{
									"background" : 1,
									"bgcolor" : [ 1.0, 0.658824, 0.14902, 1.0 ],
									"fontname" : "Arial Bold",
									"hint" : "",
									"id" : "obj-68",
									"ignoreclick" : 1,
									"legacytextcolor" : 1,
									"maxclass" : "textbutton",
									"numinlets" : 1,
									"numoutlets" : 3,
									"outlettype" : [ "", "", "int" ],
									"parameter_enable" : 0,
									"patching_rect" : [ 938.8081049999995, 73.5, 20.0, 20.0 ],
									"rounded" : 60.0,
									"text" : "7",
									"textcolor" : [ 0.2, 0.2, 0.2, 1.0 ]
								}

							}
, 							{
								"box" : 								{
									"background" : 1,
									"bgcolor" : [ 1.0, 1.0, 1.0, 1.0 ],
									"bubble" : 1,
									"bubbleside" : 3,
									"fontface" : 0,
									"fontname" : "Arial",
									"fontsize" : 12.0,
									"id" : "obj-32",
									"linecount" : 4,
									"maxclass" : "comment",
									"numinlets" : 1,
									"numoutlets" : 0,
									"patching_rect" : [ 964.27083333333303, 51.5, 96.0, 64.0 ],
									"text" : "Start guiding the Player using a MIDI influence",
									"varname" : "HelpTitle[4]"
								}

							}
, 							{
								"box" : 								{
									"background" : 1,
									"fontface" : 1,
									"fontname" : "Arial",
									"fontsize" : 22.0,
									"id" : "obj-16",
									"maxclass" : "comment",
									"numinlets" : 1,
									"numoutlets" : 0,
									"patching_rect" : [ 28.0, 34.0, 255.0, 31.0 ],
									"text" : "Introducing Parameters",
									"varname" : "HelpTitle"
								}

							}
, 							{
								"box" : 								{
									"angle" : 0.0,
									"background" : 1,
									"bgcolor" : [ 0.094118, 0.113725, 0.137255, 0.0 ],
									"border" : 1,
									"bordercolor" : [ 0.415686, 0.454902, 0.52549, 1.0 ],
									"id" : "obj-56",
									"maxclass" : "panel",
									"mode" : 0,
									"numinlets" : 1,
									"numoutlets" : 0,
									"patching_rect" : [ 1056.083333333333258, 187.708324127660148, 265.333333333333258, 148.749997615814152 ],
									"rounded" : 16
								}

							}
, 							{
								"box" : 								{
									"background" : 1,
									"id" : "obj-62",
									"maxclass" : "toggle",
									"numinlets" : 1,
									"numoutlets" : 1,
									"outlettype" : [ "int" ],
									"parameter_enable" : 0,
									"patching_rect" : [ 1135.583333333333258, 518.750001541069082, 24.0, 24.0 ]
								}

							}
, 							{
								"box" : 								{
									"background" : 1,
									"id" : "obj-43",
									"maxclass" : "message",
									"numinlets" : 2,
									"numoutlets" : 1,
									"outlettype" : [ "" ],
									"patching_rect" : [ 568.462728333332961, 69.166663542930564, 113.0, 22.0 ],
									"text" : "corpus Joelle.pickle"
								}

							}
, 							{
								"box" : 								{
									"angle" : 0.0,
									"background" : 1,
									"bgcolor" : [ 0.094118, 0.113725, 0.137255, 0.0 ],
									"border" : 1,
									"bordercolor" : [ 0.415686, 0.454902, 0.52549, 1.0 ],
									"id" : "obj-1",
									"maxclass" : "panel",
									"mode" : 0,
									"numinlets" : 1,
									"numoutlets" : 0,
									"patching_rect" : [ 536.874999999999773, 27.0, 273.587728333333189, 140.333327085861185 ],
									"rounded" : 16
								}

							}
, 							{
								"box" : 								{
									"background" : 1,
									"id" : "obj-45",
									"maxclass" : "message",
									"numinlets" : 2,
									"numoutlets" : 1,
									"outlettype" : [ "" ],
									"patching_rect" : [ 1112.334146666667039, 605.993157433645933, 170.0, 22.0 ],
									"text" : "no loaded corpus"
								}

							}
 ],
						"lines" : [ 							{
								"patchline" : 								{
									"destination" : [ "obj-15", 0 ],
									"midpoints" : [ 142.5, 478.95832873049676, 142.5, 478.95832873049676 ],
									"source" : [ "obj-112", 0 ]
								}

							}
, 							{
								"patchline" : 								{
									"destination" : [ "obj-30", 0 ],
									"hidden" : 1,
									"source" : [ "obj-13", 0 ]
								}

							}
, 							{
								"patchline" : 								{
									"destination" : [ "obj-23", 0 ],
									"hidden" : 1,
									"midpoints" : [ 1084.75, 502.749989049419355, 1244.5, 502.749989049419355 ],
									"order" : 0,
									"source" : [ "obj-143", 0 ]
								}

							}
, 							{
								"patchline" : 								{
									"destination" : [ "obj-27", 0 ],
									"order" : 1,
									"source" : [ "obj-143", 0 ]
								}

							}
, 							{
								"patchline" : 								{
									"destination" : [ "obj-29", 0 ],
									"midpoints" : [ 1084.75, 523.437495841154828, 595.374999999999773, 523.437495841154828 ],
									"order" : 2,
									"source" : [ "obj-143", 0 ]
								}

							}
, 							{
								"patchline" : 								{
									"destination" : [ "obj-62", 0 ],
									"source" : [ "obj-143", 1 ]
								}

							}
, 							{
								"patchline" : 								{
									"destination" : [ "obj-2", 0 ],
									"hidden" : 1,
									"order" : 2,
									"source" : [ "obj-15", 1 ]
								}

							}
, 							{
								"patchline" : 								{
									"destination" : [ "obj-42", 1 ],
									"midpoints" : [ 218.833333333333314, 526.95832873049676, 390.5, 526.95832873049676 ],
									"order" : 0,
									"source" : [ "obj-15", 1 ]
								}

							}
, 							{
								"patchline" : 								{
									"destination" : [ "obj-54", 0 ],
									"hidden" : 1,
									"source" : [ "obj-15", 0 ]
								}

							}
, 							{
								"patchline" : 								{
									"destination" : [ "obj-70", 0 ],
									"order" : 1,
									"source" : [ "obj-15", 1 ]
								}

							}
, 							{
								"patchline" : 								{
									"destination" : [ "obj-73", 0 ],
									"source" : [ "obj-219", 0 ]
								}

							}
, 							{
								"patchline" : 								{
									"destination" : [ "obj-55", 0 ],
									"hidden" : 1,
									"source" : [ "obj-23", 0 ]
								}

							}
, 							{
								"patchline" : 								{
									"destination" : [ "obj-13", 0 ],
									"source" : [ "obj-27", 0 ]
								}

							}
, 							{
								"patchline" : 								{
									"destination" : [ "obj-371", 0 ],
									"source" : [ "obj-29", 1 ]
								}

							}
, 							{
								"patchline" : 								{
									"destination" : [ "obj-9", 0 ],
									"source" : [ "obj-29", 0 ]
								}

							}
, 							{
								"patchline" : 								{
									"destination" : [ "obj-143", 0 ],
									"midpoints" : [ 609.29580333600552, 460.333325371737146, 1084.75, 460.333325371737146 ],
									"source" : [ "obj-335", 0 ]
								}

							}
, 							{
								"patchline" : 								{
									"destination" : [ "obj-39", 1 ],
									"hidden" : 1,
									"midpoints" : [ 984.27083333333303, 39.0, 969.52083333333303, 39.0, 969.52083333333303, -4.0, 954.77083333333303, -4.0 ],
									"source" : [ "obj-34", 0 ]
								}

							}
, 							{
								"patchline" : 								{
									"destination" : [ "obj-335", 0 ],
									"source" : [ "obj-345", 0 ]
								}

							}
, 							{
								"patchline" : 								{
									"destination" : [ "obj-73", 0 ],
									"hidden" : 1,
									"source" : [ "obj-36", 0 ]
								}

							}
, 							{
								"patchline" : 								{
									"destination" : [ "obj-381", 0 ],
									"source" : [ "obj-371", 1 ]
								}

							}
, 							{
								"patchline" : 								{
									"destination" : [ "obj-382", 0 ],
									"source" : [ "obj-371", 3 ]
								}

							}
, 							{
								"patchline" : 								{
									"destination" : [ "obj-383", 0 ],
									"source" : [ "obj-371", 4 ]
								}

							}
, 							{
								"patchline" : 								{
									"destination" : [ "obj-384", 0 ],
									"source" : [ "obj-371", 2 ]
								}

							}
, 							{
								"patchline" : 								{
									"destination" : [ "obj-387", 0 ],
									"source" : [ "obj-371", 0 ]
								}

							}
, 							{
								"patchline" : 								{
									"destination" : [ "obj-45", 1 ],
									"hidden" : 1,
									"source" : [ "obj-38", 0 ]
								}

							}
, 							{
								"patchline" : 								{
									"destination" : [ "obj-143", 0 ],
									"midpoints" : [ 653.701155833333132, 460.458324366179113, 1084.75, 460.458324366179113 ],
									"source" : [ "obj-380", 0 ]
								}

							}
, 							{
								"patchline" : 								{
									"destination" : [ "obj-386", 0 ],
									"source" : [ "obj-387", 0 ]
								}

							}
, 							{
								"patchline" : 								{
									"destination" : [ "obj-380", 0 ],
									"source" : [ "obj-388", 0 ]
								}

							}
, 							{
								"patchline" : 								{
									"destination" : [ "obj-44", 0 ],
									"hidden" : 1,
									"midpoints" : [ 918.77083333333303, 40.0, 1001.385416666666515, 40.0, 1001.385416666666515, 20.0, 1084.0, 20.0 ],
									"source" : [ "obj-39", 0 ]
								}

							}
, 							{
								"patchline" : 								{
									"destination" : [ "obj-143", 0 ],
									"midpoints" : [ 577.962728333332961, 460.124987508350102, 1084.75, 460.124987508350102 ],
									"order" : 0,
									"source" : [ "obj-43", 0 ]
								}

							}
, 							{
								"patchline" : 								{
									"destination" : [ "obj-37", 0 ],
									"midpoints" : [ 577.962728333332961, 103.749995314395903, 599.962728333332961, 103.749995314395903 ],
									"order" : 1,
									"source" : [ "obj-43", 0 ]
								}

							}
, 							{
								"patchline" : 								{
									"destination" : [ "obj-47", 0 ],
									"hidden" : 1,
									"midpoints" : [ 1149.5, 63.0, 1082.385416666666515, 63.0, 1082.385416666666515, 22.0, 1015.27083333333303, 22.0 ],
									"source" : [ "obj-44", 1 ]
								}

							}
, 							{
								"patchline" : 								{
									"destination" : [ "obj-51", 1 ],
									"hidden" : 1,
									"midpoints" : [ 1026.27083333333303, 55.5, 1197.0, 55.5 ],
									"source" : [ "obj-47", 1 ]
								}

							}
, 							{
								"patchline" : 								{
									"destination" : [ "obj-51", 0 ],
									"hidden" : 1,
									"midpoints" : [ 1015.27083333333303, 55.5, 1084.0, 55.5 ],
									"source" : [ "obj-47", 0 ]
								}

							}
, 							{
								"patchline" : 								{
									"destination" : [ "obj-52", 1 ],
									"midpoints" : [ 1215.0, 149.25, 1102.0, 149.25 ],
									"source" : [ "obj-49", 1 ]
								}

							}
, 							{
								"patchline" : 								{
									"destination" : [ "obj-52", 0 ],
									"source" : [ "obj-49", 0 ]
								}

							}
, 							{
								"patchline" : 								{
									"destination" : [ "obj-49", 1 ],
									"midpoints" : [ 1197.0, 114.75, 1149.5, 114.75 ],
									"source" : [ "obj-51", 1 ]
								}

							}
, 							{
								"patchline" : 								{
									"destination" : [ "obj-49", 0 ],
									"source" : [ "obj-51", 0 ]
								}

							}
, 							{
								"patchline" : 								{
									"destination" : [ "obj-71", 0 ],
									"source" : [ "obj-52", 0 ]
								}

							}
, 							{
								"patchline" : 								{
									"destination" : [ "obj-335", 0 ],
									"midpoints" : [ 664.564697499999284, 292.229157378225921, 609.29580333600552, 292.229157378225921 ],
									"source" : [ "obj-53", 0 ]
								}

							}
, 							{
								"patchline" : 								{
									"destination" : [ "obj-45", 1 ],
									"hidden" : 1,
									"midpoints" : [ 1281.0, 714.958328999999935, 1276.917073333333519, 714.958328999999935, 1276.917073333333519, 601.993157433645933, 1272.834146666667039, 601.993157433645933 ],
									"source" : [ "obj-55", 1 ]
								}

							}
, 							{
								"patchline" : 								{
									"destination" : [ "obj-15", 0 ],
									"midpoints" : [ 349.5, 479.70832873049676, 142.5, 479.70832873049676 ],
									"source" : [ "obj-65", 0 ]
								}

							}
, 							{
								"patchline" : 								{
									"destination" : [ "obj-75", 0 ],
									"midpoints" : [ 1084.0, 220.541665187566196, 1084.75, 220.541665187566196 ],
									"order" : 1,
									"source" : [ "obj-71", 0 ]
								}

							}
, 							{
								"patchline" : 								{
									"destination" : [ "obj-76", 0 ],
									"midpoints" : [ 1084.0, 228.874999260449783, 1114.75, 228.874999260449783 ],
									"order" : 0,
									"source" : [ "obj-71", 0 ]
								}

							}
, 							{
								"patchline" : 								{
									"destination" : [ "obj-143", 0 ],
									"midpoints" : [ 1129.527980836006009, 467.833325793295444, 1084.75, 467.833325793295444 ],
									"source" : [ "obj-73", 0 ]
								}

							}
, 							{
								"patchline" : 								{
									"destination" : [ "obj-143", 0 ],
									"midpoints" : [ 1084.75, 460.499990528318961, 1084.75, 460.499990528318961 ],
									"source" : [ "obj-75", 0 ]
								}

							}
, 							{
								"patchline" : 								{
									"destination" : [ "obj-74", 0 ],
									"source" : [ "obj-76", 1 ]
								}

							}
, 							{
								"patchline" : 								{
									"destination" : [ "obj-79", 0 ],
									"source" : [ "obj-76", 0 ]
								}

							}
, 							{
								"patchline" : 								{
									"destination" : [ "obj-84", 0 ],
									"source" : [ "obj-76", 2 ]
								}

							}
, 							{
								"patchline" : 								{
									"destination" : [ "obj-78", 1 ],
									"source" : [ "obj-9", 0 ]
								}

							}
 ]
					}
,
					"patching_rect" : [ 123.0, 157.0, 185.0, 43.0 ],
					"saved_object_attributes" : 					{
						"description" : "",
						"digest" : "",
						"globalpatchername" : "",
						"tags" : ""
					}
,
					"text" : "patcher \"Introducing Parameters\"",
					"varname" : "02_basic_audio_example"
				}

			}
 ],
		"lines" : [  ],
		"parameters" : 		{
			"obj-8::obj-13" : [ "somax2", "somax2", 0 ],
			"obj-8::obj-143::obj-1007" : [ "rslider[1]", "rslider", 0 ],
			"obj-8::obj-143::obj-1115" : [ "continuity[1]", "continuity", 0 ],
			"obj-8::obj-143::obj-1175" : [ "heldnotesmode[2]", "heldnotesmode", 0 ],
			"obj-8::obj-143::obj-1179" : [ "continuity[16]", "continuity", 0 ],
			"obj-8::obj-143::obj-12" : [ "melodicmod12[1]", "melodicmod12", 0 ],
			"obj-8::obj-143::obj-120" : [ "melodicbypass[1]", "melodicbypass", 0 ],
			"obj-8::obj-143::obj-1218" : [ "simultaneousonsets[2]", "artificialmidities", 0 ],
			"obj-8::obj-143::obj-126" : [ "harmonicbypass[1]", "harmonicbypass", 0 ],
			"obj-8::obj-143::obj-134" : [ "continuity[17]", "continuity", 0 ],
			"obj-8::obj-143::obj-1344" : [ "enforcetaboo[4]", "enforcetaboo", 0 ],
			"obj-8::obj-143::obj-140" : [ "resetinfluences[1]", "resetinfluences", 0 ],
			"obj-8::obj-143::obj-144" : [ "harmonicngramorder[1]", "harmonicngramorder", 0 ],
			"obj-8::obj-143::obj-1444" : [ "outputprobability[4]", "outputprobability", 0 ],
			"obj-8::obj-143::obj-152" : [ "selfngramorder[1]", "selfngramorder", 0 ],
			"obj-8::obj-143::obj-154" : [ "melodicngramorder[4]", "melodicngramorder", 0 ],
			"obj-8::obj-143::obj-163" : [ "ignorephase[4]", "ignorephase", 0 ],
			"obj-8::obj-143::obj-19" : [ "selfmod12[4]", "selfmod12", 0 ],
			"obj-8::obj-143::obj-22" : [ "selfmelodicbypass[1]", "selfmelodicbypass", 0 ],
			"obj-8::obj-143::obj-254" : [ "harmonincpeakdecay[2]", "harmonincpeakdecay", 0 ],
			"obj-8::obj-143::obj-255" : [ "melodicpeakdecay[5]", "melodicpeakdecay", 0 ],
			"obj-8::obj-143::obj-256" : [ "selfpeakdecay[1]", "selfpeakdecay", 0 ],
			"obj-8::obj-143::obj-270::obj-1226" : [ "width[1]", "Width", 0 ],
			"obj-8::obj-143::obj-270::obj-1227" : [ "center[1]", "Center", 0 ],
			"obj-8::obj-143::obj-270::obj-1240" : [ "live.slider[3]", "live.slider", 0 ],
			"obj-8::obj-143::obj-270::obj-1241" : [ "live.numbox[3]", "live.numbox[2]", 0 ],
			"obj-8::obj-143::obj-270::obj-622" : [ "__exp_velocityenable[1]", "__exp_velocityenable", 0 ],
			"obj-8::obj-143::obj-270::obj-889" : [ "weight[1]", "Weight", 0 ],
			"obj-8::obj-143::obj-295" : [ "playingmode[4]", "playingmode", 0 ],
			"obj-8::obj-143::obj-298" : [ "simultaneousonsets[7]", "simultaneousonsets", 0 ],
			"obj-8::obj-143::obj-328" : [ "decaybasis[1]", "decaybasis", 0 ],
			"obj-8::obj-143::obj-570" : [ "__exp_melodicpitchfromchords[4]", "__exp_melodicpitchfromchords", 0 ],
			"obj-8::obj-143::obj-575" : [ "__exp_tempoconsistencysigma[4]", "__exp_tempoconsistencysigma", 0 ],
			"obj-8::obj-143::obj-642" : [ "__exp_numnotessigma[1]", "__exp_numnotessigma", 0 ],
			"obj-8::obj-143::obj-653" : [ "__exp_numnotesenable[4]", "__exp_numnotesenable", 0 ],
			"obj-8::obj-143::obj-656" : [ "__exp_numnotesmu[1]", "__exp_numnotesmu", 0 ],
			"obj-8::obj-143::obj-688" : [ "__exp_durationsigma[4]", "__exp_durationsigma", 0 ],
			"obj-8::obj-143::obj-702" : [ "__exp_durationmu[1]", "__exp_durationmu", 0 ],
			"obj-8::obj-143::obj-722" : [ "__exp_octavebandsenable[5]", "__exp_octavebandsenable", 0 ],
			"obj-8::obj-143::obj-733" : [ "__exp_octavebands[1]", "__exp_octavebands", 0 ],
			"obj-8::obj-143::obj-746" : [ "__exp_selfpitchfromchords[5]", "__exp_selfpitchfromchords", 0 ],
			"obj-8::obj-143::obj-763" : [ "__exp_autojumpforcejump[1]", "__exp_autojumpforcejump", 0 ],
			"obj-8::obj-143::obj-774" : [ "__exp_autojumpenable[1]", "__exp_autojumpenable", 0 ],
			"obj-8::obj-143::obj-777" : [ "__exp_autojumpactivate[1]", "__exp_autojumpactivate", 0 ],
			"obj-8::obj-143::obj-799" : [ "__exp_tempoconsistencyenable[5]", "__exp_tempoconsistencyenable", 0 ],
			"obj-8::obj-143::obj-802" : [ "__exp_tempoconsistencylen[4]", "__exp_tempoconsistencylen", 0 ],
			"obj-8::obj-143::obj-860" : [ "harmonincpeakdecay[3]", "harmonincpeakdecay[1]", 0 ],
			"obj-8::obj-143::obj-865" : [ "selfharmonicngramorder[4]", "selfharmonicngramorder", 0 ],
			"obj-8::obj-143::obj-870" : [ "selfharmonicbypass[4]", "selfharmonicbypass", 0 ],
			"obj-8::obj-143::obj-998" : [ "__exp_regionmaskenable[1]", "__exp_regionmaskenable", 0 ],
			"obj-8::obj-27::obj-98" : [ "live.text[9]", "live.text[26]", 0 ],
			"parameterbanks" : 			{
				"0" : 				{
					"index" : 0,
					"name" : "",
					"parameters" : [ "-", "-", "-", "-", "-", "-", "-", "-" ]
				}

			}
,
			"parameter_overrides" : 			{
				"obj-8::obj-143::obj-270::obj-1226" : 				{
					"parameter_longname" : "width[1]"
				}
,
				"obj-8::obj-143::obj-270::obj-1227" : 				{
					"parameter_longname" : "center[1]"
				}
,
				"obj-8::obj-143::obj-270::obj-1240" : 				{
					"parameter_longname" : "live.slider[3]"
				}
,
				"obj-8::obj-143::obj-270::obj-1241" : 				{
					"parameter_longname" : "live.numbox[3]"
				}
,
				"obj-8::obj-143::obj-270::obj-889" : 				{
					"parameter_longname" : "weight[1]"
				}
,
				"obj-8::obj-27::obj-98" : 				{
					"parameter_longname" : "live.text[9]"
				}

			}
,
			"inherited_shortname" : 1
		}
,
		"dependency_cache" : [ 			{
				"name" : "Joelle.wav",
				"bootpath" : "~/Documents/GitHub/Somax2/max/somax/corpus",
				"patcherrelativepath" : "../../corpus",
				"type" : "WAVE",
				"implicit" : 1
			}
, 			{
				"name" : "abstraction_path.js",
				"bootpath" : "~/Documents/GitHub/Somax2/max/somax/javascript",
				"patcherrelativepath" : "../../javascript",
				"type" : "TEXT",
				"implicit" : 1
			}
, 			{
				"name" : "bc.virfun.mxo",
				"type" : "iLaX"
			}
, 			{
				"name" : "computeMemoryPitchClass.js",
				"bootpath" : "~/Documents/GitHub/Somax2/max/somax/javascript",
				"patcherrelativepath" : "../../javascript",
				"type" : "TEXT",
				"implicit" : 1
			}
, 			{
				"name" : "heldnotes.maxpat",
				"bootpath" : "~/Documents/GitHub/Somax2/max/somax/patchers/resources/misc",
				"patcherrelativepath" : "../../patchers/resources/misc",
				"type" : "JSON",
				"implicit" : 1
			}
, 			{
				"name" : "midi2chroma.maxpat",
				"bootpath" : "~/Documents/GitHub/Somax2/max/somax/patchers/resources/influencers",
				"patcherrelativepath" : "../../patchers/resources/influencers",
				"type" : "JSON",
				"implicit" : 1
			}
, 			{
				"name" : "midi2chroma_nofilter.maxpat",
				"bootpath" : "~/Documents/GitHub/Somax2/max/somax/patchers/resources/influencers",
				"patcherrelativepath" : "../../patchers/resources/influencers",
				"type" : "JSON",
				"implicit" : 1
			}
, 			{
				"name" : "midichromaanalysis.maxpat",
				"bootpath" : "~/Documents/GitHub/Somax2/max/somax/patchers/resources/influencers",
				"patcherrelativepath" : "../../patchers/resources/influencers",
				"type" : "JSON",
				"implicit" : 1
			}
, 			{
				"name" : "midipitchanalysis.maxpat",
				"bootpath" : "~/Documents/GitHub/Somax2/max/somax/patchers/resources/influencers",
				"patcherrelativepath" : "../../patchers/resources/influencers",
				"type" : "JSON",
				"implicit" : 1
			}
, 			{
				"name" : "somax.atom.maxpat",
				"bootpath" : "~/Documents/GitHub/Somax2/max/somax/patchers/resources/player",
				"patcherrelativepath" : "../../patchers/resources/player",
				"type" : "JSON",
				"implicit" : 1
			}
, 			{
				"name" : "somax.audiorenderer.maxpat",
				"bootpath" : "~/Documents/GitHub/Somax2/max/somax/patchers",
				"patcherrelativepath" : "../../patchers",
				"type" : "JSON",
				"implicit" : 1
			}
, 			{
				"name" : "somax.await_patcherargs.maxpat",
				"bootpath" : "~/Documents/GitHub/Somax2/max/somax/patchers",
				"patcherrelativepath" : "../../patchers",
				"type" : "JSON",
				"implicit" : 1
			}
, 			{
				"name" : "somax.corpuspath.maxpat",
				"bootpath" : "~/Documents/GitHub/Somax2/max/somax/patchers/resources/misc",
				"patcherrelativepath" : "../../patchers/resources/misc",
				"type" : "JSON",
				"implicit" : 1
			}
, 			{
				"name" : "somax.filter_midichannels.maxpat",
				"bootpath" : "~/Documents/GitHub/Somax2/max/somax/patchers",
				"patcherrelativepath" : "../../patchers",
				"type" : "JSON",
				"implicit" : 1
			}
, 			{
				"name" : "somax.interpreter.maxpat",
				"bootpath" : "~/Documents/GitHub/Somax2/max/somax/patchers/resources/misc",
				"patcherrelativepath" : "../../patchers/resources/misc",
				"type" : "JSON",
				"implicit" : 1
			}
, 			{
				"name" : "somax.midiinfluencer.maxpat",
				"bootpath" : "~/Documents/GitHub/Somax2/max/somax/patchers",
				"patcherrelativepath" : "../../patchers",
				"type" : "JSON",
				"implicit" : 1
			}
, 			{
				"name" : "somax.path.maxpat",
				"bootpath" : "~/Documents/GitHub/Somax2/max/somax/patchers",
				"patcherrelativepath" : "../../patchers",
				"type" : "JSON",
				"implicit" : 1
			}
, 			{
				"name" : "somax.player.core.maxpat",
				"bootpath" : "~/Documents/GitHub/Somax2/max/somax/patchers",
				"patcherrelativepath" : "../../patchers",
				"type" : "JSON",
				"implicit" : 1
			}
, 			{
				"name" : "somax.player.maxpat",
				"bootpath" : "~/Documents/GitHub/Somax2/max/somax/patchers",
				"patcherrelativepath" : "../../patchers",
				"type" : "JSON",
				"implicit" : 1
			}
, 			{
				"name" : "somax.print.maxpat",
				"bootpath" : "~/Documents/GitHub/Somax2/max/somax/patchers",
				"patcherrelativepath" : "../../patchers",
				"type" : "JSON",
				"implicit" : 1
			}
, 			{
				"name" : "somax.relativepath.maxpat",
				"bootpath" : "~/Documents/GitHub/Somax2/max/somax/patchers/resources/misc",
				"patcherrelativepath" : "../../patchers/resources/misc",
				"type" : "JSON",
				"implicit" : 1
			}
, 			{
				"name" : "somax.server.maxpat",
				"bootpath" : "~/Documents/GitHub/Somax2/max/somax/patchers",
				"patcherrelativepath" : "../../patchers",
				"type" : "JSON",
				"implicit" : 1
			}
, 			{
				"name" : "somax.serverstatus.maxpat",
				"bootpath" : "~/Documents/GitHub/Somax2/max/somax/patchers/resources/server",
				"patcherrelativepath" : "../../patchers/resources/server",
				"type" : "JSON",
				"implicit" : 1
			}
, 			{
				"name" : "somax.serverstatus.ui.maxpat",
				"bootpath" : "~/Documents/GitHub/Somax2/max/somax/patchers/resources/server",
				"patcherrelativepath" : "../../patchers/resources/server",
				"type" : "JSON",
				"implicit" : 1
			}
, 			{
				"name" : "somax.uniquename.maxpat",
				"bootpath" : "~/Documents/GitHub/Somax2/max/somax/patchers/resources/misc",
				"patcherrelativepath" : "../../patchers/resources/misc",
				"type" : "JSON",
				"implicit" : 1
			}
, 			{
				"name" : "somax.uniquenumber.maxpat",
				"bootpath" : "~/Documents/GitHub/Somax2/max/somax/patchers/resources/misc",
				"patcherrelativepath" : "../../patchers/resources/misc",
				"type" : "JSON",
				"implicit" : 1
			}
, 			{
				"name" : "somax.winresize.maxpat",
				"bootpath" : "~/Documents/GitHub/Somax2/max/somax/patchers/resources/misc",
				"patcherrelativepath" : "../../patchers/resources/misc",
				"type" : "JSON",
				"implicit" : 1
			}
 ],
		"autosave" : 0,
		"styles" : [ 			{
				"name" : "IRCAM",
				"default" : 				{
					"fontname" : [ "Monaco" ],
					"fontsize" : [ 14.0 ]
				}
,
				"parentstyle" : "",
				"multi" : 0
			}
, 			{
				"name" : "monacy",
				"default" : 				{
					"fontname" : [ "Monaco" ],
					"fontsize" : [ 9.0 ]
				}
,
				"parentstyle" : "",
				"multi" : 0
			}
 ]
	}

}
