{
	"patcher" : 	{
		"fileversion" : 1,
		"appversion" : 		{
			"major" : 8,
			"minor" : 3,
			"revision" : 2,
			"architecture" : "x64",
			"modernui" : 1
		}
,
		"classnamespace" : "box",
		"rect" : [ 34.0, 79.0, 1435.0, 1031.0 ],
		"bglocked" : 0,
		"openinpresentation" : 1,
		"default_fontsize" : 12.0,
		"default_fontface" : 0,
		"default_fontname" : "Arial",
		"gridonopen" : 1,
		"gridsize" : [ 15.0, 15.0 ],
		"gridsnaponopen" : 1,
		"objectsnaponopen" : 1,
		"statusbarvisible" : 2,
		"toolbarvisible" : 1,
		"lefttoolbarpinned" : 0,
		"toptoolbarpinned" : 0,
		"righttoolbarpinned" : 0,
		"bottomtoolbarpinned" : 0,
		"toolbars_unpinned_last_save" : 0,
		"tallnewobj" : 0,
		"boxanimatetime" : 200,
		"enablehscroll" : 1,
		"enablevscroll" : 1,
		"devicewidth" : 0.0,
		"description" : "",
		"digest" : "",
		"tags" : "",
		"style" : "",
		"subpatcher_template" : "",
		"assistshowspatchername" : 0,
		"boxes" : [ 			{
				"box" : 				{
					"id" : "obj-21",
					"linecount" : 3,
					"maxclass" : "newobj",
					"numinlets" : 4,
					"numoutlets" : 4,
					"outlettype" : [ "", "", "", "" ],
					"patching_rect" : [ 46.0, 535.154148638248444, 131.0, 49.0 ],
					"text" : "route influence_chord influence_noteoff audio_onset",
					"varname" : "playeroutput"
				}

			}
, 			{
				"box" : 				{
					"comment" : "(list) info messages from server",
					"id" : "obj-15",
					"index" : 2,
					"maxclass" : "outlet",
					"numinlets" : 1,
					"numoutlets" : 0,
					"patching_rect" : [ 179.0, 805.0, 30.0, 30.0 ]
				}

			}
, 			{
				"box" : 				{
					"comment" : "(list) info messages",
					"id" : "obj-547",
					"index" : 10,
					"maxclass" : "outlet",
					"numinlets" : 1,
					"numoutlets" : 0,
					"patching_rect" : [ 1448.428687429803176, 805.0, 30.0, 30.0 ]
				}

			}
, 			{
				"box" : 				{
					"comment" : "(debug)",
					"id" : "obj-437",
					"index" : 9,
					"maxclass" : "outlet",
					"numinlets" : 1,
					"numoutlets" : 0,
					"patching_rect" : [ 1397.0, 805.0, 30.0, 30.0 ]
				}

			}
, 			{
				"box" : 				{
					"fontface" : 1,
					"fontsize" : 10.0,
					"id" : "obj-5",
					"maxclass" : "textbutton",
					"numinlets" : 1,
					"numoutlets" : 3,
					"outlettype" : [ "", "", "int" ],
					"parameter_enable" : 0,
					"patching_rect" : [ 688.0, 457.596841145363214, 100.0, 20.0 ],
					"presentation" : 1,
					"presentation_rect" : [ 75.587598867392757, 501.596841145363214, 85.604244709015177, 20.0 ],
					"rounded" : 20.0,
					"text" : "Settings (MIDI)",
					"textcolor" : [ 0.933333333333333, 0.933333333333333, 0.933333333333333, 1.0 ],
					"texton" : "Continuous",
					"textoncolor" : [ 0.933333333333333, 0.933333333333333, 0.933333333333333, 1.0 ]
				}

			}
, 			{
				"box" : 				{
					"id" : "obj-11",
					"maxclass" : "message",
					"numinlets" : 2,
					"numoutlets" : 1,
					"outlettype" : [ "" ],
					"patching_rect" : [ 688.0, 490.0, 95.0, 22.0 ],
					"text" : "thispatcher front"
				}

			}
, 			{
				"box" : 				{
					"fontface" : 1,
					"fontsize" : 10.0,
					"id" : "obj-180",
					"maxclass" : "textbutton",
					"numinlets" : 1,
					"numoutlets" : 3,
					"outlettype" : [ "", "", "int" ],
					"outputmode" : 0,
					"parameter_enable" : 0,
					"patching_rect" : [ 1104.5, 113.673327137546494, 68.0, 20.0 ],
					"presentation" : 1,
					"presentation_rect" : [ 171.584603340888407, 569.0, 61.0, 20.0 ],
					"rounded" : 20.0,
					"text" : "Help",
					"textcolor" : [ 0.933333333333333, 0.933333333333333, 0.933333333333333, 1.0 ],
					"texton" : "",
					"textoncolor" : [ 0.933333333333333, 0.933333333333333, 0.933333333333333, 1.0 ]
				}

			}
, 			{
				"box" : 				{
					"id" : "obj-177",
					"maxclass" : "message",
					"numinlets" : 2,
					"numoutlets" : 1,
					"outlettype" : [ "" ],
					"patching_rect" : [ 1104.5, 145.0, 154.0, 22.0 ],
					"text" : "load somax.player.maxhelp"
				}

			}
, 			{
				"box" : 				{
					"color" : [ 0.8266150951, 0.1539679319, 0.6292977333, 1.0 ],
					"id" : "obj-124",
					"maxclass" : "newobj",
					"numinlets" : 1,
					"numoutlets" : 1,
					"outlettype" : [ "" ],
					"patching_rect" : [ 1104.5, 173.0, 51.0, 22.0 ],
					"text" : "pcontrol"
				}

			}
, 			{
				"box" : 				{
					"id" : "obj-12",
					"maxclass" : "newobj",
					"numinlets" : 1,
					"numoutlets" : 1,
					"outlettype" : [ "" ],
					"patching_rect" : [ 843.0, 145.0, 72.0, 22.0 ],
					"text" : "prepend set"
				}

			}
, 			{
				"box" : 				{
					"color" : [ 0.8266150951, 0.1539679319, 0.6292977333, 1.0 ],
					"id" : "obj-14",
					"maxclass" : "newobj",
					"numinlets" : 1,
					"numoutlets" : 2,
					"outlettype" : [ "", "" ],
					"patching_rect" : [ 843.0, 104.0, 138.0, 22.0 ],
					"text" : "patcherargs playername"
				}

			}
, 			{
				"box" : 				{
					"comment" : "(list) info messages from server",
					"id" : "obj-10",
					"index" : 3,
					"maxclass" : "outlet",
					"numinlets" : 1,
					"numoutlets" : 0,
					"patching_rect" : [ 213.666666666666686, 805.0, 30.0, 30.0 ]
				}

			}
, 			{
				"box" : 				{
					"comment" : "(list) Continous chroma output",
					"id" : "obj-9",
					"index" : 7,
					"maxclass" : "outlet",
					"numinlets" : 1,
					"numoutlets" : 0,
					"patching_rect" : [ 554.0, 805.0, 30.0, 30.0 ]
				}

			}
, 			{
				"box" : 				{
					"comment" : "(int) Pitch influence",
					"id" : "obj-8",
					"index" : 6,
					"maxclass" : "outlet",
					"numinlets" : 1,
					"numoutlets" : 0,
					"patching_rect" : [ 442.5, 805.0, 30.0, 30.0 ]
				}

			}
, 			{
				"box" : 				{
					"comment" : "(bang) Influence onset",
					"id" : "obj-7",
					"index" : 5,
					"maxclass" : "outlet",
					"numinlets" : 1,
					"numoutlets" : 0,
					"patching_rect" : [ 331.0, 805.0, 30.0, 30.0 ]
				}

			}
, 			{
				"box" : 				{
					"id" : "obj-6",
					"maxclass" : "newobj",
					"numinlets" : 1,
					"numoutlets" : 1,
					"outlettype" : [ "" ],
					"patching_rect" : [ 1224.0, 770.0, 111.0, 22.0 ],
					"text" : "prepend midioutput"
				}

			}
, 			{
				"box" : 				{
					"id" : "obj-4",
					"maxclass" : "newobj",
					"numinlets" : 1,
					"numoutlets" : 1,
					"outlettype" : [ "" ],
					"patching_rect" : [ 347.0, 529.0, 89.0, 22.0 ],
					"text" : "prepend player"
				}

			}
, 			{
				"box" : 				{
					"id" : "obj-3",
					"maxclass" : "newobj",
					"numinlets" : 4,
					"numoutlets" : 4,
					"outlettype" : [ "", "", "", "" ],
					"patching_rect" : [ 474.0, 104.0, 259.0, 22.0 ],
					"text" : "route player influencer midioutput"
				}

			}
, 			{
				"box" : 				{
					"comment" : "(bang) External trigger",
					"id" : "obj-2",
					"ignoreclick" : 1,
					"index" : 2,
					"maxclass" : "inlet",
					"numinlets" : 0,
					"numoutlets" : 1,
					"outlettype" : [ "" ],
					"patching_rect" : [ 258.5, 50.0, 30.0, 30.0 ]
				}

			}
, 			{
				"box" : 				{
					"comment" : "(list) messages to agent",
					"id" : "obj-1",
					"ignoreclick" : 1,
					"index" : 1,
					"maxclass" : "inlet",
					"numinlets" : 0,
					"numoutlets" : 1,
					"outlettype" : [ "" ],
					"patching_rect" : [ 147.0, 50.0, 30.0, 30.0 ]
				}

			}
, 			{
				"box" : 				{
					"fontface" : 1,
					"fontsize" : 10.0,
					"id" : "obj-434",
					"maxclass" : "textbutton",
					"numinlets" : 1,
					"numoutlets" : 3,
					"outlettype" : [ "", "", "int" ],
					"parameter_enable" : 0,
					"patching_rect" : [ 347.0, 71.596841145363214, 100.0, 20.0 ],
					"presentation" : 1,
					"presentation_rect" : [ 154.48035863187323, 84.75, 81.604244709015177, 20.0 ],
					"rounded" : 20.0,
					"text" : "Settings",
					"textcolor" : [ 0.933333333333333, 0.933333333333333, 0.933333333333333, 1.0 ],
					"texton" : "Continuous",
					"textoncolor" : [ 0.933333333333333, 0.933333333333333, 0.933333333333333, 1.0 ]
				}

			}
, 			{
				"box" : 				{
					"id" : "obj-71",
					"maxclass" : "message",
					"numinlets" : 2,
					"numoutlets" : 1,
					"outlettype" : [ "" ],
					"patching_rect" : [ 347.0, 104.0, 95.0, 22.0 ],
					"text" : "thispatcher front"
				}

			}
, 			{
				"box" : 				{
					"bgmode" : 0,
					"border" : 0,
					"clickthrough" : 0,
					"enablehscroll" : 0,
					"enablevscroll" : 0,
					"id" : "obj-84",
					"lockeddragscroll" : 0,
					"lockedsize" : 0,
					"maxclass" : "bpatcher",
					"name" : "somax.midioutput2.maxpat",
					"numinlets" : 2,
					"numoutlets" : 2,
					"offset" : [ 0.0, 0.0 ],
					"outlettype" : [ "", "" ],
					"patching_rect" : [ 612.0, 643.0, 631.0, 120.0 ],
					"presentation" : 1,
					"presentation_rect" : [ -0.415396659111593, 496.5, 623.000000976158162, 114.0 ],
					"varname" : "somax.midioutput2",
					"viewvisibility" : 1
				}

			}
, 			{
				"box" : 				{
					"fontface" : 1,
					"fontsize" : 14.0,
					"id" : "obj-63",
					"maxclass" : "comment",
					"numinlets" : 1,
					"numoutlets" : 0,
					"patching_rect" : [ 625.0, 58.0, 130.0, 22.0 ],
					"presentation" : 1,
					"presentation_rect" : [ 6.084603340888407, 5.825000250000016, 224.610235762023876, 22.0 ],
					"text" : "Player",
					"textcolor" : [ 0.933333333333333, 0.933333333333333, 0.933333333333333, 1.0 ],
					"textjustification" : 1
				}

			}
, 			{
				"box" : 				{
					"color" : [ 0.8266150951, 0.1539679319, 0.6292977333, 1.0 ],
					"id" : "obj-59",
					"maxclass" : "newobj",
					"numinlets" : 1,
					"numoutlets" : 1,
					"outlettype" : [ "" ],
					"patching_rect" : [ 1224.0, 579.154148638248444, 116.0, 22.0 ],
					"text" : "loadmess enabled 1"
				}

			}
, 			{
				"box" : 				{
					"id" : "obj-13",
					"maxclass" : "newobj",
					"numinlets" : 1,
					"numoutlets" : 2,
					"outlettype" : [ "", "" ],
					"patching_rect" : [ 331.0, 595.154148638248444, 300.0, 22.0 ],
					"text" : "t l l"
				}

			}
, 			{
				"box" : 				{
					"bgmode" : 0,
					"border" : 0,
					"clickthrough" : 0,
					"enablehscroll" : 0,
					"enablevscroll" : 0,
					"id" : "obj-17",
					"lockeddragscroll" : 0,
					"lockedsize" : 0,
					"maxclass" : "bpatcher",
					"name" : "somax.midiinfluencer.compact.maxpat",
					"numinlets" : 3,
					"numoutlets" : 5,
					"offset" : [ 0.0, 0.0 ],
					"outlettype" : [ "", "", "", "", "" ],
					"patching_rect" : [ 331.0, 643.0, 242.0, 68.0 ],
					"presentation" : 1,
					"presentation_rect" : [ 2.584603340888407, 407.157589068420407, 241.0, 65.0 ],
					"varname" : "somax.midiinfluencer.compact",
					"viewvisibility" : 1
				}

			}
, 			{
				"box" : 				{
					"args" : [ "#1", 1236, 1237, "127.0.0.1" ],
					"bgmode" : 0,
					"border" : 0,
					"clickthrough" : 1,
					"enablehscroll" : 0,
					"enablevscroll" : 0,
					"id" : "obj-49",
					"lockeddragscroll" : 0,
					"lockedsize" : 0,
					"maxclass" : "bpatcher",
					"name" : "somax.player.compact.maxpat",
					"numinlets" : 2,
					"numoutlets" : 7,
					"offset" : [ 0.0, 0.0 ],
					"outlettype" : [ "", "multichannelsignal", "", "", "", "", "" ],
					"patching_rect" : [ 147.0, 158.0, 244.0, 426.154148638248444 ],
					"presentation" : 1,
					"presentation_rect" : [ 10.584603340888407, 32.225000702995317, 236.5, 368.83258881842039 ],
					"varname" : "somax.player.c",
					"viewvisibility" : 1
				}

			}
, 			{
				"box" : 				{
					"angle" : 270.0,
					"bgcolor" : [ 0.372549019607843, 0.372549019607843, 0.372549019607843, 1.0 ],
					"bordercolor" : [ 0.647058823529412, 0.647058823529412, 0.647058823529412, 1.0 ],
					"id" : "obj-61",
					"maxclass" : "panel",
					"mode" : 0,
					"numinlets" : 1,
					"numoutlets" : 0,
					"patching_rect" : [ 615.084603340888407, 57.0, 148.582063325778279, 23.0 ],
					"presentation" : 1,
					"presentation_rect" : [ -0.415396659111593, -0.349999499999967, 247.5, 556.849999499999967 ],
					"proportion" : 0.5
				}

			}
, 			{
				"box" : 				{
					"comment" : "(list) Parameters",
					"id" : "obj-162",
					"index" : 3,
					"maxclass" : "inlet",
					"numinlets" : 0,
					"numoutlets" : 1,
					"outlettype" : [ "" ],
					"patching_rect" : [ 474.0, 50.0, 30.0, 30.0 ]
				}

			}
, 			{
				"box" : 				{
					"comment" : "(list) messages to server",
					"id" : "obj-163",
					"index" : 4,
					"maxclass" : "outlet",
					"numinlets" : 1,
					"numoutlets" : 0,
					"patching_rect" : [ 280.333333333333371, 805.0, 30.0, 30.0 ]
				}

			}
, 			{
				"box" : 				{
					"comment" : "(list) Parameters",
					"id" : "obj-164",
					"index" : 8,
					"maxclass" : "outlet",
					"numinlets" : 1,
					"numoutlets" : 0,
					"patching_rect" : [ 1344.0, 805.0, 30.0, 30.0 ]
				}

			}
, 			{
				"box" : 				{
					"comment" : "(list) nn ch vel",
					"id" : "obj-165",
					"index" : 1,
					"maxclass" : "outlet",
					"numinlets" : 1,
					"numoutlets" : 0,
					"patching_rect" : [ 147.0, 805.0, 30.0, 30.0 ]
				}

			}
 ],
		"lines" : [ 			{
				"patchline" : 				{
					"destination" : [ "obj-49", 0 ],
					"source" : [ "obj-1", 0 ]
				}

			}
, 			{
				"patchline" : 				{
					"destination" : [ "obj-17", 2 ],
					"source" : [ "obj-11", 0 ]
				}

			}
, 			{
				"patchline" : 				{
					"destination" : [ "obj-63", 0 ],
					"source" : [ "obj-12", 0 ]
				}

			}
, 			{
				"patchline" : 				{
					"destination" : [ "obj-17", 0 ],
					"source" : [ "obj-13", 0 ]
				}

			}
, 			{
				"patchline" : 				{
					"destination" : [ "obj-84", 0 ],
					"source" : [ "obj-13", 1 ]
				}

			}
, 			{
				"patchline" : 				{
					"destination" : [ "obj-12", 0 ],
					"source" : [ "obj-14", 0 ]
				}

			}
, 			{
				"patchline" : 				{
					"destination" : [ "obj-3", 0 ],
					"source" : [ "obj-162", 0 ]
				}

			}
, 			{
				"patchline" : 				{
					"destination" : [ "obj-7", 0 ],
					"source" : [ "obj-17", 0 ]
				}

			}
, 			{
				"patchline" : 				{
					"destination" : [ "obj-8", 0 ],
					"source" : [ "obj-17", 1 ]
				}

			}
, 			{
				"patchline" : 				{
					"destination" : [ "obj-9", 0 ],
					"source" : [ "obj-17", 2 ]
				}

			}
, 			{
				"patchline" : 				{
					"destination" : [ "obj-124", 0 ],
					"source" : [ "obj-177", 0 ]
				}

			}
, 			{
				"patchline" : 				{
					"destination" : [ "obj-177", 0 ],
					"source" : [ "obj-180", 0 ]
				}

			}
, 			{
				"patchline" : 				{
					"destination" : [ "obj-17", 1 ],
					"midpoints" : [ 268.0, 147.0, 452.0, 147.0 ],
					"source" : [ "obj-2", 0 ]
				}

			}
, 			{
				"patchline" : 				{
					"destination" : [ "obj-13", 0 ],
					"midpoints" : [ 167.5, 592.077074319124222, 340.5, 592.077074319124222 ],
					"source" : [ "obj-21", 3 ]
				}

			}
, 			{
				"patchline" : 				{
					"destination" : [ "obj-17", 2 ],
					"midpoints" : [ 563.5, 627.5, 563.5, 627.5 ],
					"source" : [ "obj-3", 1 ]
				}

			}
, 			{
				"patchline" : 				{
					"destination" : [ "obj-49", 1 ],
					"midpoints" : [ 483.5, 133.5, 381.5, 133.5 ],
					"source" : [ "obj-3", 0 ]
				}

			}
, 			{
				"patchline" : 				{
					"destination" : [ "obj-84", 1 ],
					"midpoints" : [ 643.5, 607.0, 1233.5, 607.0 ],
					"source" : [ "obj-3", 2 ]
				}

			}
, 			{
				"patchline" : 				{
					"destination" : [ "obj-164", 0 ],
					"midpoints" : [ 356.5, 565.5, 1353.5, 565.5 ],
					"source" : [ "obj-4", 0 ]
				}

			}
, 			{
				"patchline" : 				{
					"destination" : [ "obj-71", 0 ],
					"source" : [ "obj-434", 0 ]
				}

			}
, 			{
				"patchline" : 				{
					"destination" : [ "obj-10", 0 ],
					"source" : [ "obj-49", 2 ]
				}

			}
, 			{
				"patchline" : 				{
					"destination" : [ "obj-15", 0 ],
					"source" : [ "obj-49", 1 ]
				}

			}
, 			{
				"patchline" : 				{
					"color" : [ 0.0, 0.0, 0.0, 1.0 ],
					"destination" : [ "obj-163", 0 ],
					"source" : [ "obj-49", 3 ]
				}

			}
, 			{
				"patchline" : 				{
					"destination" : [ "obj-21", 0 ],
					"midpoints" : [ 156.5, 526.077074319124222, 55.5, 526.077074319124222 ],
					"source" : [ "obj-49", 0 ]
				}

			}
, 			{
				"patchline" : 				{
					"destination" : [ "obj-4", 0 ],
					"source" : [ "obj-49", 4 ]
				}

			}
, 			{
				"patchline" : 				{
					"destination" : [ "obj-437", 0 ],
					"source" : [ "obj-49", 5 ]
				}

			}
, 			{
				"patchline" : 				{
					"destination" : [ "obj-547", 0 ],
					"source" : [ "obj-49", 6 ]
				}

			}
, 			{
				"patchline" : 				{
					"destination" : [ "obj-11", 0 ],
					"source" : [ "obj-5", 0 ]
				}

			}
, 			{
				"patchline" : 				{
					"destination" : [ "obj-84", 1 ],
					"source" : [ "obj-59", 0 ]
				}

			}
, 			{
				"patchline" : 				{
					"destination" : [ "obj-164", 0 ],
					"midpoints" : [ 1233.5, 798.0, 1353.5, 798.0 ],
					"source" : [ "obj-6", 0 ]
				}

			}
, 			{
				"patchline" : 				{
					"destination" : [ "obj-49", 1 ],
					"source" : [ "obj-71", 0 ]
				}

			}
, 			{
				"patchline" : 				{
					"destination" : [ "obj-165", 0 ],
					"midpoints" : [ 621.5, 784.5, 156.5, 784.5 ],
					"source" : [ "obj-84", 0 ]
				}

			}
, 			{
				"patchline" : 				{
					"destination" : [ "obj-6", 0 ],
					"source" : [ "obj-84", 1 ]
				}

			}
 ],
		"boxgroups" : [ 			{
				"boxes" : [ "obj-434", "obj-71" ]
			}
, 			{
				"boxes" : [ "obj-61", "obj-63" ]
			}
, 			{
				"boxes" : [ "obj-5", "obj-11" ]
			}
 ],
		"styles" : [ 			{
				"name" : "dUG Yello 01-1",
				"button" : 				{
					"bgcolor" : [ 1.0, 0.941176, 0.803922, 1.0 ]
				}
,
				"default" : 				{
					"bgcolor" : [ 1.0, 0.941176, 0.803922, 1.0 ],
					"bgfillcolor" : 					{
						"angle" : 270.0,
						"autogradient" : 0,
						"color" : [ 0.290196, 0.309804, 0.301961, 1.0 ],
						"color1" : [ 0.94902, 0.992157, 1.0, 1.0 ],
						"color2" : [ 0.862745, 0.870588, 0.878431, 1.0 ],
						"proportion" : 0.39,
						"type" : "gradient"
					}
,
					"fontface" : [ 1 ],
					"fontsize" : [ 10.0 ],
					"textcolor_inverse" : [ 0.0, 0.0, 0.0, 1.0 ]
				}
,
				"newobj" : 				{
					"bgcolor" : [ 1.0, 0.941176, 0.803922, 1.0 ],
					"fontface" : [ 1 ],
					"fontsize" : [ 10.0 ],
					"textcolor_inverse" : [ 0.0, 0.0, 0.0, 1.0 ]
				}
,
				"toggle" : 				{
					"bgcolor" : [ 1.0, 0.941176, 0.803922, 1.0 ]
				}
,
				"message" : 				{
					"bgfillcolor" : 					{
						"angle" : 270.0,
						"autogradient" : 0,
						"color" : [ 0.290196, 0.309804, 0.301961, 1.0 ],
						"color1" : [ 0.94902, 0.992157, 1.0, 1.0 ],
						"color2" : [ 0.862745, 0.870588, 0.878431, 1.0 ],
						"proportion" : 0.39,
						"type" : "gradient"
					}
,
					"fontface" : [ 1 ],
					"fontsize" : [ 10.0 ],
					"textcolor_inverse" : [ 0.0, 0.0, 0.0, 1.0 ]
				}
,
				"parentstyle" : "",
				"multi" : 0
			}
 ]
	}

}
