{
	"patcher" : 	{
		"fileversion" : 1,
		"appversion" : 		{
			"major" : 8,
			"minor" : 5,
			"revision" : 3,
			"architecture" : "x64",
			"modernui" : 1
		}
,
		"classnamespace" : "box",
		"rect" : [ 67.0, 66.0, 1058.0, 722.0 ],
		"bglocked" : 0,
		"openinpresentation" : 0,
		"default_fontsize" : 12.0,
		"default_fontface" : 0,
		"default_fontname" : "Arial",
		"gridonopen" : 1,
		"gridsize" : [ 15.0, 15.0 ],
		"gridsnaponopen" : 1,
		"objectsnaponopen" : 1,
		"statusbarvisible" : 2,
		"toolbarvisible" : 1,
		"lefttoolbarpinned" : 0,
		"toptoolbarpinned" : 0,
		"righttoolbarpinned" : 0,
		"bottomtoolbarpinned" : 0,
		"toolbars_unpinned_last_save" : 2,
		"tallnewobj" : 0,
		"boxanimatetime" : 200,
		"enablehscroll" : 1,
		"enablevscroll" : 1,
		"devicewidth" : 0.0,
		"description" : "",
		"digest" : "",
		"tags" : "",
		"style" : "",
		"subpatcher_template" : "",
		"showrootpatcherontab" : 0,
		"showontab" : 0,
		"assistshowspatchername" : 0,
		"boxes" : [ 			{
				"box" : 				{
					"id" : "obj-6",
					"maxclass" : "newobj",
					"numinlets" : 0,
					"numoutlets" : 0,
					"patcher" : 					{
						"fileversion" : 1,
						"appversion" : 						{
							"major" : 8,
							"minor" : 5,
							"revision" : 3,
							"architecture" : "x64",
							"modernui" : 1
						}
,
						"classnamespace" : "box",
						"rect" : [ 0.0, 26.0, 1058.0, 696.0 ],
						"bglocked" : 0,
						"openinpresentation" : 0,
						"default_fontsize" : 12.0,
						"default_fontface" : 0,
						"default_fontname" : "Arial",
						"gridonopen" : 1,
						"gridsize" : [ 15.0, 15.0 ],
						"gridsnaponopen" : 1,
						"objectsnaponopen" : 1,
						"statusbarvisible" : 2,
						"toolbarvisible" : 1,
						"lefttoolbarpinned" : 0,
						"toptoolbarpinned" : 0,
						"righttoolbarpinned" : 0,
						"bottomtoolbarpinned" : 0,
						"toolbars_unpinned_last_save" : 0,
						"tallnewobj" : 0,
						"boxanimatetime" : 200,
						"enablehscroll" : 1,
						"enablevscroll" : 1,
						"devicewidth" : 0.0,
						"description" : "",
						"digest" : "",
						"tags" : "",
						"style" : "",
						"subpatcher_template" : "",
						"showontab" : 1,
						"isolateaudio" : 1,
						"assistshowspatchername" : 0,
						"boxes" : [  ],
						"lines" : [  ]
					}
,
					"patching_rect" : [ 157.0, 27.0, 25.0, 22.0 ],
					"saved_object_attributes" : 					{
						"description" : "",
						"digest" : "",
						"globalpatchername" : "",
						"tags" : ""
					}
,
					"text" : "p ?",
					"varname" : "basic[4]"
				}

			}
, 			{
				"box" : 				{
					"id" : "obj-3",
					"maxclass" : "newobj",
					"numinlets" : 0,
					"numoutlets" : 0,
					"patcher" : 					{
						"fileversion" : 1,
						"appversion" : 						{
							"major" : 8,
							"minor" : 5,
							"revision" : 3,
							"architecture" : "x64",
							"modernui" : 1
						}
,
						"classnamespace" : "box",
						"rect" : [ 67.0, 92.0, 1058.0, 696.0 ],
						"openrect" : [ 0.0, 0.0, 1055.0, 690.0 ],
						"bglocked" : 0,
						"openinpresentation" : 0,
						"default_fontsize" : 12.0,
						"default_fontface" : 0,
						"default_fontname" : "Arial",
						"gridonopen" : 1,
						"gridsize" : [ 15.0, 15.0 ],
						"gridsnaponopen" : 1,
						"objectsnaponopen" : 1,
						"statusbarvisible" : 2,
						"toolbarvisible" : 1,
						"lefttoolbarpinned" : 0,
						"toptoolbarpinned" : 0,
						"righttoolbarpinned" : 0,
						"bottomtoolbarpinned" : 0,
						"toolbars_unpinned_last_save" : 0,
						"tallnewobj" : 0,
						"boxanimatetime" : 200,
						"enablehscroll" : 1,
						"enablevscroll" : 1,
						"devicewidth" : 0.0,
						"description" : "",
						"digest" : "",
						"tags" : "",
						"style" : "",
						"subpatcher_template" : "",
						"showontab" : 1,
						"isolateaudio" : 1,
						"assistshowspatchername" : 0,
						"boxes" : [ 							{
								"box" : 								{
									"id" : "obj-12",
									"maxclass" : "message",
									"numinlets" : 2,
									"numoutlets" : 1,
									"outlettype" : [ "" ],
									"patching_rect" : [ 388.0, 471.312499999999886, 101.0, 22.0 ],
									"text" : "gainthresh 0.07"
								}

							}
, 							{
								"box" : 								{
									"fontname" : "Arial",
									"fontsize" : 13.0,
									"id" : "obj-13",
									"maxclass" : "comment",
									"numinlets" : 1,
									"numoutlets" : 0,
									"patching_rect" : [ 495.516877637130847, 471.312499999999886, 144.0, 21.0 ],
									"text" : "last modified parameter",
									"textcolor" : [ 0.501960784313725, 0.501960784313725, 0.501960784313725, 1.0 ]
								}

							}
, 							{
								"box" : 								{
									"fontname" : "Arial",
									"fontsize" : 13.0,
									"id" : "obj-6",
									"maxclass" : "comment",
									"numinlets" : 1,
									"numoutlets" : 0,
									"patching_rect" : [ 23.0, 653.312499999999886, 311.0, 21.0 ],
									"text" : "The built audio corpus will have the extension .pickle",
									"textcolor" : [ 0.501960784313725, 0.501960784313725, 0.501960784313725, 1.0 ]
								}

							}
, 							{
								"box" : 								{
									"hidden" : 1,
									"id" : "obj-4",
									"maxclass" : "newobj",
									"numinlets" : 1,
									"numoutlets" : 1,
									"outlettype" : [ "" ],
									"patching_rect" : [ 23.0, 489.854166666666401, 79.0, 22.0 ],
									"text" : "loadmess set"
								}

							}
, 							{
								"box" : 								{
									"fontname" : "Arial",
									"fontsize" : 13.0,
									"id" : "obj-76",
									"linecount" : 2,
									"maxclass" : "comment",
									"numinlets" : 1,
									"numoutlets" : 0,
									"patching_rect" : [ 23.0, 482.854166666666401, 129.0, 36.0 ],
									"text" : "Path of built corpus (or -1 if build failed)",
									"textcolor" : [ 0.501960784313725, 0.501960784313725, 0.501960784313725, 1.0 ]
								}

							}
, 							{
								"box" : 								{
									"arrows" : 2,
									"id" : "obj-74",
									"justification" : 3,
									"linecolor" : [ 0.501960784313725, 0.501960784313725, 0.501960784313725, 1.0 ],
									"maxclass" : "live.line",
									"numinlets" : 1,
									"numoutlets" : 0,
									"patching_rect" : [ 506.5, 276.854166666666401, 100.6875, 155.458333333333485 ],
									"saved_attribute_attributes" : 									{
										"linecolor" : 										{
											"expression" : ""
										}

									}

								}

							}
, 							{
								"box" : 								{
									"bubble" : 1,
									"bubblepoint" : 0.0,
									"bubbleside" : 2,
									"id" : "obj-73",
									"linecount" : 2,
									"maxclass" : "comment",
									"numinlets" : 1,
									"numoutlets" : 0,
									"patching_rect" : [ 498.25, 206.0, 143.0, 52.0 ],
									"text" : "choose either method to build an audio corpus",
									"textcolor" : [ 0.349019607843137, 0.349019607843137, 0.349019607843137, 1.0 ]
								}

							}
, 							{
								"box" : 								{
									"arrows" : 1,
									"id" : "obj-72",
									"justification" : 3,
									"linecolor" : [ 0.501960784313725, 0.501960784313725, 0.501960784313725, 1.0 ],
									"maxclass" : "live.line",
									"numinlets" : 1,
									"numoutlets" : 0,
									"patching_rect" : [ 224.90625, 191.5, 260.1875, 73.0 ],
									"saved_attribute_attributes" : 									{
										"linecolor" : 										{
											"expression" : ""
										}

									}

								}

							}
, 							{
								"box" : 								{
									"fontname" : "Arial",
									"fontsize" : 13.0,
									"id" : "obj-70",
									"linecount" : 2,
									"maxclass" : "comment",
									"numinlets" : 1,
									"numoutlets" : 0,
									"patching_rect" : [ 654.0, 553.312499999999886, 237.0, 36.0 ],
									"text" : "See the corpus builder tutorial for more info",
									"textcolor" : [ 0.501960784313725, 0.501960784313725, 0.501960784313725, 1.0 ]
								}

							}
, 							{
								"box" : 								{
									"fontname" : "Arial",
									"fontsize" : 13.0,
									"id" : "obj-69",
									"linecount" : 4,
									"maxclass" : "comment",
									"numinlets" : 1,
									"numoutlets" : 0,
									"patching_rect" : [ 172.0, 568.89583333333303, 129.0, 65.0 ],
									"text" : "Audio outlet is only needed when using \"Test Segmentation\" in the UI",
									"textcolor" : [ 0.501960784313725, 0.501960784313725, 0.501960784313725, 1.0 ]
								}

							}
, 							{
								"box" : 								{
									"bubble" : 1,
									"id" : "obj-67",
									"maxclass" : "comment",
									"numinlets" : 1,
									"numoutlets" : 0,
									"patching_rect" : [ 640.0, 437.562499999999886, 148.0, 24.0 ],
									"text" : "double-click to open UI",
									"textcolor" : [ 0.349019607843137, 0.349019607843137, 0.349019607843137, 1.0 ]
								}

							}
, 							{
								"box" : 								{
									"fontface" : 1,
									"fontname" : "Arial",
									"fontsize" : 13.0,
									"id" : "obj-66",
									"linecount" : 5,
									"maxclass" : "comment",
									"numinlets" : 1,
									"numoutlets" : 0,
									"patching_rect" : [ 654.0, 468.312499999999886, 233.1875, 79.0 ],
									"text" : "It's recommended to use the UI to build the corpus, as it allows you to use the \"Test Segmentation\" to listen to the segmentation prior to exporting the corpus",
									"textcolor" : [ 0.996078431372549, 0.423529411764706, 0.423529411764706, 1.0 ]
								}

							}
, 							{
								"box" : 								{
									"hidden" : 1,
									"id" : "obj-60",
									"maxclass" : "message",
									"numinlets" : 2,
									"numoutlets" : 1,
									"outlettype" : [ "" ],
									"patching_rect" : [ 718.90625, 624.312499999999886, 198.0, 22.0 ],
									"text" : "load \"3 - Building a Corpus.maxpat\""
								}

							}
, 							{
								"box" : 								{
									"fontface" : 1,
									"fontsize" : 12.0,
									"id" : "obj-61",
									"maxclass" : "textbutton",
									"numinlets" : 1,
									"numoutlets" : 3,
									"outlettype" : [ "", "", "int" ],
									"outputmode" : 0,
									"parameter_enable" : 0,
									"patching_rect" : [ 718.90625, 581.812499999999886, 103.1875, 29.0 ],
									"presentation" : 1,
									"presentation_rect" : [ 737.0, 578.0, 254.0, 46.0 ],
									"rounded" : 8.0,
									"text" : "Corpus Builder Tutorial",
									"textoncolor" : [ 1.0, 0.709803921568627, 0.196078431372549, 1.0 ],
									"textovercolor" : [ 1.0, 0.709803921568627, 0.196078431372549, 1.0 ],
									"truncate" : 0
								}

							}
, 							{
								"box" : 								{
									"color" : [ 0.8266150951, 0.1539679319, 0.6292977333, 1.0 ],
									"hidden" : 1,
									"id" : "obj-62",
									"maxclass" : "newobj",
									"numinlets" : 1,
									"numoutlets" : 1,
									"outlettype" : [ "" ],
									"patching_rect" : [ 718.90625, 653.312499999999886, 51.0, 22.0 ],
									"text" : "pcontrol"
								}

							}
, 							{
								"box" : 								{
									"bubble" : 1,
									"id" : "obj-58",
									"linecount" : 3,
									"maxclass" : "comment",
									"numinlets" : 1,
									"numoutlets" : 0,
									"patching_rect" : [ 247.5, 363.0, 234.0, 51.0 ],
									"text" : "Achieving a good segmentation is critical for the final result. These are the two most important parameters",
									"textcolor" : [ 0.349019607843137, 0.349019607843137, 0.349019607843137, 1.0 ]
								}

							}
, 							{
								"box" : 								{
									"fontname" : "Arial",
									"fontsize" : 13.0,
									"id" : "obj-55",
									"maxclass" : "comment",
									"numinlets" : 1,
									"numoutlets" : 0,
									"patching_rect" : [ 118.000000000000057, 351.312499999999886, 34.0, 21.0 ],
									"text" : "(ms)",
									"textcolor" : [ 0.501960784313725, 0.501960784313725, 0.501960784313725, 1.0 ]
								}

							}
, 							{
								"box" : 								{
									"fontname" : "Arial",
									"fontsize" : 13.0,
									"id" : "obj-54",
									"linecount" : 2,
									"maxclass" : "comment",
									"numinlets" : 1,
									"numoutlets" : 0,
									"patching_rect" : [ 113.770833333333314, 296.770833333333258, 300.0, 36.0 ],
									"text" : "If no explicit corpus_name is provided, the corpus will have the same name as the audio file",
									"textcolor" : [ 0.501960784313725, 0.501960784313725, 0.501960784313725, 1.0 ]
								}

							}
, 							{
								"box" : 								{
									"fontname" : "Arial",
									"fontsize" : 13.0,
									"id" : "obj-47",
									"linecount" : 3,
									"maxclass" : "comment",
									"numinlets" : 1,
									"numoutlets" : 0,
									"patching_rect" : [ 113.770833333333314, 241.0, 300.0, 50.0 ],
									"text" : "Two supported formats:\n- build <path/to/audiofile.wav>\n- build <path/to/audiofile.wav> <corpus_name>",
									"textcolor" : [ 0.501960784313725, 0.501960784313725, 0.501960784313725, 1.0 ]
								}

							}
, 							{
								"box" : 								{
									"fontsize" : 10.0,
									"id" : "obj-45",
									"maxclass" : "message",
									"numinlets" : 2,
									"numoutlets" : 1,
									"outlettype" : [ "" ],
									"patching_rect" : [ 937.75, 409.312499999999886, 31.0, 20.0 ],
									"text" : "reset"
								}

							}
, 							{
								"box" : 								{
									"id" : "obj-42",
									"maxclass" : "button",
									"numinlets" : 1,
									"numoutlets" : 1,
									"outlettype" : [ "bang" ],
									"parameter_enable" : 0,
									"patching_rect" : [ 903.25, 409.312499999999886, 18.0, 18.0 ]
								}

							}
, 							{
								"box" : 								{
									"id" : "obj-39",
									"maxclass" : "newobj",
									"numinlets" : 1,
									"numoutlets" : 2,
									"outlettype" : [ "", "bang" ],
									"patching_rect" : [ 903.25, 436.312499999999886, 90.0, 22.0 ],
									"text" : "opendialog fold"
								}

							}
, 							{
								"box" : 								{
									"id" : "obj-35",
									"maxclass" : "newobj",
									"numinlets" : 1,
									"numoutlets" : 1,
									"outlettype" : [ "" ],
									"patching_rect" : [ 903.25, 471.312499999999886, 115.0, 22.0 ],
									"text" : "prepend corpuspath"
								}

							}
, 							{
								"box" : 								{
									"fontname" : "Arial",
									"fontsize" : 13.0,
									"id" : "obj-14",
									"linecount" : 3,
									"maxclass" : "comment",
									"numinlets" : 1,
									"numoutlets" : 0,
									"patching_rect" : [ 844.75, 351.312499999999886, 175.0, 50.0 ],
									"text" : "The corpora will be stored in the server's corpuspath folder. This can be changed:",
									"textcolor" : [ 0.501960784313725, 0.501960784313725, 0.501960784313725, 1.0 ]
								}

							}
, 							{
								"box" : 								{
									"id" : "obj-46",
									"linecount" : 3,
									"maxclass" : "message",
									"numinlets" : 2,
									"numoutlets" : 1,
									"outlettype" : [ "" ],
									"patching_rect" : [ 657.1875, 357.0, 180.0, 49.0 ],
									"text" : "/Users/marcofiorini/Documents/GitHub/Somax2/max/somax/corpus"
								}

							}
, 							{
								"box" : 								{
									"id" : "obj-44",
									"maxclass" : "newobj",
									"numinlets" : 2,
									"numoutlets" : 2,
									"outlettype" : [ "", "" ],
									"patching_rect" : [ 657.1875, 296.770833333333258, 99.0, 22.0 ],
									"text" : "route corpuspath"
								}

							}
, 							{
								"box" : 								{
									"fontname" : "Arial",
									"fontsize" : 13.0,
									"id" : "obj-21",
									"linecount" : 4,
									"maxclass" : "comment",
									"numinlets" : 1,
									"numoutlets" : 0,
									"patching_rect" : [ 321.0, 561.39583333333303, 240.0, 65.0 ],
									"text" : "It's not necessary to \"initialize\" the corpus builder, but it does require a server to be running. It will change to \"inprogress\" while building a corpus",
									"textcolor" : [ 0.501960784313725, 0.501960784313725, 0.501960784313725, 1.0 ]
								}

							}
, 							{
								"box" : 								{
									"checkedcolor" : [ 0.482352941176471, 0.847058823529412, 0.36078431372549, 1.0 ],
									"id" : "obj-16",
									"ignoreclick" : 1,
									"maxclass" : "toggle",
									"numinlets" : 1,
									"numoutlets" : 1,
									"outlettype" : [ "int" ],
									"parameter_enable" : 0,
									"patching_rect" : [ 321.0, 514.854166666666401, 44.541666666666629, 44.541666666666629 ]
								}

							}
, 							{
								"box" : 								{
									"fontface" : 1,
									"fontsize" : 24.0,
									"id" : "obj-18",
									"maxclass" : "message",
									"numinlets" : 2,
									"numoutlets" : 1,
									"outlettype" : [ "" ],
									"patching_rect" : [ 371.541666666666742, 514.854166666666401, 160.0, 35.0 ],
									"text" : "0 offline"
								}

							}
, 							{
								"box" : 								{
									"fontname" : "Arial",
									"fontsize" : 13.0,
									"id" : "obj-15",
									"linecount" : 3,
									"maxclass" : "comment",
									"numinlets" : 1,
									"numoutlets" : 0,
									"patching_rect" : [ 341.541666666666742, 152.5, 202.0, 50.0 ],
									"text" : "Building a corpus takes some time: expect around 10 seconds of build time per minute of audio",
									"textcolor" : [ 0.501960784313725, 0.501960784313725, 0.501960784313725, 1.0 ]
								}

							}
, 							{
								"box" : 								{
									"bubble" : 1,
									"id" : "obj-3",
									"linecount" : 2,
									"maxclass" : "comment",
									"numinlets" : 1,
									"numoutlets" : 0,
									"patching_rect" : [ 59.25, 152.5, 169.25, 37.0 ],
									"text" : "select an audio file (mono or stereo) to build a corpus",
									"textcolor" : [ 0.349019607843137, 0.349019607843137, 0.349019607843137, 1.0 ]
								}

							}
, 							{
								"box" : 								{
									"fontname" : "Arial",
									"fontsize" : 13.0,
									"id" : "obj-79",
									"linecount" : 4,
									"maxclass" : "comment",
									"numinlets" : 1,
									"numoutlets" : 0,
									"patching_rect" : [ 815.25, 152.5, 157.0, 65.0 ],
									"text" : "If the status is \"duplicate\" and you already have another server running, go to the next step",
									"textcolor" : [ 0.501960784313725, 0.501960784313725, 0.501960784313725, 1.0 ]
								}

							}
, 							{
								"box" : 								{
									"bubble" : 1,
									"id" : "obj-78",
									"maxclass" : "comment",
									"numinlets" : 1,
									"numoutlets" : 0,
									"patching_rect" : [ 684.25, 152.5, 125.0, 24.0 ],
									"text" : "initialize the server",
									"textcolor" : [ 0.349019607843137, 0.349019607843137, 0.349019607843137, 1.0 ]
								}

							}
, 							{
								"box" : 								{
									"hidden" : 1,
									"id" : "obj-63",
									"maxclass" : "message",
									"numinlets" : 2,
									"numoutlets" : 1,
									"outlettype" : [ "" ],
									"patching_rect" : [ 1073.5, 59.5, 205.0, 22.0 ],
									"text" : "loadunique somax2.overview.maxpat"
								}

							}
, 							{
								"box" : 								{
									"fontface" : 1,
									"fontsize" : 12.0,
									"id" : "obj-64",
									"maxclass" : "textbutton",
									"numinlets" : 1,
									"numoutlets" : 3,
									"outlettype" : [ "", "", "int" ],
									"outputmode" : 0,
									"parameter_enable" : 0,
									"patching_rect" : [ 934.0, 10.0, 84.25, 29.0 ],
									"presentation" : 1,
									"presentation_rect" : [ 619.0, 728.220703125, 254.0, 46.0 ],
									"rounded" : 8.0,
									"text" : "Somax Overview",
									"textoncolor" : [ 1.0, 0.709803921568627, 0.196078431372549, 1.0 ],
									"textovercolor" : [ 1.0, 0.709803921568627, 0.196078431372549, 1.0 ],
									"truncate" : 0
								}

							}
, 							{
								"box" : 								{
									"color" : [ 0.8266150951, 0.1539679319, 0.6292977333, 1.0 ],
									"hidden" : 1,
									"id" : "obj-65",
									"maxclass" : "newobj",
									"numinlets" : 1,
									"numoutlets" : 1,
									"outlettype" : [ "" ],
									"patching_rect" : [ 1073.5, 88.5, 51.0, 22.0 ],
									"text" : "pcontrol"
								}

							}
, 							{
								"box" : 								{
									"id" : "obj-104",
									"maxclass" : "message",
									"numinlets" : 2,
									"numoutlets" : 1,
									"outlettype" : [ "" ],
									"patching_rect" : [ 714.1875, 182.0, 42.0, 22.0 ],
									"text" : "reload"
								}

							}
, 							{
								"box" : 								{
									"checkedcolor" : [ 0.482352941176471, 0.847058823529412, 0.36078431372549, 1.0 ],
									"id" : "obj-105",
									"ignoreclick" : 1,
									"maxclass" : "toggle",
									"numinlets" : 1,
									"numoutlets" : 1,
									"outlettype" : [ "int" ],
									"parameter_enable" : 0,
									"patching_rect" : [ 769.1875, 296.770833333333258, 44.541666666666629, 44.541666666666629 ]
								}

							}
, 							{
								"box" : 								{
									"id" : "obj-110",
									"maxclass" : "message",
									"numinlets" : 2,
									"numoutlets" : 1,
									"outlettype" : [ "" ],
									"patching_rect" : [ 657.1875, 182.0, 51.0, 22.0 ],
									"text" : "initialize"
								}

							}
, 							{
								"box" : 								{
									"id" : "obj-111",
									"maxclass" : "newobj",
									"numinlets" : 1,
									"numoutlets" : 3,
									"outlettype" : [ "", "", "" ],
									"patching_rect" : [ 657.1875, 259.0, 243.0, 22.0 ],
									"text" : "somax.server @autoinitialize 0"
								}

							}
, 							{
								"box" : 								{
									"format" : 6,
									"id" : "obj-1",
									"maxclass" : "flonum",
									"minimum" : 0.01,
									"numinlets" : 1,
									"numoutlets" : 2,
									"outlettype" : [ "", "bang" ],
									"parameter_enable" : 0,
									"patching_rect" : [ 164.5, 351.312499999999886, 50.0, 22.0 ]
								}

							}
, 							{
								"box" : 								{
									"hidden" : 1,
									"id" : "obj-20",
									"maxclass" : "newobj",
									"numinlets" : 1,
									"numoutlets" : 1,
									"outlettype" : [ "" ],
									"patching_rect" : [ 164.5, 316.812499999999886, 87.0, 22.0 ],
									"text" : "loadmess 0.07"
								}

							}
, 							{
								"box" : 								{
									"id" : "obj-19",
									"maxclass" : "number",
									"minimum" : 1,
									"numinlets" : 1,
									"numoutlets" : 2,
									"outlettype" : [ "", "bang" ],
									"parameter_enable" : 0,
									"patching_rect" : [ 69.0, 351.312499999999886, 50.0, 22.0 ]
								}

							}
, 							{
								"box" : 								{
									"hidden" : 1,
									"id" : "obj-10",
									"maxclass" : "newobj",
									"numinlets" : 1,
									"numoutlets" : 1,
									"outlettype" : [ "" ],
									"patching_rect" : [ 69.0, 318.312499999999886, 83.0, 22.0 ],
									"text" : "loadmess 400"
								}

							}
, 							{
								"box" : 								{
									"id" : "obj-17",
									"maxclass" : "message",
									"numinlets" : 2,
									"numoutlets" : 1,
									"outlettype" : [ "" ],
									"patching_rect" : [ 164.5, 380.312499999999886, 81.0, 22.0 ],
									"text" : "gainthresh $1"
								}

							}
, 							{
								"box" : 								{
									"id" : "obj-22",
									"maxclass" : "message",
									"numinlets" : 2,
									"numoutlets" : 1,
									"outlettype" : [ "" ],
									"patching_rect" : [ 69.0, 380.312499999999886, 65.0, 22.0 ],
									"text" : "window $1"
								}

							}
, 							{
								"box" : 								{
									"id" : "obj-7",
									"local" : 1,
									"maxclass" : "mc.ezdac~",
									"numinlets" : 1,
									"numoutlets" : 0,
									"patching_rect" : [ 212.5, 514.854166666666401, 45.0, 45.0 ]
								}

							}
, 							{
								"box" : 								{
									"fontsize" : 18.0,
									"id" : "obj-5",
									"maxclass" : "newobj",
									"numinlets" : 1,
									"numoutlets" : 5,
									"outlettype" : [ "", "multichannelsignal", "", "", "" ],
									"patching_rect" : [ 23.0, 437.562499999999886, 615.0, 29.0 ],
									"text" : "somax.audiocorpusbuilder",
									"varname" : "somax.midicorpusbuilder"
								}

							}
, 							{
								"box" : 								{
									"id" : "obj-390",
									"maxclass" : "message",
									"numinlets" : 2,
									"numoutlets" : 1,
									"outlettype" : [ "" ],
									"patching_rect" : [ 23.0, 521.354166666666401, 140.0, 22.0 ]
								}

							}
, 							{
								"box" : 								{
									"id" : "obj-11",
									"maxclass" : "newobj",
									"numinlets" : 1,
									"numoutlets" : 1,
									"outlettype" : [ "" ],
									"patching_rect" : [ 23.0, 255.0, 81.0, 22.0 ],
									"text" : "prepend build"
								}

							}
, 							{
								"box" : 								{
									"id" : "obj-8",
									"linecount" : 2,
									"maxclass" : "newobj",
									"numinlets" : 1,
									"numoutlets" : 2,
									"outlettype" : [ "", "bang" ],
									"patching_rect" : [ 23.0, 196.0, 99.0, 35.0 ],
									"text" : "opendialog .wav .aif .aiff .flac"
								}

							}
, 							{
								"box" : 								{
									"id" : "obj-360",
									"maxclass" : "button",
									"numinlets" : 1,
									"numoutlets" : 1,
									"outlettype" : [ "bang" ],
									"parameter_enable" : 0,
									"patching_rect" : [ 23.0, 159.0, 24.0, 24.0 ]
								}

							}
, 							{
								"box" : 								{
									"border" : 0,
									"filename" : "helpdetails.js",
									"id" : "obj-2",
									"ignoreclick" : 1,
									"jsarguments" : [ "somax.audiocorpusbuilder" ],
									"maxclass" : "jsui",
									"nofsaa" : 1,
									"numinlets" : 1,
									"numoutlets" : 1,
									"outlettype" : [ "" ],
									"parameter_enable" : 0,
									"patching_rect" : [ 10.0, 10.0, 840.0, 121.0 ]
								}

							}
, 							{
								"box" : 								{
									"background" : 1,
									"bgcolor" : [ 1.0, 0.788235, 0.470588, 1.0 ],
									"hint" : "",
									"id" : "obj-9",
									"ignoreclick" : 1,
									"legacytextcolor" : 1,
									"maxclass" : "textbutton",
									"numinlets" : 1,
									"numoutlets" : 3,
									"outlettype" : [ "", "", "int" ],
									"parameter_enable" : 0,
									"patching_rect" : [ 484.5, 260.0, 20.0, 20.0 ],
									"rounded" : 60.0,
									"text" : "2",
									"textcolor" : [ 0.34902, 0.34902, 0.34902, 1.0 ]
								}

							}
, 							{
								"box" : 								{
									"background" : 1,
									"bgcolor" : [ 1.0, 0.788235, 0.470588, 1.0 ],
									"hint" : "",
									"id" : "obj-28",
									"ignoreclick" : 1,
									"legacytextcolor" : 1,
									"maxclass" : "textbutton",
									"numinlets" : 1,
									"numoutlets" : 3,
									"outlettype" : [ "", "", "int" ],
									"parameter_enable" : 0,
									"patching_rect" : [ 657.1875, 152.5, 20.0, 20.0 ],
									"rounded" : 60.0,
									"text" : "1",
									"textcolor" : [ 0.34902, 0.34902, 0.34902, 1.0 ]
								}

							}
 ],
						"lines" : [ 							{
								"patchline" : 								{
									"destination" : [ "obj-17", 0 ],
									"source" : [ "obj-1", 0 ]
								}

							}
, 							{
								"patchline" : 								{
									"destination" : [ "obj-19", 0 ],
									"hidden" : 1,
									"source" : [ "obj-10", 0 ]
								}

							}
, 							{
								"patchline" : 								{
									"destination" : [ "obj-111", 0 ],
									"midpoints" : [ 723.6875, 222.0, 666.6875, 222.0 ],
									"source" : [ "obj-104", 0 ]
								}

							}
, 							{
								"patchline" : 								{
									"destination" : [ "obj-5", 0 ],
									"source" : [ "obj-11", 0 ]
								}

							}
, 							{
								"patchline" : 								{
									"destination" : [ "obj-111", 0 ],
									"source" : [ "obj-110", 0 ]
								}

							}
, 							{
								"patchline" : 								{
									"destination" : [ "obj-105", 0 ],
									"source" : [ "obj-111", 1 ]
								}

							}
, 							{
								"patchline" : 								{
									"destination" : [ "obj-44", 0 ],
									"source" : [ "obj-111", 0 ]
								}

							}
, 							{
								"patchline" : 								{
									"destination" : [ "obj-5", 0 ],
									"midpoints" : [ 174.0, 419.437499999999886, 32.5, 419.437499999999886 ],
									"source" : [ "obj-17", 0 ]
								}

							}
, 							{
								"patchline" : 								{
									"destination" : [ "obj-22", 0 ],
									"source" : [ "obj-19", 0 ]
								}

							}
, 							{
								"patchline" : 								{
									"destination" : [ "obj-1", 0 ],
									"hidden" : 1,
									"source" : [ "obj-20", 0 ]
								}

							}
, 							{
								"patchline" : 								{
									"destination" : [ "obj-5", 0 ],
									"midpoints" : [ 78.5, 419.437499999999886, 32.5, 419.437499999999886 ],
									"source" : [ "obj-22", 0 ]
								}

							}
, 							{
								"patchline" : 								{
									"destination" : [ "obj-111", 0 ],
									"midpoints" : [ 912.75, 504.0, 1028.59375, 504.0, 1028.59375, 248.0, 666.6875, 248.0 ],
									"source" : [ "obj-35", 0 ]
								}

							}
, 							{
								"patchline" : 								{
									"destination" : [ "obj-8", 0 ],
									"source" : [ "obj-360", 0 ]
								}

							}
, 							{
								"patchline" : 								{
									"destination" : [ "obj-35", 0 ],
									"source" : [ "obj-39", 0 ]
								}

							}
, 							{
								"patchline" : 								{
									"destination" : [ "obj-390", 0 ],
									"hidden" : 1,
									"source" : [ "obj-4", 0 ]
								}

							}
, 							{
								"patchline" : 								{
									"destination" : [ "obj-39", 0 ],
									"source" : [ "obj-42", 0 ]
								}

							}
, 							{
								"patchline" : 								{
									"destination" : [ "obj-46", 1 ],
									"midpoints" : [ 666.6875, 349.0, 827.6875, 349.0 ],
									"source" : [ "obj-44", 0 ]
								}

							}
, 							{
								"patchline" : 								{
									"destination" : [ "obj-35", 0 ],
									"midpoints" : [ 947.25, 463.812499999999886, 912.75, 463.812499999999886 ],
									"source" : [ "obj-45", 0 ]
								}

							}
, 							{
								"patchline" : 								{
									"destination" : [ "obj-12", 1 ],
									"source" : [ "obj-5", 3 ]
								}

							}
, 							{
								"patchline" : 								{
									"destination" : [ "obj-16", 0 ],
									"order" : 1,
									"source" : [ "obj-5", 2 ]
								}

							}
, 							{
								"patchline" : 								{
									"destination" : [ "obj-18", 1 ],
									"midpoints" : [ 330.5, 504.708333333333144, 522.041666666666742, 504.708333333333144 ],
									"order" : 0,
									"source" : [ "obj-5", 2 ]
								}

							}
, 							{
								"patchline" : 								{
									"destination" : [ "obj-390", 1 ],
									"midpoints" : [ 32.5, 474.208333333333144, 153.5, 474.208333333333144 ],
									"source" : [ "obj-5", 0 ]
								}

							}
, 							{
								"patchline" : 								{
									"destination" : [ "obj-7", 0 ],
									"source" : [ "obj-5", 1 ]
								}

							}
, 							{
								"patchline" : 								{
									"destination" : [ "obj-62", 0 ],
									"hidden" : 1,
									"source" : [ "obj-60", 0 ]
								}

							}
, 							{
								"patchline" : 								{
									"destination" : [ "obj-60", 0 ],
									"hidden" : 1,
									"source" : [ "obj-61", 0 ]
								}

							}
, 							{
								"patchline" : 								{
									"destination" : [ "obj-65", 0 ],
									"hidden" : 1,
									"source" : [ "obj-63", 0 ]
								}

							}
, 							{
								"patchline" : 								{
									"destination" : [ "obj-63", 0 ],
									"hidden" : 1,
									"source" : [ "obj-64", 0 ]
								}

							}
, 							{
								"patchline" : 								{
									"destination" : [ "obj-11", 0 ],
									"source" : [ "obj-8", 0 ]
								}

							}
 ]
					}
,
					"patching_rect" : [ 94.0, 27.0, 47.0, 22.0 ],
					"saved_object_attributes" : 					{
						"description" : "",
						"digest" : "",
						"globalpatchername" : "",
						"tags" : ""
					}
,
					"text" : "p basic",
					"varname" : "basic[1]"
				}

			}
 ],
		"lines" : [  ],
		"parameters" : 		{
			"obj-3::obj-5::obj-395::obj-2" : [ "live.text[5]", "live.text[4]", 0 ],
			"obj-3::obj-5::obj-395::obj-375" : [ "mc.live.gain~[2]", "click", 0 ],
			"obj-3::obj-5::obj-395::obj-441" : [ "mc.live.gain~[1]", "corpus", 0 ],
			"obj-3::obj-5::obj-395::obj-469" : [ "live.text[11]", "live.text[11]", 0 ],
			"obj-3::obj-5::obj-395::obj-472" : [ "live.text[7]", "live.text[11]", 0 ],
			"obj-3::obj-5::obj-395::obj-490" : [ "live.text[6]", "live.text[11]", 0 ],
			"parameterbanks" : 			{
				"0" : 				{
					"index" : 0,
					"name" : "",
					"parameters" : [ "-", "-", "-", "-", "-", "-", "-", "-" ]
				}

			}
,
			"parameter_overrides" : 			{
				"obj-3::obj-5::obj-395::obj-2" : 				{
					"parameter_longname" : "live.text[5]"
				}
,
				"obj-3::obj-5::obj-395::obj-375" : 				{
					"parameter_longname" : "mc.live.gain~[2]"
				}
,
				"obj-3::obj-5::obj-395::obj-441" : 				{
					"parameter_longname" : "mc.live.gain~[1]"
				}
,
				"obj-3::obj-5::obj-395::obj-469" : 				{
					"parameter_longname" : "live.text[11]"
				}
,
				"obj-3::obj-5::obj-395::obj-472" : 				{
					"parameter_longname" : "live.text[7]"
				}
,
				"obj-3::obj-5::obj-395::obj-490" : 				{
					"parameter_longname" : "live.text[6]"
				}

			}
,
			"inherited_shortname" : 1
		}
,
		"dependency_cache" : [ 			{
				"name" : "abstraction_path.js",
				"bootpath" : "~/Documents/GitHub/Somax2/max/somax/javascript",
				"patcherrelativepath" : "../javascript",
				"type" : "TEXT",
				"implicit" : 1
			}
, 			{
				"name" : "helpdetails.js",
				"bootpath" : "C74:/help/resources",
				"type" : "TEXT",
				"implicit" : 1
			}
, 			{
				"name" : "somax.audiocorpusbuilder.maxpat",
				"bootpath" : "~/Documents/GitHub/Somax2/max/somax/patchers",
				"patcherrelativepath" : "../patchers",
				"type" : "JSON",
				"implicit" : 1
			}
, 			{
				"name" : "somax.await_patcherargs.maxpat",
				"bootpath" : "~/Documents/GitHub/Somax2/max/somax/patchers",
				"patcherrelativepath" : "../patchers",
				"type" : "JSON",
				"implicit" : 1
			}
, 			{
				"name" : "somax.corpusbuilder.core.maxpat",
				"bootpath" : "~/Documents/GitHub/Somax2/max/somax/patchers",
				"patcherrelativepath" : "../patchers",
				"type" : "JSON",
				"implicit" : 1
			}
, 			{
				"name" : "somax.corpuspath.maxpat",
				"bootpath" : "~/Documents/GitHub/Somax2/max/somax/patchers/resources/misc",
				"patcherrelativepath" : "../patchers/resources/misc",
				"type" : "JSON",
				"implicit" : 1
			}
, 			{
				"name" : "somax.interpreter.maxpat",
				"bootpath" : "~/Documents/GitHub/Somax2/max/somax/patchers/resources/misc",
				"patcherrelativepath" : "../patchers/resources/misc",
				"type" : "JSON",
				"implicit" : 1
			}
, 			{
				"name" : "somax.pan2.maxpat",
				"bootpath" : "~/Documents/GitHub/Somax2/max/somax/patchers/resources/misc",
				"patcherrelativepath" : "../patchers/resources/misc",
				"type" : "JSON",
				"implicit" : 1
			}
, 			{
				"name" : "somax.path.maxpat",
				"bootpath" : "~/Documents/GitHub/Somax2/max/somax/patchers",
				"patcherrelativepath" : "../patchers",
				"type" : "JSON",
				"implicit" : 1
			}
, 			{
				"name" : "somax.print.maxpat",
				"bootpath" : "~/Documents/GitHub/Somax2/max/somax/patchers",
				"patcherrelativepath" : "../patchers",
				"type" : "JSON",
				"implicit" : 1
			}
, 			{
				"name" : "somax.relativepath.maxpat",
				"bootpath" : "~/Documents/GitHub/Somax2/max/somax/patchers/resources/misc",
				"patcherrelativepath" : "../patchers/resources/misc",
				"type" : "JSON",
				"implicit" : 1
			}
, 			{
				"name" : "somax.server.maxpat",
				"bootpath" : "~/Documents/GitHub/Somax2/max/somax/patchers",
				"patcherrelativepath" : "../patchers",
				"type" : "JSON",
				"implicit" : 1
			}
, 			{
				"name" : "somax.serverstatus.maxpat",
				"bootpath" : "~/Documents/GitHub/Somax2/max/somax/patchers/resources/server",
				"patcherrelativepath" : "../patchers/resources/server",
				"type" : "JSON",
				"implicit" : 1
			}
, 			{
				"name" : "somax.serverstatus.ui.maxpat",
				"bootpath" : "~/Documents/GitHub/Somax2/max/somax/patchers/resources/server",
				"patcherrelativepath" : "../patchers/resources/server",
				"type" : "JSON",
				"implicit" : 1
			}
, 			{
				"name" : "somax.winresize.maxpat",
				"bootpath" : "~/Documents/GitHub/Somax2/max/somax/patchers/resources/misc",
				"patcherrelativepath" : "../patchers/resources/misc",
				"type" : "JSON",
				"implicit" : 1
			}
, 			{
				"name" : "wfknob.png",
				"bootpath" : "C74:/media/max/picts",
				"type" : "PNG",
				"implicit" : 1
			}
, 			{
				"name" : "wfmodes.png",
				"bootpath" : "C74:/media/max/picts",
				"type" : "PNG",
				"implicit" : 1
			}
 ],
		"autosave" : 0
	}

}
