{
	"patcher" : 	{
		"fileversion" : 1,
		"appversion" : 		{
			"major" : 9,
			"minor" : 0,
			"revision" : 5,
			"architecture" : "x64",
			"modernui" : 1
		}
,
		"classnamespace" : "box",
		"rect" : [ 69.0, 100.0, 1056.0, 717.0 ],
		"gridsize" : [ 15.0, 15.0 ],
		"showrootpatcherontab" : 0,
		"showontab" : 0,
		"boxes" : [ 			{
				"box" : 				{
					"id" : "obj-3",
					"maxclass" : "newobj",
					"numinlets" : 0,
					"numoutlets" : 0,
					"patcher" : 					{
						"fileversion" : 1,
						"appversion" : 						{
							"major" : 9,
							"minor" : 0,
							"revision" : 5,
							"architecture" : "x64",
							"modernui" : 1
						}
,
						"classnamespace" : "box",
						"rect" : [ 0.0, 26.0, 1056.0, 691.0 ],
						"openrect" : [ 0.0, 0.0, 1055.0, 690.0 ],
						"gridsize" : [ 15.0, 15.0 ],
						"showontab" : 1,
						"isolateaudio" : 1,
						"boxes" : [  ],
						"lines" : [  ],
						"originid" : "pat-26970"
					}
,
					"patching_rect" : [ 93.0, 38.0, 25.0, 22.0 ],
					"text" : "p ?",
					"varname" : "basic[3]"
				}

			}
, 			{
				"box" : 				{
					"id" : "obj-1",
					"maxclass" : "newobj",
					"numinlets" : 0,
					"numoutlets" : 0,
					"patcher" : 					{
						"fileversion" : 1,
						"appversion" : 						{
							"major" : 9,
							"minor" : 0,
							"revision" : 5,
							"architecture" : "x64",
							"modernui" : 1
						}
,
						"classnamespace" : "box",
						"rect" : [ 69.0, 126.0, 1056.0, 691.0 ],
						"openrect" : [ 0.0, 0.0, 1055.0, 690.0 ],
						"gridsize" : [ 15.0, 15.0 ],
						"showontab" : 1,
						"isolateaudio" : 1,
						"boxes" : [ 							{
								"box" : 								{
									"bubble" : 1,
									"bubbleside" : 3,
									"fontname" : "Arial",
									"fontsize" : 13.0,
									"id" : "obj-70",
									"linecount" : 2,
									"maxclass" : "comment",
									"numinlets" : 1,
									"numoutlets" : 0,
									"patching_rect" : [ 671.0, 625.0, 241.0, 40.0 ],
									"saved_attribute_attributes" : 									{
										"textcolor" : 										{
											"expression" : "themecolor.theme_textcolor"
										}

									}
,
									"text" : "See this tutorial for more info on how to build a corpus with custom labels"
								}

							}
, 							{
								"box" : 								{
									"bubble" : 1,
									"bubbleside" : 2,
									"id" : "obj-79",
									"maxclass" : "comment",
									"numinlets" : 1,
									"numoutlets" : 0,
									"patching_rect" : [ 239.25, 292.5, 250.5, 39.0 ],
									"saved_attribute_attributes" : 									{
										"bubble_bgcolor" : 										{
											"expression" : "themecolor.theme_bubble_bgcolor"
										}
,
										"bubble_outlinecolor" : 										{
											"expression" : "themecolor.theme_bubble_outlinecolor"
										}
,
										"textcolor" : 										{
											"expression" : "themecolor.theme_textcolor"
										}

									}
,
									"text" : "open window to see and change parameters"
								}

							}
, 							{
								"box" : 								{
									"bubble" : 1,
									"bubblepoint" : 0.15,
									"bubbleside" : 2,
									"id" : "obj-77",
									"linecount" : 2,
									"maxclass" : "comment",
									"numinlets" : 1,
									"numoutlets" : 0,
									"patching_rect" : [ 534.0, 308.0, 372.0, 52.0 ],
									"saved_attribute_attributes" : 									{
										"bubble_bgcolor" : 										{
											"expression" : "themecolor.theme_bubble_bgcolor"
										}
,
										"bubble_outlinecolor" : 										{
											"expression" : "themecolor.theme_bubble_outlinecolor"
										}
,
										"textcolor" : 										{
											"expression" : "themecolor.theme_textcolor"
										}

									}
,
									"text" : "tweak the atom parameters to change the produced matches \n(read these message descriptions in the Reference tab of this help!)"
								}

							}
, 							{
								"box" : 								{
									"bubble" : 1,
									"bubblepoint" : 0.35,
									"bubbleside" : 2,
									"id" : "obj-72",
									"linecount" : 2,
									"maxclass" : "comment",
									"numinlets" : 1,
									"numoutlets" : 0,
									"patching_rect" : [ 534.0, 308.0, 372.0, 52.0 ],
									"saved_attribute_attributes" : 									{
										"bubble_bgcolor" : 										{
											"expression" : "themecolor.theme_bubble_bgcolor"
										}
,
										"bubble_outlinecolor" : 										{
											"expression" : "themecolor.theme_bubble_outlinecolor"
										}
,
										"textcolor" : 										{
											"expression" : "themecolor.theme_textcolor"
										}

									}
,
									"text" : "tweak the atom parameters to change the produced matches \n(read these message descriptions in the Reference tab of this help!)"
								}

							}
, 							{
								"box" : 								{
									"bubble" : 1,
									"bubblepoint" : 0.6,
									"bubbleside" : 2,
									"id" : "obj-71",
									"linecount" : 2,
									"maxclass" : "comment",
									"numinlets" : 1,
									"numoutlets" : 0,
									"patching_rect" : [ 534.0, 308.0, 372.0, 52.0 ],
									"saved_attribute_attributes" : 									{
										"bubble_bgcolor" : 										{
											"expression" : "themecolor.theme_bubble_bgcolor"
										}
,
										"bubble_outlinecolor" : 										{
											"expression" : "themecolor.theme_bubble_outlinecolor"
										}
,
										"textcolor" : 										{
											"expression" : "themecolor.theme_textcolor"
										}

									}
,
									"text" : "tweak the atom parameters to change the produced matches \n(read these message descriptions in the Reference tab of this help!)"
								}

							}
, 							{
								"box" : 								{
									"bubble" : 1,
									"bubbleside" : 0,
									"id" : "obj-38",
									"linecount" : 2,
									"maxclass" : "comment",
									"numinlets" : 1,
									"numoutlets" : 0,
									"patching_rect" : [ 690.599999999999909, 553.0, 246.0, 52.0 ],
									"text" : "monitor matches produced by the dynamics atom with the label selected at step 6"
								}

							}
, 							{
								"box" : 								{
									"hidden" : 1,
									"id" : "obj-51",
									"maxclass" : "newobj",
									"numinlets" : 1,
									"numoutlets" : 1,
									"outlettype" : [ "" ],
									"patching_rect" : [ 447.0, 335.0, 70.0, 22.0 ],
									"text" : "loadmess 1"
								}

							}
, 							{
								"box" : 								{
									"id" : "obj-50",
									"linecount" : 2,
									"maxclass" : "message",
									"numinlets" : 2,
									"numoutlets" : 1,
									"outlettype" : [ "" ],
									"patching_rect" : [ 843.0, 528.5, 89.0, 35.0 ],
									"text" : "8817_tutorial_atom"
								}

							}
, 							{
								"box" : 								{
									"hidden" : 1,
									"id" : "obj-29",
									"maxclass" : "newobj",
									"numinlets" : 1,
									"numoutlets" : 1,
									"outlettype" : [ "" ],
									"patching_rect" : [ 638.0, 332.0, 70.0, 22.0 ],
									"text" : "loadmess 2"
								}

							}
, 							{
								"box" : 								{
									"hidden" : 1,
									"id" : "obj-27",
									"maxclass" : "newobj",
									"numinlets" : 1,
									"numoutlets" : 1,
									"outlettype" : [ "" ],
									"patching_rect" : [ 741.0, 334.0, 73.0, 22.0 ],
									"text" : "loadmess 2."
								}

							}
, 							{
								"box" : 								{
									"hidden" : 1,
									"id" : "obj-10",
									"maxclass" : "newobj",
									"numinlets" : 1,
									"numoutlets" : 1,
									"outlettype" : [ "" ],
									"patching_rect" : [ 568.0, 328.0, 73.0, 22.0 ],
									"text" : "loadmess 1."
								}

							}
, 							{
								"box" : 								{
									"id" : "obj-75",
									"maxclass" : "number",
									"minimum" : 0,
									"numinlets" : 1,
									"numoutlets" : 2,
									"outlettype" : [ "", "bang" ],
									"parameter_enable" : 0,
									"patching_rect" : [ 638.0, 362.0, 50.0, 22.0 ]
								}

							}
, 							{
								"box" : 								{
									"id" : "obj-76",
									"maxclass" : "message",
									"numinlets" : 2,
									"numoutlets" : 1,
									"outlettype" : [ "" ],
									"patching_rect" : [ 638.0, 395.0, 87.0, 22.0 ],
									"text" : "ngramorder $1"
								}

							}
, 							{
								"box" : 								{
									"format" : 6,
									"id" : "obj-109",
									"maxclass" : "flonum",
									"numinlets" : 1,
									"numoutlets" : 2,
									"outlettype" : [ "", "bang" ],
									"parameter_enable" : 0,
									"patching_rect" : [ 741.0, 362.0, 50.0, 22.0 ]
								}

							}
, 							{
								"box" : 								{
									"id" : "obj-49",
									"maxclass" : "message",
									"numinlets" : 2,
									"numoutlets" : 1,
									"outlettype" : [ "" ],
									"patching_rect" : [ 741.0, 395.0, 57.0, 22.0 ],
									"text" : "decay $1"
								}

							}
, 							{
								"box" : 								{
									"format" : 6,
									"id" : "obj-73",
									"maxclass" : "flonum",
									"minimum" : 0.0,
									"numinlets" : 1,
									"numoutlets" : 2,
									"outlettype" : [ "", "bang" ],
									"parameter_enable" : 0,
									"patching_rect" : [ 562.0, 362.0, 50.0, 22.0 ]
								}

							}
, 							{
								"box" : 								{
									"id" : "obj-74",
									"maxclass" : "message",
									"numinlets" : 2,
									"numoutlets" : 1,
									"outlettype" : [ "" ],
									"patching_rect" : [ 562.0, 395.0, 60.0, 22.0 ],
									"text" : "weight $1"
								}

							}
, 							{
								"box" : 								{
									"id" : "obj-31",
									"ignoreclick" : 1,
									"maxclass" : "button",
									"numinlets" : 1,
									"numoutlets" : 1,
									"outlettype" : [ "bang" ],
									"parameter_enable" : 0,
									"patching_rect" : [ 734.0, 527.0, 24.0, 24.0 ]
								}

							}
, 							{
								"box" : 								{
									"id" : "obj-60",
									"ignoreclick" : 1,
									"maxclass" : "button",
									"numinlets" : 1,
									"numoutlets" : 1,
									"outlettype" : [ "bang" ],
									"parameter_enable" : 0,
									"patching_rect" : [ 678.200000000000045, 527.0, 24.0, 24.0 ]
								}

							}
, 							{
								"box" : 								{
									"id" : "obj-63",
									"ignoreclick" : 1,
									"maxclass" : "button",
									"numinlets" : 1,
									"numoutlets" : 1,
									"outlettype" : [ "bang" ],
									"parameter_enable" : 0,
									"patching_rect" : [ 623.0, 527.0, 24.0, 24.0 ]
								}

							}
, 							{
								"box" : 								{
									"activeslidercolor" : [ 0.137254901960784, 0.592156862745098, 0.454901960784314, 1.0 ],
									"appearance" : 2,
									"fontsize" : 11.0,
									"id" : "obj-67",
									"ignoreclick" : 1,
									"maxclass" : "live.numbox",
									"numinlets" : 1,
									"numoutlets" : 2,
									"outlettype" : [ "", "float" ],
									"parameter_enable" : 1,
									"patching_rect" : [ 788.600000000000023, 530.5, 47.0, 17.0 ],
									"saved_attribute_attributes" : 									{
										"activeslidercolor" : 										{
											"expression" : ""
										}
,
										"valueof" : 										{
											"parameter_exponent" : 3.0,
											"parameter_longname" : "live.numbox[4]",
											"parameter_mmax" : 1000.0,
											"parameter_modmode" : 3,
											"parameter_shortname" : "live.numbox[20]",
											"parameter_type" : 0,
											"parameter_unitstyle" : 0
										}

									}
,
									"varname" : "live.numbox[2]"
								}

							}
, 							{
								"box" : 								{
									"id" : "obj-68",
									"maxclass" : "newobj",
									"numinlets" : 6,
									"numoutlets" : 6,
									"outlettype" : [ "", "", "", "", "", "" ],
									"patching_rect" : [ 623.0, 495.0, 295.0, 22.0 ],
									"text" : "route instantiated initialized terminated matches name"
								}

							}
, 							{
								"box" : 								{
									"id" : "obj-61",
									"maxclass" : "toggle",
									"numinlets" : 1,
									"numoutlets" : 1,
									"outlettype" : [ "int" ],
									"parameter_enable" : 0,
									"patching_rect" : [ 447.0, 361.0, 24.0, 24.0 ]
								}

							}
, 							{
								"box" : 								{
									"id" : "obj-64",
									"maxclass" : "message",
									"numinlets" : 2,
									"numoutlets" : 1,
									"outlettype" : [ "" ],
									"patching_rect" : [ 447.0, 395.0, 99.0, 22.0 ],
									"text" : "selfinfluenced $1"
								}

							}
, 							{
								"box" : 								{
									"id" : "obj-62",
									"maxclass" : "message",
									"numinlets" : 2,
									"numoutlets" : 1,
									"outlettype" : [ "" ],
									"patching_rect" : [ 309.0, 330.0, 75.0, 22.0 ],
									"text" : "openwindow"
								}

							}
, 							{
								"box" : 								{
									"bubble" : 1,
									"bubbleside" : 3,
									"id" : "obj-44",
									"maxclass" : "comment",
									"numinlets" : 1,
									"numoutlets" : 0,
									"patching_rect" : [ 261.0, 167.0, 145.0, 24.0 ],
									"saved_attribute_attributes" : 									{
										"bubble_bgcolor" : 										{
											"expression" : "themecolor.theme_bubble_bgcolor"
										}
,
										"bubble_outlinecolor" : 										{
											"expression" : "themecolor.theme_bubble_outlinecolor"
										}
,
										"textcolor" : 										{
											"expression" : "themecolor.theme_textcolor"
										}

									}
,
									"text" : "enable/disable filtering"
								}

							}
, 							{
								"box" : 								{
									"bubble" : 1,
									"bubbleside" : 0,
									"id" : "obj-53",
									"linecount" : 2,
									"maxclass" : "comment",
									"numinlets" : 1,
									"numoutlets" : 0,
									"patching_rect" : [ 388.0, 563.0, 163.0, 52.0 ],
									"text" : "if a descriptor doesn't exist, the eligibility flag will turn off"
								}

							}
, 							{
								"box" : 								{
									"bubble" : 1,
									"bubblepoint" : 0.1,
									"bubbleside" : 2,
									"id" : "obj-41",
									"maxclass" : "comment",
									"numinlets" : 1,
									"numoutlets" : 0,
									"patching_rect" : [ 59.0, 329.0, 142.0, 39.0 ],
									"saved_attribute_attributes" : 									{
										"bubble_bgcolor" : 										{
											"expression" : "themecolor.theme_bubble_bgcolor"
										}
,
										"bubble_outlinecolor" : 										{
											"expression" : "themecolor.theme_bubble_outlinecolor"
										}
,
										"textcolor" : 										{
											"expression" : "themecolor.theme_textcolor"
										}

									}
,
									"text" : "load a corpus with labels"
								}

							}
, 							{
								"box" : 								{
									"bubble" : 1,
									"bubbleside" : 3,
									"id" : "obj-22",
									"maxclass" : "comment",
									"numinlets" : 1,
									"numoutlets" : 0,
									"patching_rect" : [ 198.0, 241.5, 225.0, 24.0 ],
									"saved_attribute_attributes" : 									{
										"bubble_bgcolor" : 										{
											"expression" : "themecolor.theme_bubble_bgcolor"
										}
,
										"bubble_outlinecolor" : 										{
											"expression" : "themecolor.theme_bubble_outlinecolor"
										}
,
										"textcolor" : 										{
											"expression" : "themecolor.theme_textcolor"
										}

									}
,
									"text" : "select descriptor to add as new atom"
								}

							}
, 							{
								"box" : 								{
									"arrows" : 1,
									"id" : "obj-95",
									"maxclass" : "live.line",
									"numinlets" : 1,
									"numoutlets" : 0,
									"patching_rect" : [ 292.0, 501.0, 123.0, 15.0 ]
								}

							}
, 							{
								"box" : 								{
									"arrows" : 2,
									"id" : "obj-96",
									"maxclass" : "live.line",
									"numinlets" : 1,
									"numoutlets" : 0,
									"patching_rect" : [ 130.0, 501.0, 123.0, 15.0 ]
								}

							}
, 							{
								"box" : 								{
									"hidden" : 1,
									"id" : "obj-58",
									"maxclass" : "message",
									"numinlets" : 2,
									"numoutlets" : 1,
									"outlettype" : [ "" ],
									"patching_rect" : [ 882.0, 711.0, 237.0, 22.0 ],
									"text" : "load \"app5 - Using Custom Labels.maxpat\""
								}

							}
, 							{
								"box" : 								{
									"fontface" : 1,
									"fontsize" : 12.0,
									"id" : "obj-65",
									"maxclass" : "textbutton",
									"numinlets" : 1,
									"numoutlets" : 3,
									"outlettype" : [ "", "", "int" ],
									"outputmode" : 0,
									"parameter_enable" : 0,
									"patching_rect" : [ 917.5, 626.0, 115.0, 38.0 ],
									"rounded" : 8.0,
									"text" : "Using Custom Labels Tutorial",
									"textoncolor" : [ 1.0, 0.709803921568627, 0.196078431372549, 1.0 ],
									"textovercolor" : [ 1.0, 0.709803921568627, 0.196078431372549, 1.0 ],
									"truncate" : 0
								}

							}
, 							{
								"box" : 								{
									"color" : [ 0.8266150951, 0.1539679319, 0.6292977333, 1.0 ],
									"hidden" : 1,
									"id" : "obj-66",
									"maxclass" : "newobj",
									"numinlets" : 1,
									"numoutlets" : 1,
									"outlettype" : [ "" ],
									"patching_rect" : [ 882.0, 740.0, 51.0, 22.0 ],
									"text" : "pcontrol"
								}

							}
, 							{
								"box" : 								{
									"id" : "obj-59",
									"maxclass" : "message",
									"numinlets" : 2,
									"numoutlets" : 1,
									"outlettype" : [ "" ],
									"patching_rect" : [ 814.0, 395.0, 102.0, 22.0 ],
									"text" : "influence label $1"
								}

							}
, 							{
								"box" : 								{
									"id" : "obj-57",
									"maxclass" : "message",
									"numinlets" : 2,
									"numoutlets" : 1,
									"outlettype" : [ "" ],
									"patching_rect" : [ 847.0, 362.0, 31.0, 22.0 ],
									"text" : "loud"
								}

							}
, 							{
								"box" : 								{
									"id" : "obj-56",
									"maxclass" : "message",
									"numinlets" : 2,
									"numoutlets" : 1,
									"outlettype" : [ "" ],
									"patching_rect" : [ 814.0, 362.0, 29.5, 22.0 ],
									"text" : "soft"
								}

							}
, 							{
								"box" : 								{
									"hidden" : 1,
									"id" : "obj-6",
									"maxclass" : "newobj",
									"numinlets" : 1,
									"numoutlets" : 1,
									"outlettype" : [ "" ],
									"patching_rect" : [ 412.0, 132.0, 70.0, 22.0 ],
									"text" : "loadmess 0"
								}

							}
, 							{
								"box" : 								{
									"id" : "obj-54",
									"maxclass" : "toggle",
									"numinlets" : 1,
									"numoutlets" : 1,
									"outlettype" : [ "int" ],
									"parameter_enable" : 0,
									"patching_rect" : [ 412.0, 167.0, 24.0, 24.0 ]
								}

							}
, 							{
								"box" : 								{
									"id" : "obj-21",
									"maxclass" : "message",
									"numinlets" : 2,
									"numoutlets" : 1,
									"outlettype" : [ "" ],
									"patching_rect" : [ 412.0, 201.0, 68.0, 22.0 ],
									"text" : "enabled $1"
								}

							}
, 							{
								"box" : 								{
									"id" : "obj-16",
									"maxclass" : "message",
									"numinlets" : 2,
									"numoutlets" : 1,
									"outlettype" : [ "" ],
									"patching_rect" : [ 521.0, 495.0, 85.0, 22.0 ],
									"text" : "enabled 1"
								}

							}
, 							{
								"box" : 								{
									"id" : "obj-13",
									"maxclass" : "comment",
									"numinlets" : 1,
									"numoutlets" : 0,
									"patching_rect" : [ 483.0, 539.0, 57.0, 20.0 ],
									"text" : "eligibillity"
								}

							}
, 							{
								"box" : 								{
									"id" : "obj-18",
									"maxclass" : "comment",
									"numinlets" : 1,
									"numoutlets" : 0,
									"patching_rect" : [ 386.0, 539.0, 41.0, 20.0 ],
									"text" : "status"
								}

							}
, 							{
								"box" : 								{
									"checkedcolor" : [ 0.996078431372549, 0.690196078431373, 0.423529411764706, 1.0 ],
									"id" : "obj-19",
									"ignoreclick" : 1,
									"maxclass" : "toggle",
									"numinlets" : 1,
									"numoutlets" : 1,
									"outlettype" : [ "int" ],
									"parameter_enable" : 0,
									"patching_rect" : [ 458.0, 537.0, 23.0, 23.0 ]
								}

							}
, 							{
								"box" : 								{
									"id" : "obj-20",
									"maxclass" : "newobj",
									"numinlets" : 1,
									"numoutlets" : 3,
									"outlettype" : [ "", "", "" ],
									"patching_rect" : [ 429.0, 495.0, 77.0, 22.0 ],
									"text" : "unjoin 2"
								}

							}
, 							{
								"box" : 								{
									"checkedcolor" : [ 1.0, 0.709803921568627, 0.196078431372549, 1.0 ],
									"id" : "obj-17",
									"ignoreclick" : 1,
									"maxclass" : "toggle",
									"numinlets" : 1,
									"numoutlets" : 1,
									"outlettype" : [ "int" ],
									"parameter_enable" : 0,
									"patching_rect" : [ 429.0, 537.0, 23.0, 23.0 ]
								}

							}
, 							{
								"box" : 								{
									"id" : "obj-15",
									"maxclass" : "message",
									"numinlets" : 2,
									"numoutlets" : 1,
									"outlettype" : [ "" ],
									"patching_rect" : [ 355.0, 395.0, 59.0, 22.0 ],
									"text" : "terminate"
								}

							}
, 							{
								"box" : 								{
									"id" : "obj-12",
									"maxclass" : "message",
									"numinlets" : 2,
									"numoutlets" : 1,
									"outlettype" : [ "" ],
									"patching_rect" : [ 339.0, 369.0, 51.0, 22.0 ],
									"text" : "initialize"
								}

							}
, 							{
								"box" : 								{
									"id" : "obj-11",
									"maxclass" : "message",
									"numinlets" : 2,
									"numoutlets" : 1,
									"outlettype" : [ "" ],
									"patching_rect" : [ 425.0, 242.0, 115.0, 22.0 ],
									"text" : "descriptor dynamics"
								}

							}
, 							{
								"box" : 								{
									"id" : "obj-4",
									"maxclass" : "newobj",
									"numinlets" : 2,
									"numoutlets" : 4,
									"outlettype" : [ "", "", "", "" ],
									"patching_rect" : [ 412.0, 452.0, 230.0, 22.0 ],
									"text" : "somax.atom tutorial_atom",
									"varname" : "somax.filter"
								}

							}
, 							{
								"box" : 								{
									"id" : "obj-94",
									"maxclass" : "comment",
									"numinlets" : 1,
									"numoutlets" : 0,
									"patching_rect" : [ 116.0, 464.0, 77.0, 20.0 ],
									"saved_attribute_attributes" : 									{
										"textcolor" : 										{
											"expression" : "themecolor.theme_textcolor"
										}

									}
,
									"text" : "player status"
								}

							}
, 							{
								"box" : 								{
									"id" : "obj-91",
									"maxclass" : "toggle",
									"numinlets" : 1,
									"numoutlets" : 1,
									"outlettype" : [ "int" ],
									"parameter_enable" : 0,
									"patching_rect" : [ 90.0, 462.0, 24.0, 24.0 ]
								}

							}
, 							{
								"box" : 								{
									"hidden" : 1,
									"id" : "obj-82",
									"maxclass" : "message",
									"numinlets" : 2,
									"numoutlets" : 1,
									"outlettype" : [ "" ],
									"patching_rect" : [ 1068.0, 65.0, 169.0, 22.0 ],
									"text" : "load somax2.overview.maxpat"
								}

							}
, 							{
								"box" : 								{
									"fontface" : 1,
									"fontsize" : 12.0,
									"id" : "obj-85",
									"maxclass" : "textbutton",
									"numinlets" : 1,
									"numoutlets" : 3,
									"outlettype" : [ "", "", "int" ],
									"outputmode" : 0,
									"parameter_enable" : 0,
									"patching_rect" : [ 945.0, 13.0, 84.25, 29.0 ],
									"presentation" : 1,
									"presentation_rect" : [ 724.0, 833.220702999999958, 254.0, 46.0 ],
									"rounded" : 8.0,
									"text" : "Somax Overview",
									"textoncolor" : [ 1.0, 0.709803921568627, 0.196078431372549, 1.0 ],
									"textovercolor" : [ 1.0, 0.709803921568627, 0.196078431372549, 1.0 ],
									"truncate" : 0
								}

							}
, 							{
								"box" : 								{
									"color" : [ 0.8266150951, 0.1539679319, 0.6292977333, 1.0 ],
									"hidden" : 1,
									"id" : "obj-86",
									"maxclass" : "newobj",
									"numinlets" : 1,
									"numoutlets" : 1,
									"outlettype" : [ "" ],
									"patching_rect" : [ 1068.0, 94.0, 51.0, 22.0 ],
									"text" : "pcontrol"
								}

							}
, 							{
								"box" : 								{
									"bubble" : 1,
									"id" : "obj-43",
									"linecount" : 2,
									"maxclass" : "comment",
									"numinlets" : 1,
									"numoutlets" : 0,
									"patching_rect" : [ 880.0, 355.0, 134.0, 37.0 ],
									"saved_attribute_attributes" : 									{
										"bubble_bgcolor" : 										{
											"expression" : "themecolor.theme_bubble_bgcolor"
										}
,
										"bubble_outlinecolor" : 										{
											"expression" : "themecolor.theme_bubble_outlinecolor"
										}
,
										"textcolor" : 										{
											"expression" : "themecolor.theme_textcolor"
										}

									}
,
									"text" : "select a label for descriptor dynamics"
								}

							}
, 							{
								"box" : 								{
									"bubble" : 1,
									"bubblepoint" : 0.1,
									"bubbleside" : 2,
									"id" : "obj-46",
									"maxclass" : "comment",
									"numinlets" : 1,
									"numoutlets" : 0,
									"patching_rect" : [ 23.0, 260.0, 109.0, 39.0 ],
									"saved_attribute_attributes" : 									{
										"bubble_bgcolor" : 										{
											"expression" : "themecolor.theme_bubble_bgcolor"
										}
,
										"bubble_outlinecolor" : 										{
											"expression" : "themecolor.theme_bubble_outlinecolor"
										}
,
										"textcolor" : 										{
											"expression" : "themecolor.theme_textcolor"
										}

									}
,
									"text" : "initialize the player"
								}

							}
, 							{
								"box" : 								{
									"bubble" : 1,
									"bubbleside" : 3,
									"id" : "obj-8",
									"linecount" : 2,
									"maxclass" : "comment",
									"numinlets" : 1,
									"numoutlets" : 0,
									"patching_rect" : [ 601.0, 148.0, 128.0, 37.0 ],
									"saved_attribute_attributes" : 									{
										"bubble_bgcolor" : 										{
											"expression" : "themecolor.theme_bubble_bgcolor"
										}
,
										"bubble_outlinecolor" : 										{
											"expression" : "themecolor.theme_bubble_outlinecolor"
										}
,
										"textcolor" : 										{
											"expression" : "themecolor.theme_textcolor"
										}

									}
,
									"text" : "make sure that the server is active"
								}

							}
, 							{
								"box" : 								{
									"bubble" : 1,
									"bubbleside" : 3,
									"fontname" : "Arial",
									"fontsize" : 13.0,
									"id" : "obj-36",
									"maxclass" : "comment",
									"numinlets" : 1,
									"numoutlets" : 0,
									"patching_rect" : [ 736.0, 255.0, 100.0, 25.0 ],
									"saved_attribute_attributes" : 									{
										"bubble_bgcolor" : 										{
											"expression" : "themecolor.theme_bubble_bgcolor"
										}
,
										"bubble_outlinecolor" : 										{
											"expression" : "themecolor.theme_bubble_outlinecolor"
										}
,
										"textcolor" : 										{
											"expression" : "themecolor.theme_textcolor"
										}

									}
,
									"text" : "server status"
								}

							}
, 							{
								"box" : 								{
									"bubble" : 1,
									"id" : "obj-3",
									"maxclass" : "comment",
									"numinlets" : 1,
									"numoutlets" : 0,
									"patching_rect" : [ 839.0, 82.0, 125.0, 24.0 ],
									"saved_attribute_attributes" : 									{
										"bubble_bgcolor" : 										{
											"expression" : "themecolor.theme_bubble_bgcolor"
										}
,
										"bubble_outlinecolor" : 										{
											"expression" : "themecolor.theme_bubble_outlinecolor"
										}
,
										"textcolor" : 										{
											"expression" : "themecolor.theme_textcolor"
										}

									}
,
									"text" : "initialize the server"
								}

							}
, 							{
								"box" : 								{
									"fontname" : "Arial",
									"fontsize" : 13.0,
									"id" : "obj-7",
									"linecount" : 4,
									"maxclass" : "comment",
									"numinlets" : 1,
									"numoutlets" : 0,
									"patching_rect" : [ 834.0, 130.0, 174.0, 65.0 ],
									"saved_attribute_attributes" : 									{
										"textcolor" : 										{
											"expression" : "themecolor.theme_textcolor"
										}

									}
,
									"text" : "If the status is \"duplicate\" and you already have another server running (and active), go to the next step"
								}

							}
, 							{
								"box" : 								{
									"bubble" : 1,
									"id" : "obj-25",
									"maxclass" : "comment",
									"numinlets" : 1,
									"numoutlets" : 0,
									"patching_rect" : [ 74.0, 625.0, 128.0, 24.0 ],
									"saved_attribute_attributes" : 									{
										"bubble_bgcolor" : 										{
											"expression" : "themecolor.theme_bubble_bgcolor"
										}
,
										"bubble_outlinecolor" : 										{
											"expression" : "themecolor.theme_bubble_outlinecolor"
										}
,
										"textcolor" : 										{
											"expression" : "themecolor.theme_textcolor"
										}

									}
,
									"text" : "start dsp & set gain"
								}

							}
, 							{
								"box" : 								{
									"id" : "obj-5",
									"maxclass" : "message",
									"numinlets" : 2,
									"numoutlets" : 1,
									"outlettype" : [ "" ],
									"patching_rect" : [ 37.0, 366.0, 245.0, 22.0 ],
									"text" : "corpus Anais_words_2labels_audacity.pickle"
								}

							}
, 							{
								"box" : 								{
									"id" : "obj-47",
									"maxclass" : "message",
									"numinlets" : 2,
									"numoutlets" : 1,
									"outlettype" : [ "" ],
									"patching_rect" : [ 23.0, 301.0, 51.0, 22.0 ],
									"text" : "initialize"
								}

							}
, 							{
								"box" : 								{
									"id" : "obj-45",
									"maxclass" : "gain~",
									"multichannelvariant" : 1,
									"numinlets" : 1,
									"numoutlets" : 2,
									"outlettype" : [ "multichannelsignal", "" ],
									"parameter_enable" : 0,
									"patching_rect" : [ 23.0, 587.0, 69.0, 18.0 ]
								}

							}
, 							{
								"box" : 								{
									"hidden" : 1,
									"id" : "obj-48",
									"maxclass" : "newobj",
									"numinlets" : 1,
									"numoutlets" : 1,
									"outlettype" : [ "" ],
									"patching_rect" : [ 731.0, 114.0, 70.0, 22.0 ],
									"text" : "loadmess 1"
								}

							}
, 							{
								"box" : 								{
									"hidden" : 1,
									"id" : "obj-37",
									"maxclass" : "newobj",
									"numinlets" : 1,
									"numoutlets" : 0,
									"patching_rect" : [ 1119.104166666666515, 359.0, 136.999999999999886, 22.0 ],
									"text" : "s server_help_dumpout"
								}

							}
, 							{
								"box" : 								{
									"hidden" : 1,
									"id" : "obj-39",
									"maxclass" : "newobj",
									"numinlets" : 1,
									"numoutlets" : 0,
									"patching_rect" : [ 1119.104166666666515, 394.270833333333201, 119.0, 22.0 ],
									"text" : "s server_help_status"
								}

							}
, 							{
								"box" : 								{
									"hidden" : 1,
									"id" : "obj-40",
									"maxclass" : "newobj",
									"numinlets" : 1,
									"numoutlets" : 0,
									"patching_rect" : [ 1119.104166666666515, 426.666666666666515, 121.0, 22.0 ],
									"text" : "s server_help_output"
								}

							}
, 							{
								"box" : 								{
									"hidden" : 1,
									"id" : "obj-30",
									"maxclass" : "message",
									"numinlets" : 2,
									"numoutlets" : 1,
									"outlettype" : [ "" ],
									"patching_rect" : [ 731.0, 276.0, 41.0, 22.0 ],
									"text" : "set $1"
								}

							}
, 							{
								"box" : 								{
									"hidden" : 1,
									"id" : "obj-32",
									"maxclass" : "newobj",
									"numinlets" : 2,
									"numoutlets" : 2,
									"outlettype" : [ "", "" ],
									"patching_rect" : [ 731.0, 246.0, 71.0, 22.0 ],
									"text" : "route active"
								}

							}
, 							{
								"box" : 								{
									"checkedcolor" : [ 1.0, 0.709803921568627, 0.196078431372549, 1.0 ],
									"id" : "obj-33",
									"maxclass" : "toggle",
									"numinlets" : 1,
									"numoutlets" : 1,
									"outlettype" : [ "int" ],
									"parameter_enable" : 0,
									"patching_rect" : [ 731.0, 154.0, 25.025000000000205, 25.025000000000205 ]
								}

							}
, 							{
								"box" : 								{
									"id" : "obj-104",
									"maxclass" : "message",
									"numinlets" : 2,
									"numoutlets" : 1,
									"outlettype" : [ "" ],
									"patching_rect" : [ 780.0, 138.0, 42.0, 22.0 ],
									"text" : "reload"
								}

							}
, 							{
								"box" : 								{
									"checkedcolor" : [ 0.482352941176471, 0.847058823529412, 0.36078431372549, 1.0 ],
									"id" : "obj-105",
									"ignoreclick" : 1,
									"maxclass" : "toggle",
									"numinlets" : 1,
									"numoutlets" : 1,
									"outlettype" : [ "int" ],
									"parameter_enable" : 0,
									"patching_rect" : [ 839.0, 245.0, 44.541666666666629, 44.541666666666629 ]
								}

							}
, 							{
								"box" : 								{
									"fontface" : 1,
									"fontsize" : 18.0,
									"id" : "obj-34",
									"maxclass" : "message",
									"numinlets" : 2,
									"numoutlets" : 1,
									"outlettype" : [ "" ],
									"patching_rect" : [ 889.0, 245.0, 163.0, 29.0 ],
									"text" : "1 running"
								}

							}
, 							{
								"box" : 								{
									"fontface" : 0,
									"fontsize" : 18.0,
									"id" : "obj-35",
									"maxclass" : "message",
									"numinlets" : 2,
									"numoutlets" : 1,
									"outlettype" : [ "" ],
									"patching_rect" : [ 763.0, 79.0, 73.0, 29.0 ],
									"text" : "initialize"
								}

							}
, 							{
								"box" : 								{
									"id" : "obj-111",
									"maxclass" : "newobj",
									"numinlets" : 1,
									"numoutlets" : 3,
									"outlettype" : [ "", "", "" ],
									"patching_rect" : [ 731.0, 203.0, 234.041666666666629, 22.0 ],
									"text" : "somax.server @autoinitialize 0 @active 1"
								}

							}
, 							{
								"box" : 								{
									"id" : "obj-28",
									"maxclass" : "meter~",
									"numinlets" : 1,
									"numoutlets" : 1,
									"outlettype" : [ "float" ],
									"patching_rect" : [ 97.0, 587.0, 69.0, 18.0 ]
								}

							}
, 							{
								"box" : 								{
									"id" : "obj-26",
									"maxclass" : "mc.ezdac~",
									"numinlets" : 1,
									"numoutlets" : 0,
									"patching_rect" : [ 23.0, 614.0, 45.0, 45.0 ]
								}

							}
, 							{
								"box" : 								{
									"id" : "obj-23",
									"maxclass" : "newobj",
									"numinlets" : 1,
									"numoutlets" : 3,
									"outlettype" : [ "multichannelsignal", "", "" ],
									"patching_rect" : [ 23.0, 544.0, 249.0, 22.0 ],
									"text" : "somax.audiorenderer @buffername buffer-01",
									"varname" : "somax.audiorenderer"
								}

							}
, 							{
								"box" : 								{
									"id" : "obj-14",
									"linecount" : 2,
									"maxclass" : "newobj",
									"numinlets" : 1,
									"numoutlets" : 4,
									"outlettype" : [ "", "int", "", "" ],
									"patching_rect" : [ 23.0, 418.0, 221.0, 35.0 ],
									"text" : "somax.player @autoinitialize 0 @mode continuous @continuity 0. @timeout 0",
									"varname" : "somax.player"
								}

							}
, 							{
								"box" : 								{
									"border" : 0,
									"filename" : "helpdetails.js",
									"id" : "obj-2",
									"ignoreclick" : 1,
									"jsarguments" : [ "somax.atom" ],
									"maxclass" : "jsui",
									"numinlets" : 1,
									"numoutlets" : 1,
									"outlettype" : [ "" ],
									"parameter_enable" : 0,
									"patching_rect" : [ 10.0, 10.0, 645.5, 134.0 ]
								}

							}
, 							{
								"box" : 								{
									"background" : 1,
									"bgcolor" : [ 1.0, 0.788235, 0.470588, 1.0 ],
									"hint" : "",
									"id" : "obj-78",
									"ignoreclick" : 1,
									"legacytextcolor" : 1,
									"maxclass" : "textbutton",
									"numinlets" : 1,
									"numoutlets" : 3,
									"outlettype" : [ "", "", "int" ],
									"parameter_enable" : 0,
									"patching_rect" : [ 910.0, 317.0, 20.0, 20.0 ],
									"rounded" : 60.0,
									"text" : "9",
									"textcolor" : [ 0.34902, 0.34902, 0.34902, 1.0 ]
								}

							}
, 							{
								"box" : 								{
									"background" : 1,
									"bgcolor" : [ 1.0, 0.788235, 0.470588, 1.0 ],
									"fontsize" : 10.0,
									"hint" : "",
									"id" : "obj-80",
									"ignoreclick" : 1,
									"legacytextcolor" : 1,
									"maxclass" : "textbutton",
									"numinlets" : 1,
									"numoutlets" : 3,
									"outlettype" : [ "", "", "int" ],
									"parameter_enable" : 0,
									"patching_rect" : [ 492.0, 295.0, 20.0, 20.0 ],
									"rounded" : 60.0,
									"text" : "10",
									"textcolor" : [ 0.34902, 0.34902, 0.34902, 1.0 ]
								}

							}
, 							{
								"box" : 								{
									"background" : 1,
									"bgcolor" : [ 1.0, 0.788235, 0.470588, 1.0 ],
									"hint" : "",
									"id" : "obj-69",
									"ignoreclick" : 1,
									"legacytextcolor" : 1,
									"maxclass" : "textbutton",
									"numinlets" : 1,
									"numoutlets" : 3,
									"outlettype" : [ "", "", "int" ],
									"parameter_enable" : 0,
									"patching_rect" : [ 668.0, 579.0, 20.0, 20.0 ],
									"rounded" : 60.0,
									"text" : "8",
									"textcolor" : [ 0.34902, 0.34902, 0.34902, 1.0 ]
								}

							}
, 							{
								"box" : 								{
									"background" : 1,
									"bgcolor" : [ 1.0, 0.788235, 0.470588, 1.0 ],
									"hint" : "",
									"id" : "obj-55",
									"ignoreclick" : 1,
									"legacytextcolor" : 1,
									"maxclass" : "textbutton",
									"numinlets" : 1,
									"numoutlets" : 3,
									"outlettype" : [ "", "", "int" ],
									"parameter_enable" : 0,
									"patching_rect" : [ 239.0, 168.0, 20.0, 20.0 ],
									"rounded" : 60.0,
									"text" : "7",
									"textcolor" : [ 0.34902, 0.34902, 0.34902, 1.0 ]
								}

							}
, 							{
								"box" : 								{
									"background" : 1,
									"bgcolor" : [ 1.0, 0.788235, 0.470588, 1.0 ],
									"hint" : "",
									"id" : "obj-42",
									"ignoreclick" : 1,
									"legacytextcolor" : 1,
									"maxclass" : "textbutton",
									"numinlets" : 1,
									"numoutlets" : 3,
									"outlettype" : [ "", "", "int" ],
									"parameter_enable" : 0,
									"patching_rect" : [ 204.0, 331.0, 20.0, 20.0 ],
									"rounded" : 60.0,
									"text" : "4",
									"textcolor" : [ 0.34902, 0.34902, 0.34902, 1.0 ]
								}

							}
, 							{
								"box" : 								{
									"background" : 1,
									"bgcolor" : [ 1.0, 0.788235, 0.470588, 1.0 ],
									"hint" : "",
									"id" : "obj-1",
									"ignoreclick" : 1,
									"legacytextcolor" : 1,
									"maxclass" : "textbutton",
									"numinlets" : 1,
									"numoutlets" : 3,
									"outlettype" : [ "", "", "int" ],
									"parameter_enable" : 0,
									"patching_rect" : [ 206.0, 627.0, 20.0, 20.0 ],
									"rounded" : 60.0,
									"text" : "1",
									"textcolor" : [ 0.34902, 0.34902, 0.34902, 1.0 ]
								}

							}
, 							{
								"box" : 								{
									"background" : 1,
									"bgcolor" : [ 1.0, 0.788235, 0.470588, 1.0 ],
									"hint" : "",
									"id" : "obj-24",
									"ignoreclick" : 1,
									"legacytextcolor" : 1,
									"maxclass" : "textbutton",
									"numinlets" : 1,
									"numoutlets" : 3,
									"outlettype" : [ "", "", "int" ],
									"parameter_enable" : 0,
									"patching_rect" : [ 176.0, 243.0, 20.0, 20.0 ],
									"rounded" : 60.0,
									"text" : "5",
									"textcolor" : [ 0.34902, 0.34902, 0.34902, 1.0 ]
								}

							}
, 							{
								"box" : 								{
									"background" : 1,
									"bgcolor" : [ 1.0, 0.788235, 0.470588, 1.0 ],
									"hint" : "",
									"id" : "obj-52",
									"ignoreclick" : 1,
									"legacytextcolor" : 1,
									"maxclass" : "textbutton",
									"numinlets" : 1,
									"numoutlets" : 3,
									"outlettype" : [ "", "", "int" ],
									"parameter_enable" : 0,
									"patching_rect" : [ 1019.0, 363.0, 20.0, 20.0 ],
									"rounded" : 60.0,
									"text" : "6",
									"textcolor" : [ 0.34902, 0.34902, 0.34902, 1.0 ]
								}

							}
, 							{
								"box" : 								{
									"background" : 1,
									"bgcolor" : [ 1.0, 0.788235, 0.470588, 1.0 ],
									"hint" : "",
									"id" : "obj-9",
									"ignoreclick" : 1,
									"legacytextcolor" : 1,
									"maxclass" : "textbutton",
									"numinlets" : 1,
									"numoutlets" : 3,
									"outlettype" : [ "", "", "int" ],
									"parameter_enable" : 0,
									"patching_rect" : [ 134.0, 262.0, 20.0, 20.0 ],
									"rounded" : 60.0,
									"text" : "3",
									"textcolor" : [ 0.34902, 0.34902, 0.34902, 1.0 ]
								}

							}
, 							{
								"box" : 								{
									"background" : 1,
									"bgcolor" : [ 1.0, 0.788235, 0.470588, 1.0 ],
									"hint" : "",
									"id" : "obj-93",
									"ignoreclick" : 1,
									"legacytextcolor" : 1,
									"maxclass" : "textbutton",
									"numinlets" : 1,
									"numoutlets" : 3,
									"outlettype" : [ "", "", "int" ],
									"parameter_enable" : 0,
									"patching_rect" : [ 966.0, 84.0, 20.0, 20.0 ],
									"rounded" : 60.0,
									"text" : "2",
									"textcolor" : [ 0.34902, 0.34902, 0.34902, 1.0 ]
								}

							}
 ],
						"lines" : [ 							{
								"patchline" : 								{
									"destination" : [ "obj-73", 0 ],
									"hidden" : 1,
									"source" : [ "obj-10", 0 ]
								}

							}
, 							{
								"patchline" : 								{
									"destination" : [ "obj-111", 0 ],
									"midpoints" : [ 789.5, 192.229166666666799, 740.5, 192.229166666666799 ],
									"source" : [ "obj-104", 0 ]
								}

							}
, 							{
								"patchline" : 								{
									"destination" : [ "obj-49", 0 ],
									"source" : [ "obj-109", 0 ]
								}

							}
, 							{
								"patchline" : 								{
									"destination" : [ "obj-4", 0 ],
									"midpoints" : [ 434.5, 432.008984374999898, 421.5, 432.008984374999898 ],
									"source" : [ "obj-11", 0 ]
								}

							}
, 							{
								"patchline" : 								{
									"destination" : [ "obj-105", 0 ],
									"order" : 2,
									"source" : [ "obj-111", 1 ]
								}

							}
, 							{
								"patchline" : 								{
									"destination" : [ "obj-32", 0 ],
									"hidden" : 1,
									"order" : 1,
									"source" : [ "obj-111", 0 ]
								}

							}
, 							{
								"patchline" : 								{
									"destination" : [ "obj-34", 1 ],
									"midpoints" : [ 848.020833333333258, 236.114583333333428, 1042.5, 236.114583333333428 ],
									"order" : 1,
									"source" : [ "obj-111", 1 ]
								}

							}
, 							{
								"patchline" : 								{
									"destination" : [ "obj-37", 0 ],
									"hidden" : 1,
									"source" : [ "obj-111", 2 ]
								}

							}
, 							{
								"patchline" : 								{
									"destination" : [ "obj-39", 0 ],
									"hidden" : 1,
									"order" : 0,
									"source" : [ "obj-111", 1 ]
								}

							}
, 							{
								"patchline" : 								{
									"destination" : [ "obj-40", 0 ],
									"hidden" : 1,
									"order" : 0,
									"source" : [ "obj-111", 0 ]
								}

							}
, 							{
								"patchline" : 								{
									"destination" : [ "obj-4", 0 ],
									"midpoints" : [ 348.5, 430.004427083333212, 421.5, 430.004427083333212 ],
									"source" : [ "obj-12", 0 ]
								}

							}
, 							{
								"patchline" : 								{
									"destination" : [ "obj-23", 0 ],
									"midpoints" : [ 32.5, 495.75, 32.5, 495.75 ],
									"order" : 1,
									"source" : [ "obj-14", 0 ]
								}

							}
, 							{
								"patchline" : 								{
									"color" : [ 0.000065747648478, 0.001801013946533, 0.998228549957275, 1.0 ],
									"destination" : [ "obj-4", 1 ],
									"midpoints" : [ 32.5, 493.2890625, 271.765625, 493.2890625, 271.765625, 443.328125, 632.5, 443.328125 ],
									"order" : 0,
									"source" : [ "obj-14", 0 ]
								}

							}
, 							{
								"patchline" : 								{
									"destination" : [ "obj-91", 0 ],
									"source" : [ "obj-14", 1 ]
								}

							}
, 							{
								"patchline" : 								{
									"destination" : [ "obj-4", 0 ],
									"midpoints" : [ 364.5, 430.422395833333212, 421.5, 430.422395833333212 ],
									"source" : [ "obj-15", 0 ]
								}

							}
, 							{
								"patchline" : 								{
									"destination" : [ "obj-17", 0 ],
									"source" : [ "obj-20", 0 ]
								}

							}
, 							{
								"patchline" : 								{
									"destination" : [ "obj-19", 0 ],
									"source" : [ "obj-20", 1 ]
								}

							}
, 							{
								"patchline" : 								{
									"destination" : [ "obj-4", 0 ],
									"source" : [ "obj-21", 0 ]
								}

							}
, 							{
								"patchline" : 								{
									"destination" : [ "obj-28", 0 ],
									"midpoints" : [ 32.5, 582.187500000000227, 106.5, 582.187500000000227 ],
									"order" : 0,
									"source" : [ "obj-23", 0 ]
								}

							}
, 							{
								"patchline" : 								{
									"destination" : [ "obj-45", 0 ],
									"order" : 1,
									"source" : [ "obj-23", 0 ]
								}

							}
, 							{
								"patchline" : 								{
									"destination" : [ "obj-109", 0 ],
									"hidden" : 1,
									"source" : [ "obj-27", 0 ]
								}

							}
, 							{
								"patchline" : 								{
									"destination" : [ "obj-75", 0 ],
									"hidden" : 1,
									"source" : [ "obj-29", 0 ]
								}

							}
, 							{
								"patchline" : 								{
									"destination" : [ "obj-33", 0 ],
									"hidden" : 1,
									"midpoints" : [ 740.5, 308.437500000000171, 720.085440366748799, 308.437500000000171, 720.085440366748799, 128.979166666666799, 740.5, 128.979166666666799 ],
									"source" : [ "obj-30", 0 ]
								}

							}
, 							{
								"patchline" : 								{
									"destination" : [ "obj-30", 0 ],
									"hidden" : 1,
									"source" : [ "obj-32", 0 ]
								}

							}
, 							{
								"patchline" : 								{
									"destination" : [ "obj-111", 0 ],
									"source" : [ "obj-33", 0 ]
								}

							}
, 							{
								"patchline" : 								{
									"destination" : [ "obj-111", 0 ],
									"midpoints" : [ 772.5, 192.229166666666799, 740.5, 192.229166666666799 ],
									"source" : [ "obj-35", 0 ]
								}

							}
, 							{
								"patchline" : 								{
									"color" : [ 0.986251711845398, 0.00723597407341, 0.02742300927639, 1.0 ],
									"destination" : [ "obj-14", 0 ],
									"midpoints" : [ 421.5, 494.69140625, 261.99609375, 494.69140625, 261.99609375, 408.0, 32.5, 408.0 ],
									"source" : [ "obj-4", 0 ]
								}

							}
, 							{
								"patchline" : 								{
									"destination" : [ "obj-16", 1 ],
									"midpoints" : [ 562.166666666666629, 484.487499999999898, 596.5, 484.487499999999898 ],
									"source" : [ "obj-4", 2 ]
								}

							}
, 							{
								"patchline" : 								{
									"destination" : [ "obj-20", 0 ],
									"midpoints" : [ 491.833333333333314, 484.487499999999898, 438.5, 484.487499999999898 ],
									"source" : [ "obj-4", 1 ]
								}

							}
, 							{
								"patchline" : 								{
									"destination" : [ "obj-68", 0 ],
									"source" : [ "obj-4", 3 ]
								}

							}
, 							{
								"patchline" : 								{
									"destination" : [ "obj-26", 0 ],
									"source" : [ "obj-45", 0 ]
								}

							}
, 							{
								"patchline" : 								{
									"destination" : [ "obj-14", 0 ],
									"midpoints" : [ 32.5, 411.437500000000171, 32.5, 411.437500000000171 ],
									"source" : [ "obj-47", 0 ]
								}

							}
, 							{
								"patchline" : 								{
									"destination" : [ "obj-33", 0 ],
									"hidden" : 1,
									"source" : [ "obj-48", 0 ]
								}

							}
, 							{
								"patchline" : 								{
									"destination" : [ "obj-4", 0 ],
									"midpoints" : [ 750.5, 430.16015625, 421.5, 430.16015625 ],
									"source" : [ "obj-49", 0 ]
								}

							}
, 							{
								"patchline" : 								{
									"destination" : [ "obj-14", 0 ],
									"midpoints" : [ 46.5, 404.635416666666629, 32.5, 404.635416666666629 ],
									"source" : [ "obj-5", 0 ]
								}

							}
, 							{
								"patchline" : 								{
									"destination" : [ "obj-61", 0 ],
									"hidden" : 1,
									"midpoints" : [ 456.5, 359.0, 456.5, 359.0 ],
									"source" : [ "obj-51", 0 ]
								}

							}
, 							{
								"patchline" : 								{
									"destination" : [ "obj-21", 0 ],
									"source" : [ "obj-54", 0 ]
								}

							}
, 							{
								"patchline" : 								{
									"destination" : [ "obj-59", 0 ],
									"source" : [ "obj-56", 0 ]
								}

							}
, 							{
								"patchline" : 								{
									"destination" : [ "obj-59", 0 ],
									"midpoints" : [ 856.5, 389.487499999999898, 823.5, 389.487499999999898 ],
									"source" : [ "obj-57", 0 ]
								}

							}
, 							{
								"patchline" : 								{
									"destination" : [ "obj-66", 0 ],
									"hidden" : 1,
									"source" : [ "obj-58", 0 ]
								}

							}
, 							{
								"patchline" : 								{
									"destination" : [ "obj-4", 0 ],
									"midpoints" : [ 823.5, 430.831249999999898, 421.5, 430.831249999999898 ],
									"source" : [ "obj-59", 0 ]
								}

							}
, 							{
								"patchline" : 								{
									"destination" : [ "obj-54", 0 ],
									"hidden" : 1,
									"source" : [ "obj-6", 0 ]
								}

							}
, 							{
								"patchline" : 								{
									"destination" : [ "obj-64", 0 ],
									"source" : [ "obj-61", 0 ]
								}

							}
, 							{
								"patchline" : 								{
									"destination" : [ "obj-4", 0 ],
									"midpoints" : [ 318.5, 430.31640625, 421.5, 430.31640625 ],
									"source" : [ "obj-62", 0 ]
								}

							}
, 							{
								"patchline" : 								{
									"destination" : [ "obj-4", 0 ],
									"midpoints" : [ 456.5, 430.498046875, 421.5, 430.498046875 ],
									"source" : [ "obj-64", 0 ]
								}

							}
, 							{
								"patchline" : 								{
									"destination" : [ "obj-58", 0 ],
									"hidden" : 1,
									"source" : [ "obj-65", 0 ]
								}

							}
, 							{
								"patchline" : 								{
									"destination" : [ "obj-31", 0 ],
									"source" : [ "obj-68", 2 ]
								}

							}
, 							{
								"patchline" : 								{
									"destination" : [ "obj-50", 1 ],
									"midpoints" : [ 853.299999999999955, 522.75, 922.5, 522.75 ],
									"source" : [ "obj-68", 4 ]
								}

							}
, 							{
								"patchline" : 								{
									"destination" : [ "obj-60", 0 ],
									"source" : [ "obj-68", 1 ]
								}

							}
, 							{
								"patchline" : 								{
									"destination" : [ "obj-63", 0 ],
									"source" : [ "obj-68", 0 ]
								}

							}
, 							{
								"patchline" : 								{
									"destination" : [ "obj-67", 0 ],
									"source" : [ "obj-68", 3 ]
								}

							}
, 							{
								"patchline" : 								{
									"destination" : [ "obj-74", 0 ],
									"source" : [ "obj-73", 0 ]
								}

							}
, 							{
								"patchline" : 								{
									"destination" : [ "obj-4", 0 ],
									"midpoints" : [ 571.5, 430.544921875, 421.5, 430.544921875 ],
									"source" : [ "obj-74", 0 ]
								}

							}
, 							{
								"patchline" : 								{
									"destination" : [ "obj-76", 0 ],
									"source" : [ "obj-75", 0 ]
								}

							}
, 							{
								"patchline" : 								{
									"destination" : [ "obj-4", 0 ],
									"midpoints" : [ 647.5, 430.6328125, 421.5, 430.6328125 ],
									"source" : [ "obj-76", 0 ]
								}

							}
, 							{
								"patchline" : 								{
									"destination" : [ "obj-86", 0 ],
									"hidden" : 1,
									"source" : [ "obj-82", 0 ]
								}

							}
, 							{
								"patchline" : 								{
									"destination" : [ "obj-82", 0 ],
									"hidden" : 1,
									"midpoints" : [ 954.5, 51.499999999999972, 1077.5, 51.499999999999972 ],
									"source" : [ "obj-85", 0 ]
								}

							}
 ],
						"originid" : "pat-26972"
					}
,
					"patching_rect" : [ 24.0, 38.0, 47.0, 22.0 ],
					"text" : "p basic",
					"varname" : "basic"
				}

			}
 ],
		"lines" : [  ],
		"originid" : "pat-26968",
		"parameters" : 		{
			"obj-1::obj-14::obj-1001::obj-89::obj-1" : [ "live.text[28]", "live.text", 0 ],
			"obj-1::obj-14::obj-1001::obj-89::obj-2" : [ "live.text[26]", "live.text", 0 ],
			"obj-1::obj-14::obj-1001::obj-89::obj-3" : [ "live.text[27]", "live.text", 0 ],
			"obj-1::obj-14::obj-1039::obj-89::obj-1" : [ "live.text[20]", "live.text", 0 ],
			"obj-1::obj-14::obj-1039::obj-89::obj-2" : [ "live.text[22]", "live.text", 0 ],
			"obj-1::obj-14::obj-1039::obj-89::obj-3" : [ "live.text[24]", "live.text", 0 ],
			"obj-1::obj-14::obj-1105" : [ "harmonincpeakdecay[8]", "harmonincpeakdecay", 0 ],
			"obj-1::obj-14::obj-1115" : [ "continuity[1]", "continuity", 0 ],
			"obj-1::obj-14::obj-1175" : [ "heldnotesmode[2]", "heldnotesmode", 0 ],
			"obj-1::obj-14::obj-1179" : [ "continuity[16]", "continuity", 0 ],
			"obj-1::obj-14::obj-12" : [ "melodicmod12[1]", "melodicmod12", 0 ],
			"obj-1::obj-14::obj-120" : [ "melodicbypass[1]", "melodicbypass", 0 ],
			"obj-1::obj-14::obj-1218" : [ "simultaneousonsets[2]", "artificialmidities", 0 ],
			"obj-1::obj-14::obj-126" : [ "harmonicbypass[1]", "harmonicbypass", 0 ],
			"obj-1::obj-14::obj-134" : [ "continuity[17]", "continuity", 0 ],
			"obj-1::obj-14::obj-1344" : [ "enforcetaboo[4]", "enforcetaboo", 0 ],
			"obj-1::obj-14::obj-140" : [ "resetinfluences[1]", "resetinfluences", 0 ],
			"obj-1::obj-14::obj-144" : [ "harmonicngramorder[1]", "harmonicngramorder", 0 ],
			"obj-1::obj-14::obj-1444" : [ "outputprobability[4]", "outputprobability", 0 ],
			"obj-1::obj-14::obj-152" : [ "selfngramorder[1]", "selfngramorder", 0 ],
			"obj-1::obj-14::obj-154" : [ "melodicngramorder[4]", "melodicngramorder", 0 ],
			"obj-1::obj-14::obj-19" : [ "selfmod12[4]", "selfmod12", 0 ],
			"obj-1::obj-14::obj-22" : [ "selfmelodicbypass[1]", "selfmelodicbypass", 0 ],
			"obj-1::obj-14::obj-254" : [ "harmonincpeakdecay[2]", "harmonincpeakdecay", 0 ],
			"obj-1::obj-14::obj-255" : [ "melodicpeakdecay[4]", "melodicpeakdecay", 0 ],
			"obj-1::obj-14::obj-256" : [ "selfpeakdecay[1]", "selfpeakdecay", 0 ],
			"obj-1::obj-14::obj-270::obj-1226" : [ "width[1]", "Width", 0 ],
			"obj-1::obj-14::obj-270::obj-1227" : [ "center[1]", "Center", 0 ],
			"obj-1::obj-14::obj-270::obj-1240" : [ "live.slider[3]", "live.slider", 0 ],
			"obj-1::obj-14::obj-270::obj-1241" : [ "live.numbox[3]", "live.numbox[2]", 0 ],
			"obj-1::obj-14::obj-270::obj-622" : [ "__exp_velocityenable[1]", "__exp_velocityenable", 0 ],
			"obj-1::obj-14::obj-270::obj-889" : [ "weight[1]", "Weight", 0 ],
			"obj-1::obj-14::obj-295" : [ "playingmode[4]", "playingmode", 0 ],
			"obj-1::obj-14::obj-298" : [ "simultaneousonsets[7]", "simultaneousonsets", 0 ],
			"obj-1::obj-14::obj-328" : [ "decaybasis[1]", "decaybasis", 0 ],
			"obj-1::obj-14::obj-387::obj-89::obj-1" : [ "live.text[15]", "live.text", 0 ],
			"obj-1::obj-14::obj-387::obj-89::obj-2" : [ "live.text[13]", "live.text", 0 ],
			"obj-1::obj-14::obj-387::obj-89::obj-3" : [ "live.text[14]", "live.text", 0 ],
			"obj-1::obj-14::obj-497::obj-89::obj-1" : [ "live.text[10]", "live.text", 0 ],
			"obj-1::obj-14::obj-497::obj-89::obj-2" : [ "live.text[16]", "live.text", 0 ],
			"obj-1::obj-14::obj-497::obj-89::obj-3" : [ "live.text[19]", "live.text", 0 ],
			"obj-1::obj-14::obj-570" : [ "__exp_melodicpitchfromchords[4]", "__exp_melodicpitchfromchords", 0 ],
			"obj-1::obj-14::obj-575" : [ "__exp_tempoconsistencysigma[4]", "__exp_tempoconsistencysigma", 0 ],
			"obj-1::obj-14::obj-642" : [ "__exp_numnotessigma[1]", "__exp_numnotessigma", 0 ],
			"obj-1::obj-14::obj-653" : [ "__exp_numnotesenable[4]", "__exp_numnotesenable", 0 ],
			"obj-1::obj-14::obj-656" : [ "__exp_numnotesmu[1]", "__exp_numnotesmu", 0 ],
			"obj-1::obj-14::obj-667" : [ "selfharmonicbypass[1]", "selfharmonicbypass", 0 ],
			"obj-1::obj-14::obj-670" : [ "harmonicbypass[2]", "harmonicbypass", 0 ],
			"obj-1::obj-14::obj-679" : [ "selfharmonicngramorder[1]", "selfharmonicngramorder", 0 ],
			"obj-1::obj-14::obj-685" : [ "harmonincpeakdecay[5]", "harmonincpeakdecay[1]", 0 ],
			"obj-1::obj-14::obj-688" : [ "__exp_durationsigma[4]", "__exp_durationsigma", 0 ],
			"obj-1::obj-14::obj-702" : [ "__exp_durationmu[1]", "__exp_durationmu", 0 ],
			"obj-1::obj-14::obj-722" : [ "__exp_octavebandsenable[4]", "__exp_octavebandsenable", 0 ],
			"obj-1::obj-14::obj-733" : [ "__exp_octavebands[1]", "__exp_octavebands", 0 ],
			"obj-1::obj-14::obj-746" : [ "__exp_selfpitchfromchords[4]", "__exp_selfpitchfromchords", 0 ],
			"obj-1::obj-14::obj-763" : [ "__exp_autojumpforcejump[1]", "__exp_autojumpforcejump", 0 ],
			"obj-1::obj-14::obj-774" : [ "__exp_autojumpenable[1]", "__exp_autojumpenable", 0 ],
			"obj-1::obj-14::obj-777" : [ "__exp_autojumpactivate[1]", "__exp_autojumpactivate", 0 ],
			"obj-1::obj-14::obj-799" : [ "__exp_tempoconsistencyenable[4]", "__exp_tempoconsistencyenable", 0 ],
			"obj-1::obj-14::obj-802" : [ "__exp_tempoconsistencylen[4]", "__exp_tempoconsistencylen", 0 ],
			"obj-1::obj-14::obj-814" : [ "harmonincpeakdecay[6]", "harmonincpeakdecay", 0 ],
			"obj-1::obj-14::obj-842::obj-89::obj-1" : [ "live.text[29]", "live.text", 0 ],
			"obj-1::obj-14::obj-842::obj-89::obj-2" : [ "live.text[30]", "live.text", 0 ],
			"obj-1::obj-14::obj-842::obj-89::obj-3" : [ "live.text[31]", "live.text", 0 ],
			"obj-1::obj-14::obj-843" : [ "harmonicngramorder[2]", "harmonicngramorder", 0 ],
			"obj-1::obj-14::obj-860" : [ "harmonincpeakdecay[3]", "harmonincpeakdecay[1]", 0 ],
			"obj-1::obj-14::obj-865" : [ "selfharmonicngramorder[4]", "selfharmonicngramorder", 0 ],
			"obj-1::obj-14::obj-870" : [ "selfharmonicbypass[4]", "selfharmonicbypass", 0 ],
			"obj-1::obj-14::obj-871" : [ "harmonincpeakdecay[7]", "harmonincpeakdecay", 0 ],
			"obj-1::obj-14::obj-96::obj-89::obj-1" : [ "live.text[33]", "live.text", 0 ],
			"obj-1::obj-14::obj-96::obj-89::obj-2" : [ "live.text[34]", "live.text", 0 ],
			"obj-1::obj-14::obj-96::obj-89::obj-3" : [ "live.text[32]", "live.text", 0 ],
			"obj-1::obj-23::obj-98" : [ "live.text[21]", "live.text[26]", 0 ],
			"obj-1::obj-4::obj-89::obj-1" : [ "live.text[121]", "live.text", 0 ],
			"obj-1::obj-4::obj-89::obj-2" : [ "live.text[120]", "live.text", 0 ],
			"obj-1::obj-4::obj-89::obj-3" : [ "live.text[122]", "live.text", 0 ],
			"obj-1::obj-67" : [ "live.numbox[4]", "live.numbox[20]", 0 ],
			"parameterbanks" : 			{
				"0" : 				{
					"index" : 0,
					"name" : "",
					"parameters" : [ "-", "-", "-", "-", "-", "-", "-", "-" ]
				}

			}
,
			"parameter_overrides" : 			{
				"obj-1::obj-14::obj-1001::obj-89::obj-1" : 				{
					"parameter_longname" : "live.text[28]"
				}
,
				"obj-1::obj-14::obj-1001::obj-89::obj-2" : 				{
					"parameter_longname" : "live.text[26]"
				}
,
				"obj-1::obj-14::obj-1001::obj-89::obj-3" : 				{
					"parameter_longname" : "live.text[27]"
				}
,
				"obj-1::obj-14::obj-1039::obj-89::obj-1" : 				{
					"parameter_longname" : "live.text[20]"
				}
,
				"obj-1::obj-14::obj-1039::obj-89::obj-2" : 				{
					"parameter_longname" : "live.text[22]"
				}
,
				"obj-1::obj-14::obj-1039::obj-89::obj-3" : 				{
					"parameter_longname" : "live.text[24]"
				}
,
				"obj-1::obj-14::obj-387::obj-89::obj-1" : 				{
					"parameter_longname" : "live.text[15]"
				}
,
				"obj-1::obj-14::obj-387::obj-89::obj-2" : 				{
					"parameter_longname" : "live.text[13]"
				}
,
				"obj-1::obj-14::obj-387::obj-89::obj-3" : 				{
					"parameter_longname" : "live.text[14]"
				}
,
				"obj-1::obj-14::obj-497::obj-89::obj-1" : 				{
					"parameter_longname" : "live.text[10]"
				}
,
				"obj-1::obj-14::obj-497::obj-89::obj-2" : 				{
					"parameter_longname" : "live.text[16]"
				}
,
				"obj-1::obj-14::obj-497::obj-89::obj-3" : 				{
					"parameter_longname" : "live.text[19]"
				}
,
				"obj-1::obj-14::obj-842::obj-89::obj-1" : 				{
					"parameter_longname" : "live.text[29]"
				}
,
				"obj-1::obj-14::obj-842::obj-89::obj-2" : 				{
					"parameter_longname" : "live.text[30]"
				}
,
				"obj-1::obj-14::obj-842::obj-89::obj-3" : 				{
					"parameter_longname" : "live.text[31]"
				}
,
				"obj-1::obj-14::obj-96::obj-89::obj-1" : 				{
					"parameter_longname" : "live.text[33]"
				}
,
				"obj-1::obj-14::obj-96::obj-89::obj-2" : 				{
					"parameter_longname" : "live.text[34]"
				}
,
				"obj-1::obj-14::obj-96::obj-89::obj-3" : 				{
					"parameter_longname" : "live.text[32]"
				}
,
				"obj-1::obj-23::obj-98" : 				{
					"parameter_longname" : "live.text[21]"
				}

			}
,
			"inherited_shortname" : 1
		}
,
		"dependency_cache" : [ 			{
				"name" : "abstraction_path.js",
				"bootpath" : "~/Documents/GitHub/Somax2/max/somax/javascript",
				"patcherrelativepath" : "../javascript",
				"type" : "TEXT",
				"implicit" : 1
			}
, 			{
				"name" : "helpdetails.js",
				"bootpath" : "C74:/help/resources",
				"type" : "TEXT",
				"implicit" : 1
			}
, 			{
				"name" : "peakmeter.maxpat",
				"bootpath" : "~/Documents/GitHub/Somax2/max/somax/patchers/resources/player",
				"patcherrelativepath" : "../patchers/resources/player",
				"type" : "JSON",
				"implicit" : 1
			}
, 			{
				"name" : "somax.atom.maxpat",
				"bootpath" : "~/Documents/GitHub/Somax2/max/somax/patchers/resources/player",
				"patcherrelativepath" : "../patchers/resources/player",
				"type" : "JSON",
				"implicit" : 1
			}
, 			{
				"name" : "somax.audiorenderer.maxpat",
				"bootpath" : "~/Documents/GitHub/Somax2/max/somax/patchers",
				"patcherrelativepath" : "../patchers",
				"type" : "JSON",
				"implicit" : 1
			}
, 			{
				"name" : "somax.await_patcherargs.maxpat",
				"bootpath" : "~/Documents/GitHub/Somax2/max/somax/patchers",
				"patcherrelativepath" : "../patchers",
				"type" : "JSON",
				"implicit" : 1
			}
, 			{
				"name" : "somax.beatphase.maxpat",
				"bootpath" : "~/Documents/GitHub/Somax2/max/somax/patchers",
				"patcherrelativepath" : "../patchers",
				"type" : "JSON",
				"implicit" : 1
			}
, 			{
				"name" : "somax.corpuspath.maxpat",
				"bootpath" : "~/Documents/GitHub/Somax2/max/somax/patchers/resources/misc",
				"patcherrelativepath" : "../patchers/resources/misc",
				"type" : "JSON",
				"implicit" : 1
			}
, 			{
				"name" : "somax.descriptorview.maxpat",
				"bootpath" : "~/Documents/GitHub/Somax2/max/somax/patchers/resources/player",
				"patcherrelativepath" : "../patchers/resources/player",
				"type" : "JSON",
				"implicit" : 1
			}
, 			{
				"name" : "somax.interpreter.maxpat",
				"bootpath" : "~/Documents/GitHub/Somax2/max/somax/patchers/resources/misc",
				"patcherrelativepath" : "../patchers/resources/misc",
				"type" : "JSON",
				"implicit" : 1
			}
, 			{
				"name" : "somax.path.maxpat",
				"bootpath" : "~/Documents/GitHub/Somax2/max/somax/patchers",
				"patcherrelativepath" : "../patchers",
				"type" : "JSON",
				"implicit" : 1
			}
, 			{
				"name" : "somax.player.core.maxpat",
				"bootpath" : "~/Documents/GitHub/Somax2/max/somax/patchers",
				"patcherrelativepath" : "../patchers",
				"type" : "JSON",
				"implicit" : 1
			}
, 			{
				"name" : "somax.player.maxpat",
				"bootpath" : "~/Documents/GitHub/Somax2/max/somax/patchers",
				"patcherrelativepath" : "../patchers",
				"type" : "JSON",
				"implicit" : 1
			}
, 			{
				"name" : "somax.print.maxpat",
				"bootpath" : "~/Documents/GitHub/Somax2/max/somax/patchers",
				"patcherrelativepath" : "../patchers",
				"type" : "JSON",
				"implicit" : 1
			}
, 			{
				"name" : "somax.relativepath.maxpat",
				"bootpath" : "~/Documents/GitHub/Somax2/max/somax/patchers/resources/misc",
				"patcherrelativepath" : "../patchers/resources/misc",
				"type" : "JSON",
				"implicit" : 1
			}
, 			{
				"name" : "somax.server.maxpat",
				"bootpath" : "~/Documents/GitHub/Somax2/max/somax/patchers",
				"patcherrelativepath" : "../patchers",
				"type" : "JSON",
				"implicit" : 1
			}
, 			{
				"name" : "somax.serverstatus.maxpat",
				"bootpath" : "~/Documents/GitHub/Somax2/max/somax/patchers/resources/server",
				"patcherrelativepath" : "../patchers/resources/server",
				"type" : "JSON",
				"implicit" : 1
			}
, 			{
				"name" : "somax.serverstatus.ui.maxpat",
				"bootpath" : "~/Documents/GitHub/Somax2/max/somax/patchers/resources/server",
				"patcherrelativepath" : "../patchers/resources/server",
				"type" : "JSON",
				"implicit" : 1
			}
, 			{
				"name" : "somax.uniquename.maxpat",
				"bootpath" : "~/Documents/GitHub/Somax2/max/somax/patchers/resources/misc",
				"patcherrelativepath" : "../patchers/resources/misc",
				"type" : "JSON",
				"implicit" : 1
			}
, 			{
				"name" : "somax.uniquenumber.maxpat",
				"bootpath" : "~/Documents/GitHub/Somax2/max/somax/patchers/resources/misc",
				"patcherrelativepath" : "../patchers/resources/misc",
				"type" : "JSON",
				"implicit" : 1
			}
, 			{
				"name" : "somax.winresize.maxpat",
				"bootpath" : "~/Documents/GitHub/Somax2/max/somax/patchers/resources/misc",
				"patcherrelativepath" : "../patchers/resources/misc",
				"type" : "JSON",
				"implicit" : 1
			}
 ],
		"autosave" : 0
	}

}
