{
	"patcher" : 	{
		"fileversion" : 1,
		"appversion" : 		{
			"major" : 8,
			"minor" : 3,
			"revision" : 2,
			"architecture" : "x64",
			"modernui" : 1
		}
,
		"classnamespace" : "box",
		"rect" : [ 100.0, 100.0, 1074.0, 702.0 ],
		"bglocked" : 0,
		"openinpresentation" : 0,
		"default_fontsize" : 12.0,
		"default_fontface" : 0,
		"default_fontname" : "Arial",
		"gridonopen" : 1,
		"gridsize" : [ 15.0, 15.0 ],
		"gridsnaponopen" : 1,
		"objectsnaponopen" : 1,
		"statusbarvisible" : 2,
		"toolbarvisible" : 1,
		"lefttoolbarpinned" : 0,
		"toptoolbarpinned" : 0,
		"righttoolbarpinned" : 0,
		"bottomtoolbarpinned" : 0,
		"toolbars_unpinned_last_save" : 0,
		"tallnewobj" : 0,
		"boxanimatetime" : 200,
		"enablehscroll" : 1,
		"enablevscroll" : 1,
		"devicewidth" : 0.0,
		"description" : "",
		"digest" : "",
		"tags" : "",
		"style" : "",
		"subpatcher_template" : "",
		"showrootpatcherontab" : 0,
		"showontab" : 0,
		"assistshowspatchername" : 0,
		"boxes" : [ 			{
				"box" : 				{
					"id" : "obj-12",
					"maxclass" : "newobj",
					"numinlets" : 0,
					"numoutlets" : 0,
					"patcher" : 					{
						"fileversion" : 1,
						"appversion" : 						{
							"major" : 8,
							"minor" : 3,
							"revision" : 2,
							"architecture" : "x64",
							"modernui" : 1
						}
,
						"classnamespace" : "box",
						"rect" : [ 0.0, 26.0, 1074.0, 676.0 ],
						"bglocked" : 0,
						"openinpresentation" : 0,
						"default_fontsize" : 12.0,
						"default_fontface" : 0,
						"default_fontname" : "Arial",
						"gridonopen" : 1,
						"gridsize" : [ 15.0, 15.0 ],
						"gridsnaponopen" : 1,
						"objectsnaponopen" : 1,
						"statusbarvisible" : 2,
						"toolbarvisible" : 1,
						"lefttoolbarpinned" : 0,
						"toptoolbarpinned" : 0,
						"righttoolbarpinned" : 0,
						"bottomtoolbarpinned" : 0,
						"toolbars_unpinned_last_save" : 0,
						"tallnewobj" : 0,
						"boxanimatetime" : 200,
						"enablehscroll" : 1,
						"enablevscroll" : 1,
						"devicewidth" : 0.0,
						"description" : "",
						"digest" : "",
						"tags" : "",
						"style" : "",
						"subpatcher_template" : "",
						"showontab" : 1,
						"assistshowspatchername" : 0,
						"boxes" : [  ],
						"lines" : [  ]
					}
,
					"patching_rect" : [ 358.168521462639092, 38.0, 25.0, 22.0 ],
					"saved_object_attributes" : 					{
						"description" : "",
						"digest" : "",
						"globalpatchername" : "",
						"tags" : ""
					}
,
					"text" : "p ?"
				}

			}
, 			{
				"box" : 				{
					"id" : "obj-1",
					"maxclass" : "newobj",
					"numinlets" : 0,
					"numoutlets" : 0,
					"patcher" : 					{
						"fileversion" : 1,
						"appversion" : 						{
							"major" : 8,
							"minor" : 3,
							"revision" : 2,
							"architecture" : "x64",
							"modernui" : 1
						}
,
						"classnamespace" : "box",
						"rect" : [ 100.0, 126.0, 1074.0, 676.0 ],
						"openrect" : [ 0.0, 0.0, 1055.0, 690.0 ],
						"bglocked" : 0,
						"openinpresentation" : 0,
						"default_fontsize" : 12.0,
						"default_fontface" : 0,
						"default_fontname" : "Arial",
						"gridonopen" : 1,
						"gridsize" : [ 15.0, 15.0 ],
						"gridsnaponopen" : 1,
						"objectsnaponopen" : 1,
						"statusbarvisible" : 2,
						"toolbarvisible" : 1,
						"lefttoolbarpinned" : 0,
						"toptoolbarpinned" : 0,
						"righttoolbarpinned" : 0,
						"bottomtoolbarpinned" : 0,
						"toolbars_unpinned_last_save" : 0,
						"tallnewobj" : 0,
						"boxanimatetime" : 200,
						"enablehscroll" : 1,
						"enablevscroll" : 1,
						"devicewidth" : 0.0,
						"description" : "",
						"digest" : "",
						"tags" : "",
						"style" : "",
						"subpatcher_template" : "",
						"showontab" : 1,
						"assistshowspatchername" : 0,
						"boxes" : [ 							{
								"box" : 								{
									"id" : "obj-46",
									"maxclass" : "newobj",
									"numinlets" : 2,
									"numoutlets" : 1,
									"outlettype" : [ "" ],
									"patching_rect" : [ 54.0, 228.0, 37.0, 22.0 ],
									"text" : "join 2"
								}

							}
, 							{
								"box" : 								{
									"id" : "obj-15",
									"maxclass" : "newobj",
									"numinlets" : 3,
									"numoutlets" : 0,
									"patching_rect" : [ 54.0, 634.5, 49.0, 22.0 ],
									"text" : "noteout"
								}

							}
, 							{
								"box" : 								{
									"id" : "obj-3",
									"maxclass" : "kslider",
									"mode" : 1,
									"numinlets" : 2,
									"numoutlets" : 2,
									"outlettype" : [ "int", "int" ],
									"parameter_enable" : 0,
									"patching_rect" : [ 54.0, 155.5, 168.0, 53.0 ],
									"range" : 24
								}

							}
, 							{
								"box" : 								{
									"id" : "obj-73",
									"maxclass" : "newobj",
									"numinlets" : 0,
									"numoutlets" : 1,
									"outlettype" : [ "" ],
									"patcher" : 									{
										"fileversion" : 1,
										"appversion" : 										{
											"major" : 8,
											"minor" : 3,
											"revision" : 2,
											"architecture" : "x64",
											"modernui" : 1
										}
,
										"classnamespace" : "box",
										"rect" : [ 754.0, 186.0, 640.0, 523.0 ],
										"bglocked" : 0,
										"openinpresentation" : 0,
										"default_fontsize" : 12.0,
										"default_fontface" : 0,
										"default_fontname" : "Arial",
										"gridonopen" : 1,
										"gridsize" : [ 15.0, 15.0 ],
										"gridsnaponopen" : 1,
										"objectsnaponopen" : 1,
										"statusbarvisible" : 2,
										"toolbarvisible" : 1,
										"lefttoolbarpinned" : 0,
										"toptoolbarpinned" : 0,
										"righttoolbarpinned" : 0,
										"bottomtoolbarpinned" : 0,
										"toolbars_unpinned_last_save" : 0,
										"tallnewobj" : 0,
										"boxanimatetime" : 200,
										"enablehscroll" : 1,
										"enablevscroll" : 1,
										"devicewidth" : 0.0,
										"description" : "",
										"digest" : "",
										"tags" : "",
										"style" : "",
										"subpatcher_template" : "",
										"assistshowspatchername" : 0,
										"boxes" : [ 											{
												"box" : 												{
													"fontname" : "Arial",
													"fontsize" : 13.0,
													"id" : "obj-20",
													"maxclass" : "comment",
													"numinlets" : 1,
													"numoutlets" : 0,
													"patching_rect" : [ 106.0, 417.0, 72.0, 21.0 ],
													"text" : "In addition:",
													"textcolor" : [ 0.34782600402832, 0.34782600402832, 0.34782600402832, 1.0 ]
												}

											}
, 											{
												"box" : 												{
													"fontname" : "Arial",
													"fontsize" : 13.0,
													"id" : "obj-21",
													"linecount" : 4,
													"maxclass" : "comment",
													"numinlets" : 1,
													"numoutlets" : 0,
													"patching_rect" : [ 106.0, 440.0, 356.0, 65.0 ],
													"text" : "chromachannels: When working with MIDI input consisting of multiple channels (e.g. a MIDI file), the chromachannels message can be used to select which channels onsets should be detected on. See reference for format",
													"textcolor" : [ 0.34782600402832, 0.34782600402832, 0.34782600402832, 1.0 ]
												}

											}
, 											{
												"box" : 												{
													"id" : "obj-17",
													"maxclass" : "number",
													"minimum" : 20,
													"numinlets" : 1,
													"numoutlets" : 2,
													"outlettype" : [ "", "bang" ],
													"parameter_enable" : 0,
													"patching_rect" : [ 449.0, 295.0, 50.0, 22.0 ]
												}

											}
, 											{
												"box" : 												{
													"hidden" : 1,
													"id" : "obj-18",
													"maxclass" : "newobj",
													"numinlets" : 1,
													"numoutlets" : 1,
													"outlettype" : [ "" ],
													"patching_rect" : [ 449.0, 265.0, 83.0, 22.0 ],
													"text" : "loadmess 500"
												}

											}
, 											{
												"box" : 												{
													"id" : "obj-19",
													"maxclass" : "message",
													"numinlets" : 2,
													"numoutlets" : 1,
													"outlettype" : [ "" ],
													"patching_rect" : [ 449.0, 328.0, 87.0, 22.0 ],
													"presentation_linecount" : 2,
													"text" : "filterrelease $1"
												}

											}
, 											{
												"box" : 												{
													"id" : "obj-16",
													"maxclass" : "number",
													"minimum" : 20,
													"numinlets" : 1,
													"numoutlets" : 2,
													"outlettype" : [ "", "bang" ],
													"parameter_enable" : 0,
													"patching_rect" : [ 357.0, 295.0, 50.0, 22.0 ]
												}

											}
, 											{
												"box" : 												{
													"hidden" : 1,
													"id" : "obj-10",
													"maxclass" : "newobj",
													"numinlets" : 1,
													"numoutlets" : 1,
													"outlettype" : [ "" ],
													"patching_rect" : [ 357.0, 265.0, 77.0, 22.0 ],
													"text" : "loadmess 30"
												}

											}
, 											{
												"box" : 												{
													"id" : "obj-12",
													"maxclass" : "message",
													"numinlets" : 2,
													"numoutlets" : 1,
													"outlettype" : [ "" ],
													"patching_rect" : [ 357.0, 328.0, 80.0, 22.0 ],
													"text" : "filterattack $1"
												}

											}
, 											{
												"box" : 												{
													"fontname" : "Arial",
													"fontsize" : 13.0,
													"id" : "obj-9",
													"linecount" : 2,
													"maxclass" : "comment",
													"numinlets" : 1,
													"numoutlets" : 0,
													"patching_rect" : [ 161.0, 328.0, 180.0, 36.0 ],
													"text" : "When disabled, chroma output will not be continuous",
													"textcolor" : [ 0.34782600402832, 0.34782600402832, 0.34782600402832, 1.0 ]
												}

											}
, 											{
												"box" : 												{
													"bubble" : 1,
													"fontname" : "Arial",
													"fontsize" : 13.0,
													"id" : "obj-8",
													"linecount" : 2,
													"maxclass" : "comment",
													"numinlets" : 1,
													"numoutlets" : 0,
													"patching_rect" : [ 91.0, 281.0, 196.0, 40.0 ],
													"presentation_linecount" : 2,
													"text" : "chromafilter disables/enables the leaky integration",
													"textcolor" : [ 0.34782600402832, 0.34782600402832, 0.34782600402832, 1.0 ]
												}

											}
, 											{
												"box" : 												{
													"hidden" : 1,
													"id" : "obj-1",
													"maxclass" : "newobj",
													"numinlets" : 1,
													"numoutlets" : 1,
													"outlettype" : [ "" ],
													"patching_rect" : [ 61.0, 251.0, 70.0, 22.0 ],
													"text" : "loadmess 1"
												}

											}
, 											{
												"box" : 												{
													"id" : "obj-3",
													"maxclass" : "toggle",
													"numinlets" : 1,
													"numoutlets" : 1,
													"outlettype" : [ "int" ],
													"parameter_enable" : 0,
													"patching_rect" : [ 61.0, 289.0, 24.0, 24.0 ]
												}

											}
, 											{
												"box" : 												{
													"id" : "obj-6",
													"maxclass" : "message",
													"numinlets" : 2,
													"numoutlets" : 1,
													"outlettype" : [ "" ],
													"patching_rect" : [ 61.0, 328.0, 88.0, 22.0 ],
													"text" : "chromafilter $1"
												}

											}
, 											{
												"box" : 												{
													"fontname" : "Arial",
													"fontsize" : 13.0,
													"id" : "obj-7",
													"linecount" : 6,
													"maxclass" : "comment",
													"numinlets" : 1,
													"numoutlets" : 0,
													"patching_rect" : [ 164.0, 156.0, 419.0, 94.0 ],
													"text" : "When influencing a player, the player will use the chroma influences look for sequences in its corpus matching the N last influences it received. With continuouschroma 1, the resolution will be too high and generate way too many matches. continuouscrhoma 1 can however still be useful for mixing chromas from multiple influencers, but it requires segmentation of the combined chromas afterwards.",
													"textcolor" : [ 0.34782600402832, 0.34782600402832, 0.34782600402832, 1.0 ]
												}

											}
, 											{
												"box" : 												{
													"bubble" : 1,
													"fontname" : "Arial",
													"fontsize" : 13.0,
													"id" : "obj-59",
													"linecount" : 3,
													"maxclass" : "comment",
													"numinlets" : 1,
													"numoutlets" : 0,
													"patching_rect" : [ 82.0, 92.0, 282.0, 54.0 ],
													"text" : "By default, chroma is only output whenever an onset is detected. Turning continuous chroma on will generate output continuously",
													"textcolor" : [ 0.34782600402832, 0.34782600402832, 0.34782600402832, 1.0 ]
												}

											}
, 											{
												"box" : 												{
													"hidden" : 1,
													"id" : "obj-5",
													"maxclass" : "newobj",
													"numinlets" : 1,
													"numoutlets" : 1,
													"outlettype" : [ "" ],
													"patching_rect" : [ 29.0, 69.0, 70.0, 22.0 ],
													"text" : "loadmess 1"
												}

											}
, 											{
												"box" : 												{
													"id" : "obj-4",
													"maxclass" : "toggle",
													"numinlets" : 1,
													"numoutlets" : 1,
													"outlettype" : [ "int" ],
													"parameter_enable" : 0,
													"patching_rect" : [ 29.0, 107.0, 24.0, 24.0 ]
												}

											}
, 											{
												"box" : 												{
													"id" : "obj-2",
													"maxclass" : "message",
													"numinlets" : 2,
													"numoutlets" : 1,
													"outlettype" : [ "" ],
													"patching_rect" : [ 29.0, 156.0, 123.0, 22.0 ],
													"text" : "continuouschroma $1"
												}

											}
, 											{
												"box" : 												{
													"fontname" : "Arial",
													"fontsize" : 13.0,
													"id" : "obj-34",
													"linecount" : 3,
													"maxclass" : "comment",
													"numinlets" : 1,
													"numoutlets" : 0,
													"patching_rect" : [ 29.0, 14.0, 574.0, 50.0 ],
													"text" : "A \"pseduo-chroma\" (analogous to the Chroma output from ircamdescriptor~ used in the somax.audioinfluencer) is generated from the incoming MIDI data, and filtered with a leaky integrator to smoothen the signal",
													"textcolor" : [ 0.34782600402832, 0.34782600402832, 0.34782600402832, 1.0 ]
												}

											}
, 											{
												"box" : 												{
													"comment" : "",
													"id" : "obj-33",
													"index" : 1,
													"maxclass" : "outlet",
													"numinlets" : 1,
													"numoutlets" : 0,
													"patching_rect" : [ 29.0, 466.0, 30.0, 30.0 ]
												}

											}
 ],
										"lines" : [ 											{
												"patchline" : 												{
													"destination" : [ "obj-3", 0 ],
													"hidden" : 1,
													"source" : [ "obj-1", 0 ]
												}

											}
, 											{
												"patchline" : 												{
													"destination" : [ "obj-16", 0 ],
													"hidden" : 1,
													"source" : [ "obj-10", 0 ]
												}

											}
, 											{
												"patchline" : 												{
													"destination" : [ "obj-33", 0 ],
													"midpoints" : [ 366.5, 388.0, 38.5, 388.0 ],
													"source" : [ "obj-12", 0 ]
												}

											}
, 											{
												"patchline" : 												{
													"destination" : [ "obj-12", 0 ],
													"source" : [ "obj-16", 0 ]
												}

											}
, 											{
												"patchline" : 												{
													"destination" : [ "obj-19", 0 ],
													"source" : [ "obj-17", 0 ]
												}

											}
, 											{
												"patchline" : 												{
													"destination" : [ "obj-17", 0 ],
													"hidden" : 1,
													"source" : [ "obj-18", 0 ]
												}

											}
, 											{
												"patchline" : 												{
													"destination" : [ "obj-33", 0 ],
													"midpoints" : [ 458.5, 389.0, 38.5, 389.0 ],
													"source" : [ "obj-19", 0 ]
												}

											}
, 											{
												"patchline" : 												{
													"destination" : [ "obj-33", 0 ],
													"source" : [ "obj-2", 0 ]
												}

											}
, 											{
												"patchline" : 												{
													"destination" : [ "obj-6", 0 ],
													"source" : [ "obj-3", 0 ]
												}

											}
, 											{
												"patchline" : 												{
													"destination" : [ "obj-2", 0 ],
													"source" : [ "obj-4", 0 ]
												}

											}
, 											{
												"patchline" : 												{
													"destination" : [ "obj-4", 0 ],
													"hidden" : 1,
													"source" : [ "obj-5", 0 ]
												}

											}
, 											{
												"patchline" : 												{
													"destination" : [ "obj-33", 0 ],
													"midpoints" : [ 70.5, 388.0, 38.5, 388.0 ],
													"source" : [ "obj-6", 0 ]
												}

											}
 ]
									}
,
									"patching_rect" : [ 497.0, 288.0, 126.0, 22.0 ],
									"saved_object_attributes" : 									{
										"description" : "",
										"digest" : "",
										"globalpatchername" : "",
										"tags" : ""
									}
,
									"text" : "p chroma_parameters"
								}

							}
, 							{
								"box" : 								{
									"bubble" : 1,
									"bubbleside" : 3,
									"fontname" : "Arial",
									"fontsize" : 13.0,
									"id" : "obj-72",
									"linecount" : 3,
									"maxclass" : "comment",
									"numinlets" : 1,
									"numoutlets" : 0,
									"patching_rect" : [ 805.75, 602.5, 136.0, 54.0 ],
									"text" : "see somax.player documentation for more info",
									"textcolor" : [ 0.34782600402832, 0.34782600402832, 0.34782600402832, 1.0 ]
								}

							}
, 							{
								"box" : 								{
									"bubble" : 1,
									"fontname" : "Arial",
									"fontsize" : 13.0,
									"id" : "obj-71",
									"linecount" : 2,
									"maxclass" : "comment",
									"numinlets" : 1,
									"numoutlets" : 0,
									"patching_rect" : [ 394.01687763713079, 335.0, 142.61814345991553, 40.0 ],
									"text" : "double click to view all parameters",
									"textcolor" : [ 0.34782600402832, 0.34782600402832, 0.34782600402832, 1.0 ]
								}

							}
, 							{
								"box" : 								{
									"id" : "obj-68",
									"maxclass" : "newobj",
									"numinlets" : 0,
									"numoutlets" : 1,
									"outlettype" : [ "" ],
									"patcher" : 									{
										"fileversion" : 1,
										"appversion" : 										{
											"major" : 8,
											"minor" : 3,
											"revision" : 2,
											"architecture" : "x64",
											"modernui" : 1
										}
,
										"classnamespace" : "box",
										"rect" : [ 59.0, 106.0, 640.0, 480.0 ],
										"bglocked" : 0,
										"openinpresentation" : 0,
										"default_fontsize" : 12.0,
										"default_fontface" : 0,
										"default_fontname" : "Arial",
										"gridonopen" : 1,
										"gridsize" : [ 15.0, 15.0 ],
										"gridsnaponopen" : 1,
										"objectsnaponopen" : 1,
										"statusbarvisible" : 2,
										"toolbarvisible" : 1,
										"lefttoolbarpinned" : 0,
										"toptoolbarpinned" : 0,
										"righttoolbarpinned" : 0,
										"bottomtoolbarpinned" : 0,
										"toolbars_unpinned_last_save" : 0,
										"tallnewobj" : 0,
										"boxanimatetime" : 200,
										"enablehscroll" : 1,
										"enablevscroll" : 1,
										"devicewidth" : 0.0,
										"description" : "",
										"digest" : "",
										"tags" : "",
										"style" : "",
										"subpatcher_template" : "",
										"assistshowspatchername" : 0,
										"boxes" : [ 											{
												"box" : 												{
													"hidden" : 1,
													"id" : "obj-14",
													"maxclass" : "newobj",
													"numinlets" : 1,
													"numoutlets" : 1,
													"outlettype" : [ "" ],
													"patching_rect" : [ 19.0, 63.0, 70.0, 22.0 ],
													"text" : "loadmess 1"
												}

											}
, 											{
												"box" : 												{
													"id" : "obj-13",
													"maxclass" : "message",
													"numinlets" : 2,
													"numoutlets" : 1,
													"outlettype" : [ "" ],
													"patching_rect" : [ 19.0, 159.0, 94.0, 22.0 ],
													"text" : "pitchanalysis $1"
												}

											}
, 											{
												"box" : 												{
													"bubble" : 1,
													"fontname" : "Arial",
													"fontsize" : 13.0,
													"id" : "obj-9",
													"linecount" : 3,
													"maxclass" : "comment",
													"numinlets" : 1,
													"numoutlets" : 0,
													"patching_rect" : [ 221.0, 90.0, 255.0, 54.0 ],
													"presentation_linecount" : 3,
													"text" : "For polyphonic content, the pitchanalysis parameter controls which note in the chord should be output",
													"textcolor" : [ 0.34782600402832, 0.34782600402832, 0.34782600402832, 1.0 ]
												}

											}
, 											{
												"box" : 												{
													"fontname" : "Arial",
													"fontsize" : 13.0,
													"id" : "obj-8",
													"maxclass" : "comment",
													"numinlets" : 1,
													"numoutlets" : 0,
													"patching_rect" : [ 42.0, 90.0, 162.0, 21.0 ],
													"presentation_linecount" : 10,
													"text" : "virfun (virtual fundamental)",
													"textcolor" : [ 0.34782600402832, 0.34782600402832, 0.34782600402832, 1.0 ]
												}

											}
, 											{
												"box" : 												{
													"fontname" : "Arial",
													"fontsize" : 13.0,
													"id" : "obj-7",
													"maxclass" : "comment",
													"numinlets" : 1,
													"numoutlets" : 0,
													"patching_rect" : [ 42.0, 122.0, 36.0, 21.0 ],
													"presentation_linecount" : 2,
													"text" : "bass",
													"textcolor" : [ 0.34782600402832, 0.34782600402832, 0.34782600402832, 1.0 ]
												}

											}
, 											{
												"box" : 												{
													"fontname" : "Arial",
													"fontsize" : 13.0,
													"id" : "obj-6",
													"maxclass" : "comment",
													"numinlets" : 1,
													"numoutlets" : 0,
													"patching_rect" : [ 42.0, 106.0, 27.0, 21.0 ],
													"text" : "top",
													"textcolor" : [ 0.34782600402832, 0.34782600402832, 0.34782600402832, 1.0 ]
												}

											}
, 											{
												"box" : 												{
													"disabled" : [ 0, 0, 0 ],
													"id" : "obj-1",
													"itemtype" : 0,
													"maxclass" : "radiogroup",
													"numinlets" : 1,
													"numoutlets" : 1,
													"outlettype" : [ "" ],
													"parameter_enable" : 0,
													"patching_rect" : [ 19.0, 92.0, 18.0, 50.0 ],
													"size" : 3,
													"value" : 1
												}

											}
, 											{
												"box" : 												{
													"fontname" : "Arial",
													"fontsize" : 13.0,
													"id" : "obj-18",
													"maxclass" : "comment",
													"numinlets" : 1,
													"numoutlets" : 0,
													"patching_rect" : [ 55.0, 244.0, 72.0, 21.0 ],
													"text" : "In addition:",
													"textcolor" : [ 0.34782600402832, 0.34782600402832, 0.34782600402832, 1.0 ]
												}

											}
, 											{
												"box" : 												{
													"fontname" : "Arial",
													"fontsize" : 13.0,
													"id" : "obj-17",
													"linecount" : 4,
													"maxclass" : "comment",
													"numinlets" : 1,
													"numoutlets" : 0,
													"patching_rect" : [ 55.0, 267.0, 337.0, 65.0 ],
													"text" : "pitchchannels: When working with MIDI input consisting of multiple channels (e.g. a MIDI file), the pitchchannels message can be used to select which channels pitch should be analyzed from. See reference for format",
													"textcolor" : [ 0.34782600402832, 0.34782600402832, 0.34782600402832, 1.0 ]
												}

											}
, 											{
												"box" : 												{
													"fontname" : "Arial",
													"fontsize" : 13.0,
													"id" : "obj-12",
													"linecount" : 4,
													"maxclass" : "comment",
													"numinlets" : 1,
													"numoutlets" : 0,
													"patching_rect" : [ 237.0, 152.0, 300.0, 65.0 ],
													"text" : "the chordthreshold parameter (described in the onset_parameters subpatcher) determines how notes are grouped toghether and is therefore relevant for the pitch analysis",
													"textcolor" : [ 0.34782600402832, 0.34782600402832, 0.34782600402832, 1.0 ]
												}

											}
, 											{
												"box" : 												{
													"fontname" : "Arial",
													"fontsize" : 13.0,
													"id" : "obj-11",
													"linecount" : 2,
													"maxclass" : "comment",
													"numinlets" : 1,
													"numoutlets" : 0,
													"patching_rect" : [ 15.0, 15.0, 279.0, 36.0 ],
													"text" : "An pitch is detected each time a MIDI note on message arrives, but...",
													"textcolor" : [ 0.34782600402832, 0.34782600402832, 0.34782600402832, 1.0 ]
												}

											}
, 											{
												"box" : 												{
													"comment" : "",
													"id" : "obj-3",
													"index" : 1,
													"maxclass" : "outlet",
													"numinlets" : 1,
													"numoutlets" : 0,
													"patching_rect" : [ 19.0, 393.0, 30.0, 30.0 ]
												}

											}
 ],
										"lines" : [ 											{
												"patchline" : 												{
													"destination" : [ "obj-13", 0 ],
													"source" : [ "obj-1", 0 ]
												}

											}
, 											{
												"patchline" : 												{
													"destination" : [ "obj-3", 0 ],
													"source" : [ "obj-13", 0 ]
												}

											}
, 											{
												"patchline" : 												{
													"destination" : [ "obj-1", 0 ],
													"hidden" : 1,
													"source" : [ "obj-14", 0 ]
												}

											}
 ]
									}
,
									"patching_rect" : [ 368.0, 288.0, 111.0, 22.0 ],
									"saved_object_attributes" : 									{
										"description" : "",
										"digest" : "",
										"globalpatchername" : "",
										"tags" : ""
									}
,
									"text" : "p pitch_parameters"
								}

							}
, 							{
								"box" : 								{
									"id" : "obj-66",
									"maxclass" : "newobj",
									"numinlets" : 0,
									"numoutlets" : 1,
									"outlettype" : [ "" ],
									"patcher" : 									{
										"fileversion" : 1,
										"appversion" : 										{
											"major" : 8,
											"minor" : 3,
											"revision" : 2,
											"architecture" : "x64",
											"modernui" : 1
										}
,
										"classnamespace" : "box",
										"rect" : [ 382.0, 414.0, 640.0, 504.0 ],
										"bglocked" : 0,
										"openinpresentation" : 0,
										"default_fontsize" : 12.0,
										"default_fontface" : 0,
										"default_fontname" : "Arial",
										"gridonopen" : 1,
										"gridsize" : [ 15.0, 15.0 ],
										"gridsnaponopen" : 1,
										"objectsnaponopen" : 1,
										"statusbarvisible" : 2,
										"toolbarvisible" : 1,
										"lefttoolbarpinned" : 0,
										"toptoolbarpinned" : 0,
										"righttoolbarpinned" : 0,
										"bottomtoolbarpinned" : 0,
										"toolbars_unpinned_last_save" : 0,
										"tallnewobj" : 0,
										"boxanimatetime" : 200,
										"enablehscroll" : 1,
										"enablevscroll" : 1,
										"devicewidth" : 0.0,
										"description" : "",
										"digest" : "",
										"tags" : "",
										"style" : "",
										"subpatcher_template" : "",
										"assistshowspatchername" : 0,
										"boxes" : [ 											{
												"box" : 												{
													"fontname" : "Arial",
													"fontsize" : 13.0,
													"id" : "obj-18",
													"maxclass" : "comment",
													"numinlets" : 1,
													"numoutlets" : 0,
													"patching_rect" : [ 73.0, 319.0, 72.0, 21.0 ],
													"text" : "In addition:",
													"textcolor" : [ 0.34782600402832, 0.34782600402832, 0.34782600402832, 1.0 ]
												}

											}
, 											{
												"box" : 												{
													"fontname" : "Arial",
													"fontsize" : 13.0,
													"id" : "obj-17",
													"linecount" : 4,
													"maxclass" : "comment",
													"numinlets" : 1,
													"numoutlets" : 0,
													"patching_rect" : [ 73.0, 342.0, 334.0, 65.0 ],
													"presentation_linecount" : 5,
													"text" : "onsetchannels: When working with MIDI input consisting of multiple channels (e.g. a MIDI file), the onsetchannels message can be used to select which channels onsets should be detected on. See reference for format",
													"textcolor" : [ 0.34782600402832, 0.34782600402832, 0.34782600402832, 1.0 ]
												}

											}
, 											{
												"box" : 												{
													"bubble" : 1,
													"bubblepoint" : 0.1,
													"fontname" : "Arial",
													"fontsize" : 13.0,
													"id" : "obj-43",
													"linecount" : 4,
													"maxclass" : "comment",
													"numinlets" : 1,
													"numoutlets" : 0,
													"patching_rect" : [ 136.0, 227.0, 255.0, 69.0 ],
													"presentation_linecount" : 4,
													"text" : "If the onsets are too frequent in the MIDI input, a limiter can be engaged to set the minimum duration between two onsets. Set to 0 (default) to disable ",
													"textcolor" : [ 0.34782600402832, 0.34782600402832, 0.34782600402832, 1.0 ]
												}

											}
, 											{
												"box" : 												{
													"hidden" : 1,
													"id" : "obj-42",
													"maxclass" : "newobj",
													"numinlets" : 1,
													"numoutlets" : 1,
													"outlettype" : [ "" ],
													"patching_rect" : [ 46.0, 194.0, 70.0, 22.0 ],
													"text" : "loadmess 0"
												}

											}
, 											{
												"box" : 												{
													"fontname" : "Arial",
													"fontsize" : 13.0,
													"id" : "obj-41",
													"maxclass" : "comment",
													"numinlets" : 1,
													"numoutlets" : 0,
													"patching_rect" : [ 100.0, 222.0, 34.0, 21.0 ],
													"text" : "(ms)",
													"textcolor" : [ 0.34782600402832, 0.34782600402832, 0.34782600402832, 1.0 ]
												}

											}
, 											{
												"box" : 												{
													"id" : "obj-40",
													"maxclass" : "number",
													"minimum" : 0,
													"numinlets" : 1,
													"numoutlets" : 2,
													"outlettype" : [ "", "bang" ],
													"parameter_enable" : 0,
													"patching_rect" : [ 46.0, 222.0, 50.0, 22.0 ]
												}

											}
, 											{
												"box" : 												{
													"id" : "obj-15",
													"maxclass" : "message",
													"numinlets" : 2,
													"numoutlets" : 1,
													"outlettype" : [ "" ],
													"patching_rect" : [ 46.0, 255.0, 76.0, 22.0 ],
													"text" : "onsetlimit $1"
												}

											}
, 											{
												"box" : 												{
													"bubble" : 1,
													"fontname" : "Arial",
													"fontsize" : 13.0,
													"id" : "obj-12",
													"linecount" : 3,
													"maxclass" : "comment",
													"numinlets" : 1,
													"numoutlets" : 0,
													"patching_rect" : [ 136.0, 87.5, 322.0, 54.0 ],
													"presentation_linecount" : 120,
													"text" : "the chordthreshold parameter can be used to avoid duplicate onsets when notes arrive closely in time (e.g. when playing chords on a MIDI keyboard)",
													"textcolor" : [ 0.34782600402832, 0.34782600402832, 0.34782600402832, 1.0 ]
												}

											}
, 											{
												"box" : 												{
													"fontname" : "Arial",
													"fontsize" : 13.0,
													"id" : "obj-11",
													"linecount" : 2,
													"maxclass" : "comment",
													"numinlets" : 1,
													"numoutlets" : 0,
													"patching_rect" : [ 15.0, 15.0, 279.0, 36.0 ],
													"presentation_linecount" : 3,
													"text" : "An onset is detected each time a MIDI note on message arrives, but...",
													"textcolor" : [ 0.34782600402832, 0.34782600402832, 0.34782600402832, 1.0 ]
												}

											}
, 											{
												"box" : 												{
													"hidden" : 1,
													"id" : "obj-10",
													"maxclass" : "newobj",
													"numinlets" : 1,
													"numoutlets" : 1,
													"outlettype" : [ "" ],
													"patching_rect" : [ 15.0, 70.0, 77.0, 22.0 ],
													"text" : "loadmess 20"
												}

											}
, 											{
												"box" : 												{
													"fontname" : "Arial",
													"fontsize" : 13.0,
													"id" : "obj-49",
													"maxclass" : "comment",
													"numinlets" : 1,
													"numoutlets" : 0,
													"patching_rect" : [ 67.0, 104.0, 34.0, 21.0 ],
													"text" : "(ms)",
													"textcolor" : [ 0.34782600402832, 0.34782600402832, 0.34782600402832, 1.0 ]
												}

											}
, 											{
												"box" : 												{
													"id" : "obj-9",
													"maxclass" : "number",
													"numinlets" : 1,
													"numoutlets" : 2,
													"outlettype" : [ "", "bang" ],
													"parameter_enable" : 0,
													"patching_rect" : [ 15.0, 103.0, 50.0, 22.0 ]
												}

											}
, 											{
												"box" : 												{
													"id" : "obj-5",
													"maxclass" : "message",
													"numinlets" : 2,
													"numoutlets" : 1,
													"outlettype" : [ "" ],
													"patching_rect" : [ 15.0, 138.0, 105.0, 22.0 ],
													"text" : "chordthreshold $1"
												}

											}
, 											{
												"box" : 												{
													"comment" : "",
													"id" : "obj-3",
													"index" : 1,
													"maxclass" : "outlet",
													"numinlets" : 1,
													"numoutlets" : 0,
													"patching_rect" : [ 15.0, 447.0, 30.0, 30.0 ]
												}

											}
 ],
										"lines" : [ 											{
												"patchline" : 												{
													"destination" : [ "obj-9", 0 ],
													"hidden" : 1,
													"source" : [ "obj-10", 0 ]
												}

											}
, 											{
												"patchline" : 												{
													"destination" : [ "obj-3", 0 ],
													"midpoints" : [ 55.5, 302.5, 24.5, 302.5 ],
													"source" : [ "obj-15", 0 ]
												}

											}
, 											{
												"patchline" : 												{
													"destination" : [ "obj-15", 0 ],
													"source" : [ "obj-40", 0 ]
												}

											}
, 											{
												"patchline" : 												{
													"destination" : [ "obj-40", 0 ],
													"hidden" : 1,
													"source" : [ "obj-42", 0 ]
												}

											}
, 											{
												"patchline" : 												{
													"destination" : [ "obj-3", 0 ],
													"source" : [ "obj-5", 0 ]
												}

											}
, 											{
												"patchline" : 												{
													"destination" : [ "obj-5", 0 ],
													"source" : [ "obj-9", 0 ]
												}

											}
 ]
									}
,
									"patching_rect" : [ 231.5, 288.0, 115.0, 22.0 ],
									"saved_object_attributes" : 									{
										"description" : "",
										"digest" : "",
										"globalpatchername" : "",
										"tags" : ""
									}
,
									"text" : "p onset_parameters"
								}

							}
, 							{
								"box" : 								{
									"hidden" : 1,
									"id" : "obj-63",
									"maxclass" : "message",
									"numinlets" : 2,
									"numoutlets" : 1,
									"outlettype" : [ "" ],
									"patching_rect" : [ 945.25, 67.0, 169.0, 22.0 ],
									"text" : "load somax2.overview.maxpat"
								}

							}
, 							{
								"box" : 								{
									"fontface" : 1,
									"fontsize" : 12.0,
									"id" : "obj-64",
									"maxclass" : "textbutton",
									"numinlets" : 1,
									"numoutlets" : 3,
									"outlettype" : [ "", "", "int" ],
									"outputmode" : 0,
									"parameter_enable" : 0,
									"patching_rect" : [ 945.25, 18.5, 84.25, 29.0 ],
									"presentation" : 1,
									"presentation_rect" : [ 589.0, 698.220703125, 254.0, 46.0 ],
									"rounded" : 8.0,
									"text" : "Somax Overview",
									"textoncolor" : [ 1.0, 0.709803921568627, 0.196078431372549, 1.0 ],
									"textovercolor" : [ 1.0, 0.709803921568627, 0.196078431372549, 1.0 ],
									"truncate" : 0
								}

							}
, 							{
								"box" : 								{
									"color" : [ 0.8266150951, 0.1539679319, 0.6292977333, 1.0 ],
									"hidden" : 1,
									"id" : "obj-65",
									"maxclass" : "newobj",
									"numinlets" : 1,
									"numoutlets" : 1,
									"outlettype" : [ "" ],
									"patching_rect" : [ 945.25, 96.0, 51.0, 22.0 ],
									"text" : "pcontrol"
								}

							}
, 							{
								"box" : 								{
									"fontname" : "Arial",
									"fontsize" : 13.0,
									"id" : "obj-19",
									"linecount" : 2,
									"maxclass" : "comment",
									"numinlets" : 1,
									"numoutlets" : 0,
									"patching_rect" : [ 223.5, 511.0, 98.0, 36.0 ],
									"text" : "pitch: detected midi pitch",
									"textcolor" : [ 0.34782600402832, 0.34782600402832, 0.34782600402832, 1.0 ]
								}

							}
, 							{
								"box" : 								{
									"fontname" : "Arial",
									"fontsize" : 13.0,
									"id" : "obj-53",
									"linecount" : 3,
									"maxclass" : "comment",
									"numinlets" : 1,
									"numoutlets" : 0,
									"patching_rect" : [ 82.5, 511.0, 133.0, 50.0 ],
									"text" : "onset: bang when an onset is detected in the signal",
									"textcolor" : [ 0.34782600402832, 0.34782600402832, 0.34782600402832, 1.0 ]
								}

							}
, 							{
								"box" : 								{
									"bubble" : 1,
									"id" : "obj-20",
									"linecount" : 2,
									"maxclass" : "comment",
									"numinlets" : 1,
									"numoutlets" : 0,
									"patching_rect" : [ 906.0, 525.5, 134.0, 37.0 ],
									"text" : "Don't forget to prepend \"influence\"",
									"textcolor" : [ 0.349019607843137, 0.349019607843137, 0.349019607843137, 1.0 ]
								}

							}
, 							{
								"box" : 								{
									"fontname" : "Arial",
									"fontsize" : 13.0,
									"id" : "obj-23",
									"linecount" : 2,
									"maxclass" : "comment",
									"numinlets" : 1,
									"numoutlets" : 0,
									"patching_rect" : [ 827.25, 482.0, 138.5, 36.0 ],
									"text" : "discrete labels \n(onset, pitch, chroma)",
									"textcolor" : [ 0.34782600402832, 0.34782600402832, 0.34782600402832, 1.0 ]
								}

							}
, 							{
								"box" : 								{
									"fontname" : "Arial",
									"fontsize" : 13.0,
									"id" : "obj-44",
									"linecount" : 3,
									"maxclass" : "comment",
									"numinlets" : 1,
									"numoutlets" : 0,
									"patching_rect" : [ 363.635021097046433, 515.0, 170.0, 50.0 ],
									"text" : "chroma: relative energy in bands corresponding to the 12 pitch classes",
									"textcolor" : [ 0.34782600402832, 0.34782600402832, 0.34782600402832, 1.0 ]
								}

							}
, 							{
								"box" : 								{
									"fontname" : "Arial",
									"fontsize" : 13.0,
									"id" : "obj-49",
									"linecount" : 2,
									"maxclass" : "comment",
									"numinlets" : 1,
									"numoutlets" : 0,
									"patching_rect" : [ 682.0, 281.0, 172.0, 36.0 ],
									"text" : "dump all current parameter values on the second outlet",
									"textcolor" : [ 0.34782600402832, 0.34782600402832, 0.34782600402832, 1.0 ]
								}

							}
, 							{
								"box" : 								{
									"id" : "obj-58",
									"maxclass" : "comment",
									"numinlets" : 1,
									"numoutlets" : 0,
									"patching_rect" : [ 422.225738396624479, 468.25, 22.0, 20.0 ],
									"text" : "e",
									"textcolor" : [ 0.933333333333333, 0.933333333333333, 0.933333333333333, 1.0 ]
								}

							}
, 							{
								"box" : 								{
									"id" : "obj-61",
									"maxclass" : "comment",
									"numinlets" : 1,
									"numoutlets" : 0,
									"patching_rect" : [ 517.590717299578046, 468.0, 19.0, 20.0 ],
									"text" : "b",
									"textcolor" : [ 0.933333333333333, 0.933333333333333, 0.933333333333333, 1.0 ]
								}

							}
, 							{
								"box" : 								{
									"id" : "obj-67",
									"maxclass" : "comment",
									"numinlets" : 1,
									"numoutlets" : 0,
									"patching_rect" : [ 501.181434599156034, 468.0, 22.0, 20.0 ],
									"text" : "bb",
									"textcolor" : [ 0.933333333333333, 0.933333333333333, 0.933333333333333, 1.0 ]
								}

							}
, 							{
								"box" : 								{
									"id" : "obj-69",
									"maxclass" : "comment",
									"numinlets" : 1,
									"numoutlets" : 0,
									"patching_rect" : [ 490.77215189873408, 468.0, 19.0, 20.0 ],
									"text" : "a",
									"textcolor" : [ 0.933333333333333, 0.933333333333333, 0.933333333333333, 1.0 ]
								}

							}
, 							{
								"box" : 								{
									"id" : "obj-70",
									"maxclass" : "comment",
									"numinlets" : 1,
									"numoutlets" : 0,
									"patching_rect" : [ 473.362869198312126, 468.0, 22.0, 20.0 ],
									"text" : "g#",
									"textcolor" : [ 0.933333333333333, 0.933333333333333, 0.933333333333333, 1.0 ]
								}

							}
, 							{
								"box" : 								{
									"id" : "obj-74",
									"maxclass" : "comment",
									"numinlets" : 1,
									"numoutlets" : 0,
									"patching_rect" : [ 462.953586497890399, 468.0, 19.0, 20.0 ],
									"text" : "g",
									"textcolor" : [ 0.933333333333333, 0.933333333333333, 0.933333333333333, 1.0 ]
								}

							}
, 							{
								"box" : 								{
									"id" : "obj-76",
									"maxclass" : "comment",
									"numinlets" : 1,
									"numoutlets" : 0,
									"patching_rect" : [ 447.544303797468388, 468.0, 19.0, 20.0 ],
									"text" : "f#",
									"textcolor" : [ 0.933333333333333, 0.933333333333333, 0.933333333333333, 1.0 ]
								}

							}
, 							{
								"box" : 								{
									"id" : "obj-77",
									"maxclass" : "comment",
									"numinlets" : 1,
									"numoutlets" : 0,
									"patching_rect" : [ 437.135021097046433, 468.0, 19.0, 20.0 ],
									"text" : "f",
									"textcolor" : [ 0.933333333333333, 0.933333333333333, 0.933333333333333, 1.0 ]
								}

							}
, 							{
								"box" : 								{
									"id" : "obj-78",
									"maxclass" : "comment",
									"numinlets" : 1,
									"numoutlets" : 0,
									"patching_rect" : [ 404.725738396624479, 468.0, 22.0, 20.0 ],
									"text" : "eb",
									"textcolor" : [ 0.933333333333333, 0.933333333333333, 0.933333333333333, 1.0 ]
								}

							}
, 							{
								"box" : 								{
									"id" : "obj-80",
									"maxclass" : "comment",
									"numinlets" : 1,
									"numoutlets" : 0,
									"patching_rect" : [ 394.01687763713079, 468.0, 19.0, 20.0 ],
									"text" : "d",
									"textcolor" : [ 0.933333333333333, 0.933333333333333, 0.933333333333333, 1.0 ]
								}

							}
, 							{
								"box" : 								{
									"id" : "obj-81",
									"maxclass" : "comment",
									"numinlets" : 1,
									"numoutlets" : 0,
									"patching_rect" : [ 378.308016877637158, 468.0, 21.0, 20.0 ],
									"text" : "c#",
									"textcolor" : [ 0.933333333333333, 0.933333333333333, 0.933333333333333, 1.0 ]
								}

							}
, 							{
								"box" : 								{
									"id" : "obj-82",
									"maxclass" : "comment",
									"numinlets" : 1,
									"numoutlets" : 0,
									"patching_rect" : [ 368.0, 468.0, 19.0, 20.0 ],
									"text" : "c",
									"textcolor" : [ 0.933333333333333, 0.933333333333333, 0.933333333333333, 1.0 ]
								}

							}
, 							{
								"box" : 								{
									"id" : "obj-83",
									"maxclass" : "multislider",
									"numinlets" : 1,
									"numoutlets" : 2,
									"outlettype" : [ "", "" ],
									"parameter_enable" : 0,
									"patching_rect" : [ 367.0, 471.0, 166.0, 37.0 ],
									"presentation" : 1,
									"presentation_rect" : [ 428.833333333333258, 551.0, 166.0, 34.0 ],
									"setminmax" : [ 0.0, 1.0 ],
									"setstyle" : 1,
									"size" : 12,
									"slidercolor" : [ 0.423529411764706, 0.494117647058824, 0.996078431372549, 1.0 ],
									"spacing" : 1
								}

							}
, 							{
								"box" : 								{
									"hidden" : 1,
									"id" : "obj-84",
									"maxclass" : "message",
									"numinlets" : 2,
									"numoutlets" : 1,
									"outlettype" : [ "" ],
									"patching_rect" : [ 942.0, 663.5, 154.0, 22.0 ],
									"text" : "load somax.player.maxhelp"
								}

							}
, 							{
								"box" : 								{
									"fontface" : 1,
									"fontsize" : 10.0,
									"id" : "obj-85",
									"maxclass" : "textbutton",
									"numinlets" : 1,
									"numoutlets" : 3,
									"outlettype" : [ "", "", "int" ],
									"outputmode" : 0,
									"parameter_enable" : 0,
									"patching_rect" : [ 942.0, 615.0, 84.25, 29.0 ],
									"presentation" : 1,
									"presentation_rect" : [ 574.0, 683.220703125, 254.0, 46.0 ],
									"rounded" : 8.0,
									"text" : "Player Documentation",
									"textoncolor" : [ 1.0, 0.709803921568627, 0.196078431372549, 1.0 ],
									"textovercolor" : [ 1.0, 0.709803921568627, 0.196078431372549, 1.0 ],
									"truncate" : 0
								}

							}
, 							{
								"box" : 								{
									"color" : [ 0.8266150951, 0.1539679319, 0.6292977333, 1.0 ],
									"hidden" : 1,
									"id" : "obj-86",
									"maxclass" : "newobj",
									"numinlets" : 1,
									"numoutlets" : 1,
									"outlettype" : [ "" ],
									"patching_rect" : [ 942.0, 692.5, 51.0, 22.0 ],
									"text" : "pcontrol"
								}

							}
, 							{
								"box" : 								{
									"id" : "obj-87",
									"maxclass" : "newobj",
									"numinlets" : 1,
									"numoutlets" : 1,
									"outlettype" : [ "" ],
									"patching_rect" : [ 805.75, 533.0, 104.0, 22.0 ],
									"text" : "prepend influence"
								}

							}
, 							{
								"box" : 								{
									"arrows" : 2,
									"border" : 2.0,
									"id" : "obj-88",
									"maxclass" : "live.line",
									"numinlets" : 1,
									"numoutlets" : 0,
									"patching_rect" : [ 809.75, 398.5, 11.0, 35.0 ]
								}

							}
, 							{
								"box" : 								{
									"fontface" : 1,
									"id" : "obj-89",
									"maxclass" : "comment",
									"numinlets" : 1,
									"numoutlets" : 0,
									"patching_rect" : [ 800.75, 379.5, 185.0, 20.0 ],
									"text" : "MIDI input (nn vel ch)"
								}

							}
, 							{
								"box" : 								{
									"id" : "obj-90",
									"linecount" : 2,
									"maxclass" : "newobj",
									"numinlets" : 1,
									"numoutlets" : 3,
									"outlettype" : [ "", "", "" ],
									"patching_rect" : [ 805.75, 435.0, 125.0, 35.0 ],
									"style" : "default",
									"text" : "somax.midiinfluencer @enabled 0",
									"varname" : "somax.midiinfluencer[2]"
								}

							}
, 							{
								"box" : 								{
									"color" : [ 0.34311780333519, 0.751492381095886, 0.998448610305786, 1.0 ],
									"fontsize" : 12.0,
									"id" : "obj-91",
									"maxclass" : "newobj",
									"numinlets" : 1,
									"numoutlets" : 4,
									"outlettype" : [ "", "int", "", "" ],
									"patching_rect" : [ 805.75, 573.5, 171.0, 22.0 ],
									"text" : "somax.player @autoinitialize 0",
									"varname" : "somax.player[1]"
								}

							}
, 							{
								"box" : 								{
									"id" : "obj-93",
									"maxclass" : "newobj",
									"numinlets" : 4,
									"numoutlets" : 4,
									"outlettype" : [ "", "", "", "" ],
									"patching_rect" : [ 134.0, 427.0, 368.5, 22.0 ],
									"text" : "route onset pitch chroma"
								}

							}
, 							{
								"box" : 								{
									"hidden" : 1,
									"id" : "obj-95",
									"maxclass" : "newobj",
									"numinlets" : 1,
									"numoutlets" : 1,
									"outlettype" : [ "" ],
									"patching_rect" : [ 134.0, 251.0, 70.0, 22.0 ],
									"text" : "loadmess 1"
								}

							}
, 							{
								"box" : 								{
									"id" : "obj-96",
									"maxclass" : "comment",
									"numinlets" : 1,
									"numoutlets" : 0,
									"patching_rect" : [ 160.0, 288.0, 46.0, 20.0 ],
									"text" : "Enable",
									"textcolor" : [ 0.349019607843137, 0.349019607843137, 0.349019607843137, 1.0 ]
								}

							}
, 							{
								"box" : 								{
									"id" : "obj-97",
									"maxclass" : "toggle",
									"numinlets" : 1,
									"numoutlets" : 1,
									"outlettype" : [ "int" ],
									"parameter_enable" : 0,
									"patching_rect" : [ 134.0, 286.0, 24.0, 24.0 ]
								}

							}
, 							{
								"box" : 								{
									"id" : "obj-98",
									"maxclass" : "message",
									"numinlets" : 2,
									"numoutlets" : 1,
									"outlettype" : [ "" ],
									"patching_rect" : [ 634.5, 288.0, 39.0, 22.0 ],
									"text" : "dump"
								}

							}
, 							{
								"box" : 								{
									"id" : "obj-99",
									"maxclass" : "newobj",
									"numinlets" : 1,
									"numoutlets" : 0,
									"patching_rect" : [ 247.0, 379.5, 96.0, 22.0 ],
									"text" : "print parameters"
								}

							}
, 							{
								"box" : 								{
									"fontface" : 1,
									"fontsize" : 16.0,
									"id" : "obj-100",
									"maxclass" : "number",
									"numinlets" : 1,
									"numoutlets" : 2,
									"outlettype" : [ "", "bang" ],
									"parameter_enable" : 0,
									"patching_rect" : [ 250.5, 482.0, 44.0, 26.0 ],
									"textcolor" : [ 0.996078431372549, 0.423529411764706, 0.423529411764706, 1.0 ]
								}

							}
, 							{
								"box" : 								{
									"blinkcolor" : [ 1.0, 0.709803921568627, 0.196078431372549, 1.0 ],
									"id" : "obj-101",
									"maxclass" : "button",
									"numinlets" : 1,
									"numoutlets" : 1,
									"outlettype" : [ "bang" ],
									"parameter_enable" : 0,
									"patching_rect" : [ 134.0, 482.0, 26.0, 26.0 ]
								}

							}
, 							{
								"box" : 								{
									"id" : "obj-102",
									"maxclass" : "newobj",
									"numinlets" : 1,
									"numoutlets" : 3,
									"outlettype" : [ "", "", "" ],
									"patching_rect" : [ 134.0, 344.0, 245.0, 22.0 ],
									"text" : "somax.midiinfluencer @continuouschroma 1",
									"varname" : "somax.audioinfluencer[1]"
								}

							}
, 							{
								"box" : 								{
									"border" : 0,
									"filename" : "helpdetails.js",
									"id" : "obj-103",
									"ignoreclick" : 1,
									"jsarguments" : [ "somax.midiinfluencer" ],
									"maxclass" : "jsui",
									"numinlets" : 1,
									"numoutlets" : 1,
									"outlettype" : [ "" ],
									"parameter_enable" : 0,
									"patching_rect" : [ 10.0, 10.0, 608.0, 132.0 ]
								}

							}
, 							{
								"box" : 								{
									"background" : 1,
									"bgcolor" : [ 1.0, 0.658824, 0.14902, 1.0 ],
									"fontname" : "Arial Bold",
									"hint" : "",
									"id" : "obj-104",
									"ignoreclick" : 1,
									"legacytextcolor" : 1,
									"maxclass" : "textbutton",
									"numinlets" : 1,
									"numoutlets" : 3,
									"outlettype" : [ "", "", "int" ],
									"parameter_enable" : 0,
									"patching_rect" : [ 308.0, 261.0, 20.0, 20.0 ],
									"rounded" : 60.0,
									"text" : "4",
									"textcolor" : [ 0.2, 0.2, 0.2, 1.0 ]
								}

							}
, 							{
								"box" : 								{
									"background" : 1,
									"fontface" : 1,
									"fontname" : "Arial",
									"fontsize" : 16.0,
									"id" : "obj-109",
									"maxclass" : "comment",
									"numinlets" : 1,
									"numoutlets" : 0,
									"patching_rect" : [ 896.5, 350.5, 144.0, 24.0 ],
									"text" : "Relation to Player",
									"varname" : "HelpTitle[1]"
								}

							}
, 							{
								"box" : 								{
									"angle" : 0.0,
									"background" : 1,
									"bgcolor" : [ 0.094118, 0.113725, 0.137255, 0.0 ],
									"border" : 1,
									"bordercolor" : [ 0.415686, 0.454902, 0.52549, 1.0 ],
									"id" : "obj-111",
									"maxclass" : "panel",
									"mode" : 0,
									"numinlets" : 1,
									"numoutlets" : 0,
									"patching_rect" : [ 782.75, 349.0, 261.75, 323.0 ],
									"rounded" : 16
								}

							}
 ],
						"lines" : [ 							{
								"patchline" : 								{
									"destination" : [ "obj-93", 0 ],
									"source" : [ "obj-102", 0 ]
								}

							}
, 							{
								"patchline" : 								{
									"destination" : [ "obj-99", 0 ],
									"source" : [ "obj-102", 1 ]
								}

							}
, 							{
								"patchline" : 								{
									"destination" : [ "obj-46", 1 ],
									"midpoints" : [ 212.5, 217.75, 81.5, 217.75 ],
									"source" : [ "obj-3", 1 ]
								}

							}
, 							{
								"patchline" : 								{
									"destination" : [ "obj-46", 0 ],
									"source" : [ "obj-3", 0 ]
								}

							}
, 							{
								"patchline" : 								{
									"destination" : [ "obj-102", 0 ],
									"midpoints" : [ 63.5, 327.5, 143.5, 327.5 ],
									"order" : 0,
									"source" : [ "obj-46", 0 ]
								}

							}
, 							{
								"patchline" : 								{
									"destination" : [ "obj-15", 0 ],
									"order" : 1,
									"source" : [ "obj-46", 0 ]
								}

							}
, 							{
								"patchline" : 								{
									"destination" : [ "obj-65", 0 ],
									"hidden" : 1,
									"source" : [ "obj-63", 0 ]
								}

							}
, 							{
								"patchline" : 								{
									"destination" : [ "obj-63", 0 ],
									"hidden" : 1,
									"source" : [ "obj-64", 0 ]
								}

							}
, 							{
								"patchline" : 								{
									"destination" : [ "obj-102", 0 ],
									"midpoints" : [ 241.0, 326.5, 143.5, 326.5 ],
									"source" : [ "obj-66", 0 ]
								}

							}
, 							{
								"patchline" : 								{
									"destination" : [ "obj-102", 0 ],
									"midpoints" : [ 377.5, 326.5, 143.5, 326.5 ],
									"source" : [ "obj-68", 0 ]
								}

							}
, 							{
								"patchline" : 								{
									"destination" : [ "obj-102", 0 ],
									"midpoints" : [ 506.5, 326.5, 143.5, 326.5 ],
									"source" : [ "obj-73", 0 ]
								}

							}
, 							{
								"patchline" : 								{
									"destination" : [ "obj-86", 0 ],
									"hidden" : 1,
									"source" : [ "obj-84", 0 ]
								}

							}
, 							{
								"patchline" : 								{
									"destination" : [ "obj-84", 0 ],
									"hidden" : 1,
									"source" : [ "obj-85", 0 ]
								}

							}
, 							{
								"patchline" : 								{
									"destination" : [ "obj-91", 0 ],
									"source" : [ "obj-87", 0 ]
								}

							}
, 							{
								"patchline" : 								{
									"destination" : [ "obj-87", 0 ],
									"source" : [ "obj-90", 0 ]
								}

							}
, 							{
								"patchline" : 								{
									"destination" : [ "obj-100", 0 ],
									"source" : [ "obj-93", 1 ]
								}

							}
, 							{
								"patchline" : 								{
									"destination" : [ "obj-101", 0 ],
									"source" : [ "obj-93", 0 ]
								}

							}
, 							{
								"patchline" : 								{
									"destination" : [ "obj-83", 0 ],
									"source" : [ "obj-93", 2 ]
								}

							}
, 							{
								"patchline" : 								{
									"destination" : [ "obj-97", 0 ],
									"hidden" : 1,
									"source" : [ "obj-95", 0 ]
								}

							}
, 							{
								"patchline" : 								{
									"destination" : [ "obj-102", 0 ],
									"source" : [ "obj-97", 0 ]
								}

							}
, 							{
								"patchline" : 								{
									"destination" : [ "obj-102", 0 ],
									"midpoints" : [ 644.0, 326.5, 143.5, 326.5 ],
									"source" : [ "obj-98", 0 ]
								}

							}
 ]
					}
,
					"patching_rect" : [ 24.0, 38.0, 47.0, 22.0 ],
					"saved_object_attributes" : 					{
						"description" : "",
						"digest" : "",
						"globalpatchername" : "",
						"tags" : ""
					}
,
					"text" : "p basic",
					"varname" : "basic"
				}

			}
 ],
		"lines" : [  ],
		"parameters" : 		{
			"obj-1::obj-91::obj-1007" : [ "rslider[2]", "rslider", 0 ],
			"obj-1::obj-91::obj-1115" : [ "continuity[2]", "continuity", 0 ],
			"obj-1::obj-91::obj-1175" : [ "heldnotesmode[3]", "heldnotesmode", 0 ],
			"obj-1::obj-91::obj-1179" : [ "continuity[18]", "continuity", 0 ],
			"obj-1::obj-91::obj-12" : [ "melodicmod12[2]", "melodicmod12", 0 ],
			"obj-1::obj-91::obj-120" : [ "melodicbypass[2]", "melodicbypass", 0 ],
			"obj-1::obj-91::obj-1218" : [ "simultaneousonsets[3]", "artificialmidities", 0 ],
			"obj-1::obj-91::obj-126" : [ "harmonicbypass[2]", "harmonicbypass", 0 ],
			"obj-1::obj-91::obj-134" : [ "continuity[3]", "continuity", 0 ],
			"obj-1::obj-91::obj-1344" : [ "enforcetaboo[5]", "enforcetaboo", 0 ],
			"obj-1::obj-91::obj-140" : [ "resetinfluences[2]", "resetinfluences", 0 ],
			"obj-1::obj-91::obj-144" : [ "harmonicngramorder[2]", "harmonicngramorder", 0 ],
			"obj-1::obj-91::obj-1444" : [ "outputprobability[1]", "outputprobability", 0 ],
			"obj-1::obj-91::obj-152" : [ "selfngramorder[2]", "selfngramorder", 0 ],
			"obj-1::obj-91::obj-154" : [ "melodicngramorder[1]", "melodicngramorder", 0 ],
			"obj-1::obj-91::obj-163" : [ "ignorephase[1]", "ignorephase", 0 ],
			"obj-1::obj-91::obj-19" : [ "selfmod12[1]", "selfmod12", 0 ],
			"obj-1::obj-91::obj-22" : [ "selfmelodicbypass[2]", "selfmelodicbypass", 0 ],
			"obj-1::obj-91::obj-254" : [ "harmonincpeakdecay[5]", "harmonincpeakdecay", 0 ],
			"obj-1::obj-91::obj-255" : [ "melodicpeakdecay[1]", "melodicpeakdecay", 0 ],
			"obj-1::obj-91::obj-256" : [ "selfpeakdecay[2]", "selfpeakdecay", 0 ],
			"obj-1::obj-91::obj-270::obj-1226" : [ "width[2]", "Width", 0 ],
			"obj-1::obj-91::obj-270::obj-1227" : [ "center[2]", "Center", 0 ],
			"obj-1::obj-91::obj-270::obj-1240" : [ "live.slider[1]", "live.slider", 0 ],
			"obj-1::obj-91::obj-270::obj-1241" : [ "live.numbox[1]", "live.numbox[2]", 0 ],
			"obj-1::obj-91::obj-270::obj-622" : [ "__exp_velocityenable[2]", "__exp_velocityenable", 0 ],
			"obj-1::obj-91::obj-270::obj-889" : [ "weight[2]", "Weight", 0 ],
			"obj-1::obj-91::obj-295" : [ "playingmode[1]", "playingmode", 0 ],
			"obj-1::obj-91::obj-298" : [ "simultaneousonsets[4]", "simultaneousonsets", 0 ],
			"obj-1::obj-91::obj-328" : [ "decaybasis[2]", "decaybasis", 0 ],
			"obj-1::obj-91::obj-504" : [ "transpositionconsistency[5]", "transpositionconsistency", 0 ],
			"obj-1::obj-91::obj-570" : [ "__exp_melodicpitchfromchords[5]", "__exp_melodicpitchfromchords", 0 ],
			"obj-1::obj-91::obj-575" : [ "__exp_tempoconsistencysigma[1]", "__exp_tempoconsistencysigma", 0 ],
			"obj-1::obj-91::obj-600" : [ "__exp_tabooenable[2]", "__exp_tabooenable", 0 ],
			"obj-1::obj-91::obj-605" : [ "__exp_tabooduration[1]", "__exp_tabooduration", 0 ],
			"obj-1::obj-91::obj-642" : [ "__exp_numnotessigma[2]", "__exp_numnotessigma", 0 ],
			"obj-1::obj-91::obj-653" : [ "__exp_numnotesenable[1]", "__exp_numnotesenable", 0 ],
			"obj-1::obj-91::obj-656" : [ "__exp_numnotesmu[2]", "__exp_numnotesmu", 0 ],
			"obj-1::obj-91::obj-688" : [ "__exp_durationsigma[5]", "__exp_durationsigma", 0 ],
			"obj-1::obj-91::obj-702" : [ "__exp_durationmu[2]", "__exp_durationmu", 0 ],
			"obj-1::obj-91::obj-722" : [ "__exp_octavebandsenable[1]", "__exp_octavebandsenable", 0 ],
			"obj-1::obj-91::obj-733" : [ "__exp_octavebands[2]", "__exp_octavebands", 0 ],
			"obj-1::obj-91::obj-746" : [ "__exp_selfpitchfromchords[1]", "__exp_selfpitchfromchords", 0 ],
			"obj-1::obj-91::obj-763" : [ "__exp_autojumpforcejump[2]", "__exp_autojumpforcejump", 0 ],
			"obj-1::obj-91::obj-774" : [ "__exp_autojumpenable[2]", "__exp_autojumpenable", 0 ],
			"obj-1::obj-91::obj-777" : [ "__exp_autojumpactivate[2]", "__exp_autojumpactivate", 0 ],
			"obj-1::obj-91::obj-799" : [ "__exp_tempoconsistencyenable[5]", "__exp_tempoconsistencyenable", 0 ],
			"obj-1::obj-91::obj-802" : [ "__exp_tempoconsistencylen[1]", "__exp_tempoconsistencylen", 0 ],
			"obj-1::obj-91::obj-860" : [ "harmonincpeakdecay[4]", "harmonincpeakdecay[1]", 0 ],
			"obj-1::obj-91::obj-865" : [ "selfharmonicngramorder[1]", "selfharmonicngramorder", 0 ],
			"obj-1::obj-91::obj-870" : [ "selfharmonicbypass[1]", "selfharmonicbypass", 0 ],
			"obj-1::obj-91::obj-998" : [ "__exp_regionmaskenable[2]", "__exp_regionmaskenable", 0 ],
			"parameterbanks" : 			{
				"0" : 				{
					"index" : 0,
					"name" : "",
					"parameters" : [ "-", "-", "-", "-", "-", "-", "-", "-" ]
				}

			}
,
			"parameter_overrides" : 			{
				"obj-1::obj-91::obj-270::obj-1226" : 				{
					"parameter_longname" : "width[2]"
				}
,
				"obj-1::obj-91::obj-270::obj-1227" : 				{
					"parameter_longname" : "center[2]"
				}
,
				"obj-1::obj-91::obj-270::obj-1240" : 				{
					"parameter_longname" : "live.slider[1]"
				}
,
				"obj-1::obj-91::obj-270::obj-1241" : 				{
					"parameter_longname" : "live.numbox[1]"
				}
,
				"obj-1::obj-91::obj-270::obj-889" : 				{
					"parameter_longname" : "weight[2]"
				}

			}
,
			"inherited_shortname" : 1
		}
,
		"dependency_cache" : [ 			{
				"name" : "abstraction_path.js",
				"bootpath" : "~/MaxDev/Somax2/max/somax/javascript",
				"patcherrelativepath" : "../javascript",
				"type" : "TEXT",
				"implicit" : 1
			}
, 			{
				"name" : "bc.virfun.mxo",
				"type" : "iLaX"
			}
, 			{
				"name" : "computeMemoryPitchClass.js",
				"bootpath" : "~/MaxDev/Somax2/max/somax/javascript",
				"patcherrelativepath" : "../javascript",
				"type" : "TEXT",
				"implicit" : 1
			}
, 			{
				"name" : "heldnotes.maxpat",
				"bootpath" : "~/MaxDev/Somax2/max/somax/patchers/resources/misc",
				"patcherrelativepath" : "../patchers/resources/misc",
				"type" : "JSON",
				"implicit" : 1
			}
, 			{
				"name" : "helpdetails.js",
				"bootpath" : "C74:/help/resources",
				"type" : "TEXT",
				"implicit" : 1
			}
, 			{
				"name" : "midi2chroma.maxpat",
				"bootpath" : "~/MaxDev/Somax2/max/somax/patchers/resources/influencers",
				"patcherrelativepath" : "../patchers/resources/influencers",
				"type" : "JSON",
				"implicit" : 1
			}
, 			{
				"name" : "midi2chroma_nofilter.maxpat",
				"bootpath" : "~/MaxDev/Somax2/max/somax/patchers/resources/influencers",
				"patcherrelativepath" : "../patchers/resources/influencers",
				"type" : "JSON",
				"implicit" : 1
			}
, 			{
				"name" : "midichromaanalysis.maxpat",
				"bootpath" : "~/MaxDev/Somax2/max/somax/patchers/resources/influencers",
				"patcherrelativepath" : "../patchers/resources/influencers",
				"type" : "JSON",
				"implicit" : 1
			}
, 			{
				"name" : "midipitchanalysis.maxpat",
				"bootpath" : "~/MaxDev/Somax2/max/somax/patchers/resources/influencers",
				"patcherrelativepath" : "../patchers/resources/influencers",
				"type" : "JSON",
				"implicit" : 1
			}
, 			{
				"name" : "somax.atom.maxpat",
				"bootpath" : "~/MaxDev/Somax2/max/somax/patchers/resources/player",
				"patcherrelativepath" : "../patchers/resources/player",
				"type" : "JSON",
				"implicit" : 1
			}
, 			{
				"name" : "somax.await_patcherargs.maxpat",
				"bootpath" : "~/MaxDev/Somax2/max/somax/patchers",
				"patcherrelativepath" : "../patchers",
				"type" : "JSON",
				"implicit" : 1
			}
, 			{
				"name" : "somax.corpuspath.maxpat",
				"bootpath" : "~/MaxDev/Somax2/max/somax/patchers/resources/misc",
				"patcherrelativepath" : "../patchers/resources/misc",
				"type" : "JSON",
				"implicit" : 1
			}
, 			{
				"name" : "somax.filter_midichannels.maxpat",
				"bootpath" : "~/MaxDev/Somax2/max/somax/patchers",
				"patcherrelativepath" : "../patchers",
				"type" : "JSON",
				"implicit" : 1
			}
, 			{
				"name" : "somax.midiinfluencer.maxpat",
				"bootpath" : "~/MaxDev/Somax2/max/somax/patchers",
				"patcherrelativepath" : "../patchers",
				"type" : "JSON",
				"implicit" : 1
			}
, 			{
				"name" : "somax.path.maxpat",
				"bootpath" : "~/MaxDev/Somax2/max/somax/patchers",
				"patcherrelativepath" : "../patchers",
				"type" : "JSON",
				"implicit" : 1
			}
, 			{
				"name" : "somax.player.core.maxpat",
				"bootpath" : "~/MaxDev/Somax2/max/somax/patchers",
				"patcherrelativepath" : "../patchers",
				"type" : "JSON",
				"implicit" : 1
			}
, 			{
				"name" : "somax.player.maxpat",
				"bootpath" : "~/MaxDev/Somax2/max/somax/patchers",
				"patcherrelativepath" : "../patchers",
				"type" : "JSON",
				"implicit" : 1
			}
, 			{
				"name" : "somax.print.maxpat",
				"bootpath" : "~/MaxDev/Somax2/max/somax/patchers",
				"patcherrelativepath" : "../patchers",
				"type" : "JSON",
				"implicit" : 1
			}
, 			{
				"name" : "somax.uniquename.maxpat",
				"bootpath" : "~/MaxDev/Somax2/max/somax/patchers/resources/misc",
				"patcherrelativepath" : "../patchers/resources/misc",
				"type" : "JSON",
				"implicit" : 1
			}
, 			{
				"name" : "somax.uniquenumber.maxpat",
				"bootpath" : "~/MaxDev/Somax2/max/somax/patchers/resources/misc",
				"patcherrelativepath" : "../patchers/resources/misc",
				"type" : "JSON",
				"implicit" : 1
			}
, 			{
				"name" : "somax.winresize.maxpat",
				"bootpath" : "~/MaxDev/Somax2/max/somax/patchers/resources/misc",
				"patcherrelativepath" : "../patchers/resources/misc",
				"type" : "JSON",
				"implicit" : 1
			}
 ],
		"autosave" : 0
	}

}
