{
	"patcher" : 	{
		"fileversion" : 1,
		"appversion" : 		{
			"major" : 8,
			"minor" : 6,
			"revision" : 4,
			"architecture" : "x64",
			"modernui" : 1
		}
,
		"classnamespace" : "box",
		"rect" : [ 34.0, 87.0, 2094.0, 956.0 ],
		"bglocked" : 0,
		"openinpresentation" : 0,
		"default_fontsize" : 12.0,
		"default_fontface" : 0,
		"default_fontname" : "Arial",
		"gridonopen" : 1,
		"gridsize" : [ 15.0, 15.0 ],
		"gridsnaponopen" : 1,
		"objectsnaponopen" : 1,
		"statusbarvisible" : 2,
		"toolbarvisible" : 1,
		"lefttoolbarpinned" : 0,
		"toptoolbarpinned" : 0,
		"righttoolbarpinned" : 0,
		"bottomtoolbarpinned" : 0,
		"toolbars_unpinned_last_save" : 0,
		"tallnewobj" : 0,
		"boxanimatetime" : 200,
		"enablehscroll" : 1,
		"enablevscroll" : 1,
		"devicewidth" : 0.0,
		"description" : "",
		"digest" : "",
		"tags" : "",
		"style" : "",
		"subpatcher_template" : "",
		"assistshowspatchername" : 0,
		"boxes" : [ 			{
				"box" : 				{
					"id" : "obj-131",
					"maxclass" : "message",
					"numinlets" : 2,
					"numoutlets" : 1,
					"outlettype" : [ "" ],
					"patching_rect" : [ 1901.0, 1508.0, 47.0, 22.0 ],
					"text" : "None 0"
				}

			}
, 			{
				"box" : 				{
					"id" : "obj-130",
					"maxclass" : "message",
					"numinlets" : 2,
					"numoutlets" : 1,
					"outlettype" : [ "" ],
					"patching_rect" : [ 1619.0, 1464.0, 51.0, 22.0 ],
					"presentation_linecount" : 2,
					"text" : "None -1"
				}

			}
, 			{
				"box" : 				{
					"id" : "obj-129",
					"maxclass" : "message",
					"numinlets" : 2,
					"numoutlets" : 1,
					"outlettype" : [ "" ],
					"patching_rect" : [ 1625.0, 1499.0, 47.0, 22.0 ],
					"text" : "1 None"
				}

			}
, 			{
				"box" : 				{
					"id" : "obj-128",
					"maxclass" : "message",
					"numinlets" : 2,
					"numoutlets" : 1,
					"outlettype" : [ "" ],
					"patching_rect" : [ 1809.5, 1508.0, 69.0, 22.0 ],
					"presentation_linecount" : 2,
					"text" : "None None"
				}

			}
, 			{
				"box" : 				{
					"id" : "obj-127",
					"maxclass" : "message",
					"numinlets" : 2,
					"numoutlets" : 1,
					"outlettype" : [ "" ],
					"patching_rect" : [ 1748.75, 1508.0, 47.0, 22.0 ],
					"text" : "None 5"
				}

			}
, 			{
				"box" : 				{
					"id" : "obj-126",
					"maxclass" : "message",
					"numinlets" : 2,
					"numoutlets" : 1,
					"outlettype" : [ "" ],
					"patching_rect" : [ 1688.0, 1508.0, 47.0, 22.0 ],
					"text" : "0 None"
				}

			}
, 			{
				"box" : 				{
					"id" : "obj-124",
					"maxclass" : "newobj",
					"numinlets" : 1,
					"numoutlets" : 1,
					"outlettype" : [ "" ],
					"patching_rect" : [ 1688.0, 1545.0, 223.0, 22.0 ],
					"text" : "prepend set_num_behaviour_repetitions"
				}

			}
, 			{
				"box" : 				{
					"id" : "obj-123",
					"maxclass" : "message",
					"numinlets" : 2,
					"numoutlets" : 1,
					"outlettype" : [ "" ],
					"patching_rect" : [ 1925.0, 1393.0, 35.0, 22.0 ],
					"text" : "hehe"
				}

			}
, 			{
				"box" : 				{
					"id" : "obj-122",
					"maxclass" : "message",
					"numinlets" : 2,
					"numoutlets" : 1,
					"outlettype" : [ "" ],
					"patching_rect" : [ 1852.5, 1394.0, 53.0, 22.0 ],
					"text" : "sublevel"
				}

			}
, 			{
				"box" : 				{
					"id" : "obj-114",
					"maxclass" : "message",
					"numinlets" : 2,
					"numoutlets" : 1,
					"outlettype" : [ "" ],
					"patching_rect" : [ 1802.0, 1394.0, 51.0, 22.0 ],
					"text" : "oneshot"
				}

			}
, 			{
				"box" : 				{
					"id" : "obj-110",
					"maxclass" : "message",
					"numinlets" : 2,
					"numoutlets" : 1,
					"outlettype" : [ "" ],
					"patching_rect" : [ 1398.0, 1078.0, 106.0, 22.0 ],
					"presentation_linecount" : 2,
					"text" : "0 None oneshot l4"
				}

			}
, 			{
				"box" : 				{
					"bgcolor" : [ 0.4616160095, 1.0, 0.8905446529, 1.0 ],
					"bgcolor2" : [ 0.2, 0.2, 0.2, 1 ],
					"bgfillcolor_color" : [ 0.2, 0.2, 0.2, 1 ],
					"bgfillcolor_color1" : [ 0.4616160095, 1.0, 0.8905446529, 1.0 ],
					"bgfillcolor_color2" : [ 0.2, 0.2, 0.2, 1 ],
					"bgfillcolor_type" : "gradient",
					"gradient" : 1,
					"id" : "obj-109",
					"maxclass" : "message",
					"numinlets" : 2,
					"numoutlets" : 1,
					"outlettype" : [ "" ],
					"patching_rect" : [ 685.0, 1296.0, 320.0, 22.0 ],
					"text" : "force_jump should clear the current one / current repetition"
				}

			}
, 			{
				"box" : 				{
					"id" : "obj-103",
					"maxclass" : "message",
					"numinlets" : 2,
					"numoutlets" : 1,
					"outlettype" : [ "" ],
					"patching_rect" : [ 1105.0, 1085.0, 96.0, 22.0 ],
					"text" : "None oneshot l4"
				}

			}
, 			{
				"box" : 				{
					"id" : "obj-100",
					"maxclass" : "newobj",
					"numinlets" : 1,
					"numoutlets" : 1,
					"outlettype" : [ "" ],
					"patching_rect" : [ 815.0, 1211.0, 19.0, 22.0 ],
					"text" : "t l"
				}

			}
, 			{
				"box" : 				{
					"id" : "obj-97",
					"maxclass" : "message",
					"numinlets" : 2,
					"numoutlets" : 1,
					"outlettype" : [ "" ],
					"patching_rect" : [ 778.0, 1169.0, 221.0, 22.0 ],
					"text" : "region enabled 1 1., region enabled 6 0."
				}

			}
, 			{
				"box" : 				{
					"id" : "obj-92",
					"maxclass" : "message",
					"numinlets" : 2,
					"numoutlets" : 1,
					"outlettype" : [ "" ],
					"patching_rect" : [ 778.0, 1136.0, 221.0, 22.0 ],
					"presentation_linecount" : 4,
					"text" : "region enabled 1 0., region enabled 6 1."
				}

			}
, 			{
				"box" : 				{
					"id" : "obj-91",
					"linecount" : 2,
					"maxclass" : "message",
					"numinlets" : 2,
					"numoutlets" : 1,
					"outlettype" : [ "" ],
					"patching_rect" : [ 909.75, 1065.0, 82.0, 35.0 ],
					"text" : "audioinfluencer enabled 1"
				}

			}
, 			{
				"box" : 				{
					"id" : "obj-89",
					"maxclass" : "message",
					"numinlets" : 2,
					"numoutlets" : 1,
					"outlettype" : [ "" ],
					"patching_rect" : [ 1941.0, 1244.0, 91.0, 22.0 ],
					"text" : "next_behaviour"
				}

			}
, 			{
				"box" : 				{
					"id" : "obj-86",
					"maxclass" : "message",
					"numinlets" : 2,
					"numoutlets" : 1,
					"outlettype" : [ "" ],
					"patching_rect" : [ 1792.0, 1319.0, 134.0, 22.0 ],
					"presentation_linecount" : 2,
					"text" : "clear_behaviour_queue"
				}

			}
, 			{
				"box" : 				{
					"id" : "obj-85",
					"maxclass" : "message",
					"numinlets" : 2,
					"numoutlets" : 1,
					"outlettype" : [ "" ],
					"patching_rect" : [ 1783.0, 1285.0, 100.0, 22.0 ],
					"text" : "clear_behaviours"
				}

			}
, 			{
				"box" : 				{
					"id" : "obj-83",
					"maxclass" : "message",
					"numinlets" : 2,
					"numoutlets" : 1,
					"outlettype" : [ "" ],
					"patching_rect" : [ 1105.0, 1038.0, 96.0, 22.0 ],
					"text" : "None oneshot l3"
				}

			}
, 			{
				"box" : 				{
					"id" : "obj-81",
					"maxclass" : "newobj",
					"numinlets" : 1,
					"numoutlets" : 8,
					"outlettype" : [ "bang", "bang", "bang", "bang", "bang", "bang", "bang", "bang" ],
					"patching_rect" : [ 1078.0, 992.0, 92.5, 22.0 ],
					"text" : "t b b b b b b b b"
				}

			}
, 			{
				"box" : 				{
					"id" : "obj-80",
					"maxclass" : "button",
					"numinlets" : 1,
					"numoutlets" : 1,
					"outlettype" : [ "bang" ],
					"parameter_enable" : 0,
					"patching_rect" : [ 1082.0, 956.0, 24.0, 24.0 ]
				}

			}
, 			{
				"box" : 				{
					"id" : "obj-67",
					"maxclass" : "newobj",
					"numinlets" : 1,
					"numoutlets" : 1,
					"outlettype" : [ "" ],
					"patching_rect" : [ 1731.0, 1450.0, 204.0, 22.0 ],
					"text" : "prepend remove_behaviour_by_type"
				}

			}
, 			{
				"box" : 				{
					"bgcolor" : [ 1.0, 0.738438487052917, 0.834055185317993, 1.0 ],
					"bgcolor2" : [ 0.2, 0.2, 0.2, 1 ],
					"bgfillcolor_color" : [ 0.2, 0.2, 0.2, 1 ],
					"bgfillcolor_color1" : [ 1.0, 0.738438487052917, 0.834055185317993, 1.0 ],
					"bgfillcolor_color2" : [ 0.2, 0.2, 0.2, 1 ],
					"bgfillcolor_type" : "gradient",
					"gradient" : 1,
					"id" : "obj-66",
					"maxclass" : "message",
					"numinlets" : 2,
					"numoutlets" : 1,
					"outlettype" : [ "" ],
					"patching_rect" : [ 1858.0, 1149.0, 42.0, 22.0 ],
					"presentation_linecount" : 2,
					"text" : "10000"
				}

			}
, 			{
				"box" : 				{
					"id" : "obj-63",
					"maxclass" : "message",
					"numinlets" : 2,
					"numoutlets" : 1,
					"outlettype" : [ "" ],
					"patching_rect" : [ 1804.0, 1149.0, 29.5, 22.0 ],
					"text" : "-1"
				}

			}
, 			{
				"box" : 				{
					"id" : "obj-62",
					"maxclass" : "message",
					"numinlets" : 2,
					"numoutlets" : 1,
					"outlettype" : [ "" ],
					"patching_rect" : [ 1757.5, 1149.0, 29.5, 22.0 ],
					"text" : "2"
				}

			}
, 			{
				"box" : 				{
					"id" : "obj-61",
					"maxclass" : "message",
					"numinlets" : 2,
					"numoutlets" : 1,
					"outlettype" : [ "" ],
					"patching_rect" : [ 1717.25, 1149.0, 29.5, 22.0 ],
					"text" : "1"
				}

			}
, 			{
				"box" : 				{
					"id" : "obj-60",
					"maxclass" : "message",
					"numinlets" : 2,
					"numoutlets" : 1,
					"outlettype" : [ "" ],
					"patching_rect" : [ 1678.0, 1154.0, 29.5, 22.0 ],
					"text" : "0"
				}

			}
, 			{
				"box" : 				{
					"id" : "obj-56",
					"maxclass" : "newobj",
					"numinlets" : 1,
					"numoutlets" : 1,
					"outlettype" : [ "" ],
					"patching_rect" : [ 1648.0, 1193.0, 155.0, 22.0 ],
					"text" : "prepend remove_behaviour"
				}

			}
, 			{
				"box" : 				{
					"id" : "obj-51",
					"maxclass" : "message",
					"numinlets" : 2,
					"numoutlets" : 1,
					"outlettype" : [ "" ],
					"patching_rect" : [ 1587.0, 1073.0, 123.0, 22.0 ],
					"presentation_linecount" : 2,
					"text" : "10000 3 oneshot l4 l3"
				}

			}
, 			{
				"box" : 				{
					"id" : "obj-25",
					"maxclass" : "message",
					"numinlets" : 2,
					"numoutlets" : 1,
					"outlettype" : [ "" ],
					"patching_rect" : [ 1443.5, 998.0, 84.0, 22.0 ],
					"presentation_linecount" : 2,
					"text" : "2 1 oneshot l3"
				}

			}
, 			{
				"box" : 				{
					"id" : "obj-46",
					"maxclass" : "message",
					"numinlets" : 2,
					"numoutlets" : 1,
					"outlettype" : [ "" ],
					"patching_rect" : [ 1531.5, 1010.0, 108.0, 22.0 ],
					"presentation_linecount" : 2,
					"text" : "0 2 sublevel l4 l3 3"
				}

			}
, 			{
				"box" : 				{
					"id" : "obj-48",
					"maxclass" : "message",
					"numinlets" : 2,
					"numoutlets" : 1,
					"outlettype" : [ "" ],
					"patching_rect" : [ 1565.5, 1038.0, 97.0, 22.0 ],
					"presentation_linecount" : 2,
					"text" : "1 3 oneshot l4 l3"
				}

			}
, 			{
				"box" : 				{
					"id" : "obj-49",
					"maxclass" : "message",
					"numinlets" : 2,
					"numoutlets" : 1,
					"outlettype" : [ "" ],
					"patching_rect" : [ 1443.5, 1028.0, 88.0, 22.0 ],
					"presentation_linecount" : 2,
					"text" : "-1 4 oneshot l3"
				}

			}
, 			{
				"box" : 				{
					"id" : "obj-23",
					"maxclass" : "newobj",
					"numinlets" : 1,
					"numoutlets" : 1,
					"outlettype" : [ "" ],
					"patching_rect" : [ 1431.0, 1136.0, 145.0, 22.0 ],
					"text" : "prepend insert_behaviour"
				}

			}
, 			{
				"box" : 				{
					"id" : "obj-21",
					"maxclass" : "message",
					"numinlets" : 2,
					"numoutlets" : 1,
					"outlettype" : [ "" ],
					"patching_rect" : [ 1208.5, 998.0, 74.0, 22.0 ],
					"text" : "1 oneshot l3"
				}

			}
, 			{
				"box" : 				{
					"id" : "obj-6",
					"maxclass" : "message",
					"numinlets" : 2,
					"numoutlets" : 1,
					"outlettype" : [ "" ],
					"patching_rect" : [ 1297.0, 1010.0, 98.0, 22.0 ],
					"presentation_linecount" : 2,
					"text" : "2 sublevel l4 l3 3"
				}

			}
, 			{
				"box" : 				{
					"fontsize" : 18.0,
					"id" : "obj-121",
					"maxclass" : "message",
					"numinlets" : 2,
					"numoutlets" : 1,
					"outlettype" : [ "" ],
					"patching_rect" : [ 1658.5, 1372.0, 39.0, 29.0 ],
					"text" : "6"
				}

			}
, 			{
				"box" : 				{
					"id" : "obj-119",
					"maxclass" : "newobj",
					"numinlets" : 2,
					"numoutlets" : 2,
					"outlettype" : [ "", "" ],
					"patching_rect" : [ 1656.0, 1341.0, 37.0, 22.0 ],
					"text" : "zl.len"
				}

			}
, 			{
				"box" : 				{
					"id" : "obj-118",
					"maxclass" : "newobj",
					"numinlets" : 2,
					"numoutlets" : 2,
					"outlettype" : [ "", "" ],
					"patching_rect" : [ 1133.0, 1149.0, 97.0, 22.0 ],
					"text" : "route rawreceive"
				}

			}
, 			{
				"box" : 				{
					"id" : "obj-117",
					"linecount" : 3,
					"maxclass" : "message",
					"numinlets" : 2,
					"numoutlets" : 1,
					"outlettype" : [ "" ],
					"patching_rect" : [ 1458.0, 1265.0, 128.0, 49.0 ],
					"text" : "rawsend set_num_behaviour_repetitions None -1"
				}

			}
, 			{
				"box" : 				{
					"id" : "obj-115",
					"maxclass" : "newobj",
					"numinlets" : 1,
					"numoutlets" : 1,
					"outlettype" : [ "" ],
					"patching_rect" : [ 1264.0, 1223.0, 101.0, 22.0 ],
					"text" : "prepend rawsend"
				}

			}
, 			{
				"box" : 				{
					"id" : "obj-113",
					"maxclass" : "message",
					"numinlets" : 2,
					"numoutlets" : 1,
					"outlettype" : [ "" ],
					"patching_rect" : [ 1331.0, 1038.0, 87.0, 22.0 ],
					"text" : "3 oneshot l4 l3"
				}

			}
, 			{
				"box" : 				{
					"id" : "obj-112",
					"maxclass" : "message",
					"numinlets" : 2,
					"numoutlets" : 1,
					"outlettype" : [ "" ],
					"patching_rect" : [ 1208.5, 1028.0, 74.0, 22.0 ],
					"text" : "4 oneshot l3"
				}

			}
, 			{
				"box" : 				{
					"id" : "obj-108",
					"maxclass" : "newobj",
					"numinlets" : 1,
					"numoutlets" : 1,
					"outlettype" : [ "" ],
					"patching_rect" : [ 1264.0, 1136.0, 155.0, 22.0 ],
					"text" : "prepend append_behaviour"
				}

			}
, 			{
				"box" : 				{
					"id" : "obj-107",
					"maxclass" : "newobj",
					"numinlets" : 1,
					"numoutlets" : 1,
					"outlettype" : [ "" ],
					"patching_rect" : [ 1264.0, 1193.0, 19.0, 22.0 ],
					"text" : "t l"
				}

			}
, 			{
				"box" : 				{
					"id" : "obj-105",
					"maxclass" : "button",
					"numinlets" : 1,
					"numoutlets" : 1,
					"outlettype" : [ "bang" ],
					"parameter_enable" : 0,
					"patching_rect" : [ 1614.0, 1355.0, 12.0, 12.0 ]
				}

			}
, 			{
				"box" : 				{
					"id" : "obj-104",
					"maxclass" : "button",
					"numinlets" : 1,
					"numoutlets" : 1,
					"outlettype" : [ "bang" ],
					"parameter_enable" : 0,
					"patching_rect" : [ 1206.0, 1319.0, 12.0, 12.0 ]
				}

			}
, 			{
				"box" : 				{
					"id" : "obj-102",
					"maxclass" : "comment",
					"numinlets" : 1,
					"numoutlets" : 0,
					"patching_rect" : [ 1011.0, 1357.0, 45.0, 20.0 ],
					"text" : "queue:"
				}

			}
, 			{
				"box" : 				{
					"id" : "obj-101",
					"maxclass" : "comment",
					"numinlets" : 1,
					"numoutlets" : 0,
					"patching_rect" : [ 1009.0, 1320.0, 49.0, 20.0 ],
					"text" : "current:"
				}

			}
, 			{
				"box" : 				{
					"id" : "obj-99",
					"linecount" : 2,
					"maxclass" : "message",
					"numinlets" : 2,
					"numoutlets" : 1,
					"outlettype" : [ "" ],
					"patching_rect" : [ 1060.0, 1355.0, 536.0, 35.0 ],
					"text" : "\"None OneShot l4 l4\" \"3 OneShot l4 l3\" \"2 SubLevel l4 l4 l3 3\" \"1 OneShot l3 l3\" \"4 OneShot l3 l3\" \"1 OneShot l3 l3\""
				}

			}
, 			{
				"box" : 				{
					"id" : "obj-98",
					"maxclass" : "message",
					"numinlets" : 2,
					"numoutlets" : 1,
					"outlettype" : [ "" ],
					"patching_rect" : [ 1060.0, 1319.0, 158.0, 22.0 ],
					"text" : "\"2 SubLevel l4 l4 l3 3\""
				}

			}
, 			{
				"box" : 				{
					"blinkcolor" : [ 0.996078431372549, 0.423529411764706, 0.423529411764706, 1.0 ],
					"id" : "obj-96",
					"maxclass" : "button",
					"numinlets" : 1,
					"numoutlets" : 1,
					"outlettype" : [ "bang" ],
					"parameter_enable" : 0,
					"patching_rect" : [ 1227.0, 1265.0, 37.0, 37.0 ]
				}

			}
, 			{
				"box" : 				{
					"id" : "obj-94",
					"maxclass" : "newobj",
					"numinlets" : 3,
					"numoutlets" : 3,
					"outlettype" : [ "", "", "" ],
					"patching_rect" : [ 1133.0, 1238.0, 113.0, 22.0 ],
					"text" : "route current queue"
				}

			}
, 			{
				"box" : 				{
					"id" : "obj-93",
					"maxclass" : "newobj",
					"numinlets" : 2,
					"numoutlets" : 2,
					"outlettype" : [ "", "" ],
					"patching_rect" : [ 1133.0, 1188.0, 92.0, 22.0 ],
					"text" : "route behaviour"
				}

			}
, 			{
				"box" : 				{
					"id" : "obj-88",
					"maxclass" : "button",
					"numinlets" : 1,
					"numoutlets" : 1,
					"outlettype" : [ "bang" ],
					"parameter_enable" : 0,
					"patching_rect" : [ 2523.0, 2025.0, 24.0, 24.0 ]
				}

			}
, 			{
				"box" : 				{
					"id" : "obj-79",
					"maxclass" : "comment",
					"numinlets" : 1,
					"numoutlets" : 0,
					"patching_rect" : [ 1330.0, 956.0, 194.0, 20.0 ],
					"text" : "\"5 OneShot l4 l4\" \"6 OneShot l4 l4\""
				}

			}
, 			{
				"box" : 				{
					"id" : "obj-77",
					"maxclass" : "comment",
					"numinlets" : 1,
					"numoutlets" : 0,
					"patching_rect" : [ 1832.0, 924.0, 243.0, 20.0 ],
					"text" : "remove <classname>"
				}

			}
, 			{
				"box" : 				{
					"id" : "obj-76",
					"maxclass" : "message",
					"numinlets" : 2,
					"numoutlets" : 1,
					"outlettype" : [ "" ],
					"patching_rect" : [ 1692.0, 922.0, 95.0, 22.0 ],
					"text" : "remove oneshot"
				}

			}
, 			{
				"box" : 				{
					"id" : "obj-75",
					"maxclass" : "comment",
					"numinlets" : 1,
					"numoutlets" : 0,
					"patching_rect" : [ 1832.0, 1039.0, 225.0, 20.0 ],
					"text" : "setrepetitions <index> <num repetitions>"
				}

			}
, 			{
				"box" : 				{
					"id" : "obj-74",
					"maxclass" : "message",
					"numinlets" : 2,
					"numoutlets" : 1,
					"outlettype" : [ "" ],
					"patching_rect" : [ 1692.0, 1038.0, 80.0, 22.0 ],
					"text" : "setrepetitions"
				}

			}
, 			{
				"box" : 				{
					"id" : "obj-73",
					"maxclass" : "message",
					"numinlets" : 2,
					"numoutlets" : 1,
					"outlettype" : [ "" ],
					"patching_rect" : [ 1692.0, 1010.0, 35.0, 22.0 ],
					"text" : "clear"
				}

			}
, 			{
				"box" : 				{
					"id" : "obj-72",
					"maxclass" : "message",
					"numinlets" : 2,
					"numoutlets" : 1,
					"outlettype" : [ "" ],
					"patching_rect" : [ 1692.0, 983.0, 68.0, 22.0 ],
					"text" : "clearqueue"
				}

			}
, 			{
				"box" : 				{
					"id" : "obj-71",
					"maxclass" : "message",
					"numinlets" : 2,
					"numoutlets" : 1,
					"outlettype" : [ "" ],
					"patching_rect" : [ 1692.0, 956.0, 31.0, 22.0 ],
					"text" : "next"
				}

			}
, 			{
				"box" : 				{
					"id" : "obj-70",
					"maxclass" : "comment",
					"numinlets" : 1,
					"numoutlets" : 0,
					"patching_rect" : [ 1832.0, 899.0, 243.0, 20.0 ],
					"text" : "remove <index>"
				}

			}
, 			{
				"box" : 				{
					"id" : "obj-69",
					"maxclass" : "message",
					"numinlets" : 2,
					"numoutlets" : 1,
					"outlettype" : [ "" ],
					"patching_rect" : [ 1692.0, 898.0, 59.0, 22.0 ],
					"text" : "remove 5"
				}

			}
, 			{
				"box" : 				{
					"id" : "obj-65",
					"maxclass" : "comment",
					"numinlets" : 1,
					"numoutlets" : 0,
					"patching_rect" : [ 1832.0, 837.0, 207.0, 20.0 ],
					"text" : "append <num repetitions> <object...>"
				}

			}
, 			{
				"box" : 				{
					"id" : "obj-64",
					"maxclass" : "comment",
					"numinlets" : 1,
					"numoutlets" : 0,
					"patching_rect" : [ 1832.0, 868.0, 243.0, 20.0 ],
					"text" : "insert <index> <num repetitions> <object...>"
				}

			}
, 			{
				"box" : 				{
					"id" : "obj-58",
					"maxclass" : "message",
					"numinlets" : 2,
					"numoutlets" : 1,
					"outlettype" : [ "" ],
					"patching_rect" : [ 1692.0, 867.0, 117.0, 22.0 ],
					"text" : "insert 5 6 oneshot ..."
				}

			}
, 			{
				"box" : 				{
					"id" : "obj-55",
					"maxclass" : "message",
					"numinlets" : 2,
					"numoutlets" : 1,
					"outlettype" : [ "" ],
					"patching_rect" : [ 1692.0, 837.0, 120.0, 22.0 ],
					"text" : "append 5 Oneshot l4"
				}

			}
, 			{
				"box" : 				{
					"id" : "obj-53",
					"maxclass" : "message",
					"numinlets" : 2,
					"numoutlets" : 1,
					"outlettype" : [ "" ],
					"patching_rect" : [ 1174.0, 922.0, 97.0, 22.0 ],
					"text" : "OneSHot(rep=5)"
				}

			}
, 			{
				"box" : 				{
					"id" : "obj-52",
					"maxclass" : "message",
					"numinlets" : 2,
					"numoutlets" : 1,
					"outlettype" : [ "" ],
					"patching_rect" : [ 1330.0, 905.0, 147.0, 22.0 ],
					"text" : "OneSHot() OneSHot(123)"
				}

			}
, 			{
				"box" : 				{
					"id" : "obj-50",
					"maxclass" : "newobj",
					"numinlets" : 0,
					"numoutlets" : 5,
					"outlettype" : [ "", "", "", "", "" ],
					"patcher" : 					{
						"fileversion" : 1,
						"appversion" : 						{
							"major" : 8,
							"minor" : 6,
							"revision" : 4,
							"architecture" : "x64",
							"modernui" : 1
						}
,
						"classnamespace" : "box",
						"rect" : [ 59.0, 106.0, 640.0, 480.0 ],
						"bglocked" : 0,
						"openinpresentation" : 0,
						"default_fontsize" : 12.0,
						"default_fontface" : 0,
						"default_fontname" : "Arial",
						"gridonopen" : 1,
						"gridsize" : [ 15.0, 15.0 ],
						"gridsnaponopen" : 1,
						"objectsnaponopen" : 1,
						"statusbarvisible" : 2,
						"toolbarvisible" : 1,
						"lefttoolbarpinned" : 0,
						"toptoolbarpinned" : 0,
						"righttoolbarpinned" : 0,
						"bottomtoolbarpinned" : 0,
						"toolbars_unpinned_last_save" : 0,
						"tallnewobj" : 0,
						"boxanimatetime" : 200,
						"enablehscroll" : 1,
						"enablevscroll" : 1,
						"devicewidth" : 0.0,
						"description" : "",
						"digest" : "",
						"tags" : "",
						"style" : "",
						"subpatcher_template" : "",
						"assistshowspatchername" : 0,
						"boxes" : [ 							{
								"box" : 								{
									"comment" : "",
									"id" : "obj-6",
									"index" : 5,
									"maxclass" : "outlet",
									"numinlets" : 1,
									"numoutlets" : 0,
									"patching_rect" : [ 248.0, 270.0, 30.0, 30.0 ]
								}

							}
, 							{
								"box" : 								{
									"comment" : "",
									"id" : "obj-5",
									"index" : 4,
									"maxclass" : "outlet",
									"numinlets" : 1,
									"numoutlets" : 0,
									"patching_rect" : [ 233.0, 255.0, 30.0, 30.0 ]
								}

							}
, 							{
								"box" : 								{
									"comment" : "",
									"id" : "obj-4",
									"index" : 3,
									"maxclass" : "outlet",
									"numinlets" : 1,
									"numoutlets" : 0,
									"patching_rect" : [ 218.0, 240.0, 30.0, 30.0 ]
								}

							}
, 							{
								"box" : 								{
									"comment" : "",
									"id" : "obj-3",
									"index" : 2,
									"maxclass" : "outlet",
									"numinlets" : 1,
									"numoutlets" : 0,
									"patching_rect" : [ 203.0, 225.0, 30.0, 30.0 ]
								}

							}
, 							{
								"box" : 								{
									"comment" : "",
									"id" : "obj-2",
									"index" : 1,
									"maxclass" : "outlet",
									"numinlets" : 1,
									"numoutlets" : 0,
									"patching_rect" : [ 188.0, 210.0, 30.0, 30.0 ]
								}

							}
 ],
						"lines" : [  ]
					}
,
					"patching_rect" : [ 1252.0, 842.0, 111.0, 22.0 ],
					"saved_object_attributes" : 					{
						"description" : "",
						"digest" : "",
						"globalpatchername" : "",
						"tags" : ""
					}
,
					"text" : "p behaviourhandler"
				}

			}
, 			{
				"box" : 				{
					"id" : "obj-47",
					"maxclass" : "message",
					"numinlets" : 2,
					"numoutlets" : 1,
					"outlettype" : [ "" ],
					"patching_rect" : [ 1530.0, 592.0, 237.0, 22.0 ],
					"text" : "rawsend set_behaviour sublevel l4 l4 None"
				}

			}
, 			{
				"box" : 				{
					"bgcolor" : [ 1.0, 0.738438487052917, 0.834055185317993, 1.0 ],
					"bgcolor2" : [ 0.2, 0.2, 0.2, 1 ],
					"bgfillcolor_autogradient" : 0.0,
					"bgfillcolor_color" : [ 0.2, 0.2, 0.2, 1 ],
					"bgfillcolor_color1" : [ 1.0, 0.738438487052917, 0.834055185317993, 1.0 ],
					"bgfillcolor_color2" : [ 0.2, 0.2, 0.2, 1 ],
					"bgfillcolor_type" : "gradient",
					"gradient" : 1,
					"id" : "obj-45",
					"maxclass" : "message",
					"numinlets" : 2,
					"numoutlets" : 1,
					"outlettype" : [ "" ],
					"patching_rect" : [ 1715.5, 533.0, 259.0, 22.0 ],
					"text" : "rawsend set_behaviour sublevel l4 l4 123 1234"
				}

			}
, 			{
				"box" : 				{
					"bgcolor" : [ 1.0, 0.738438487052917, 0.834055185317993, 1.0 ],
					"bgcolor2" : [ 0.2, 0.2, 0.2, 1 ],
					"bgfillcolor_autogradient" : 0.0,
					"bgfillcolor_color" : [ 0.2, 0.2, 0.2, 1 ],
					"bgfillcolor_color1" : [ 1.0, 0.738438487052917, 0.834055185317993, 1.0 ],
					"bgfillcolor_color2" : [ 0.2, 0.2, 0.2, 1 ],
					"bgfillcolor_type" : "gradient",
					"gradient" : 1,
					"id" : "obj-44",
					"maxclass" : "message",
					"numinlets" : 2,
					"numoutlets" : 1,
					"outlettype" : [ "" ],
					"patching_rect" : [ 1715.5, 509.0, 220.0, 22.0 ],
					"text" : "rawsend set_behaviour sublevel 1 2 3 4"
				}

			}
, 			{
				"box" : 				{
					"bgcolor" : [ 1.0, 0.738438487052917, 0.834055185317993, 1.0 ],
					"bgcolor2" : [ 0.2, 0.2, 0.2, 1 ],
					"bgfillcolor_autogradient" : 0.0,
					"bgfillcolor_color" : [ 0.2, 0.2, 0.2, 1 ],
					"bgfillcolor_color1" : [ 1.0, 0.738438487052917, 0.834055185317993, 1.0 ],
					"bgfillcolor_color2" : [ 0.2, 0.2, 0.2, 1 ],
					"bgfillcolor_type" : "gradient",
					"gradient" : 1,
					"id" : "obj-43",
					"maxclass" : "message",
					"numinlets" : 2,
					"numoutlets" : 1,
					"outlettype" : [ "" ],
					"patching_rect" : [ 1708.0, 482.0, 210.0, 22.0 ],
					"text" : "rawsend set_behaviour sublevel 1 2 3"
				}

			}
, 			{
				"box" : 				{
					"bgcolor" : [ 1.0, 0.738438487052917, 0.834055185317993, 1.0 ],
					"bgcolor2" : [ 0.2, 0.2, 0.2, 1 ],
					"bgfillcolor_autogradient" : 0.0,
					"bgfillcolor_color" : [ 0.2, 0.2, 0.2, 1 ],
					"bgfillcolor_color1" : [ 1.0, 0.738438487052917, 0.834055185317993, 1.0 ],
					"bgfillcolor_color2" : [ 0.2, 0.2, 0.2, 1 ],
					"bgfillcolor_type" : "gradient",
					"gradient" : 1,
					"id" : "obj-42",
					"maxclass" : "message",
					"numinlets" : 2,
					"numoutlets" : 1,
					"outlettype" : [ "" ],
					"patching_rect" : [ 1704.0, 455.0, 233.0, 22.0 ],
					"text" : "rawsend set_behaviour sublevel 123 1234"
				}

			}
, 			{
				"box" : 				{
					"bgcolor" : [ 1.0, 0.738438487052917, 0.834055185317993, 1.0 ],
					"bgcolor2" : [ 0.2, 0.2, 0.2, 1 ],
					"bgfillcolor_autogradient" : 0.0,
					"bgfillcolor_color" : [ 0.2, 0.2, 0.2, 1 ],
					"bgfillcolor_color1" : [ 1.0, 0.738438487052917, 0.834055185317993, 1.0 ],
					"bgfillcolor_color2" : [ 0.2, 0.2, 0.2, 1 ],
					"bgfillcolor_type" : "gradient",
					"gradient" : 1,
					"id" : "obj-41",
					"maxclass" : "message",
					"numinlets" : 2,
					"numoutlets" : 1,
					"outlettype" : [ "" ],
					"patching_rect" : [ 1704.0, 423.0, 203.0, 22.0 ],
					"text" : "rawsend set_behaviour sublevel 123"
				}

			}
, 			{
				"box" : 				{
					"id" : "obj-40",
					"maxclass" : "newobj",
					"numinlets" : 1,
					"numoutlets" : 1,
					"outlettype" : [ "" ],
					"patching_rect" : [ 1471.0, 583.0, 19.0, 22.0 ],
					"text" : "t l"
				}

			}
, 			{
				"box" : 				{
					"id" : "obj-39",
					"maxclass" : "message",
					"numinlets" : 2,
					"numoutlets" : 1,
					"outlettype" : [ "" ],
					"patching_rect" : [ 1469.0, 538.0, 205.0, 22.0 ],
					"text" : "rawsend set_behaviour sublevel l4 l3"
				}

			}
, 			{
				"box" : 				{
					"id" : "obj-38",
					"maxclass" : "message",
					"numinlets" : 2,
					"numoutlets" : 1,
					"outlettype" : [ "" ],
					"patching_rect" : [ 1471.0, 509.0, 215.0, 22.0 ],
					"text" : "rawsend set_behaviour sublevel l4 l4 5"
				}

			}
, 			{
				"box" : 				{
					"id" : "obj-37",
					"maxclass" : "message",
					"numinlets" : 2,
					"numoutlets" : 1,
					"outlettype" : [ "" ],
					"patching_rect" : [ 1471.0, 478.5, 218.0, 22.0 ],
					"text" : "rawsend set_behaviour sublevel l4 l4 l3"
				}

			}
, 			{
				"box" : 				{
					"id" : "obj-36",
					"maxclass" : "message",
					"numinlets" : 2,
					"numoutlets" : 1,
					"outlettype" : [ "" ],
					"patching_rect" : [ 1457.5, 451.0, 228.0, 22.0 ],
					"text" : "rawsend set_behaviour sublevel l4 l4 l3 7"
				}

			}
, 			{
				"box" : 				{
					"id" : "obj-35",
					"maxclass" : "message",
					"numinlets" : 2,
					"numoutlets" : 1,
					"outlettype" : [ "" ],
					"patching_rect" : [ 1464.0, 423.0, 215.0, 22.0 ],
					"text" : "rawsend set_behaviour sublevel l4 l3 7"
				}

			}
, 			{
				"box" : 				{
					"bgcolor" : [ 1.0, 0.738438487052917, 0.834055185317993, 1.0 ],
					"bgcolor2" : [ 0.2, 0.2, 0.2, 1 ],
					"bgfillcolor_autogradient" : 0.0,
					"bgfillcolor_color" : [ 0.2, 0.2, 0.2, 1 ],
					"bgfillcolor_color1" : [ 1.0, 0.738438487052917, 0.834055185317993, 1.0 ],
					"bgfillcolor_color2" : [ 0.2, 0.2, 0.2, 1 ],
					"bgfillcolor_type" : "gradient",
					"gradient" : 1,
					"id" : "obj-34",
					"maxclass" : "message",
					"numinlets" : 2,
					"numoutlets" : 1,
					"outlettype" : [ "" ],
					"patching_rect" : [ 1530.0, 25.0, 221.0, 22.0 ],
					"text" : "rawsend set_behaviour oneshot l4 1234"
				}

			}
, 			{
				"box" : 				{
					"bgcolor" : [ 1.0, 0.738438487052917, 0.834055185317993, 1.0 ],
					"bgcolor2" : [ 0.2, 0.2, 0.2, 1 ],
					"bgfillcolor_autogradient" : 0.0,
					"bgfillcolor_color" : [ 0.2, 0.2, 0.2, 1 ],
					"bgfillcolor_color1" : [ 1.0, 0.738438487052917, 0.834055185317993, 1.0 ],
					"bgfillcolor_color2" : [ 0.2, 0.2, 0.2, 1 ],
					"bgfillcolor_type" : "gradient",
					"gradient" : 1,
					"id" : "obj-33",
					"maxclass" : "message",
					"numinlets" : 2,
					"numoutlets" : 1,
					"outlettype" : [ "" ],
					"patching_rect" : [ 1530.0, 49.0, 221.0, 22.0 ],
					"text" : "rawsend set_behaviour oneshot 1234 l4"
				}

			}
, 			{
				"box" : 				{
					"bgcolor" : [ 1.0, 0.738438487052917, 0.834055185317993, 1.0 ],
					"bgcolor2" : [ 0.2, 0.2, 0.2, 1 ],
					"bgfillcolor_autogradient" : 0.0,
					"bgfillcolor_color" : [ 0.2, 0.2, 0.2, 1 ],
					"bgfillcolor_color1" : [ 1.0, 0.738438487052917, 0.834055185317993, 1.0 ],
					"bgfillcolor_color2" : [ 0.2, 0.2, 0.2, 1 ],
					"bgfillcolor_type" : "gradient",
					"gradient" : 1,
					"id" : "obj-32",
					"maxclass" : "message",
					"numinlets" : 2,
					"numoutlets" : 1,
					"outlettype" : [ "" ],
					"patching_rect" : [ 1560.0, 113.0, 179.0, 22.0 ],
					"text" : "rawsend set_behaviour oneshot"
				}

			}
, 			{
				"box" : 				{
					"bgcolor" : [ 1.0, 0.738438487052917, 0.834055185317993, 1.0 ],
					"bgcolor2" : [ 0.2, 0.2, 0.2, 1 ],
					"bgfillcolor_autogradient" : 0.0,
					"bgfillcolor_color" : [ 0.2, 0.2, 0.2, 1 ],
					"bgfillcolor_color1" : [ 1.0, 0.738438487052917, 0.834055185317993, 1.0 ],
					"bgfillcolor_color2" : [ 0.2, 0.2, 0.2, 1 ],
					"bgfillcolor_type" : "gradient",
					"gradient" : 1,
					"id" : "obj-31",
					"maxclass" : "message",
					"numinlets" : 2,
					"numoutlets" : 1,
					"outlettype" : [ "" ],
					"patching_rect" : [ 1560.0, 81.0, 209.0, 22.0 ],
					"text" : "rawsend set_behaviour oneshot 1234"
				}

			}
, 			{
				"box" : 				{
					"id" : "obj-30",
					"maxclass" : "message",
					"numinlets" : 2,
					"numoutlets" : 1,
					"outlettype" : [ "" ],
					"patching_rect" : [ 1170.0, 43.0, 191.0, 22.0 ],
					"text" : "rawsend set_behaviour oneshot l4"
				}

			}
, 			{
				"box" : 				{
					"id" : "obj-29",
					"maxclass" : "message",
					"numinlets" : 2,
					"numoutlets" : 1,
					"outlettype" : [ "" ],
					"patching_rect" : [ 1443.0, 775.0, 43.0, 22.0 ],
					"text" : "l4 l4 l2"
				}

			}
, 			{
				"box" : 				{
					"id" : "obj-28",
					"maxclass" : "message",
					"numinlets" : 2,
					"numoutlets" : 1,
					"outlettype" : [ "" ],
					"patching_rect" : [ 1388.0, 805.0, 31.0, 22.0 ],
					"text" : "l4 l2"
				}

			}
, 			{
				"box" : 				{
					"id" : "obj-27",
					"maxclass" : "message",
					"numinlets" : 2,
					"numoutlets" : 1,
					"outlettype" : [ "" ],
					"patching_rect" : [ 1388.0, 775.0, 41.0, 22.0 ],
					"text" : "l4 l2 7"
				}

			}
, 			{
				"box" : 				{
					"id" : "obj-26",
					"maxclass" : "message",
					"numinlets" : 2,
					"numoutlets" : 1,
					"outlettype" : [ "" ],
					"patching_rect" : [ 1388.0, 746.0, 53.0, 22.0 ],
					"text" : "l4 l4 l2 7"
				}

			}
, 			{
				"box" : 				{
					"id" : "obj-24",
					"maxclass" : "message",
					"numinlets" : 2,
					"numoutlets" : 1,
					"outlettype" : [ "" ],
					"patching_rect" : [ 1195.0, 746.0, 180.0, 22.0 ],
					"text" : "rawsend set_behaviour sublevel"
				}

			}
, 			{
				"box" : 				{
					"id" : "obj-22",
					"maxclass" : "message",
					"numinlets" : 2,
					"numoutlets" : 1,
					"outlettype" : [ "" ],
					"patching_rect" : [ 1212.0, 370.0, 35.0, 22.0 ],
					"text" : "bang"
				}

			}
, 			{
				"box" : 				{
					"id" : "obj-16",
					"maxclass" : "message",
					"numinlets" : 2,
					"numoutlets" : 1,
					"outlettype" : [ "" ],
					"patching_rect" : [ 1199.0, 681.0, 351.0, 22.0 ],
					"text" : "rawsend clear_behaviours, rawsend set_behaviour oneshot l4 l4"
				}

			}
, 			{
				"box" : 				{
					"id" : "obj-12",
					"maxclass" : "message",
					"numinlets" : 2,
					"numoutlets" : 1,
					"outlettype" : [ "" ],
					"patching_rect" : [ 1199.0, 642.0, 205.0, 22.0 ],
					"text" : "rawsend set_behaviour silence None"
				}

			}
, 			{
				"box" : 				{
					"id" : "obj-8",
					"maxclass" : "button",
					"numinlets" : 1,
					"numoutlets" : 1,
					"outlettype" : [ "bang" ],
					"parameter_enable" : 0,
					"patching_rect" : [ 1435.0, 206.0, 24.0, 24.0 ]
				}

			}
, 			{
				"box" : 				{
					"id" : "obj-1",
					"maxclass" : "message",
					"numinlets" : 2,
					"numoutlets" : 1,
					"outlettype" : [ "" ],
					"patching_rect" : [ 1178.0, 184.0, 237.0, 22.0 ],
					"text" : "rawsend set_behaviour oneshot l2 l2, bang"
				}

			}
, 			{
				"box" : 				{
					"id" : "obj-20",
					"maxclass" : "message",
					"numinlets" : 2,
					"numoutlets" : 1,
					"outlettype" : [ "" ],
					"patching_rect" : [ 1176.5, 460.0, 250.0, 22.0 ],
					"text" : "rawsend set_behaviour sublevel l4 l4 l3 None"
				}

			}
, 			{
				"box" : 				{
					"id" : "obj-18",
					"maxclass" : "message",
					"numinlets" : 2,
					"numoutlets" : 1,
					"outlettype" : [ "" ],
					"patching_rect" : [ 1182.0, 423.0, 228.0, 22.0 ],
					"text" : "rawsend set_behaviour sublevel l4 l4 l3 7"
				}

			}
, 			{
				"box" : 				{
					"id" : "obj-17",
					"maxclass" : "message",
					"numinlets" : 2,
					"numoutlets" : 1,
					"outlettype" : [ "" ],
					"patching_rect" : [ 1182.0, 255.0, 227.0, 22.0 ],
					"text" : "rawsend set_behaviour oneshot l4m12 l4"
				}

			}
, 			{
				"box" : 				{
					"id" : "obj-15",
					"maxclass" : "message",
					"numinlets" : 2,
					"numoutlets" : 1,
					"outlettype" : [ "" ],
					"patching_rect" : [ 1178.0, 77.0, 204.0, 22.0 ],
					"text" : "rawsend set_behaviour oneshot l4 l4"
				}

			}
, 			{
				"box" : 				{
					"id" : "obj-14",
					"maxclass" : "message",
					"numinlets" : 2,
					"numoutlets" : 1,
					"outlettype" : [ "" ],
					"patching_rect" : [ 1530.0, 161.0, 234.0, 22.0 ],
					"text" : "rawsend set_behaviour oneshot ^l2l3l4 ^l4"
				}

			}
, 			{
				"box" : 				{
					"id" : "obj-13",
					"maxclass" : "message",
					"numinlets" : 2,
					"numoutlets" : 1,
					"outlettype" : [ "" ],
					"patching_rect" : [ 1178.0, 314.0, 149.0, 22.0 ],
					"text" : "rawsend clear_behaviours"
				}

			}
, 			{
				"box" : 				{
					"id" : "obj-10",
					"maxclass" : "newobj",
					"numinlets" : 1,
					"numoutlets" : 1,
					"outlettype" : [ "bang" ],
					"patching_rect" : [ 119.0, 341.0, 58.0, 22.0 ],
					"text" : "loadbang"
				}

			}
, 			{
				"box" : 				{
					"id" : "obj-9",
					"maxclass" : "message",
					"numinlets" : 2,
					"numoutlets" : 1,
					"outlettype" : [ "" ],
					"patching_rect" : [ 113.0, 379.0, 548.0, 22.0 ],
					"text" : "corpuspath /Users/joakimborg/MaxProjects/SomaxResearch/classifiers/work2024/multilabel_morphos"
				}

			}
, 			{
				"box" : 				{
					"id" : "obj-5",
					"maxclass" : "message",
					"numinlets" : 2,
					"numoutlets" : 1,
					"outlettype" : [ "" ],
					"patching_rect" : [ 1178.0, 125.0, 215.0, 22.0 ],
					"text" : "rawsend set_behaviour oneshot ^l4 ^l4"
				}

			}
, 			{
				"box" : 				{
					"id" : "obj-19",
					"maxclass" : "message",
					"numinlets" : 2,
					"numoutlets" : 1,
					"outlettype" : [ "" ],
					"patching_rect" : [ 221.0, 35.0, 59.0, 22.0 ],
					"text" : "terminate"
				}

			}
, 			{
				"box" : 				{
					"bgmode" : 0,
					"border" : 0,
					"clickthrough" : 0,
					"enablehscroll" : 0,
					"enablevscroll" : 0,
					"id" : "obj-11",
					"lockeddragscroll" : 0,
					"lockedsize" : 0,
					"maxclass" : "bpatcher",
					"name" : "somax.player.app.maxpat",
					"numinlets" : 2,
					"numoutlets" : 5,
					"offset" : [ 0.0, 0.0 ],
					"outlettype" : [ "multichannelsignal", "", "", "", "" ],
					"patching_rect" : [ 801.0, 61.0, 248.0, 965.0 ],
					"presentation" : 1,
					"presentation_rect" : [ 256.0, 4.0, 244.5, 910.0 ],
					"varname" : "somax.player.app",
					"viewvisibility" : 1
				}

			}
, 			{
				"box" : 				{
					"bgmode" : 0,
					"border" : 0,
					"clickthrough" : 0,
					"enablehscroll" : 0,
					"enablevscroll" : 0,
					"id" : "obj-7",
					"lockeddragscroll" : 0,
					"lockedsize" : 0,
					"maxclass" : "bpatcher",
					"name" : "somax.midiinfluencer.app.maxpat",
					"numinlets" : 1,
					"numoutlets" : 4,
					"offset" : [ 0.0, 0.0 ],
					"outlettype" : [ "", "", "", "" ],
					"patching_rect" : [ 533.0, 77.0, 250.0, 221.0 ],
					"presentation" : 1,
					"presentation_rect" : [ 2.5, 329.0, 249.0, 220.0 ],
					"varname" : "somax.midiinfluencer.app",
					"viewvisibility" : 1
				}

			}
, 			{
				"box" : 				{
					"bgmode" : 0,
					"border" : 0,
					"clickthrough" : 0,
					"enablehscroll" : 0,
					"enablevscroll" : 0,
					"id" : "obj-4",
					"lockeddragscroll" : 0,
					"lockedsize" : 0,
					"maxclass" : "bpatcher",
					"name" : "somax.audioinfluencer.app.maxpat",
					"numinlets" : 1,
					"numoutlets" : 5,
					"offset" : [ 0.0, 0.0 ],
					"outlettype" : [ "", "multichannelsignal", "", "", "" ],
					"patching_rect" : [ 277.0, 77.0, 251.0, 324.0 ],
					"presentation" : 1,
					"presentation_rect" : [ 1.5, 4.0, 251.0, 323.0 ],
					"varname" : "somax.audioinfluencer.app",
					"viewvisibility" : 1
				}

			}
, 			{
				"box" : 				{
					"color" : [ 1.0, 0.709803921568627, 0.196078431372549, 1.0 ],
					"id" : "obj-3",
					"maxclass" : "mc.ezdac~",
					"numinlets" : 1,
					"numoutlets" : 0,
					"patching_rect" : [ 22.75, 467.0, 45.0, 45.0 ],
					"presentation" : 1,
					"presentation_rect" : [ 537.75, 209.0, 45.0, 45.0 ]
				}

			}
, 			{
				"box" : 				{
					"bgmode" : 0,
					"border" : 0,
					"clickthrough" : 0,
					"enablehscroll" : 0,
					"enablevscroll" : 0,
					"id" : "obj-2",
					"lockeddragscroll" : 0,
					"lockedsize" : 0,
					"maxclass" : "bpatcher",
					"name" : "somax.server.app.maxpat",
					"numinlets" : 1,
					"numoutlets" : 4,
					"offset" : [ 0.0, 0.0 ],
					"outlettype" : [ "", "", "", "" ],
					"patching_rect" : [ 265.0, 503.5, 254.0, 299.0 ],
					"presentation" : 1,
					"presentation_rect" : [ 2.5, 552.5, 254.0, 299.0 ],
					"varname" : "somax.server.app",
					"viewvisibility" : 1
				}

			}
 ],
		"lines" : [ 			{
				"patchline" : 				{
					"destination" : [ "obj-11", 0 ],
					"source" : [ "obj-1", 0 ]
				}

			}
, 			{
				"patchline" : 				{
					"destination" : [ "obj-9", 0 ],
					"source" : [ "obj-10", 0 ]
				}

			}
, 			{
				"patchline" : 				{
					"destination" : [ "obj-11", 0 ],
					"source" : [ "obj-100", 0 ]
				}

			}
, 			{
				"patchline" : 				{
					"destination" : [ "obj-108", 0 ],
					"source" : [ "obj-103", 0 ]
				}

			}
, 			{
				"patchline" : 				{
					"destination" : [ "obj-115", 0 ],
					"source" : [ "obj-107", 0 ]
				}

			}
, 			{
				"patchline" : 				{
					"destination" : [ "obj-107", 0 ],
					"source" : [ "obj-108", 0 ]
				}

			}
, 			{
				"patchline" : 				{
					"destination" : [ "obj-118", 0 ],
					"source" : [ "obj-11", 4 ]
				}

			}
, 			{
				"patchline" : 				{
					"destination" : [ "obj-91", 1 ],
					"source" : [ "obj-11", 3 ]
				}

			}
, 			{
				"patchline" : 				{
					"destination" : [ "obj-23", 0 ],
					"source" : [ "obj-110", 0 ]
				}

			}
, 			{
				"patchline" : 				{
					"destination" : [ "obj-108", 0 ],
					"source" : [ "obj-112", 0 ]
				}

			}
, 			{
				"patchline" : 				{
					"destination" : [ "obj-108", 0 ],
					"source" : [ "obj-113", 0 ]
				}

			}
, 			{
				"patchline" : 				{
					"destination" : [ "obj-67", 0 ],
					"source" : [ "obj-114", 0 ]
				}

			}
, 			{
				"patchline" : 				{
					"destination" : [ "obj-11", 0 ],
					"order" : 1,
					"source" : [ "obj-115", 0 ]
				}

			}
, 			{
				"patchline" : 				{
					"destination" : [ "obj-117", 1 ],
					"order" : 0,
					"source" : [ "obj-115", 0 ]
				}

			}
, 			{
				"patchline" : 				{
					"destination" : [ "obj-93", 0 ],
					"source" : [ "obj-118", 0 ]
				}

			}
, 			{
				"patchline" : 				{
					"destination" : [ "obj-121", 1 ],
					"source" : [ "obj-119", 0 ]
				}

			}
, 			{
				"patchline" : 				{
					"destination" : [ "obj-11", 0 ],
					"source" : [ "obj-12", 0 ]
				}

			}
, 			{
				"patchline" : 				{
					"destination" : [ "obj-67", 0 ],
					"source" : [ "obj-122", 0 ]
				}

			}
, 			{
				"patchline" : 				{
					"destination" : [ "obj-67", 0 ],
					"source" : [ "obj-123", 0 ]
				}

			}
, 			{
				"patchline" : 				{
					"destination" : [ "obj-107", 0 ],
					"source" : [ "obj-124", 0 ]
				}

			}
, 			{
				"patchline" : 				{
					"destination" : [ "obj-124", 0 ],
					"source" : [ "obj-126", 0 ]
				}

			}
, 			{
				"patchline" : 				{
					"destination" : [ "obj-124", 0 ],
					"source" : [ "obj-127", 0 ]
				}

			}
, 			{
				"patchline" : 				{
					"destination" : [ "obj-124", 0 ],
					"source" : [ "obj-128", 0 ]
				}

			}
, 			{
				"patchline" : 				{
					"destination" : [ "obj-124", 0 ],
					"source" : [ "obj-129", 0 ]
				}

			}
, 			{
				"patchline" : 				{
					"destination" : [ "obj-11", 0 ],
					"source" : [ "obj-13", 0 ]
				}

			}
, 			{
				"patchline" : 				{
					"destination" : [ "obj-124", 0 ],
					"source" : [ "obj-130", 0 ]
				}

			}
, 			{
				"patchline" : 				{
					"destination" : [ "obj-124", 0 ],
					"source" : [ "obj-131", 0 ]
				}

			}
, 			{
				"patchline" : 				{
					"destination" : [ "obj-11", 0 ],
					"source" : [ "obj-14", 0 ]
				}

			}
, 			{
				"patchline" : 				{
					"destination" : [ "obj-11", 0 ],
					"source" : [ "obj-15", 0 ]
				}

			}
, 			{
				"patchline" : 				{
					"destination" : [ "obj-11", 0 ],
					"source" : [ "obj-16", 0 ]
				}

			}
, 			{
				"patchline" : 				{
					"destination" : [ "obj-11", 0 ],
					"source" : [ "obj-17", 0 ]
				}

			}
, 			{
				"patchline" : 				{
					"destination" : [ "obj-11", 0 ],
					"source" : [ "obj-18", 0 ]
				}

			}
, 			{
				"patchline" : 				{
					"destination" : [ "obj-2", 0 ],
					"source" : [ "obj-19", 0 ]
				}

			}
, 			{
				"patchline" : 				{
					"destination" : [ "obj-11", 0 ],
					"source" : [ "obj-20", 0 ]
				}

			}
, 			{
				"patchline" : 				{
					"destination" : [ "obj-108", 0 ],
					"source" : [ "obj-21", 0 ]
				}

			}
, 			{
				"patchline" : 				{
					"destination" : [ "obj-11", 0 ],
					"source" : [ "obj-22", 0 ]
				}

			}
, 			{
				"patchline" : 				{
					"destination" : [ "obj-107", 0 ],
					"source" : [ "obj-23", 0 ]
				}

			}
, 			{
				"patchline" : 				{
					"destination" : [ "obj-23", 0 ],
					"source" : [ "obj-25", 0 ]
				}

			}
, 			{
				"patchline" : 				{
					"destination" : [ "obj-11", 0 ],
					"source" : [ "obj-30", 0 ]
				}

			}
, 			{
				"patchline" : 				{
					"destination" : [ "obj-11", 0 ],
					"source" : [ "obj-31", 0 ]
				}

			}
, 			{
				"patchline" : 				{
					"destination" : [ "obj-11", 0 ],
					"source" : [ "obj-32", 0 ]
				}

			}
, 			{
				"patchline" : 				{
					"destination" : [ "obj-11", 0 ],
					"source" : [ "obj-33", 0 ]
				}

			}
, 			{
				"patchline" : 				{
					"destination" : [ "obj-11", 0 ],
					"source" : [ "obj-34", 0 ]
				}

			}
, 			{
				"patchline" : 				{
					"destination" : [ "obj-40", 0 ],
					"source" : [ "obj-35", 0 ]
				}

			}
, 			{
				"patchline" : 				{
					"destination" : [ "obj-40", 0 ],
					"source" : [ "obj-36", 0 ]
				}

			}
, 			{
				"patchline" : 				{
					"destination" : [ "obj-40", 0 ],
					"source" : [ "obj-37", 0 ]
				}

			}
, 			{
				"patchline" : 				{
					"destination" : [ "obj-40", 0 ],
					"source" : [ "obj-38", 0 ]
				}

			}
, 			{
				"patchline" : 				{
					"destination" : [ "obj-40", 0 ],
					"source" : [ "obj-39", 0 ]
				}

			}
, 			{
				"patchline" : 				{
					"destination" : [ "obj-11", 0 ],
					"source" : [ "obj-40", 0 ]
				}

			}
, 			{
				"patchline" : 				{
					"destination" : [ "obj-40", 0 ],
					"source" : [ "obj-41", 0 ]
				}

			}
, 			{
				"patchline" : 				{
					"destination" : [ "obj-40", 0 ],
					"source" : [ "obj-42", 0 ]
				}

			}
, 			{
				"patchline" : 				{
					"destination" : [ "obj-40", 0 ],
					"source" : [ "obj-43", 0 ]
				}

			}
, 			{
				"patchline" : 				{
					"destination" : [ "obj-40", 0 ],
					"source" : [ "obj-44", 0 ]
				}

			}
, 			{
				"patchline" : 				{
					"destination" : [ "obj-40", 0 ],
					"source" : [ "obj-45", 0 ]
				}

			}
, 			{
				"patchline" : 				{
					"destination" : [ "obj-23", 0 ],
					"source" : [ "obj-46", 0 ]
				}

			}
, 			{
				"patchline" : 				{
					"destination" : [ "obj-40", 0 ],
					"source" : [ "obj-47", 0 ]
				}

			}
, 			{
				"patchline" : 				{
					"destination" : [ "obj-23", 0 ],
					"source" : [ "obj-48", 0 ]
				}

			}
, 			{
				"patchline" : 				{
					"destination" : [ "obj-23", 0 ],
					"source" : [ "obj-49", 0 ]
				}

			}
, 			{
				"patchline" : 				{
					"destination" : [ "obj-11", 0 ],
					"source" : [ "obj-5", 0 ]
				}

			}
, 			{
				"patchline" : 				{
					"destination" : [ "obj-52", 1 ],
					"source" : [ "obj-50", 1 ]
				}

			}
, 			{
				"patchline" : 				{
					"destination" : [ "obj-53", 1 ],
					"source" : [ "obj-50", 0 ]
				}

			}
, 			{
				"patchline" : 				{
					"destination" : [ "obj-23", 0 ],
					"source" : [ "obj-51", 0 ]
				}

			}
, 			{
				"patchline" : 				{
					"destination" : [ "obj-107", 0 ],
					"source" : [ "obj-56", 0 ]
				}

			}
, 			{
				"patchline" : 				{
					"destination" : [ "obj-108", 0 ],
					"source" : [ "obj-6", 0 ]
				}

			}
, 			{
				"patchline" : 				{
					"destination" : [ "obj-56", 0 ],
					"source" : [ "obj-60", 0 ]
				}

			}
, 			{
				"patchline" : 				{
					"destination" : [ "obj-56", 0 ],
					"source" : [ "obj-61", 0 ]
				}

			}
, 			{
				"patchline" : 				{
					"destination" : [ "obj-56", 0 ],
					"source" : [ "obj-62", 0 ]
				}

			}
, 			{
				"patchline" : 				{
					"destination" : [ "obj-56", 0 ],
					"source" : [ "obj-63", 0 ]
				}

			}
, 			{
				"patchline" : 				{
					"destination" : [ "obj-56", 0 ],
					"source" : [ "obj-66", 0 ]
				}

			}
, 			{
				"patchline" : 				{
					"destination" : [ "obj-107", 0 ],
					"source" : [ "obj-67", 0 ]
				}

			}
, 			{
				"patchline" : 				{
					"destination" : [ "obj-11", 0 ],
					"source" : [ "obj-8", 0 ]
				}

			}
, 			{
				"patchline" : 				{
					"destination" : [ "obj-81", 0 ],
					"source" : [ "obj-80", 0 ]
				}

			}
, 			{
				"patchline" : 				{
					"destination" : [ "obj-103", 0 ],
					"source" : [ "obj-81", 5 ]
				}

			}
, 			{
				"patchline" : 				{
					"destination" : [ "obj-112", 0 ],
					"source" : [ "obj-81", 7 ]
				}

			}
, 			{
				"patchline" : 				{
					"destination" : [ "obj-112", 0 ],
					"source" : [ "obj-81", 1 ]
				}

			}
, 			{
				"patchline" : 				{
					"destination" : [ "obj-113", 0 ],
					"source" : [ "obj-81", 4 ]
				}

			}
, 			{
				"patchline" : 				{
					"destination" : [ "obj-21", 0 ],
					"source" : [ "obj-81", 2 ]
				}

			}
, 			{
				"patchline" : 				{
					"destination" : [ "obj-21", 0 ],
					"source" : [ "obj-81", 0 ]
				}

			}
, 			{
				"patchline" : 				{
					"destination" : [ "obj-6", 0 ],
					"source" : [ "obj-81", 6 ]
				}

			}
, 			{
				"patchline" : 				{
					"destination" : [ "obj-6", 0 ],
					"source" : [ "obj-81", 3 ]
				}

			}
, 			{
				"patchline" : 				{
					"destination" : [ "obj-108", 0 ],
					"source" : [ "obj-83", 0 ]
				}

			}
, 			{
				"patchline" : 				{
					"destination" : [ "obj-107", 0 ],
					"source" : [ "obj-85", 0 ]
				}

			}
, 			{
				"patchline" : 				{
					"destination" : [ "obj-107", 0 ],
					"source" : [ "obj-86", 0 ]
				}

			}
, 			{
				"patchline" : 				{
					"destination" : [ "obj-107", 0 ],
					"source" : [ "obj-89", 0 ]
				}

			}
, 			{
				"patchline" : 				{
					"destination" : [ "obj-2", 0 ],
					"source" : [ "obj-9", 0 ]
				}

			}
, 			{
				"patchline" : 				{
					"destination" : [ "obj-100", 0 ],
					"source" : [ "obj-92", 0 ]
				}

			}
, 			{
				"patchline" : 				{
					"destination" : [ "obj-94", 0 ],
					"source" : [ "obj-93", 0 ]
				}

			}
, 			{
				"patchline" : 				{
					"destination" : [ "obj-104", 0 ],
					"order" : 0,
					"source" : [ "obj-94", 0 ]
				}

			}
, 			{
				"patchline" : 				{
					"destination" : [ "obj-105", 0 ],
					"order" : 1,
					"source" : [ "obj-94", 1 ]
				}

			}
, 			{
				"patchline" : 				{
					"destination" : [ "obj-119", 0 ],
					"order" : 0,
					"source" : [ "obj-94", 1 ]
				}

			}
, 			{
				"patchline" : 				{
					"destination" : [ "obj-96", 0 ],
					"source" : [ "obj-94", 2 ]
				}

			}
, 			{
				"patchline" : 				{
					"destination" : [ "obj-98", 1 ],
					"order" : 1,
					"source" : [ "obj-94", 0 ]
				}

			}
, 			{
				"patchline" : 				{
					"destination" : [ "obj-99", 1 ],
					"order" : 2,
					"source" : [ "obj-94", 1 ]
				}

			}
, 			{
				"patchline" : 				{
					"destination" : [ "obj-100", 0 ],
					"source" : [ "obj-97", 0 ]
				}

			}
 ],
		"parameters" : 		{
			"obj-11::obj-118::obj-114" : [ "live.gain~[1]", "live.gain~", 0 ],
			"obj-11::obj-118::obj-119" : [ "live.text[67]", "live.text[30]", 0 ],
			"obj-11::obj-118::obj-2::obj-119" : [ "live.text[35]", "live.text[30]", 0 ],
			"obj-11::obj-118::obj-2::obj-13" : [ "live.text[65]", "live.text", 0 ],
			"obj-11::obj-118::obj-2::obj-140" : [ "mc.live.gain~[9]", "mc.live.gain~", 0 ],
			"obj-11::obj-118::obj-2::obj-62::obj-1" : [ "source[9]", "source", 0 ],
			"obj-11::obj-118::obj-42" : [ "live.toggle", "live.toggle", 0 ],
			"obj-11::obj-118::obj-55" : [ "live.gain~", "live.gain~", 0 ],
			"obj-11::obj-17::obj-10::obj-21" : [ "onset[5]", "onset", 0 ],
			"obj-11::obj-17::obj-10::obj-28" : [ "chromaonset[5]", "chromaonset", 0 ],
			"obj-11::obj-17::obj-10::obj-29" : [ "enable[5]", "enable", 0 ],
			"obj-11::obj-17::obj-10::obj-30" : [ "chroma scaling factor[5]", "chroma", 0 ],
			"obj-11::obj-17::obj-10::obj-46::obj-1" : [ "source[7]", "source", 0 ],
			"obj-11::obj-17::obj-10::obj-9" : [ "pitch[5]", "pitch", 0 ],
			"obj-11::obj-17::obj-2::obj-21" : [ "onset[2]", "onset", 0 ],
			"obj-11::obj-17::obj-2::obj-28" : [ "chromaonset[2]", "chromaonset", 0 ],
			"obj-11::obj-17::obj-2::obj-29" : [ "enable[2]", "enable", 0 ],
			"obj-11::obj-17::obj-2::obj-30" : [ "chroma scaling factor[2]", "chroma", 0 ],
			"obj-11::obj-17::obj-2::obj-46::obj-1" : [ "source[5]", "source", 0 ],
			"obj-11::obj-17::obj-2::obj-9" : [ "pitch[2]", "pitch", 0 ],
			"obj-11::obj-17::obj-33::obj-21" : [ "onset[6]", "onset", 0 ],
			"obj-11::obj-17::obj-33::obj-28" : [ "chromaonset[6]", "chromaonset", 0 ],
			"obj-11::obj-17::obj-33::obj-29" : [ "enable[6]", "enable", 0 ],
			"obj-11::obj-17::obj-33::obj-30" : [ "chroma scaling factor[6]", "chroma", 0 ],
			"obj-11::obj-17::obj-33::obj-46::obj-1" : [ "source[8]", "source", 0 ],
			"obj-11::obj-17::obj-33::obj-9" : [ "pitch[6]", "pitch", 0 ],
			"obj-11::obj-17::obj-6::obj-21" : [ "onset[4]", "onset", 0 ],
			"obj-11::obj-17::obj-6::obj-28" : [ "chromaonset[4]", "chromaonset", 0 ],
			"obj-11::obj-17::obj-6::obj-29" : [ "enable[4]", "enable", 0 ],
			"obj-11::obj-17::obj-6::obj-30" : [ "chroma scaling factor[4]", "chroma", 0 ],
			"obj-11::obj-17::obj-6::obj-46::obj-1" : [ "source[6]", "source", 0 ],
			"obj-11::obj-17::obj-6::obj-9" : [ "pitch[4]", "pitch", 0 ],
			"obj-11::obj-25::obj-1" : [ "Gain", "Gain", 0 ],
			"obj-11::obj-25::obj-44" : [ "live.dial[1]", "Width", 0 ],
			"obj-11::obj-25::obj-46" : [ "live.dial", "Pan", 0 ],
			"obj-11::obj-3::obj-1115" : [ "continuity[22]", "continuity", 0 ],
			"obj-11::obj-3::obj-1150" : [ "live.text[34]", "live.text", 0 ],
			"obj-11::obj-3::obj-1175" : [ "heldnotesmode[5]", "heldnotesmode", 0 ],
			"obj-11::obj-3::obj-1179" : [ "continuity[23]", "continuity", 0 ],
			"obj-11::obj-3::obj-123::obj-1" : [ "live.text[32]", "live.text", 0 ],
			"obj-11::obj-3::obj-123::obj-2" : [ "live.text[33]", "live.text", 0 ],
			"obj-11::obj-3::obj-123::obj-3" : [ "live.text[19]", "live.text", 0 ],
			"obj-11::obj-3::obj-14::obj-12" : [ "live.slider[2]", "live.slider[2]", 0 ],
			"obj-11::obj-3::obj-14::obj-128" : [ "live.text[62]", "live.text", 1 ],
			"obj-11::obj-3::obj-14::obj-135" : [ "live.text[59]", "live.text", 1 ],
			"obj-11::obj-3::obj-14::obj-153" : [ "live.text[61]", "live.text", 1 ],
			"obj-11::obj-3::obj-14::obj-163" : [ "live.text[60]", "live.text", 1 ],
			"obj-11::obj-3::obj-14::obj-173" : [ "live.text[51]", "live.text", 1 ],
			"obj-11::obj-3::obj-14::obj-39" : [ "live.tab[1]", "live.tab", 0 ],
			"obj-11::obj-3::obj-14::obj-40" : [ "live.slider[4]", "live.slider[2]", 0 ],
			"obj-11::obj-3::obj-14::obj-64" : [ "live.text[52]", "live.text", 0 ],
			"obj-11::obj-3::obj-16::obj-26" : [ "corpusname[4]", "corpusname", 0 ],
			"obj-11::obj-3::obj-32" : [ "heldnotesmode[3]", "heldnotesmode", 0 ],
			"obj-11::obj-3::obj-407::obj-1115" : [ "continuity[1]", "continuity", 0 ],
			"obj-11::obj-3::obj-407::obj-1175" : [ "heldnotesmode[2]", "heldnotesmode", 0 ],
			"obj-11::obj-3::obj-407::obj-1179" : [ "continuity[16]", "continuity", 0 ],
			"obj-11::obj-3::obj-407::obj-12" : [ "melodicmod12[1]", "melodicmod12", 0 ],
			"obj-11::obj-3::obj-407::obj-120" : [ "melodicbypass[1]", "melodicbypass", 0 ],
			"obj-11::obj-3::obj-407::obj-1218" : [ "simultaneousonsets[2]", "artificialmidities", 0 ],
			"obj-11::obj-3::obj-407::obj-126" : [ "harmonicbypass[1]", "harmonicbypass", 0 ],
			"obj-11::obj-3::obj-407::obj-134" : [ "continuity[17]", "continuity", 0 ],
			"obj-11::obj-3::obj-407::obj-1344" : [ "enforcetaboo[4]", "enforcetaboo", 0 ],
			"obj-11::obj-3::obj-407::obj-140" : [ "resetinfluences[1]", "resetinfluences", 0 ],
			"obj-11::obj-3::obj-407::obj-144" : [ "harmonicngramorder[1]", "harmonicngramorder", 0 ],
			"obj-11::obj-3::obj-407::obj-1444" : [ "outputprobability[4]", "outputprobability", 0 ],
			"obj-11::obj-3::obj-407::obj-152" : [ "selfngramorder[1]", "selfngramorder", 0 ],
			"obj-11::obj-3::obj-407::obj-154" : [ "melodicngramorder[4]", "melodicngramorder", 0 ],
			"obj-11::obj-3::obj-407::obj-19" : [ "selfmod12[4]", "selfmod12", 0 ],
			"obj-11::obj-3::obj-407::obj-22" : [ "selfmelodicbypass[1]", "selfmelodicbypass", 0 ],
			"obj-11::obj-3::obj-407::obj-254" : [ "harmonincpeakdecay[2]", "harmonincpeakdecay", 0 ],
			"obj-11::obj-3::obj-407::obj-255" : [ "melodicpeakdecay[4]", "melodicpeakdecay", 0 ],
			"obj-11::obj-3::obj-407::obj-256" : [ "selfpeakdecay[1]", "selfpeakdecay", 0 ],
			"obj-11::obj-3::obj-407::obj-270::obj-1226" : [ "width[1]", "Width", 0 ],
			"obj-11::obj-3::obj-407::obj-270::obj-1227" : [ "center[1]", "Center", 0 ],
			"obj-11::obj-3::obj-407::obj-270::obj-1240" : [ "live.slider[3]", "live.slider", 0 ],
			"obj-11::obj-3::obj-407::obj-270::obj-1241" : [ "live.numbox[3]", "live.numbox[2]", 0 ],
			"obj-11::obj-3::obj-407::obj-270::obj-622" : [ "__exp_velocityenable[1]", "__exp_velocityenable", 0 ],
			"obj-11::obj-3::obj-407::obj-270::obj-889" : [ "weight[1]", "Weight", 0 ],
			"obj-11::obj-3::obj-407::obj-295" : [ "playingmode[4]", "playingmode", 0 ],
			"obj-11::obj-3::obj-407::obj-298" : [ "simultaneousonsets[7]", "simultaneousonsets", 0 ],
			"obj-11::obj-3::obj-407::obj-328" : [ "decaybasis[1]", "decaybasis", 0 ],
			"obj-11::obj-3::obj-407::obj-570" : [ "__exp_melodicpitchfromchords[4]", "__exp_melodicpitchfromchords", 0 ],
			"obj-11::obj-3::obj-407::obj-575" : [ "__exp_tempoconsistencysigma[4]", "__exp_tempoconsistencysigma", 0 ],
			"obj-11::obj-3::obj-407::obj-642" : [ "__exp_numnotessigma[1]", "__exp_numnotessigma", 0 ],
			"obj-11::obj-3::obj-407::obj-653" : [ "__exp_numnotesenable[4]", "__exp_numnotesenable", 0 ],
			"obj-11::obj-3::obj-407::obj-656" : [ "__exp_numnotesmu[1]", "__exp_numnotesmu", 0 ],
			"obj-11::obj-3::obj-407::obj-688" : [ "__exp_durationsigma[4]", "__exp_durationsigma", 0 ],
			"obj-11::obj-3::obj-407::obj-702" : [ "__exp_durationmu[1]", "__exp_durationmu", 0 ],
			"obj-11::obj-3::obj-407::obj-722" : [ "__exp_octavebandsenable[4]", "__exp_octavebandsenable", 0 ],
			"obj-11::obj-3::obj-407::obj-733" : [ "__exp_octavebands[1]", "__exp_octavebands", 0 ],
			"obj-11::obj-3::obj-407::obj-746" : [ "__exp_selfpitchfromchords[4]", "__exp_selfpitchfromchords", 0 ],
			"obj-11::obj-3::obj-407::obj-763" : [ "__exp_autojumpforcejump[1]", "__exp_autojumpforcejump", 0 ],
			"obj-11::obj-3::obj-407::obj-774" : [ "__exp_autojumpenable[1]", "__exp_autojumpenable", 0 ],
			"obj-11::obj-3::obj-407::obj-777" : [ "__exp_autojumpactivate[1]", "__exp_autojumpactivate", 0 ],
			"obj-11::obj-3::obj-407::obj-799" : [ "__exp_tempoconsistencyenable[4]", "__exp_tempoconsistencyenable", 0 ],
			"obj-11::obj-3::obj-407::obj-802" : [ "__exp_tempoconsistencylen[4]", "__exp_tempoconsistencylen", 0 ],
			"obj-11::obj-3::obj-407::obj-860" : [ "harmonincpeakdecay[3]", "harmonincpeakdecay[1]", 0 ],
			"obj-11::obj-3::obj-407::obj-865" : [ "selfharmonicngramorder[4]", "selfharmonicngramorder", 0 ],
			"obj-11::obj-3::obj-407::obj-870" : [ "selfharmonicbypass[4]", "selfharmonicbypass", 0 ],
			"obj-11::obj-3::obj-79::obj-1" : [ "live.text[25]", "live.text", 0 ],
			"obj-11::obj-3::obj-79::obj-2" : [ "live.text[23]", "live.text", 0 ],
			"obj-11::obj-3::obj-79::obj-3" : [ "live.text[18]", "live.text", 0 ],
			"obj-11::obj-3::obj-87::obj-1" : [ "live.text[12]", "live.text", 0 ],
			"obj-11::obj-3::obj-87::obj-2" : [ "live.text[11]", "live.text", 0 ],
			"obj-11::obj-3::obj-87::obj-3" : [ "live.text[9]", "live.text", 0 ],
			"obj-11::obj-3::obj-89::obj-1" : [ "live.text[28]", "live.text", 0 ],
			"obj-11::obj-3::obj-89::obj-2" : [ "live.text[27]", "live.text", 0 ],
			"obj-11::obj-3::obj-89::obj-3" : [ "live.text[26]", "live.text", 0 ],
			"obj-11::obj-3::obj-91::obj-1" : [ "live.text[29]", "live.text", 0 ],
			"obj-11::obj-3::obj-91::obj-2" : [ "live.text[31]", "live.text", 0 ],
			"obj-11::obj-3::obj-91::obj-3" : [ "live.text[30]", "live.text", 0 ],
			"obj-11::obj-6::obj-98" : [ "live.text[6]", "live.text[26]", 0 ],
			"obj-2::obj-13::obj-1" : [ "source[4]", "source", 0 ],
			"obj-2::obj-2::obj-395::obj-2" : [ "live.text[5]", "live.text[4]", 0 ],
			"obj-2::obj-2::obj-395::obj-375" : [ "mc.live.gain~[8]", "click", 0 ],
			"obj-2::obj-2::obj-395::obj-441" : [ "mc.live.gain~[7]", "corpus", 0 ],
			"obj-2::obj-2::obj-395::obj-469" : [ "live.text[24]", "live.text[11]", 0 ],
			"obj-2::obj-2::obj-395::obj-472" : [ "live.text[7]", "live.text[11]", 0 ],
			"obj-2::obj-2::obj-395::obj-490" : [ "live.text[53]", "live.text[11]", 0 ],
			"obj-4::obj-121" : [ "Gain[4]", "Gain", 0 ],
			"obj-4::obj-46" : [ "live.dial[2]", "Pan", 0 ],
			"obj-4::obj-95" : [ "Delay", "Delay", 0 ],
			"parameterbanks" : 			{

			}
,
			"parameter_overrides" : 			{
				"obj-11::obj-118::obj-2::obj-62::obj-1" : 				{
					"parameter_invisible" : 0,
					"parameter_modmode" : 0,
					"parameter_unitstyle" : 10
				}
,
				"obj-11::obj-17::obj-10::obj-30" : 				{
					"parameter_longname" : "chroma scaling factor[5]"
				}
,
				"obj-11::obj-17::obj-10::obj-46::obj-1" : 				{
					"parameter_invisible" : 0,
					"parameter_modmode" : 0,
					"parameter_unitstyle" : 10
				}
,
				"obj-11::obj-17::obj-2::obj-46::obj-1" : 				{
					"parameter_invisible" : 0,
					"parameter_modmode" : 0,
					"parameter_unitstyle" : 10
				}
,
				"obj-11::obj-17::obj-33::obj-30" : 				{
					"parameter_longname" : "chroma scaling factor[6]"
				}
,
				"obj-11::obj-17::obj-33::obj-46::obj-1" : 				{
					"parameter_invisible" : 0,
					"parameter_modmode" : 0,
					"parameter_unitstyle" : 10
				}
,
				"obj-11::obj-17::obj-6::obj-30" : 				{
					"parameter_longname" : "chroma scaling factor[4]"
				}
,
				"obj-11::obj-17::obj-6::obj-46::obj-1" : 				{
					"parameter_invisible" : 0,
					"parameter_modmode" : 0,
					"parameter_unitstyle" : 10
				}
,
				"obj-11::obj-25::obj-1" : 				{
					"parameter_longname" : "Gain",
					"parameter_shortname" : "Gain"
				}
,
				"obj-11::obj-3::obj-1150" : 				{
					"parameter_longname" : "live.text[34]"
				}
,
				"obj-11::obj-3::obj-123::obj-1" : 				{
					"parameter_longname" : "live.text[32]"
				}
,
				"obj-11::obj-3::obj-123::obj-2" : 				{
					"parameter_longname" : "live.text[33]"
				}
,
				"obj-11::obj-3::obj-123::obj-3" : 				{
					"parameter_longname" : "live.text[19]"
				}
,
				"obj-11::obj-3::obj-14::obj-40" : 				{
					"parameter_longname" : "live.slider[4]"
				}
,
				"obj-11::obj-3::obj-16::obj-26" : 				{
					"parameter_invisible" : 1,
					"parameter_modmode" : 0,
					"parameter_unitstyle" : 10
				}
,
				"obj-11::obj-3::obj-407::obj-270::obj-1226" : 				{
					"parameter_longname" : "width[1]"
				}
,
				"obj-11::obj-3::obj-407::obj-270::obj-1227" : 				{
					"parameter_longname" : "center[1]"
				}
,
				"obj-11::obj-3::obj-407::obj-270::obj-1240" : 				{
					"parameter_longname" : "live.slider[3]"
				}
,
				"obj-11::obj-3::obj-407::obj-270::obj-1241" : 				{
					"parameter_longname" : "live.numbox[3]"
				}
,
				"obj-11::obj-3::obj-407::obj-270::obj-889" : 				{
					"parameter_longname" : "weight[1]"
				}
,
				"obj-11::obj-3::obj-87::obj-1" : 				{
					"parameter_longname" : "live.text[12]"
				}
,
				"obj-11::obj-3::obj-87::obj-2" : 				{
					"parameter_longname" : "live.text[11]"
				}
,
				"obj-11::obj-3::obj-87::obj-3" : 				{
					"parameter_longname" : "live.text[9]"
				}
,
				"obj-11::obj-3::obj-89::obj-1" : 				{
					"parameter_longname" : "live.text[28]"
				}
,
				"obj-11::obj-3::obj-89::obj-2" : 				{
					"parameter_longname" : "live.text[27]"
				}
,
				"obj-11::obj-3::obj-89::obj-3" : 				{
					"parameter_longname" : "live.text[26]"
				}
,
				"obj-11::obj-3::obj-91::obj-1" : 				{
					"parameter_longname" : "live.text[29]"
				}
,
				"obj-11::obj-3::obj-91::obj-2" : 				{
					"parameter_longname" : "live.text[31]"
				}
,
				"obj-11::obj-3::obj-91::obj-3" : 				{
					"parameter_longname" : "live.text[30]"
				}
,
				"obj-11::obj-6::obj-98" : 				{
					"parameter_longname" : "live.text[6]"
				}
,
				"obj-2::obj-13::obj-1" : 				{
					"parameter_invisible" : 0,
					"parameter_modmode" : 0,
					"parameter_unitstyle" : 10
				}
,
				"obj-2::obj-2::obj-395::obj-2" : 				{
					"parameter_longname" : "live.text[5]"
				}
,
				"obj-2::obj-2::obj-395::obj-375" : 				{
					"parameter_longname" : "mc.live.gain~[8]"
				}
,
				"obj-2::obj-2::obj-395::obj-441" : 				{
					"parameter_longname" : "mc.live.gain~[7]"
				}
,
				"obj-2::obj-2::obj-395::obj-469" : 				{
					"parameter_longname" : "live.text[24]"
				}
,
				"obj-2::obj-2::obj-395::obj-472" : 				{
					"parameter_longname" : "live.text[7]"
				}
,
				"obj-2::obj-2::obj-395::obj-490" : 				{
					"parameter_longname" : "live.text[53]"
				}

			}
,
			"inherited_shortname" : 1
		}
,
		"parameter_map" : 		{
			"key" : 			{
				"button" : 				{
					"srcname" : "0.modifiers.39.code.key",
					"min" : 0.0,
					"max" : 1.0,
					"flags" : 1
				}

			}

		}
,
		"dependency_cache" : [ 			{
				"name" : "OMax.yin+.maxpat",
				"bootpath" : "~/MaxProjects/Somax2/max/somax/patchers/resources/influencers",
				"patcherrelativepath" : "./patchers/resources/influencers",
				"type" : "JSON",
				"implicit" : 1
			}
, 			{
				"name" : "Yin+.maxpat",
				"bootpath" : "~/MaxProjects/Somax2/max/somax/patchers/resources/influencers",
				"patcherrelativepath" : "./patchers/resources/influencers",
				"type" : "JSON",
				"implicit" : 1
			}
, 			{
				"name" : "abstraction_path.js",
				"bootpath" : "~/MaxProjects/Somax2/max/somax/javascript",
				"patcherrelativepath" : "./javascript",
				"type" : "TEXT",
				"implicit" : 1
			}
, 			{
				"name" : "audio2chroma.maxpat",
				"bootpath" : "~/MaxProjects/Somax2/max/somax/patchers/resources/influencers",
				"patcherrelativepath" : "./patchers/resources/influencers",
				"type" : "JSON",
				"implicit" : 1
			}
, 			{
				"name" : "bc.autoname.js",
				"bootpath" : "~/MaxProjects/Somax2/max/somax/javascript",
				"patcherrelativepath" : "./javascript",
				"type" : "TEXT",
				"implicit" : 1
			}
, 			{
				"name" : "bc.virfun.mxo",
				"type" : "iLaX"
			}
, 			{
				"name" : "bc.yinstats.mxo",
				"type" : "iLaX"
			}
, 			{
				"name" : "bonk~.mxo",
				"type" : "iLaX"
			}
, 			{
				"name" : "computeMemoryPitchClass.js",
				"bootpath" : "~/MaxProjects/Somax2/max/somax/javascript",
				"patcherrelativepath" : "./javascript",
				"type" : "TEXT",
				"implicit" : 1
			}
, 			{
				"name" : "heldnotes.maxpat",
				"bootpath" : "~/MaxProjects/Somax2/max/somax/patchers/resources/misc",
				"patcherrelativepath" : "./patchers/resources/misc",
				"type" : "JSON",
				"implicit" : 1
			}
, 			{
				"name" : "ircamdescriptor~.mxo",
				"type" : "iLaX"
			}
, 			{
				"name" : "kslider.compact.maxpat",
				"bootpath" : "~/MaxProjects/Somax2/max/somax/patchers/resources/misc",
				"patcherrelativepath" : "./patchers/resources/misc",
				"type" : "JSON",
				"implicit" : 1
			}
, 			{
				"name" : "midi2chroma.maxpat",
				"bootpath" : "~/MaxProjects/Somax2/max/somax/patchers/resources/influencers",
				"patcherrelativepath" : "./patchers/resources/influencers",
				"type" : "JSON",
				"implicit" : 1
			}
, 			{
				"name" : "midi2chroma_nofilter.maxpat",
				"bootpath" : "~/MaxProjects/Somax2/max/somax/patchers/resources/influencers",
				"patcherrelativepath" : "./patchers/resources/influencers",
				"type" : "JSON",
				"implicit" : 1
			}
, 			{
				"name" : "midichromaanalysis.maxpat",
				"bootpath" : "~/MaxProjects/Somax2/max/somax/patchers/resources/influencers",
				"patcherrelativepath" : "./patchers/resources/influencers",
				"type" : "JSON",
				"implicit" : 1
			}
, 			{
				"name" : "midipitchanalysis.maxpat",
				"bootpath" : "~/MaxProjects/Somax2/max/somax/patchers/resources/influencers",
				"patcherrelativepath" : "./patchers/resources/influencers",
				"type" : "JSON",
				"implicit" : 1
			}
, 			{
				"name" : "monitor.png",
				"bootpath" : "~/MaxProjects/Somax2/max/somax/media",
				"patcherrelativepath" : "./media",
				"type" : "PNG",
				"implicit" : 1
			}
, 			{
				"name" : "omnimidiflush.maxpat",
				"bootpath" : "~/MaxProjects/Somax2/max/somax/patchers/resources/misc",
				"patcherrelativepath" : "./patchers/resources/misc",
				"type" : "JSON",
				"implicit" : 1
			}
, 			{
				"name" : "peakmeter.maxpat",
				"bootpath" : "~/MaxProjects/Somax2/max/somax/patchers/resources/player",
				"patcherrelativepath" : "./patchers/resources/player",
				"type" : "JSON",
				"implicit" : 1
			}
, 			{
				"name" : "somax.atom.maxpat",
				"bootpath" : "~/MaxProjects/Somax2/max/somax/patchers/resources/player",
				"patcherrelativepath" : "./patchers/resources/player",
				"type" : "JSON",
				"implicit" : 1
			}
, 			{
				"name" : "somax.audiocorpusbuilder.maxpat",
				"bootpath" : "~/MaxProjects/Somax2/max/somax/patchers",
				"patcherrelativepath" : "./patchers",
				"type" : "JSON",
				"implicit" : 1
			}
, 			{
				"name" : "somax.audioinfluencer.app.maxpat",
				"bootpath" : "~/MaxProjects/Somax2/max/somax/patchers",
				"patcherrelativepath" : "./patchers",
				"type" : "JSON",
				"implicit" : 1
			}
, 			{
				"name" : "somax.audioinfluencer.maxpat",
				"bootpath" : "~/MaxProjects/Somax2/max/somax/patchers",
				"patcherrelativepath" : "./patchers",
				"type" : "JSON",
				"implicit" : 1
			}
, 			{
				"name" : "somax.audioinfluencer.ui.maxpat",
				"bootpath" : "~/MaxProjects/Somax2/max/somax/patchers",
				"patcherrelativepath" : "./patchers",
				"type" : "JSON",
				"implicit" : 1
			}
, 			{
				"name" : "somax.audioinput.maxpat",
				"bootpath" : "~/MaxProjects/Somax2/max/somax/patchers",
				"patcherrelativepath" : "./patchers",
				"type" : "JSON",
				"implicit" : 1
			}
, 			{
				"name" : "somax.audiomixer.maxpat",
				"bootpath" : "~/MaxProjects/Somax2/max/somax/patchers",
				"patcherrelativepath" : "./patchers",
				"type" : "JSON",
				"implicit" : 1
			}
, 			{
				"name" : "somax.audiooutput.maxpat",
				"bootpath" : "~/MaxProjects/Somax2/max/somax/patchers",
				"patcherrelativepath" : "./patchers",
				"type" : "JSON",
				"implicit" : 1
			}
, 			{
				"name" : "somax.audiorecord.maxpat",
				"bootpath" : "~/MaxProjects/Somax2/max/somax/patchers",
				"patcherrelativepath" : "./patchers",
				"type" : "JSON",
				"implicit" : 1
			}
, 			{
				"name" : "somax.audiorecord.ui.maxpat",
				"bootpath" : "~/MaxProjects/Somax2/max/somax/patchers",
				"patcherrelativepath" : "./patchers",
				"type" : "JSON",
				"implicit" : 1
			}
, 			{
				"name" : "somax.audiorenderer.maxpat",
				"bootpath" : "~/MaxProjects/Somax2/max/somax/patchers",
				"patcherrelativepath" : "./patchers",
				"type" : "JSON",
				"implicit" : 1
			}
, 			{
				"name" : "somax.await_patcherargs.maxpat",
				"bootpath" : "~/MaxProjects/Somax2/max/somax/patchers",
				"patcherrelativepath" : "./patchers",
				"type" : "JSON",
				"implicit" : 1
			}
, 			{
				"name" : "somax.beatphase.maxpat",
				"bootpath" : "~/MaxProjects/Somax2/max/somax/patchers",
				"patcherrelativepath" : "./patchers",
				"type" : "JSON",
				"implicit" : 1
			}
, 			{
				"name" : "somax.beattracker.maxpat",
				"bootpath" : "~/MaxProjects/Somax2/max/somax/patchers",
				"patcherrelativepath" : "./patchers",
				"type" : "JSON",
				"implicit" : 1
			}
, 			{
				"name" : "somax.corpusbuilder.core.maxpat",
				"bootpath" : "~/MaxProjects/Somax2/max/somax/patchers",
				"patcherrelativepath" : "./patchers",
				"type" : "JSON",
				"implicit" : 1
			}
, 			{
				"name" : "somax.corpuspath.maxpat",
				"bootpath" : "~/MaxProjects/Somax2/max/somax/patchers/resources/misc",
				"patcherrelativepath" : "./patchers/resources/misc",
				"type" : "JSON",
				"implicit" : 1
			}
, 			{
				"name" : "somax.corpusview.maxpat",
				"bootpath" : "~/MaxProjects/Somax2/max/somax/patchers",
				"patcherrelativepath" : "./patchers",
				"type" : "JSON",
				"implicit" : 1
			}
, 			{
				"name" : "somax.filter_midichannels.maxpat",
				"bootpath" : "~/MaxProjects/Somax2/max/somax/patchers",
				"patcherrelativepath" : "./patchers",
				"type" : "JSON",
				"implicit" : 1
			}
, 			{
				"name" : "somax.interpreter.maxpat",
				"bootpath" : "~/MaxProjects/Somax2/max/somax/patchers/resources/misc",
				"patcherrelativepath" : "./patchers/resources/misc",
				"type" : "JSON",
				"implicit" : 1
			}
, 			{
				"name" : "somax.midicorpusbuilder.maxpat",
				"bootpath" : "~/MaxProjects/Somax2/max/somax/patchers",
				"patcherrelativepath" : "./patchers",
				"type" : "JSON",
				"implicit" : 1
			}
, 			{
				"name" : "somax.midiinfluencer.app.maxpat",
				"bootpath" : "~/MaxProjects/Somax2/max/somax/patchers",
				"patcherrelativepath" : "./patchers",
				"type" : "JSON",
				"implicit" : 1
			}
, 			{
				"name" : "somax.midiinfluencer.maxpat",
				"bootpath" : "~/MaxProjects/Somax2/max/somax/patchers",
				"patcherrelativepath" : "./patchers",
				"type" : "JSON",
				"implicit" : 1
			}
, 			{
				"name" : "somax.midiinfluencer.ui.maxpat",
				"bootpath" : "~/MaxProjects/Somax2/max/somax/patchers",
				"patcherrelativepath" : "./patchers",
				"type" : "JSON",
				"implicit" : 1
			}
, 			{
				"name" : "somax.midiinput.maxpat",
				"bootpath" : "~/MaxProjects/Somax2/max/somax/patchers",
				"patcherrelativepath" : "./patchers",
				"type" : "JSON",
				"implicit" : 1
			}
, 			{
				"name" : "somax.midimixer.maxpat",
				"bootpath" : "~/MaxProjects/Somax2/max/somax/patchers",
				"patcherrelativepath" : "./patchers",
				"type" : "JSON",
				"implicit" : 1
			}
, 			{
				"name" : "somax.midioutput.maxpat",
				"bootpath" : "~/MaxProjects/Somax2/max/somax/patchers",
				"patcherrelativepath" : "./patchers",
				"type" : "JSON",
				"implicit" : 1
			}
, 			{
				"name" : "somax.midirenderer.maxpat",
				"bootpath" : "~/MaxProjects/Somax2/max/somax/patchers",
				"patcherrelativepath" : "./patchers",
				"type" : "JSON",
				"implicit" : 1
			}
, 			{
				"name" : "somax.multistatebutton.maxpat",
				"bootpath" : "~/MaxProjects/Somax2/max/somax/patchers",
				"patcherrelativepath" : "./patchers",
				"type" : "JSON",
				"implicit" : 1
			}
, 			{
				"name" : "somax.pan2.maxpat",
				"bootpath" : "~/MaxProjects/Somax2/max/somax/patchers/resources/misc",
				"patcherrelativepath" : "./patchers/resources/misc",
				"type" : "JSON",
				"implicit" : 1
			}
, 			{
				"name" : "somax.path.maxpat",
				"bootpath" : "~/MaxProjects/Somax2/max/somax/patchers",
				"patcherrelativepath" : "./patchers",
				"type" : "JSON",
				"implicit" : 1
			}
, 			{
				"name" : "somax.player.app.maxpat",
				"bootpath" : "~/MaxProjects/Somax2/max/somax/patchers",
				"patcherrelativepath" : "./patchers",
				"type" : "JSON",
				"implicit" : 1
			}
, 			{
				"name" : "somax.player.core.maxpat",
				"bootpath" : "~/MaxProjects/Somax2/max/somax/patchers",
				"patcherrelativepath" : "./patchers",
				"type" : "JSON",
				"implicit" : 1
			}
, 			{
				"name" : "somax.player.maxpat",
				"bootpath" : "~/MaxProjects/Somax2/max/somax/patchers",
				"patcherrelativepath" : "./patchers",
				"type" : "JSON",
				"implicit" : 1
			}
, 			{
				"name" : "somax.player.routerblock.maxpat",
				"bootpath" : "~/MaxProjects/Somax2/max/somax/patchers/resources/player",
				"patcherrelativepath" : "./patchers/resources/player",
				"type" : "JSON",
				"implicit" : 1
			}
, 			{
				"name" : "somax.player.routing.maxpat",
				"bootpath" : "~/MaxProjects/Somax2/max/somax/patchers/resources/player",
				"patcherrelativepath" : "./patchers/resources/player",
				"type" : "JSON",
				"implicit" : 1
			}
, 			{
				"name" : "somax.player.ui.maxpat",
				"bootpath" : "~/MaxProjects/Somax2/max/somax/patchers",
				"patcherrelativepath" : "./patchers",
				"type" : "JSON",
				"implicit" : 1
			}
, 			{
				"name" : "somax.print.maxpat",
				"bootpath" : "~/MaxProjects/Somax2/max/somax/patchers",
				"patcherrelativepath" : "./patchers",
				"type" : "JSON",
				"implicit" : 1
			}
, 			{
				"name" : "somax.receiveblock.maxpat",
				"bootpath" : "~/MaxProjects/Somax2/max/somax/patchers/resources/misc",
				"patcherrelativepath" : "./patchers/resources/misc",
				"type" : "JSON",
				"implicit" : 1
			}
, 			{
				"name" : "somax.regions.maxpat",
				"bootpath" : "~/MaxProjects/Somax2/max/somax/patchers",
				"patcherrelativepath" : "./patchers",
				"type" : "JSON",
				"implicit" : 1
			}
, 			{
				"name" : "somax.relativepath.maxpat",
				"bootpath" : "~/MaxProjects/Somax2/max/somax/patchers/resources/misc",
				"patcherrelativepath" : "./patchers/resources/misc",
				"type" : "JSON",
				"implicit" : 1
			}
, 			{
				"name" : "somax.routesignal.maxpat",
				"bootpath" : "~/MaxProjects/Somax2/max/somax/patchers",
				"patcherrelativepath" : "./patchers",
				"type" : "JSON",
				"implicit" : 1
			}
, 			{
				"name" : "somax.server.app.maxpat",
				"bootpath" : "~/MaxProjects/Somax2/max/somax/patchers",
				"patcherrelativepath" : "./patchers",
				"type" : "JSON",
				"implicit" : 1
			}
, 			{
				"name" : "somax.server.maxpat",
				"bootpath" : "~/MaxProjects/Somax2/max/somax/patchers",
				"patcherrelativepath" : "./patchers",
				"type" : "JSON",
				"implicit" : 1
			}
, 			{
				"name" : "somax.serverstatus.maxpat",
				"bootpath" : "~/MaxProjects/Somax2/max/somax/patchers/resources/server",
				"patcherrelativepath" : "./patchers/resources/server",
				"type" : "JSON",
				"implicit" : 1
			}
, 			{
				"name" : "somax.serverstatus.ui.maxpat",
				"bootpath" : "~/MaxProjects/Somax2/max/somax/patchers/resources/server",
				"patcherrelativepath" : "./patchers/resources/server",
				"type" : "JSON",
				"implicit" : 1
			}
, 			{
				"name" : "somax.source.maxpat",
				"bootpath" : "~/MaxProjects/Somax2/max/somax/patchers",
				"patcherrelativepath" : "./patchers",
				"type" : "JSON",
				"implicit" : 1
			}
, 			{
				"name" : "somax.uniquename.maxpat",
				"bootpath" : "~/MaxProjects/Somax2/max/somax/patchers/resources/misc",
				"patcherrelativepath" : "./patchers/resources/misc",
				"type" : "JSON",
				"implicit" : 1
			}
, 			{
				"name" : "somax.uniquenumber.maxpat",
				"bootpath" : "~/MaxProjects/Somax2/max/somax/patchers/resources/misc",
				"patcherrelativepath" : "./patchers/resources/misc",
				"type" : "JSON",
				"implicit" : 1
			}
, 			{
				"name" : "somax.winresize.maxpat",
				"bootpath" : "~/MaxProjects/Somax2/max/somax/patchers/resources/misc",
				"patcherrelativepath" : "./patchers/resources/misc",
				"type" : "JSON",
				"implicit" : 1
			}
, 			{
				"name" : "sr.maxpat",
				"bootpath" : "~/MaxProjects/Somax2/max/somax/patchers/resources/misc",
				"patcherrelativepath" : "./patchers/resources/misc",
				"type" : "JSON",
				"implicit" : 1
			}
, 			{
				"name" : "wfknob.png",
				"bootpath" : "C74:/media/max/picts",
				"type" : "PNG",
				"implicit" : 1
			}
, 			{
				"name" : "wfmodes.png",
				"bootpath" : "C74:/media/max/picts",
				"type" : "PNG",
				"implicit" : 1
			}
, 			{
				"name" : "yin~.mxo",
				"type" : "iLaX"
			}
 ],
		"autosave" : 0,
		"boxgroups" : [ 			{
				"boxes" : [ "obj-101", "obj-98", "obj-99", "obj-102" ]
			}
 ],
		"styles" : [ 			{
				"name" : "dUG Yello 01-1",
				"button" : 				{
					"bgcolor" : [ 1.0, 0.941176, 0.803922, 1.0 ]
				}
,
				"default" : 				{
					"bgcolor" : [ 1.0, 0.941176, 0.803922, 1.0 ],
					"bgfillcolor" : 					{
						"angle" : 270.0,
						"autogradient" : 0,
						"color" : [ 0.290196, 0.309804, 0.301961, 1.0 ],
						"color1" : [ 0.94902, 0.992157, 1.0, 1.0 ],
						"color2" : [ 0.862745, 0.870588, 0.878431, 1.0 ],
						"proportion" : 0.39,
						"type" : "gradient"
					}
,
					"fontface" : [ 1 ],
					"fontsize" : [ 10.0 ],
					"textcolor_inverse" : [ 0.0, 0.0, 0.0, 1.0 ]
				}
,
				"newobj" : 				{
					"bgcolor" : [ 1.0, 0.941176, 0.803922, 1.0 ],
					"fontface" : [ 1 ],
					"fontsize" : [ 10.0 ],
					"textcolor_inverse" : [ 0.0, 0.0, 0.0, 1.0 ]
				}
,
				"toggle" : 				{
					"bgcolor" : [ 1.0, 0.941176, 0.803922, 1.0 ]
				}
,
				"message" : 				{
					"bgfillcolor" : 					{
						"angle" : 270.0,
						"autogradient" : 0,
						"color" : [ 0.290196, 0.309804, 0.301961, 1.0 ],
						"color1" : [ 0.94902, 0.992157, 1.0, 1.0 ],
						"color2" : [ 0.862745, 0.870588, 0.878431, 1.0 ],
						"proportion" : 0.39,
						"type" : "gradient"
					}
,
					"fontface" : [ 1 ],
					"fontsize" : [ 10.0 ],
					"textcolor_inverse" : [ 0.0, 0.0, 0.0, 1.0 ]
				}
,
				"parentstyle" : "",
				"multi" : 0
			}
 ]
	}

}
