{
	"patcher" : 	{
		"fileversion" : 1,
		"appversion" : 		{
			"major" : 8,
			"minor" : 3,
			"revision" : 2,
			"architecture" : "x64",
			"modernui" : 1
		}
,
		"classnamespace" : "box",
		"rect" : [ 59.0, 106.0, 640.0, 480.0 ],
		"bglocked" : 0,
		"openinpresentation" : 0,
		"default_fontsize" : 12.0,
		"default_fontface" : 0,
		"default_fontname" : "Arial",
		"gridonopen" : 1,
		"gridsize" : [ 15.0, 15.0 ],
		"gridsnaponopen" : 1,
		"objectsnaponopen" : 1,
		"statusbarvisible" : 2,
		"toolbarvisible" : 1,
		"lefttoolbarpinned" : 0,
		"toptoolbarpinned" : 0,
		"righttoolbarpinned" : 0,
		"bottomtoolbarpinned" : 0,
		"toolbars_unpinned_last_save" : 0,
		"tallnewobj" : 0,
		"boxanimatetime" : 200,
		"enablehscroll" : 1,
		"enablevscroll" : 1,
		"devicewidth" : 0.0,
		"description" : "",
		"digest" : "",
		"tags" : "",
		"style" : "",
		"subpatcher_template" : "",
		"assistshowspatchername" : 0,
		"boxes" : [ 			{
				"box" : 				{
					"id" : "obj-427",
					"maxclass" : "newobj",
					"numinlets" : 2,
					"numoutlets" : 1,
					"outlettype" : [ "" ],
					"patching_rect" : [ 60.5, 186.575011000000814, 49.0, 22.0 ],
					"text" : "join 2"
				}

			}
, 			{
				"box" : 				{
					"id" : "obj-443",
					"maxclass" : "message",
					"numinlets" : 2,
					"numoutlets" : 1,
					"outlettype" : [ "" ],
					"patching_rect" : [ 61.0, 128.473903946265182, 29.5, 22.0 ],
					"text" : "$3"
				}

			}
, 			{
				"box" : 				{
					"id" : "obj-446",
					"maxclass" : "newobj",
					"numinlets" : 1,
					"numoutlets" : 2,
					"outlettype" : [ "", "" ],
					"patching_rect" : [ 61.0, 100.0, 49.5, 22.0 ],
					"text" : "t l l"
				}

			}
, 			{
				"box" : 				{
					"id" : "obj-452",
					"maxclass" : "newobj",
					"numinlets" : 1,
					"numoutlets" : 16,
					"outlettype" : [ "", "", "", "", "", "", "", "", "", "", "", "", "", "", "", "" ],
					"patching_rect" : [ 60.5, 217.0, 176.5, 22.0 ],
					"text" : "spray 16 1 1"
				}

			}
, 			{
				"box" : 				{
					"id" : "obj-454",
					"maxclass" : "newobj",
					"numinlets" : 17,
					"numoutlets" : 2,
					"outlettype" : [ "", "" ],
					"patching_rect" : [ 50.0, 283.546424904761807, 187.0, 22.0 ],
					"text" : "router 16 1"
				}

			}
, 			{
				"box" : 				{
					"comment" : "matrixctrl",
					"cool" : 1,
					"id" : "obj-1",
					"index" : 2,
					"maxclass" : "inlet",
					"numinlets" : 0,
					"numoutlets" : 1,
					"outlettype" : [ "" ],
					"patching_rect" : [ 279.0, 40.000042948420514, 30.0, 30.0 ]
				}

			}
, 			{
				"box" : 				{
					"comment" : "(list) note_number velocity channel",
					"id" : "obj-2",
					"index" : 1,
					"maxclass" : "inlet",
					"numinlets" : 0,
					"numoutlets" : 1,
					"outlettype" : [ "" ],
					"patching_rect" : [ 61.0, 40.000042948420514, 30.0, 30.0 ]
				}

			}
, 			{
				"box" : 				{
					"comment" : "(list) note_number velocity channel",
					"id" : "obj-3",
					"index" : 1,
					"maxclass" : "outlet",
					"numinlets" : 1,
					"numoutlets" : 0,
					"patching_rect" : [ 50.0, 365.546429948420382, 30.0, 30.0 ]
				}

			}
 ],
		"lines" : [ 			{
				"patchline" : 				{
					"destination" : [ "obj-454", 0 ],
					"source" : [ "obj-1", 0 ]
				}

			}
, 			{
				"patchline" : 				{
					"destination" : [ "obj-446", 0 ],
					"source" : [ "obj-2", 0 ]
				}

			}
, 			{
				"patchline" : 				{
					"destination" : [ "obj-452", 0 ],
					"source" : [ "obj-427", 0 ]
				}

			}
, 			{
				"patchline" : 				{
					"destination" : [ "obj-427", 0 ],
					"source" : [ "obj-443", 0 ]
				}

			}
, 			{
				"patchline" : 				{
					"destination" : [ "obj-427", 1 ],
					"source" : [ "obj-446", 1 ]
				}

			}
, 			{
				"patchline" : 				{
					"destination" : [ "obj-443", 0 ],
					"source" : [ "obj-446", 0 ]
				}

			}
, 			{
				"patchline" : 				{
					"destination" : [ "obj-454", 16 ],
					"source" : [ "obj-452", 15 ]
				}

			}
, 			{
				"patchline" : 				{
					"destination" : [ "obj-454", 15 ],
					"source" : [ "obj-452", 14 ]
				}

			}
, 			{
				"patchline" : 				{
					"destination" : [ "obj-454", 14 ],
					"source" : [ "obj-452", 13 ]
				}

			}
, 			{
				"patchline" : 				{
					"destination" : [ "obj-454", 13 ],
					"source" : [ "obj-452", 12 ]
				}

			}
, 			{
				"patchline" : 				{
					"destination" : [ "obj-454", 12 ],
					"source" : [ "obj-452", 11 ]
				}

			}
, 			{
				"patchline" : 				{
					"destination" : [ "obj-454", 11 ],
					"source" : [ "obj-452", 10 ]
				}

			}
, 			{
				"patchline" : 				{
					"destination" : [ "obj-454", 10 ],
					"source" : [ "obj-452", 9 ]
				}

			}
, 			{
				"patchline" : 				{
					"destination" : [ "obj-454", 9 ],
					"source" : [ "obj-452", 8 ]
				}

			}
, 			{
				"patchline" : 				{
					"destination" : [ "obj-454", 8 ],
					"source" : [ "obj-452", 7 ]
				}

			}
, 			{
				"patchline" : 				{
					"destination" : [ "obj-454", 7 ],
					"source" : [ "obj-452", 6 ]
				}

			}
, 			{
				"patchline" : 				{
					"destination" : [ "obj-454", 6 ],
					"source" : [ "obj-452", 5 ]
				}

			}
, 			{
				"patchline" : 				{
					"destination" : [ "obj-454", 5 ],
					"source" : [ "obj-452", 4 ]
				}

			}
, 			{
				"patchline" : 				{
					"destination" : [ "obj-454", 4 ],
					"source" : [ "obj-452", 3 ]
				}

			}
, 			{
				"patchline" : 				{
					"destination" : [ "obj-454", 3 ],
					"source" : [ "obj-452", 2 ]
				}

			}
, 			{
				"patchline" : 				{
					"destination" : [ "obj-454", 2 ],
					"source" : [ "obj-452", 1 ]
				}

			}
, 			{
				"patchline" : 				{
					"destination" : [ "obj-454", 1 ],
					"source" : [ "obj-452", 0 ]
				}

			}
, 			{
				"patchline" : 				{
					"destination" : [ "obj-3", 0 ],
					"source" : [ "obj-454", 0 ]
				}

			}
 ]
	}

}
