{
	"patcher" : 	{
		"fileversion" : 1,
		"appversion" : 		{
			"major" : 8,
			"minor" : 3,
			"revision" : 2,
			"architecture" : "x64",
			"modernui" : 1
		}
,
		"classnamespace" : "box",
		"rect" : [ 59.0, 106.0, 1524.0, 1233.0 ],
		"bglocked" : 0,
		"openinpresentation" : 0,
		"default_fontsize" : 12.0,
		"default_fontface" : 0,
		"default_fontname" : "Arial",
		"gridonopen" : 1,
		"gridsize" : [ 15.0, 15.0 ],
		"gridsnaponopen" : 1,
		"objectsnaponopen" : 1,
		"statusbarvisible" : 2,
		"toolbarvisible" : 1,
		"lefttoolbarpinned" : 0,
		"toptoolbarpinned" : 0,
		"righttoolbarpinned" : 0,
		"bottomtoolbarpinned" : 0,
		"toolbars_unpinned_last_save" : 0,
		"tallnewobj" : 0,
		"boxanimatetime" : 200,
		"enablehscroll" : 1,
		"enablevscroll" : 1,
		"devicewidth" : 0.0,
		"description" : "",
		"digest" : "",
		"tags" : "",
		"style" : "",
		"subpatcher_template" : "",
		"assistshowspatchername" : 0,
		"boxes" : [ 			{
				"box" : 				{
					"id" : "obj-27",
					"maxclass" : "message",
					"numinlets" : 2,
					"numoutlets" : 1,
					"outlettype" : [ "" ],
					"patching_rect" : [ 573.0, 361.0, 127.0, 22.0 ],
					"text" : "doesn't understand $1"
				}

			}
, 			{
				"box" : 				{
					"color" : [ 0.9373517036, 0.767044425, 0.3548220396, 1.0 ],
					"id" : "obj-20",
					"maxclass" : "newobj",
					"numinlets" : 1,
					"numoutlets" : 0,
					"patching_rect" : [ 573.0, 394.364600684284028, 191.0, 22.0 ],
					"text" : "print somax.midirenderer @level 2"
				}

			}
, 			{
				"box" : 				{
					"comment" : "(any) dumpout",
					"id" : "obj-18",
					"index" : 3,
					"maxclass" : "outlet",
					"numinlets" : 1,
					"numoutlets" : 0,
					"patching_rect" : [ 614.75, 1548.0, 30.0, 30.0 ]
				}

			}
, 			{
				"box" : 				{
					"comment" : "(list) parameters",
					"id" : "obj-17",
					"index" : 2,
					"maxclass" : "outlet",
					"numinlets" : 1,
					"numoutlets" : 0,
					"patching_rect" : [ 419.5, 1548.0, 30.0, 30.0 ]
				}

			}
, 			{
				"box" : 				{
					"comment" : "(list) note_number velocity channel",
					"id" : "obj-16",
					"index" : 1,
					"maxclass" : "outlet",
					"numinlets" : 1,
					"numoutlets" : 0,
					"patching_rect" : [ 213.5, 1548.0, 30.0, 30.0 ]
				}

			}
, 			{
				"box" : 				{
					"comment" : "(any) messages to midirenderer",
					"id" : "obj-15",
					"index" : 1,
					"maxclass" : "inlet",
					"numinlets" : 0,
					"numoutlets" : 1,
					"outlettype" : [ "" ],
					"patching_rect" : [ 227.5, 175.0, 30.0, 30.0 ]
				}

			}
, 			{
				"box" : 				{
					"id" : "obj-14",
					"maxclass" : "newobj",
					"numinlets" : 3,
					"numoutlets" : 3,
					"outlettype" : [ "", "", "" ],
					"patching_rect" : [ 227.5, 496.0, 97.0, 22.0 ],
					"text" : "route event flush"
				}

			}
, 			{
				"box" : 				{
					"color" : [ 0.3574509025, 0.5837691426, 0.6141206622, 1.0 ],
					"id" : "obj-5",
					"maxclass" : "newobj",
					"numinlets" : 1,
					"numoutlets" : 1,
					"outlettype" : [ "" ],
					"patching_rect" : [ 366.833333333333371, 435.0, 144.0, 22.0 ],
					"text" : "somax.winresize 250 260"
				}

			}
, 			{
				"box" : 				{
					"color" : [ 1.0, 0.0, 0.0, 1.0 ],
					"fontface" : 0,
					"fontname" : "Arial",
					"fontsize" : 12.0,
					"id" : "obj-221",
					"linecount" : 3,
					"maxclass" : "newobj",
					"numinlets" : 1,
					"numoutlets" : 1,
					"outlettype" : [ "" ],
					"patching_rect" : [ 827.75, 286.0, 214.0, 49.0 ],
					"saved_object_attributes" : 					{
						"client_rect" : [ 1880, 207, 2595, 536 ],
						"parameter_enable" : 0,
						"parameter_mappable" : 0,
						"storage_rect" : [ 794, -709, 1244, -510 ]
					}
,
					"text" : "pattrstorage pattrstorage @savemode 0 @outputmode 1 @autorestore 0 @greedy 0 @changemode 1",
					"varname" : "pattrstorage"
				}

			}
, 			{
				"box" : 				{
					"color" : [ 0.820717811584473, 0.0, 0.763403832912445, 1.0 ],
					"id" : "obj-63",
					"linecount" : 2,
					"maxclass" : "newobj",
					"numinlets" : 1,
					"numoutlets" : 4,
					"outlettype" : [ "", "", "", "" ],
					"patching_rect" : [ 950.75, 348.0, 91.0, 35.0 ],
					"restore" : 					{
						"channels" : [ 0, 0, 1.0, 1, 0, 1.0, 2, 0, 1.0, 3, 0, 1.0, 4, 0, 1.0, 5, 0, 1.0, 6, 0, 1.0, 7, 0, 1.0, 8, 0, 1.0, 9, 0, 1.0, 10, 0, 1.0, 11, 0, 1.0, 12, 0, 1.0, 13, 0, 1.0, 14, 0, 1.0, 15, 0, 1.0 ],
						"live.text" : [ 0.0 ],
						"velscale" : [ 61, 101 ]
					}
,
					"text" : "autopattr @autorestore 0",
					"varname" : "u839003605"
				}

			}
, 			{
				"box" : 				{
					"fontface" : 1,
					"fontsize" : 8.0,
					"id" : "obj-10",
					"maxclass" : "comment",
					"numinlets" : 1,
					"numoutlets" : 0,
					"patching_rect" : [ 565.499999999999773, 1303.400836051579518, 23.0, 15.0 ],
					"presentation" : 1,
					"presentation_rect" : [ 27.544430105019842, 195.354166269302368, 18.0, 15.0 ],
					"text" : "1",
					"textcolor" : [ 0.933333333333333, 0.933333333333333, 0.933333333333333, 1.0 ],
					"textjustification" : 1
				}

			}
, 			{
				"box" : 				{
					"id" : "obj-9",
					"linecolor" : [ 0.933333333333333, 0.933333333333333, 0.933333333333333, 1.0 ],
					"maxclass" : "live.line",
					"numinlets" : 1,
					"numoutlets" : 0,
					"patching_rect" : [ 1390.375000000000227, 349.364600684284028, 56.421661409042827, 12.0 ],
					"presentation" : 1,
					"presentation_rect" : [ 38.623888543032763, 112.375, 5.0, 18.0 ],
					"saved_attribute_attributes" : 					{
						"linecolor" : 						{
							"expression" : ""
						}

					}

				}

			}
, 			{
				"box" : 				{
					"id" : "obj-145",
					"linecolor" : [ 0.933333333333333, 0.933333333333333, 0.933333333333333, 1.0 ],
					"maxclass" : "live.line",
					"numinlets" : 1,
					"numoutlets" : 0,
					"patching_rect" : [ 1375.375000000000227, 334.364600684284028, 56.421661409042827, 12.0 ],
					"presentation" : 1,
					"presentation_rect" : [ 170.623888543032763, 112.375, 5.0, 18.0 ],
					"saved_attribute_attributes" : 					{
						"linecolor" : 						{
							"expression" : ""
						}

					}

				}

			}
, 			{
				"box" : 				{
					"fontface" : 1,
					"fontsize" : 10.0,
					"id" : "obj-8",
					"maxclass" : "comment",
					"numinlets" : 1,
					"numoutlets" : 0,
					"patching_rect" : [ 1386.5, 294.364600684284028, 139.0, 18.0 ],
					"presentation" : 1,
					"presentation_rect" : [ 160.623888543032763, 128.875, 25.0, 18.0 ],
					"text" : "127",
					"textcolor" : [ 0.898039215686275, 0.898039215686275, 0.898039215686275, 1.0 ],
					"textjustification" : 1
				}

			}
, 			{
				"box" : 				{
					"fontface" : 1,
					"fontsize" : 10.0,
					"id" : "obj-6",
					"maxclass" : "comment",
					"numinlets" : 1,
					"numoutlets" : 0,
					"patching_rect" : [ 1391.3344676506822, 314.364600684284028, 139.0, 18.0 ],
					"presentation" : 1,
					"presentation_rect" : [ 29.544430105019842, 128.875, 19.0, 18.0 ],
					"text" : "0",
					"textcolor" : [ 0.898039215686275, 0.898039215686275, 0.898039215686275, 1.0 ],
					"textjustification" : 1
				}

			}
, 			{
				"box" : 				{
					"id" : "obj-98",
					"maxclass" : "live.text",
					"mode" : 0,
					"numinlets" : 1,
					"numoutlets" : 2,
					"outlettype" : [ "", "" ],
					"parameter_enable" : 1,
					"parameter_mappable" : 0,
					"patching_rect" : [ 903.700000000000045, 663.864600684284028, 44.0, 15.0 ],
					"presentation" : 1,
					"presentation_rect" : [ 187.623888543032763, 113.875, 44.0, 15.0 ],
					"saved_attribute_attributes" : 					{
						"valueof" : 						{
							"parameter_enum" : [ "val1", "val2" ],
							"parameter_longname" : "live.text[1]",
							"parameter_mmax" : 1,
							"parameter_shortname" : "live.text[26]",
							"parameter_type" : 2
						}

					}
,
					"text" : "reset",
					"varname" : "live.text"
				}

			}
, 			{
				"box" : 				{
					"fontface" : 1,
					"fontsize" : 10.0,
					"id" : "obj-7",
					"linecount" : 2,
					"maxclass" : "comment",
					"numinlets" : 1,
					"numoutlets" : 0,
					"patching_rect" : [ 1416.738342536068103, 343.3333340883255, 100.0, 29.0 ],
					"presentation" : 1,
					"presentation_rect" : [ 26.571675879335658, 75.423053705619623, 215.688280717488396, 18.0 ],
					"text" : "MIDI Note Rendering",
					"textcolor" : [ 0.933333333333333, 0.933333333333333, 0.933333333333333, 1.0 ],
					"textjustification" : 1
				}

			}
, 			{
				"box" : 				{
					"fontface" : 1,
					"fontsize" : 10.0,
					"id" : "obj-932",
					"maxclass" : "comment",
					"numinlets" : 1,
					"numoutlets" : 0,
					"patching_rect" : [ 1386.5, 286.0, 139.0, 18.0 ],
					"presentation" : 1,
					"presentation_rect" : [ 25.544430105019842, 151.875, 216.688280717488396, 18.0 ],
					"text" : "Output Velocity Scaling",
					"textcolor" : [ 0.898039215686275, 0.898039215686275, 0.898039215686275, 1.0 ],
					"textjustification" : 1
				}

			}
, 			{
				"box" : 				{
					"color" : [ 0.820717811584473, 0.0, 0.763403832912445, 1.0 ],
					"id" : "obj-11",
					"maxclass" : "newobj",
					"numinlets" : 1,
					"numoutlets" : 2,
					"outlettype" : [ "", "" ],
					"patching_rect" : [ 366.833333333333371, 407.364600684284028, 67.0, 22.0 ],
					"save" : [ "#N", "thispatcher", ";", "#Q", "end", ";" ],
					"text" : "thispatcher"
				}

			}
, 			{
				"box" : 				{
					"id" : "obj-12",
					"maxclass" : "newobj",
					"numinlets" : 6,
					"numoutlets" : 6,
					"outlettype" : [ "", "", "", "", "", "" ],
					"patching_rect" : [ 227.5, 334.364600684284028, 291.0, 22.0 ],
					"text" : "route midi thispatcher openwindow velscale channels"
				}

			}
, 			{
				"box" : 				{
					"bgcolor" : [ 0.2, 0.2, 0.2, 1.0 ],
					"bordercolor" : [ 0.501960784313725, 0.501960784313725, 0.501960784313725, 0.0 ],
					"fgcolor" : [ 1.0, 0.709803921568627, 0.196078431372549, 1.0 ],
					"id" : "obj-501",
					"maxclass" : "rslider",
					"numinlets" : 2,
					"numoutlets" : 2,
					"outlettype" : [ "", "" ],
					"parameter_enable" : 1,
					"patching_rect" : [ 903.700000000000045, 719.364600684284028, 23.0, 42.0 ],
					"presentation" : 1,
					"presentation_rect" : [ 37.623888543032763, 112.375, 135.0, 18.0 ],
					"saved_attribute_attributes" : 					{
						"valueof" : 						{
							"parameter_invisible" : 1,
							"parameter_longname" : "experimental_scaling[3]",
							"parameter_shortname" : "experimental_scaling",
							"parameter_type" : 3
						}

					}
,
					"varname" : "velscale"
				}

			}
, 			{
				"box" : 				{
					"id" : "obj-918",
					"maxclass" : "newobj",
					"numinlets" : 2,
					"numoutlets" : 2,
					"outlettype" : [ "", "" ],
					"patching_rect" : [ 788.677848101265909, 1101.364600684284142, 71.0, 22.0 ],
					"text" : "routepass 0"
				}

			}
, 			{
				"box" : 				{
					"color" : [ 0.820717811584473, 0.0, 0.763403832912445, 1.0 ],
					"id" : "obj-905",
					"maxclass" : "newobj",
					"numinlets" : 1,
					"numoutlets" : 1,
					"outlettype" : [ "" ],
					"patching_rect" : [ 903.700000000000045, 688.364600684284028, 113.0, 22.0 ],
					"text" : "loadmess set 0 127"
				}

			}
, 			{
				"box" : 				{
					"id" : "obj-335",
					"maxclass" : "newobj",
					"numinlets" : 6,
					"numoutlets" : 1,
					"outlettype" : [ "" ],
					"patching_rect" : [ 840.5, 1136.364600684284142, 103.0, 22.0 ],
					"text" : "scale 0 127 0 127"
				}

			}
, 			{
				"box" : 				{
					"id" : "obj-973",
					"maxclass" : "newobj",
					"numinlets" : 1,
					"numoutlets" : 2,
					"outlettype" : [ "", "flush" ],
					"patching_rect" : [ 431.5, 1314.864600684284142, 47.0, 22.0 ],
					"text" : "t l flush"
				}

			}
, 			{
				"box" : 				{
					"id" : "obj-937",
					"maxclass" : "newobj",
					"numinlets" : 1,
					"numoutlets" : 2,
					"outlettype" : [ "", "" ],
					"patching_rect" : [ 213.5, 1395.364600684284142, 29.5, 22.0 ],
					"text" : "t l l"
				}

			}
, 			{
				"box" : 				{
					"color" : [ 0.3568627451, 0.5843137255, 0.6156862745, 1.0 ],
					"id" : "obj-674",
					"maxclass" : "newobj",
					"numinlets" : 1,
					"numoutlets" : 3,
					"outlettype" : [ "", "", "" ],
					"patching_rect" : [ 270.5, 1483.364600684284142, 61.0, 22.0 ],
					"text" : "heldnotes"
				}

			}
, 			{
				"box" : 				{
					"id" : "obj-924",
					"maxclass" : "newobj",
					"numinlets" : 1,
					"numoutlets" : 1,
					"outlettype" : [ "" ],
					"patching_rect" : [ 310.5, 1022.364600684284142, 147.0, 22.0 ],
					"text" : "prepend influence_noteoff"
				}

			}
, 			{
				"box" : 				{
					"id" : "obj-923",
					"maxclass" : "newobj",
					"numinlets" : 2,
					"numoutlets" : 1,
					"outlettype" : [ "" ],
					"patching_rect" : [ 310.5, 792.864600684284028, 32.0, 22.0 ],
					"text" : "gate"
				}

			}
, 			{
				"box" : 				{
					"id" : "obj-922",
					"maxclass" : "newobj",
					"numinlets" : 1,
					"numoutlets" : 3,
					"outlettype" : [ "", "", "" ],
					"patching_rect" : [ 224.5, 710.864600684284028, 165.0, 22.0 ],
					"text" : "t l l l"
				}

			}
, 			{
				"box" : 				{
					"id" : "obj-921",
					"maxclass" : "newobj",
					"numinlets" : 2,
					"numoutlets" : 1,
					"outlettype" : [ "" ],
					"patching_rect" : [ 370.5, 747.864600684284028, 79.0, 22.0 ],
					"text" : "expr $i2 == 0"
				}

			}
, 			{
				"box" : 				{
					"id" : "obj-129",
					"maxclass" : "newobj",
					"numinlets" : 2,
					"numoutlets" : 1,
					"outlettype" : [ "int" ],
					"patching_rect" : [ 431.5, 1224.867369305630746, 29.5, 22.0 ],
					"text" : "- 1"
				}

			}
, 			{
				"box" : 				{
					"id" : "obj-413",
					"maxclass" : "message",
					"numinlets" : 2,
					"numoutlets" : 1,
					"outlettype" : [ "" ],
					"patching_rect" : [ 431.5, 1255.134102678604904, 42.0, 22.0 ],
					"text" : "$1 0 1"
				}

			}
, 			{
				"box" : 				{
					"id" : "obj-415",
					"maxclass" : "newobj",
					"numinlets" : 1,
					"numoutlets" : 1,
					"outlettype" : [ "" ],
					"patching_rect" : [ 431.5, 1194.600635932656132, 25.0, 22.0 ],
					"text" : "iter"
				}

			}
, 			{
				"box" : 				{
					"id" : "obj-416",
					"maxclass" : "message",
					"numinlets" : 2,
					"numoutlets" : 1,
					"outlettype" : [ "" ],
					"patching_rect" : [ 505.5, 1224.867369305630746, 42.0, 22.0 ],
					"text" : "$1 0 0"
				}

			}
, 			{
				"box" : 				{
					"id" : "obj-417",
					"maxclass" : "newobj",
					"numinlets" : 2,
					"numoutlets" : 3,
					"outlettype" : [ "bang", "bang", "int" ],
					"patching_rect" : [ 463.5, 1194.600635932656132, 61.0, 22.0 ],
					"text" : "uzi 16 0 0"
				}

			}
, 			{
				"box" : 				{
					"id" : "obj-419",
					"maxclass" : "newobj",
					"numinlets" : 1,
					"numoutlets" : 2,
					"outlettype" : [ "", "bang" ],
					"patching_rect" : [ 431.5, 1164.333902559681974, 51.0, 22.0 ],
					"text" : "t l b"
				}

			}
, 			{
				"box" : 				{
					"id" : "obj-427",
					"maxclass" : "newobj",
					"numinlets" : 2,
					"numoutlets" : 1,
					"outlettype" : [ "" ],
					"patching_rect" : [ 224.0, 1254.975847051580331, 49.0, 22.0 ],
					"text" : "join 2"
				}

			}
, 			{
				"box" : 				{
					"id" : "obj-440",
					"maxclass" : "newobj",
					"numinlets" : 2,
					"numoutlets" : 1,
					"outlettype" : [ "int" ],
					"patching_rect" : [ 224.5, 1225.864600684284142, 29.5, 22.0 ],
					"text" : "int"
				}

			}
, 			{
				"box" : 				{
					"id" : "obj-443",
					"maxclass" : "message",
					"numinlets" : 2,
					"numoutlets" : 1,
					"outlettype" : [ "" ],
					"patching_rect" : [ 224.5, 1196.874739997844699, 29.5, 22.0 ],
					"text" : "$3"
				}

			}
, 			{
				"box" : 				{
					"id" : "obj-446",
					"maxclass" : "newobj",
					"numinlets" : 1,
					"numoutlets" : 2,
					"outlettype" : [ "", "" ],
					"patching_rect" : [ 224.5, 1168.400836051579518, 49.5, 22.0 ],
					"text" : "t l l"
				}

			}
, 			{
				"box" : 				{
					"id" : "obj-448",
					"maxclass" : "message",
					"numinlets" : 2,
					"numoutlets" : 1,
					"outlettype" : [ "" ],
					"patching_rect" : [ 383.284602293204671, 1223.34508222066961, 42.0, 22.0 ],
					"text" : "$1 0 1"
				}

			}
, 			{
				"box" : 				{
					"id" : "obj-451",
					"maxclass" : "newobj",
					"numinlets" : 2,
					"numoutlets" : 3,
					"outlettype" : [ "bang", "bang", "int" ],
					"patching_rect" : [ 351.284602293204671, 1193.34508222066961, 51.0, 22.0 ],
					"text" : "uzi 16 0"
				}

			}
, 			{
				"box" : 				{
					"id" : "obj-452",
					"maxclass" : "newobj",
					"numinlets" : 1,
					"numoutlets" : 16,
					"outlettype" : [ "", "", "", "", "", "", "", "", "", "", "", "", "", "", "", "" ],
					"patching_rect" : [ 224.0, 1285.400836051579518, 176.5, 22.0 ],
					"text" : "spray 16 1 1"
				}

			}
, 			{
				"box" : 				{
					"color" : [ 0.8266150951, 0.1539679319, 0.6292977333, 1.0 ],
					"id" : "obj-453",
					"maxclass" : "newobj",
					"numinlets" : 1,
					"numoutlets" : 1,
					"outlettype" : [ "bang" ],
					"patching_rect" : [ 351.284602293204671, 1169.34508222066961, 58.0, 22.0 ],
					"text" : "loadbang"
				}

			}
, 			{
				"box" : 				{
					"id" : "obj-454",
					"maxclass" : "newobj",
					"numinlets" : 17,
					"numoutlets" : 2,
					"outlettype" : [ "", "" ],
					"patching_rect" : [ 213.5, 1351.947260956341324, 187.0, 22.0 ],
					"text" : "router 16 1"
				}

			}
, 			{
				"box" : 				{
					"fontface" : 1,
					"fontsize" : 10.0,
					"id" : "obj-456",
					"maxclass" : "comment",
					"numinlets" : 1,
					"numoutlets" : 0,
					"patching_rect" : [ 531.624999999999773, 1288.400836051579518, 25.0, 18.0 ],
					"text" : "1",
					"textcolor" : [ 0.933333333333333, 0.933333333333333, 0.933333333333333, 1.0 ],
					"textjustification" : 1
				}

			}
, 			{
				"box" : 				{
					"fontface" : 1,
					"fontsize" : 8.0,
					"id" : "obj-457",
					"maxclass" : "comment",
					"numinlets" : 1,
					"numoutlets" : 0,
					"patching_rect" : [ 550.499999999999773, 1288.400836051579518, 23.0, 15.0 ],
					"presentation" : 1,
					"presentation_rect" : [ 41.054872637759274, 195.354166269302368, 18.0, 15.0 ],
					"text" : "2",
					"textcolor" : [ 0.933333333333333, 0.933333333333333, 0.933333333333333, 1.0 ],
					"textjustification" : 1
				}

			}
, 			{
				"box" : 				{
					"fontface" : 1,
					"fontsize" : 8.0,
					"id" : "obj-458",
					"maxclass" : "comment",
					"numinlets" : 1,
					"numoutlets" : 0,
					"patching_rect" : [ 569.499999999999773, 1288.400836051579518, 23.0, 15.0 ],
					"presentation" : 1,
					"presentation_rect" : [ 54.565315170498678, 195.354166269302368, 18.0, 15.0 ],
					"text" : "3",
					"textcolor" : [ 0.933333333333333, 0.933333333333333, 0.933333333333333, 1.0 ],
					"textjustification" : 1
				}

			}
, 			{
				"box" : 				{
					"fontface" : 1,
					"fontsize" : 8.0,
					"id" : "obj-459",
					"maxclass" : "comment",
					"numinlets" : 1,
					"numoutlets" : 0,
					"patching_rect" : [ 588.499999999999773, 1288.400836051579518, 23.0, 15.0 ],
					"presentation" : 1,
					"presentation_rect" : [ 68.075757703238111, 195.354166269302368, 18.0, 15.0 ],
					"text" : "4",
					"textcolor" : [ 0.933333333333333, 0.933333333333333, 0.933333333333333, 1.0 ],
					"textjustification" : 1
				}

			}
, 			{
				"box" : 				{
					"fontface" : 1,
					"fontsize" : 8.0,
					"id" : "obj-460",
					"maxclass" : "comment",
					"numinlets" : 1,
					"numoutlets" : 0,
					"patching_rect" : [ 531.499999999999773, 1301.400836051579518, 23.0, 15.0 ],
					"presentation" : 1,
					"presentation_rect" : [ 81.586200235977515, 195.354166269302368, 18.0, 15.0 ],
					"text" : "5",
					"textcolor" : [ 0.933333333333333, 0.933333333333333, 0.933333333333333, 1.0 ],
					"textjustification" : 1
				}

			}
, 			{
				"box" : 				{
					"fontface" : 1,
					"fontsize" : 8.0,
					"id" : "obj-461",
					"maxclass" : "comment",
					"numinlets" : 1,
					"numoutlets" : 0,
					"patching_rect" : [ 550.249999999999773, 1301.400836051579518, 23.0, 15.0 ],
					"presentation" : 1,
					"presentation_rect" : [ 95.096642768716947, 195.354166269302368, 18.0, 15.0 ],
					"text" : "6",
					"textcolor" : [ 0.933333333333333, 0.933333333333333, 0.933333333333333, 1.0 ],
					"textjustification" : 1
				}

			}
, 			{
				"box" : 				{
					"fontface" : 1,
					"fontsize" : 8.0,
					"id" : "obj-462",
					"maxclass" : "comment",
					"numinlets" : 1,
					"numoutlets" : 0,
					"patching_rect" : [ 570.249999999999545, 1301.400836051579518, 23.0, 15.0 ],
					"presentation" : 1,
					"presentation_rect" : [ 108.60708530145638, 195.354166269302368, 18.0, 15.0 ],
					"text" : "7",
					"textcolor" : [ 0.933333333333333, 0.933333333333333, 0.933333333333333, 1.0 ],
					"textjustification" : 1
				}

			}
, 			{
				"box" : 				{
					"fontface" : 1,
					"fontsize" : 8.0,
					"id" : "obj-469",
					"maxclass" : "comment",
					"numinlets" : 1,
					"numoutlets" : 0,
					"patching_rect" : [ 588.499999999999773, 1301.400836051579518, 23.0, 15.0 ],
					"presentation" : 1,
					"presentation_rect" : [ 122.117527834195812, 195.354166269302368, 18.0, 15.0 ],
					"text" : "8",
					"textcolor" : [ 0.933333333333333, 0.933333333333333, 0.933333333333333, 1.0 ],
					"textjustification" : 1
				}

			}
, 			{
				"box" : 				{
					"fontface" : 1,
					"fontsize" : 8.0,
					"id" : "obj-470",
					"maxclass" : "comment",
					"numinlets" : 1,
					"numoutlets" : 0,
					"patching_rect" : [ 529.071426500000143, 1320.400836051579518, 23.0, 15.0 ],
					"presentation" : 1,
					"presentation_rect" : [ 135.627970366935187, 195.354166269302368, 18.0, 15.0 ],
					"text" : "9",
					"textcolor" : [ 0.933333333333333, 0.933333333333333, 0.933333333333333, 1.0 ],
					"textjustification" : 1
				}

			}
, 			{
				"box" : 				{
					"fontface" : 1,
					"fontsize" : 8.0,
					"id" : "obj-471",
					"maxclass" : "comment",
					"numinlets" : 1,
					"numoutlets" : 0,
					"patching_rect" : [ 551.3902429999996, 1320.400836051579518, 22.0, 15.0 ],
					"presentation" : 1,
					"presentation_rect" : [ 149.138412899674677, 195.354166269302368, 17.0, 15.0 ],
					"text" : "10",
					"textcolor" : [ 0.933333333333333, 0.933333333333333, 0.933333333333333, 1.0 ],
					"textjustification" : 1
				}

			}
, 			{
				"box" : 				{
					"fontface" : 1,
					"fontsize" : 8.0,
					"id" : "obj-472",
					"maxclass" : "comment",
					"numinlets" : 1,
					"numoutlets" : 0,
					"patching_rect" : [ 571.499999999999773, 1320.400836051579518, 23.0, 15.0 ],
					"presentation" : 1,
					"presentation_rect" : [ 162.648855432414052, 195.354166269302368, 18.0, 15.0 ],
					"text" : "11",
					"textcolor" : [ 0.933333333333333, 0.933333333333333, 0.933333333333333, 1.0 ],
					"textjustification" : 1
				}

			}
, 			{
				"box" : 				{
					"fontface" : 1,
					"fontsize" : 8.0,
					"id" : "obj-473",
					"maxclass" : "comment",
					"numinlets" : 1,
					"numoutlets" : 0,
					"patching_rect" : [ 589.499999999999773, 1320.400836051579518, 22.0, 15.0 ],
					"presentation" : 1,
					"presentation_rect" : [ 176.159297965153485, 195.354166269302368, 17.0, 15.0 ],
					"text" : "12",
					"textcolor" : [ 0.933333333333333, 0.933333333333333, 0.933333333333333, 1.0 ],
					"textjustification" : 1
				}

			}
, 			{
				"box" : 				{
					"fontface" : 1,
					"fontsize" : 8.0,
					"id" : "obj-474",
					"maxclass" : "comment",
					"numinlets" : 1,
					"numoutlets" : 0,
					"patching_rect" : [ 529.071426500000143, 1340.400836051579518, 22.0, 15.0 ],
					"presentation" : 1,
					"presentation_rect" : [ 189.669740497892917, 195.354166269302368, 17.0, 15.0 ],
					"text" : "13",
					"textcolor" : [ 0.933333333333333, 0.933333333333333, 0.933333333333333, 1.0 ],
					"textjustification" : 1
				}

			}
, 			{
				"box" : 				{
					"fontface" : 1,
					"fontsize" : 8.0,
					"id" : "obj-490",
					"maxclass" : "comment",
					"numinlets" : 1,
					"numoutlets" : 0,
					"patching_rect" : [ 548.571426499999689, 1340.400836051579518, 22.0, 15.0 ],
					"presentation" : 1,
					"presentation_rect" : [ 203.18018303063235, 195.354166269302368, 17.0, 15.0 ],
					"text" : "14",
					"textcolor" : [ 0.933333333333333, 0.933333333333333, 0.933333333333333, 1.0 ],
					"textjustification" : 1
				}

			}
, 			{
				"box" : 				{
					"fontface" : 1,
					"fontsize" : 8.0,
					"id" : "obj-493",
					"maxclass" : "comment",
					"numinlets" : 1,
					"numoutlets" : 0,
					"patching_rect" : [ 587.571426499999689, 1340.400836051579518, 22.0, 15.0 ],
					"presentation" : 1,
					"presentation_rect" : [ 230.201068096111158, 195.354166269302368, 17.0, 15.0 ],
					"text" : "16",
					"textcolor" : [ 0.933333333333333, 0.933333333333333, 0.933333333333333, 1.0 ],
					"textjustification" : 1
				}

			}
, 			{
				"box" : 				{
					"fontface" : 1,
					"fontsize" : 8.0,
					"id" : "obj-494",
					"maxclass" : "comment",
					"numinlets" : 1,
					"numoutlets" : 0,
					"patching_rect" : [ 567.571426499999689, 1340.400836051579518, 22.0, 15.0 ],
					"presentation" : 1,
					"presentation_rect" : [ 216.690625563371782, 195.354166269302368, 17.0, 15.0 ],
					"text" : "15",
					"textcolor" : [ 0.933333333333333, 0.933333333333333, 0.933333333333333, 1.0 ],
					"textjustification" : 1
				}

			}
, 			{
				"box" : 				{
					"fontface" : 1,
					"fontsize" : 10.0,
					"id" : "obj-495",
					"linecount" : 2,
					"maxclass" : "comment",
					"numinlets" : 1,
					"numoutlets" : 0,
					"patching_rect" : [ 525.624999999999773, 1267.400836051579518, 97.0, 29.0 ],
					"presentation" : 1,
					"presentation_rect" : [ 25.544430105019842, 216.020832717418671, 222.999995648860931, 18.0 ],
					"text" : "Enabled MIDI Output Channels",
					"textcolor" : [ 0.933333333333333, 0.933333333333333, 0.933333333333333, 1.0 ],
					"textjustification" : 1
				}

			}
, 			{
				"box" : 				{
					"color" : [ 1.0, 0.709803921568627, 0.196078431372549, 1.0 ],
					"columns" : 16,
					"id" : "obj-496",
					"maxclass" : "matrixctrl",
					"numinlets" : 1,
					"numoutlets" : 2,
					"outlettype" : [ "list", "list" ],
					"parameter_enable" : 1,
					"patching_rect" : [ 431.5, 1287.400836051579518, 59.32142650000003, 18.0 ],
					"presentation" : 1,
					"presentation_rect" : [ 29.544430105019842, 192.75366577883247, 216.957257190701171, 19.201000980939796 ],
					"rows" : 1,
					"saved_attribute_attributes" : 					{
						"valueof" : 						{
							"parameter_invisible" : 1,
							"parameter_longname" : "outputchannels[3]",
							"parameter_shortname" : "outputchannels",
							"parameter_type" : 3
						}

					}
,
					"varname" : "channels"
				}

			}
, 			{
				"box" : 				{
					"angle" : 270.0,
					"bgcolor" : [ 0.2, 0.2, 0.2, 1.0 ],
					"id" : "obj-497",
					"maxclass" : "panel",
					"mode" : 0,
					"numinlets" : 1,
					"numoutlets" : 0,
					"patching_rect" : [ 523.624999999999773, 1267.400836051579518, 98.875, 91.0 ],
					"presentation" : 1,
					"presentation_rect" : [ 25.544430105019842, 192.354166269302368, 222.957257190701171, 21.666666448116302 ],
					"proportion" : 0.5
				}

			}
, 			{
				"box" : 				{
					"id" : "obj-77",
					"maxclass" : "newobj",
					"numinlets" : 3,
					"numoutlets" : 1,
					"outlettype" : [ "" ],
					"patching_rect" : [ 224.5, 1132.898067430232913, 67.0, 22.0 ],
					"text" : "pack i i i"
				}

			}
, 			{
				"box" : 				{
					"id" : "obj-30",
					"maxclass" : "newobj",
					"numinlets" : 1,
					"numoutlets" : 3,
					"outlettype" : [ "float", "int", "float" ],
					"patching_rect" : [ 224.5, 792.864600684284028, 67.0, 22.0 ],
					"text" : "unpack f i f"
				}

			}
, 			{
				"box" : 				{
					"angle" : 270.0,
					"bgcolor" : [ 0.2, 0.2, 0.2, 1.0 ],
					"id" : "obj-87",
					"maxclass" : "panel",
					"mode" : 0,
					"numinlets" : 1,
					"numoutlets" : 0,
					"patching_rect" : [ 1380.5, 274.0, 151.0, 87.0 ],
					"presentation" : 1,
					"presentation_rect" : [ 25.544430105019842, 104.875, 222.957257190701171, 45.0 ],
					"proportion" : 0.5
				}

			}
, 			{
				"box" : 				{
					"angle" : 270.0,
					"bgcolor" : [ 0.372549019607843, 0.372549019607843, 0.372549019607843, 1.0 ],
					"border" : 2,
					"bordercolor" : [ 0.647058823529412, 0.647058823529412, 0.647058823529412, 1.0 ],
					"id" : "obj-186",
					"maxclass" : "panel",
					"mode" : 0,
					"numinlets" : 1,
					"numoutlets" : 0,
					"patching_rect" : [ 2411.0, 383.864600684284028, 106.0, 22.75 ],
					"presentation" : 1,
					"presentation_rect" : [ 15.0, 15.0, 245.666660845279694, 254.277771592416116 ],
					"proportion" : 0.5
				}

			}
 ],
		"lines" : [ 			{
				"patchline" : 				{
					"destination" : [ "obj-5", 0 ],
					"source" : [ "obj-11", 0 ]
				}

			}
, 			{
				"patchline" : 				{
					"destination" : [ "obj-11", 0 ],
					"source" : [ "obj-12", 1 ]
				}

			}
, 			{
				"patchline" : 				{
					"destination" : [ "obj-14", 0 ],
					"source" : [ "obj-12", 0 ]
				}

			}
, 			{
				"patchline" : 				{
					"destination" : [ "obj-27", 0 ],
					"source" : [ "obj-12", 5 ]
				}

			}
, 			{
				"patchline" : 				{
					"destination" : [ "obj-5", 0 ],
					"source" : [ "obj-12", 2 ]
				}

			}
, 			{
				"patchline" : 				{
					"destination" : [ "obj-501", 0 ],
					"source" : [ "obj-12", 3 ]
				}

			}
, 			{
				"patchline" : 				{
					"destination" : [ "obj-413", 0 ],
					"source" : [ "obj-129", 0 ]
				}

			}
, 			{
				"patchline" : 				{
					"destination" : [ "obj-674", 0 ],
					"source" : [ "obj-14", 1 ]
				}

			}
, 			{
				"patchline" : 				{
					"destination" : [ "obj-922", 0 ],
					"source" : [ "obj-14", 0 ]
				}

			}
, 			{
				"patchline" : 				{
					"destination" : [ "obj-12", 0 ],
					"source" : [ "obj-15", 0 ]
				}

			}
, 			{
				"patchline" : 				{
					"destination" : [ "obj-17", 0 ],
					"source" : [ "obj-221", 0 ]
				}

			}
, 			{
				"patchline" : 				{
					"destination" : [ "obj-20", 0 ],
					"source" : [ "obj-27", 0 ]
				}

			}
, 			{
				"patchline" : 				{
					"destination" : [ "obj-77", 2 ],
					"source" : [ "obj-30", 2 ]
				}

			}
, 			{
				"patchline" : 				{
					"destination" : [ "obj-77", 0 ],
					"source" : [ "obj-30", 0 ]
				}

			}
, 			{
				"patchline" : 				{
					"destination" : [ "obj-918", 0 ],
					"source" : [ "obj-30", 1 ]
				}

			}
, 			{
				"patchline" : 				{
					"destination" : [ "obj-77", 1 ],
					"source" : [ "obj-335", 0 ]
				}

			}
, 			{
				"patchline" : 				{
					"destination" : [ "obj-496", 0 ],
					"source" : [ "obj-413", 0 ]
				}

			}
, 			{
				"patchline" : 				{
					"destination" : [ "obj-129", 0 ],
					"source" : [ "obj-415", 0 ]
				}

			}
, 			{
				"patchline" : 				{
					"destination" : [ "obj-496", 0 ],
					"source" : [ "obj-416", 0 ]
				}

			}
, 			{
				"patchline" : 				{
					"destination" : [ "obj-416", 0 ],
					"source" : [ "obj-417", 2 ]
				}

			}
, 			{
				"patchline" : 				{
					"destination" : [ "obj-415", 0 ],
					"source" : [ "obj-419", 0 ]
				}

			}
, 			{
				"patchline" : 				{
					"destination" : [ "obj-417", 0 ],
					"source" : [ "obj-419", 1 ]
				}

			}
, 			{
				"patchline" : 				{
					"destination" : [ "obj-452", 0 ],
					"source" : [ "obj-427", 0 ]
				}

			}
, 			{
				"patchline" : 				{
					"destination" : [ "obj-427", 0 ],
					"source" : [ "obj-440", 0 ]
				}

			}
, 			{
				"patchline" : 				{
					"destination" : [ "obj-440", 0 ],
					"source" : [ "obj-443", 0 ]
				}

			}
, 			{
				"patchline" : 				{
					"destination" : [ "obj-427", 1 ],
					"source" : [ "obj-446", 1 ]
				}

			}
, 			{
				"patchline" : 				{
					"destination" : [ "obj-443", 0 ],
					"source" : [ "obj-446", 0 ]
				}

			}
, 			{
				"patchline" : 				{
					"destination" : [ "obj-496", 0 ],
					"source" : [ "obj-448", 0 ]
				}

			}
, 			{
				"patchline" : 				{
					"destination" : [ "obj-448", 0 ],
					"source" : [ "obj-451", 2 ]
				}

			}
, 			{
				"patchline" : 				{
					"destination" : [ "obj-454", 16 ],
					"source" : [ "obj-452", 15 ]
				}

			}
, 			{
				"patchline" : 				{
					"destination" : [ "obj-454", 15 ],
					"source" : [ "obj-452", 14 ]
				}

			}
, 			{
				"patchline" : 				{
					"destination" : [ "obj-454", 14 ],
					"source" : [ "obj-452", 13 ]
				}

			}
, 			{
				"patchline" : 				{
					"destination" : [ "obj-454", 13 ],
					"source" : [ "obj-452", 12 ]
				}

			}
, 			{
				"patchline" : 				{
					"destination" : [ "obj-454", 12 ],
					"source" : [ "obj-452", 11 ]
				}

			}
, 			{
				"patchline" : 				{
					"destination" : [ "obj-454", 11 ],
					"source" : [ "obj-452", 10 ]
				}

			}
, 			{
				"patchline" : 				{
					"destination" : [ "obj-454", 10 ],
					"source" : [ "obj-452", 9 ]
				}

			}
, 			{
				"patchline" : 				{
					"destination" : [ "obj-454", 9 ],
					"source" : [ "obj-452", 8 ]
				}

			}
, 			{
				"patchline" : 				{
					"destination" : [ "obj-454", 8 ],
					"source" : [ "obj-452", 7 ]
				}

			}
, 			{
				"patchline" : 				{
					"destination" : [ "obj-454", 7 ],
					"source" : [ "obj-452", 6 ]
				}

			}
, 			{
				"patchline" : 				{
					"destination" : [ "obj-454", 6 ],
					"source" : [ "obj-452", 5 ]
				}

			}
, 			{
				"patchline" : 				{
					"destination" : [ "obj-454", 5 ],
					"source" : [ "obj-452", 4 ]
				}

			}
, 			{
				"patchline" : 				{
					"destination" : [ "obj-454", 4 ],
					"source" : [ "obj-452", 3 ]
				}

			}
, 			{
				"patchline" : 				{
					"destination" : [ "obj-454", 3 ],
					"source" : [ "obj-452", 2 ]
				}

			}
, 			{
				"patchline" : 				{
					"destination" : [ "obj-454", 2 ],
					"source" : [ "obj-452", 1 ]
				}

			}
, 			{
				"patchline" : 				{
					"destination" : [ "obj-454", 1 ],
					"source" : [ "obj-452", 0 ]
				}

			}
, 			{
				"patchline" : 				{
					"destination" : [ "obj-451", 0 ],
					"source" : [ "obj-453", 0 ]
				}

			}
, 			{
				"patchline" : 				{
					"destination" : [ "obj-937", 0 ],
					"source" : [ "obj-454", 0 ]
				}

			}
, 			{
				"patchline" : 				{
					"destination" : [ "obj-973", 0 ],
					"source" : [ "obj-496", 0 ]
				}

			}
, 			{
				"patchline" : 				{
					"destination" : [ "obj-11", 0 ],
					"midpoints" : [ 376.333333333333371, 468.596559447170534, 358.333333333333371, 468.596559447170534, 358.333333333333371, 396.364600684284028, 376.333333333333371, 396.364600684284028 ],
					"source" : [ "obj-5", 0 ]
				}

			}
, 			{
				"patchline" : 				{
					"destination" : [ "obj-335", 4 ],
					"source" : [ "obj-501", 1 ]
				}

			}
, 			{
				"patchline" : 				{
					"destination" : [ "obj-335", 3 ],
					"source" : [ "obj-501", 0 ]
				}

			}
, 			{
				"patchline" : 				{
					"destination" : [ "obj-16", 0 ],
					"source" : [ "obj-674", 1 ]
				}

			}
, 			{
				"patchline" : 				{
					"destination" : [ "obj-446", 0 ],
					"source" : [ "obj-77", 0 ]
				}

			}
, 			{
				"patchline" : 				{
					"destination" : [ "obj-501", 0 ],
					"source" : [ "obj-905", 0 ]
				}

			}
, 			{
				"patchline" : 				{
					"destination" : [ "obj-335", 0 ],
					"source" : [ "obj-918", 1 ]
				}

			}
, 			{
				"patchline" : 				{
					"destination" : [ "obj-77", 1 ],
					"source" : [ "obj-918", 0 ]
				}

			}
, 			{
				"patchline" : 				{
					"destination" : [ "obj-923", 0 ],
					"source" : [ "obj-921", 0 ]
				}

			}
, 			{
				"patchline" : 				{
					"destination" : [ "obj-30", 0 ],
					"source" : [ "obj-922", 0 ]
				}

			}
, 			{
				"patchline" : 				{
					"destination" : [ "obj-921", 0 ],
					"source" : [ "obj-922", 2 ]
				}

			}
, 			{
				"patchline" : 				{
					"destination" : [ "obj-923", 1 ],
					"source" : [ "obj-922", 1 ]
				}

			}
, 			{
				"patchline" : 				{
					"destination" : [ "obj-924", 0 ],
					"source" : [ "obj-923", 0 ]
				}

			}
, 			{
				"patchline" : 				{
					"destination" : [ "obj-16", 0 ],
					"source" : [ "obj-937", 0 ]
				}

			}
, 			{
				"patchline" : 				{
					"destination" : [ "obj-674", 0 ],
					"source" : [ "obj-937", 1 ]
				}

			}
, 			{
				"patchline" : 				{
					"destination" : [ "obj-454", 0 ],
					"midpoints" : [ 441.0, 1345.674048503960421, 223.0, 1345.674048503960421 ],
					"source" : [ "obj-973", 0 ]
				}

			}
, 			{
				"patchline" : 				{
					"destination" : [ "obj-674", 0 ],
					"source" : [ "obj-973", 1 ]
				}

			}
, 			{
				"patchline" : 				{
					"destination" : [ "obj-905", 0 ],
					"source" : [ "obj-98", 0 ]
				}

			}
 ]
	}

}
