{
	"patcher" : 	{
		"fileversion" : 1,
		"appversion" : 		{
			"major" : 8,
			"minor" : 3,
			"revision" : 2,
			"architecture" : "x64",
			"modernui" : 1
		}
,
		"classnamespace" : "box",
		"rect" : [ 34.0, 87.0, 1528.0, 1019.0 ],
		"bglocked" : 0,
		"openinpresentation" : 1,
		"default_fontsize" : 12.0,
		"default_fontface" : 0,
		"default_fontname" : "Arial",
		"gridonopen" : 1,
		"gridsize" : [ 15.0, 15.0 ],
		"gridsnaponopen" : 1,
		"objectsnaponopen" : 1,
		"statusbarvisible" : 2,
		"toolbarvisible" : 1,
		"lefttoolbarpinned" : 0,
		"toptoolbarpinned" : 0,
		"righttoolbarpinned" : 0,
		"bottomtoolbarpinned" : 0,
		"toolbars_unpinned_last_save" : 0,
		"tallnewobj" : 0,
		"boxanimatetime" : 200,
		"enablehscroll" : 1,
		"enablevscroll" : 1,
		"devicewidth" : 0.0,
		"description" : "",
		"digest" : "",
		"tags" : "",
		"style" : "",
		"subpatcher_template" : "",
		"assistshowspatchername" : 0,
		"boxes" : [ 			{
				"box" : 				{
					"id" : "obj-2",
					"maxclass" : "newobj",
					"numinlets" : 2,
					"numoutlets" : 1,
					"outlettype" : [ "int" ],
					"patching_rect" : [ 243.25, 102.0, 29.5, 22.0 ],
					"text" : "+ 1"
				}

			}
, 			{
				"box" : 				{
					"color" : [ 0.8266150951, 0.1539679319, 0.6292977333, 1.0 ],
					"id" : "obj-10",
					"maxclass" : "newobj",
					"numinlets" : 1,
					"numoutlets" : 1,
					"outlettype" : [ "" ],
					"patching_rect" : [ 270.5, 777.700917431192693, 70.0, 22.0 ],
					"text" : "loadmess 1"
				}

			}
, 			{
				"box" : 				{
					"id" : "obj-9",
					"maxclass" : "newobj",
					"numinlets" : 1,
					"numoutlets" : 1,
					"outlettype" : [ "" ],
					"patching_rect" : [ 166.200000000000045, 804.0, 71.0, 22.0 ],
					"text" : "fromsymbol"
				}

			}
, 			{
				"box" : 				{
					"color" : [ 0.3574509025, 0.5837691426, 0.6141206622, 1.0 ],
					"id" : "obj-8",
					"maxclass" : "newobj",
					"numinlets" : 1,
					"numoutlets" : 1,
					"outlettype" : [ "" ],
					"patcher" : 					{
						"fileversion" : 1,
						"appversion" : 						{
							"major" : 8,
							"minor" : 3,
							"revision" : 2,
							"architecture" : "x64",
							"modernui" : 1
						}
,
						"classnamespace" : "box",
						"rect" : [ 59.0, 106.0, 640.0, 480.0 ],
						"bglocked" : 0,
						"openinpresentation" : 0,
						"default_fontsize" : 12.0,
						"default_fontface" : 0,
						"default_fontname" : "Arial",
						"gridonopen" : 1,
						"gridsize" : [ 15.0, 15.0 ],
						"gridsnaponopen" : 1,
						"objectsnaponopen" : 1,
						"statusbarvisible" : 2,
						"toolbarvisible" : 1,
						"lefttoolbarpinned" : 0,
						"toptoolbarpinned" : 0,
						"righttoolbarpinned" : 0,
						"bottomtoolbarpinned" : 0,
						"toolbars_unpinned_last_save" : 0,
						"tallnewobj" : 0,
						"boxanimatetime" : 200,
						"enablehscroll" : 1,
						"enablevscroll" : 1,
						"devicewidth" : 0.0,
						"description" : "",
						"digest" : "",
						"tags" : "",
						"style" : "",
						"subpatcher_template" : "",
						"assistshowspatchername" : 0,
						"boxes" : [ 							{
								"box" : 								{
									"id" : "obj-11",
									"maxclass" : "message",
									"numinlets" : 2,
									"numoutlets" : 1,
									"outlettype" : [ "" ],
									"patching_rect" : [ 148.0, 154.0, 29.5, 22.0 ],
									"text" : "(M)"
								}

							}
, 							{
								"box" : 								{
									"id" : "obj-9",
									"maxclass" : "message",
									"numinlets" : 2,
									"numoutlets" : 1,
									"outlettype" : [ "" ],
									"patching_rect" : [ 71.0, 154.0, 29.5, 22.0 ],
									"text" : "(A)"
								}

							}
, 							{
								"box" : 								{
									"id" : "obj-7",
									"maxclass" : "newobj",
									"numinlets" : 1,
									"numoutlets" : 1,
									"outlettype" : [ "" ],
									"patching_rect" : [ 71.0, 230.0, 57.0, 22.0 ],
									"text" : "tosymbol"
								}

							}
, 							{
								"box" : 								{
									"id" : "obj-6",
									"maxclass" : "newobj",
									"numinlets" : 2,
									"numoutlets" : 1,
									"outlettype" : [ "" ],
									"patching_rect" : [ 71.0, 197.0, 103.0, 22.0 ],
									"text" : "join 2 @triggers 1"
								}

							}
, 							{
								"box" : 								{
									"id" : "obj-4",
									"maxclass" : "newobj",
									"numinlets" : 2,
									"numoutlets" : 2,
									"outlettype" : [ "bang", "" ],
									"patching_rect" : [ 71.0, 122.0, 96.0, 22.0 ],
									"text" : "sel AudioCorpus"
								}

							}
, 							{
								"box" : 								{
									"id" : "obj-1",
									"maxclass" : "newobj",
									"numinlets" : 1,
									"numoutlets" : 5,
									"outlettype" : [ "", "", "", "", "" ],
									"patching_rect" : [ 50.000003000000049, 82.0, 61.0, 22.0 ],
									"text" : "unjoin 4"
								}

							}
, 							{
								"box" : 								{
									"comment" : "",
									"id" : "obj-2",
									"index" : 1,
									"maxclass" : "inlet",
									"numinlets" : 0,
									"numoutlets" : 1,
									"outlettype" : [ "" ],
									"patching_rect" : [ 50.000003000000049, 40.0, 30.0, 30.0 ]
								}

							}
, 							{
								"box" : 								{
									"comment" : "",
									"id" : "obj-5",
									"index" : 1,
									"maxclass" : "outlet",
									"numinlets" : 1,
									"numoutlets" : 0,
									"patching_rect" : [ 45.000003000000049, 271.0, 30.0, 30.0 ]
								}

							}
 ],
						"lines" : [ 							{
								"patchline" : 								{
									"destination" : [ "obj-4", 0 ],
									"source" : [ "obj-1", 1 ]
								}

							}
, 							{
								"patchline" : 								{
									"destination" : [ "obj-6", 1 ],
									"source" : [ "obj-1", 0 ]
								}

							}
, 							{
								"patchline" : 								{
									"destination" : [ "obj-6", 0 ],
									"source" : [ "obj-11", 0 ]
								}

							}
, 							{
								"patchline" : 								{
									"destination" : [ "obj-1", 0 ],
									"source" : [ "obj-2", 0 ]
								}

							}
, 							{
								"patchline" : 								{
									"destination" : [ "obj-11", 0 ],
									"source" : [ "obj-4", 1 ]
								}

							}
, 							{
								"patchline" : 								{
									"destination" : [ "obj-9", 0 ],
									"source" : [ "obj-4", 0 ]
								}

							}
, 							{
								"patchline" : 								{
									"destination" : [ "obj-7", 0 ],
									"source" : [ "obj-6", 0 ]
								}

							}
, 							{
								"patchline" : 								{
									"destination" : [ "obj-5", 0 ],
									"source" : [ "obj-7", 0 ]
								}

							}
, 							{
								"patchline" : 								{
									"destination" : [ "obj-6", 0 ],
									"source" : [ "obj-9", 0 ]
								}

							}
 ]
					}
,
					"patching_rect" : [ 242.5, 441.0, 89.0, 22.0 ],
					"saved_object_attributes" : 					{
						"description" : "",
						"digest" : "",
						"globalpatchername" : "",
						"tags" : ""
					}
,
					"text" : "p format_name"
				}

			}
, 			{
				"box" : 				{
					"id" : "obj-1",
					"maxclass" : "newobj",
					"numinlets" : 2,
					"numoutlets" : 2,
					"outlettype" : [ "", "" ],
					"patching_rect" : [ 560.5, 897.670642201834767, 77.0, 22.0 ],
					"text" : "route symbol"
				}

			}
, 			{
				"box" : 				{
					"id" : "obj-99",
					"maxclass" : "newobj",
					"numinlets" : 1,
					"numoutlets" : 1,
					"outlettype" : [ "" ],
					"patching_rect" : [ 166.200000000000045, 832.700917431192693, 72.0, 22.0 ],
					"text" : "prepend set"
				}

			}
, 			{
				"box" : 				{
					"id" : "obj-98",
					"maxclass" : "newobj",
					"numinlets" : 1,
					"numoutlets" : 2,
					"outlettype" : [ "", "int" ],
					"patching_rect" : [ 560.5, 792.700917431192693, 29.5, 22.0 ],
					"text" : "t l 1"
				}

			}
, 			{
				"box" : 				{
					"id" : "obj-97",
					"linecount" : 3,
					"maxclass" : "comment",
					"numinlets" : 1,
					"numoutlets" : 0,
					"patching_rect" : [ 2.799999999999955, 531.31563786351785, 150.0, 47.0 ],
					"text" : "If corpus is loaded in player: set name without output"
				}

			}
, 			{
				"box" : 				{
					"id" : "obj-95",
					"linecount" : 3,
					"maxclass" : "comment",
					"numinlets" : 1,
					"numoutlets" : 0,
					"patching_rect" : [ 166.200000000000045, 905.700917431192693, 126.0, 47.0 ],
					"text" : "corpus name if a corpus outside corpuspath is loaded"
				}

			}
, 			{
				"box" : 				{
					"id" : "obj-93",
					"maxclass" : "comment",
					"numinlets" : 1,
					"numoutlets" : 0,
					"patching_rect" : [ 404.5, 182.0, 109.0, 20.0 ],
					"text" : "protocol messages"
				}

			}
, 			{
				"box" : 				{
					"color" : [ 0.1421581805, 0.6723723412, 0.2530546784, 1.0 ],
					"id" : "obj-91",
					"maxclass" : "newobj",
					"numinlets" : 1,
					"numoutlets" : 0,
					"patching_rect" : [ 361.0, 135.0, 89.0, 22.0 ],
					"text" : "s #0_refresh"
				}

			}
, 			{
				"box" : 				{
					"id" : "obj-90",
					"maxclass" : "comment",
					"numinlets" : 1,
					"numoutlets" : 0,
					"patching_rect" : [ 485.5, 74.0, 90.0, 20.0 ],
					"text" : "user messages"
				}

			}
, 			{
				"box" : 				{
					"color" : [ 1.0, 0.0, 0.0, 1.0 ],
					"id" : "obj-88",
					"maxclass" : "newobj",
					"numinlets" : 0,
					"numoutlets" : 1,
					"outlettype" : [ "" ],
					"patching_rect" : [ 427.5, 554.31563786351785, 108.0, 22.0 ],
					"text" : "r #0_set_corpus"
				}

			}
, 			{
				"box" : 				{
					"color" : [ 0.1421581805, 0.6723723412, 0.2530546784, 1.0 ],
					"id" : "obj-87",
					"maxclass" : "newobj",
					"numinlets" : 1,
					"numoutlets" : 0,
					"patching_rect" : [ 242.5, 135.0, 110.0, 22.0 ],
					"text" : "s #0_set_corpus"
				}

			}
, 			{
				"box" : 				{
					"id" : "obj-86",
					"maxclass" : "newobj",
					"numinlets" : 4,
					"numoutlets" : 4,
					"outlettype" : [ "", "", "", "" ],
					"patching_rect" : [ 242.5, 74.0, 231.0, 22.0 ],
					"text" : "routepass int symbol refresh"
				}

			}
, 			{
				"box" : 				{
					"id" : "obj-84",
					"maxclass" : "newobj",
					"numinlets" : 1,
					"numoutlets" : 1,
					"outlettype" : [ "" ],
					"patching_rect" : [ 560.5, 936.048360730531499, 92.0, 22.0 ],
					"text" : "prepend corpus"
				}

			}
, 			{
				"box" : 				{
					"id" : "obj-83",
					"maxclass" : "newobj",
					"numinlets" : 1,
					"numoutlets" : 1,
					"outlettype" : [ "" ],
					"patching_rect" : [ 561.0, 831.901834862385272, 94.0, 22.0 ],
					"text" : "prepend symbol"
				}

			}
, 			{
				"box" : 				{
					"id" : "obj-82",
					"maxclass" : "newobj",
					"numinlets" : 2,
					"numoutlets" : 2,
					"outlettype" : [ "", "" ],
					"patching_rect" : [ 560.5, 758.0, 47.0, 22.0 ],
					"text" : "route --"
				}

			}
, 			{
				"box" : 				{
					"color" : [ 0.980525732, 0.5260759592, 0.0, 1.0 ],
					"id" : "obj-74",
					"maxclass" : "newobj",
					"numinlets" : 1,
					"numoutlets" : 4,
					"outlettype" : [ "", "", "", "" ],
					"patching_rect" : [ 560.5, 862.969724770642188, 104.0, 22.0 ],
					"saved_object_attributes" : 					{
						"embed" : 0,
						"precision" : 6
					}
,
					"text" : "coll #0_corpora"
				}

			}
, 			{
				"box" : 				{
					"id" : "obj-68",
					"maxclass" : "newobj",
					"numinlets" : 2,
					"numoutlets" : 2,
					"outlettype" : [ "", "" ],
					"patching_rect" : [ 166.200000000000045, 777.700917431192693, 71.0, 22.0 ],
					"text" : "combine s *"
				}

			}
, 			{
				"box" : 				{
					"id" : "obj-67",
					"maxclass" : "newobj",
					"numinlets" : 1,
					"numoutlets" : 2,
					"outlettype" : [ "", "int" ],
					"patching_rect" : [ 164.5, 632.0, 40.0, 22.0 ],
					"text" : "t s 0"
				}

			}
, 			{
				"box" : 				{
					"id" : "obj-66",
					"maxclass" : "message",
					"numinlets" : 2,
					"numoutlets" : 1,
					"outlettype" : [ "" ],
					"patching_rect" : [ 242.5, 832.700917431192693, 61.0, 22.0 ],
					"text" : "hidden $1"
				}

			}
, 			{
				"box" : 				{
					"fontface" : 1,
					"hidden" : 1,
					"id" : "obj-64",
					"ignoreclick" : 1,
					"maxclass" : "message",
					"numinlets" : 2,
					"numoutlets" : 1,
					"outlettype" : [ "" ],
					"patching_rect" : [ 166.200000000000045, 879.200917431192693, 179.0, 22.0 ],
					"presentation" : 1,
					"presentation_rect" : [ -0.58333333333303, 2.931034482758621, 190.0, 22.0 ],
					"text" : "(A) freudaud*",
					"textcolor" : [ 1.0, 0.709803921568627, 0.196078431372549, 1.0 ],
					"textjustification" : 1
				}

			}
, 			{
				"box" : 				{
					"id" : "obj-62",
					"maxclass" : "newobj",
					"numinlets" : 1,
					"numoutlets" : 2,
					"outlettype" : [ "int", "" ],
					"patching_rect" : [ 242.5, 632.0, 47.0, 22.0 ],
					"text" : "t 1 s"
				}

			}
, 			{
				"box" : 				{
					"id" : "obj-61",
					"maxclass" : "newobj",
					"numinlets" : 2,
					"numoutlets" : 1,
					"outlettype" : [ "int" ],
					"patching_rect" : [ 164.5, 559.31563786351785, 29.5, 22.0 ],
					"text" : "+ 1"
				}

			}
, 			{
				"box" : 				{
					"id" : "obj-60",
					"maxclass" : "newobj",
					"numinlets" : 2,
					"numoutlets" : 2,
					"outlettype" : [ "", "" ],
					"patching_rect" : [ 164.5, 592.0, 97.0, 22.0 ],
					"text" : "gate 2"
				}

			}
, 			{
				"box" : 				{
					"id" : "obj-59",
					"maxclass" : "newobj",
					"numinlets" : 1,
					"numoutlets" : 2,
					"outlettype" : [ "", "" ],
					"patching_rect" : [ 242.5, 499.0, 31.0, 22.0 ],
					"text" : "t s s"
				}

			}
, 			{
				"box" : 				{
					"color" : [ 0.3574509025, 0.5837691426, 0.6141206622, 1.0 ],
					"id" : "obj-58",
					"maxclass" : "newobj",
					"numinlets" : 1,
					"numoutlets" : 1,
					"outlettype" : [ "int" ],
					"patcher" : 					{
						"fileversion" : 1,
						"appversion" : 						{
							"major" : 8,
							"minor" : 3,
							"revision" : 2,
							"architecture" : "x64",
							"modernui" : 1
						}
,
						"classnamespace" : "box",
						"rect" : [ 59.0, 106.0, 640.0, 480.0 ],
						"bglocked" : 0,
						"openinpresentation" : 0,
						"default_fontsize" : 12.0,
						"default_fontface" : 0,
						"default_fontname" : "Arial",
						"gridonopen" : 1,
						"gridsize" : [ 15.0, 15.0 ],
						"gridsnaponopen" : 1,
						"objectsnaponopen" : 1,
						"statusbarvisible" : 2,
						"toolbarvisible" : 1,
						"lefttoolbarpinned" : 0,
						"toptoolbarpinned" : 0,
						"righttoolbarpinned" : 0,
						"bottomtoolbarpinned" : 0,
						"toolbars_unpinned_last_save" : 0,
						"tallnewobj" : 0,
						"boxanimatetime" : 200,
						"enablehscroll" : 1,
						"enablevscroll" : 1,
						"devicewidth" : 0.0,
						"description" : "",
						"digest" : "",
						"tags" : "",
						"style" : "",
						"subpatcher_template" : "",
						"assistshowspatchername" : 0,
						"boxes" : [ 							{
								"box" : 								{
									"id" : "obj-10",
									"maxclass" : "newobj",
									"numinlets" : 1,
									"numoutlets" : 1,
									"outlettype" : [ "int" ],
									"patching_rect" : [ 126.0, 183.15274871279172, 22.0, 22.0 ],
									"text" : "t 1"
								}

							}
, 							{
								"box" : 								{
									"id" : "obj-6",
									"maxclass" : "newobj",
									"numinlets" : 2,
									"numoutlets" : 1,
									"outlettype" : [ "int" ],
									"patching_rect" : [ 21.0, 216.629292449782611, 29.5, 22.0 ],
									"text" : "int"
								}

							}
, 							{
								"box" : 								{
									"id" : "obj-5",
									"maxclass" : "newobj",
									"numinlets" : 1,
									"numoutlets" : 3,
									"outlettype" : [ "bang", "", "int" ],
									"patching_rect" : [ 21.0, 82.72311750181882, 229.0, 22.0 ],
									"text" : "t b s 0"
								}

							}
, 							{
								"box" : 								{
									"id" : "obj-4",
									"maxclass" : "newobj",
									"numinlets" : 1,
									"numoutlets" : 1,
									"outlettype" : [ "" ],
									"patching_rect" : [ 126.0, 116.199661238809796, 94.0, 22.0 ],
									"text" : "prepend symbol"
								}

							}
, 							{
								"box" : 								{
									"comment" : "(int) 1 if corpus exists in coll, otherwise 0",
									"id" : "obj-3",
									"index" : 1,
									"maxclass" : "outlet",
									"numinlets" : 1,
									"numoutlets" : 0,
									"patching_rect" : [ 21.0, 250.105836186773615, 30.0, 30.0 ]
								}

							}
, 							{
								"box" : 								{
									"comment" : "(symbol) corpus name",
									"id" : "obj-1",
									"index" : 1,
									"maxclass" : "inlet",
									"numinlets" : 0,
									"numoutlets" : 1,
									"outlettype" : [ "" ],
									"patching_rect" : [ 21.0, 40.0, 30.0, 30.0 ]
								}

							}
, 							{
								"box" : 								{
									"color" : [ 0.980525732, 0.5260759592, 0.0, 1.0 ],
									"id" : "obj-37",
									"maxclass" : "newobj",
									"numinlets" : 1,
									"numoutlets" : 4,
									"outlettype" : [ "", "", "", "" ],
									"patching_rect" : [ 126.0, 149.676204975800772, 109.0, 22.0 ],
									"saved_object_attributes" : 									{
										"embed" : 0,
										"precision" : 6
									}
,
									"text" : "coll #0_corpora"
								}

							}
 ],
						"lines" : [ 							{
								"patchline" : 								{
									"destination" : [ "obj-5", 0 ],
									"source" : [ "obj-1", 0 ]
								}

							}
, 							{
								"patchline" : 								{
									"destination" : [ "obj-6", 1 ],
									"midpoints" : [ 135.5, 210.391020581287194, 41.0, 210.391020581287194 ],
									"source" : [ "obj-10", 0 ]
								}

							}
, 							{
								"patchline" : 								{
									"destination" : [ "obj-10", 0 ],
									"source" : [ "obj-37", 0 ]
								}

							}
, 							{
								"patchline" : 								{
									"destination" : [ "obj-37", 0 ],
									"source" : [ "obj-4", 0 ]
								}

							}
, 							{
								"patchline" : 								{
									"destination" : [ "obj-4", 0 ],
									"source" : [ "obj-5", 1 ]
								}

							}
, 							{
								"patchline" : 								{
									"destination" : [ "obj-6", 1 ],
									"midpoints" : [ 240.5, 209.708457512998507, 41.0, 209.708457512998507 ],
									"source" : [ "obj-5", 2 ]
								}

							}
, 							{
								"patchline" : 								{
									"destination" : [ "obj-6", 0 ],
									"source" : [ "obj-5", 0 ]
								}

							}
, 							{
								"patchline" : 								{
									"destination" : [ "obj-3", 0 ],
									"source" : [ "obj-6", 0 ]
								}

							}
 ]
					}
,
					"patching_rect" : [ 164.5, 531.31563786351785, 63.0, 22.0 ],
					"saved_object_attributes" : 					{
						"description" : "",
						"digest" : "",
						"globalpatchername" : "",
						"tags" : ""
					}
,
					"text" : "p contains"
				}

			}
, 			{
				"box" : 				{
					"id" : "obj-56",
					"maxclass" : "newobj",
					"numinlets" : 1,
					"numoutlets" : 1,
					"outlettype" : [ "" ],
					"patching_rect" : [ 270.5, 663.31563786351785, 110.0, 22.0 ],
					"text" : "prepend setsymbol"
				}

			}
, 			{
				"box" : 				{
					"id" : "obj-52",
					"maxclass" : "newobj",
					"numinlets" : 1,
					"numoutlets" : 1,
					"outlettype" : [ "" ],
					"patching_rect" : [ 541.0, 613.0, 96.0, 22.0 ],
					"text" : "prepend append"
				}

			}
, 			{
				"box" : 				{
					"id" : "obj-51",
					"maxclass" : "newobj",
					"numinlets" : 2,
					"numoutlets" : 2,
					"outlettype" : [ "", "" ],
					"patching_rect" : [ 541.0, 585.0, 77.0, 22.0 ],
					"text" : "route symbol"
				}

			}
, 			{
				"box" : 				{
					"id" : "obj-50",
					"maxclass" : "message",
					"numinlets" : 2,
					"numoutlets" : 1,
					"outlettype" : [ "" ],
					"patching_rect" : [ 541.0, 420.0, 39.0, 22.0 ],
					"text" : "dump"
				}

			}
, 			{
				"box" : 				{
					"id" : "obj-48",
					"maxclass" : "newobj",
					"numinlets" : 1,
					"numoutlets" : 1,
					"outlettype" : [ "" ],
					"patching_rect" : [ 588.0, 420.0, 83.0, 22.0 ],
					"text" : "prepend store"
				}

			}
, 			{
				"box" : 				{
					"id" : "obj-47",
					"maxclass" : "comment",
					"numinlets" : 1,
					"numoutlets" : 0,
					"patching_rect" : [ 623.0, 264.0, 153.0, 20.0 ],
					"text" : "corpus_info: name, filepath"
				}

			}
, 			{
				"box" : 				{
					"color" : [ 0.980525732, 0.5260759592, 0.0, 1.0 ],
					"id" : "obj-37",
					"maxclass" : "newobj",
					"numinlets" : 1,
					"numoutlets" : 4,
					"outlettype" : [ "", "", "", "" ],
					"patching_rect" : [ 541.0, 554.31563786351785, 104.0, 22.0 ],
					"saved_object_attributes" : 					{
						"embed" : 0,
						"precision" : 6
					}
,
					"text" : "coll #0_corpora"
				}

			}
, 			{
				"box" : 				{
					"fontface" : 0,
					"id" : "obj-35",
					"maxclass" : "message",
					"numinlets" : 2,
					"numoutlets" : 1,
					"outlettype" : [ "" ],
					"patching_rect" : [ 643.5, 653.0, 152.0, 22.0 ],
					"text" : "append -- click to refresh --"
				}

			}
, 			{
				"box" : 				{
					"id" : "obj-32",
					"maxclass" : "newobj",
					"numinlets" : 1,
					"numoutlets" : 2,
					"outlettype" : [ "bang", "clear" ],
					"patching_rect" : [ 643.5, 511.992918431758881, 51.0, 22.0 ],
					"text" : "t b clear"
				}

			}
, 			{
				"box" : 				{
					"color" : [ 0.8266150951, 0.1539679319, 0.6292977333, 1.0 ],
					"id" : "obj-31",
					"maxclass" : "newobj",
					"numinlets" : 1,
					"numoutlets" : 1,
					"outlettype" : [ "bang" ],
					"patching_rect" : [ 643.5, 468.677280568241031, 58.0, 22.0 ],
					"text" : "loadbang"
				}

			}
, 			{
				"box" : 				{
					"id" : "obj-30",
					"maxclass" : "newobj",
					"numinlets" : 2,
					"numoutlets" : 2,
					"outlettype" : [ "", "" ],
					"patching_rect" : [ 541.0, 386.0, 66.0, 22.0 ],
					"text" : "route bang"
				}

			}
, 			{
				"box" : 				{
					"bgcolor" : [ 0.196078431372549, 0.196078431372549, 0.196078431372549, 1.0 ],
					"fontface" : 1,
					"fontsize" : 10.0,
					"id" : "obj-29",
					"maxclass" : "textbutton",
					"numinlets" : 1,
					"numoutlets" : 3,
					"outlettype" : [ "", "", "int" ],
					"outputmode" : 0,
					"parameter_enable" : 0,
					"patching_rect" : [ 427.5, 836.401834862385272, 46.0, 13.0 ],
					"presentation" : 1,
					"presentation_rect" : [ 1.905677918418265, 28.913793103448278, 43.0, 14.0 ],
					"text" : "refresh",
					"textoncolor" : [ 1.0, 0.709803921568627, 0.196078431372549, 1.0 ]
				}

			}
, 			{
				"box" : 				{
					"color" : [ 1.0, 0.0, 0.0, 1.0 ],
					"id" : "obj-25",
					"maxclass" : "newobj",
					"numinlets" : 1,
					"numoutlets" : 1,
					"outlettype" : [ "" ],
					"patching_rect" : [ 427.5, 862.969724770642188, 107.0, 22.0 ],
					"text" : "somax.corpuspath"
				}

			}
, 			{
				"box" : 				{
					"id" : "obj-24",
					"linecount" : 2,
					"maxclass" : "newobj",
					"numinlets" : 1,
					"numoutlets" : 1,
					"outlettype" : [ "" ],
					"patching_rect" : [ 427.5, 932.371559633027346, 107.0, 35.0 ],
					"text" : "prepend rawsend get_corpus_files"
				}

			}
, 			{
				"box" : 				{
					"comment" : "(protocol) messages to player",
					"id" : "obj-20",
					"index" : 1,
					"maxclass" : "outlet",
					"numinlets" : 1,
					"numoutlets" : 0,
					"patching_rect" : [ 427.5, 1015.0, 30.0, 30.0 ]
				}

			}
, 			{
				"box" : 				{
					"id" : "obj-19",
					"maxclass" : "newobj",
					"numinlets" : 2,
					"numoutlets" : 2,
					"outlettype" : [ "bang", "" ],
					"patching_rect" : [ 427.5, 758.0, 34.0, 22.0 ],
					"text" : "sel 0"
				}

			}
, 			{
				"box" : 				{
					"color" : [ 0.3574509025, 0.5837691426, 0.6141206622, 1.0 ],
					"id" : "obj-355",
					"maxclass" : "newobj",
					"numinlets" : 1,
					"numoutlets" : 5,
					"outlettype" : [ "", "", "", "bang", "" ],
					"patcher" : 					{
						"fileversion" : 1,
						"appversion" : 						{
							"major" : 8,
							"minor" : 3,
							"revision" : 2,
							"architecture" : "x64",
							"modernui" : 1
						}
,
						"classnamespace" : "box",
						"rect" : [ 59.0, 106.0, 640.0, 480.0 ],
						"bglocked" : 0,
						"openinpresentation" : 0,
						"default_fontsize" : 12.0,
						"default_fontface" : 0,
						"default_fontname" : "Arial",
						"gridonopen" : 1,
						"gridsize" : [ 15.0, 15.0 ],
						"gridsnaponopen" : 1,
						"objectsnaponopen" : 1,
						"statusbarvisible" : 2,
						"toolbarvisible" : 1,
						"lefttoolbarpinned" : 0,
						"toptoolbarpinned" : 0,
						"righttoolbarpinned" : 0,
						"bottomtoolbarpinned" : 0,
						"toolbars_unpinned_last_save" : 0,
						"tallnewobj" : 0,
						"boxanimatetime" : 200,
						"enablehscroll" : 1,
						"enablevscroll" : 1,
						"devicewidth" : 0.0,
						"description" : "",
						"digest" : "",
						"tags" : "",
						"style" : "",
						"subpatcher_template" : "",
						"assistshowspatchername" : 0,
						"boxes" : [ 							{
								"box" : 								{
									"id" : "obj-165",
									"maxclass" : "message",
									"numinlets" : 2,
									"numoutlets" : 1,
									"outlettype" : [ "" ],
									"patching_rect" : [ 50.0, 246.815637533740755, 61.0, 22.0 ],
									"text" : "hidden $1"
								}

							}
, 							{
								"box" : 								{
									"id" : "obj-164",
									"maxclass" : "newobj",
									"numinlets" : 1,
									"numoutlets" : 2,
									"outlettype" : [ "int", "int" ],
									"patching_rect" : [ 135.766666666666424, 130.329800670222994, 32.0, 22.0 ],
									"text" : "t 0 1"
								}

							}
, 							{
								"box" : 								{
									"color" : [ 0.598324656486511, 0.507944405078888, 0.998841404914856, 1.0 ],
									"id" : "obj-1122",
									"maxclass" : "newobj",
									"numinlets" : 2,
									"numoutlets" : 1,
									"outlettype" : [ "bang" ],
									"patching_rect" : [ 273.766666666666424, 203.565637533740755, 63.0, 22.0 ],
									"text" : "metro 700"
								}

							}
, 							{
								"box" : 								{
									"id" : "obj-1113",
									"maxclass" : "newobj",
									"numinlets" : 1,
									"numoutlets" : 2,
									"outlettype" : [ "int", "int" ],
									"patching_rect" : [ 273.766666666666424, 164.315637533740755, 32.0, 22.0 ],
									"text" : "t 0 1"
								}

							}
, 							{
								"box" : 								{
									"id" : "obj-1112",
									"maxclass" : "newobj",
									"numinlets" : 1,
									"numoutlets" : 2,
									"outlettype" : [ "int", "int" ],
									"patching_rect" : [ 204.766666666666424, 164.315637533740755, 32.0, 22.0 ],
									"text" : "t 0 1"
								}

							}
, 							{
								"box" : 								{
									"id" : "obj-1083",
									"maxclass" : "newobj",
									"numinlets" : 1,
									"numoutlets" : 2,
									"outlettype" : [ "bang", "bang" ],
									"patching_rect" : [ 274.116666666666333, 230.565637533740755, 32.0, 22.0 ],
									"text" : "t b b"
								}

							}
, 							{
								"box" : 								{
									"color" : [ 0.820717811584473, 0.0, 0.763403832912445, 1.0 ],
									"id" : "obj-1079",
									"maxclass" : "newobj",
									"numinlets" : 1,
									"numoutlets" : 1,
									"outlettype" : [ "" ],
									"patching_rect" : [ 345.571212121211829, 203.565637533740755, 70.0, 22.0 ],
									"text" : "loadmess 1"
								}

							}
, 							{
								"box" : 								{
									"id" : "obj-1032",
									"maxclass" : "message",
									"numinlets" : 2,
									"numoutlets" : 1,
									"outlettype" : [ "" ],
									"patching_rect" : [ 178.593939393939309, 246.815637533740755, 61.0, 22.0 ],
									"text" : "hidden $1"
								}

							}
, 							{
								"box" : 								{
									"id" : "obj-1030",
									"maxclass" : "message",
									"numinlets" : 2,
									"numoutlets" : 1,
									"outlettype" : [ "" ],
									"patching_rect" : [ 113.116666666666333, 246.815637533740755, 61.0, 22.0 ],
									"text" : "hidden $1"
								}

							}
, 							{
								"box" : 								{
									"id" : "obj-350",
									"maxclass" : "newobj",
									"numinlets" : 4,
									"numoutlets" : 4,
									"outlettype" : [ "", "", "", "" ],
									"patching_rect" : [ 135.766666666666424, 100.0, 226.0, 22.0 ],
									"text" : "route init failed success"
								}

							}
, 							{
								"box" : 								{
									"comment" : "",
									"id" : "obj-347",
									"index" : 1,
									"maxclass" : "inlet",
									"numinlets" : 0,
									"numoutlets" : 1,
									"outlettype" : [ "" ],
									"patching_rect" : [ 135.766666666666424, 39.999966670223102, 30.0, 30.0 ]
								}

							}
, 							{
								"box" : 								{
									"comment" : "",
									"id" : "obj-348",
									"index" : 1,
									"maxclass" : "outlet",
									"numinlets" : 1,
									"numoutlets" : 0,
									"patching_rect" : [ 50.00000366666643, 328.815640670223047, 30.0, 30.0 ]
								}

							}
, 							{
								"box" : 								{
									"comment" : "",
									"id" : "obj-349",
									"index" : 2,
									"maxclass" : "outlet",
									"numinlets" : 1,
									"numoutlets" : 0,
									"patching_rect" : [ 113.116642666666394, 328.815640670223047, 30.0, 30.0 ]
								}

							}
, 							{
								"box" : 								{
									"comment" : "",
									"id" : "obj-351",
									"index" : 3,
									"maxclass" : "outlet",
									"numinlets" : 1,
									"numoutlets" : 0,
									"patching_rect" : [ 178.59393766666642, 328.815640670223047, 30.0, 30.0 ]
								}

							}
, 							{
								"box" : 								{
									"comment" : "",
									"id" : "obj-352",
									"index" : 4,
									"maxclass" : "outlet",
									"numinlets" : 1,
									"numoutlets" : 0,
									"patching_rect" : [ 274.116642666666394, 328.815640670223047, 30.0, 30.0 ]
								}

							}
, 							{
								"box" : 								{
									"comment" : "",
									"id" : "obj-354",
									"index" : 5,
									"maxclass" : "outlet",
									"numinlets" : 1,
									"numoutlets" : 0,
									"patching_rect" : [ 345.571231666666336, 328.815640670223047, 30.0, 30.0 ]
								}

							}
 ],
						"lines" : [ 							{
								"patchline" : 								{
									"destination" : [ "obj-349", 0 ],
									"source" : [ "obj-1030", 0 ]
								}

							}
, 							{
								"patchline" : 								{
									"destination" : [ "obj-351", 0 ],
									"source" : [ "obj-1032", 0 ]
								}

							}
, 							{
								"patchline" : 								{
									"destination" : [ "obj-1032", 0 ],
									"order" : 1,
									"source" : [ "obj-1079", 0 ]
								}

							}
, 							{
								"patchline" : 								{
									"destination" : [ "obj-165", 0 ],
									"order" : 2,
									"source" : [ "obj-1079", 0 ]
								}

							}
, 							{
								"patchline" : 								{
									"destination" : [ "obj-354", 0 ],
									"order" : 0,
									"source" : [ "obj-1079", 0 ]
								}

							}
, 							{
								"patchline" : 								{
									"destination" : [ "obj-352", 0 ],
									"source" : [ "obj-1083", 0 ]
								}

							}
, 							{
								"patchline" : 								{
									"destination" : [ "obj-1030", 0 ],
									"order" : 1,
									"source" : [ "obj-1112", 0 ]
								}

							}
, 							{
								"patchline" : 								{
									"destination" : [ "obj-1032", 0 ],
									"source" : [ "obj-1112", 1 ]
								}

							}
, 							{
								"patchline" : 								{
									"destination" : [ "obj-1122", 0 ],
									"order" : 0,
									"source" : [ "obj-1112", 0 ]
								}

							}
, 							{
								"patchline" : 								{
									"destination" : [ "obj-1030", 0 ],
									"source" : [ "obj-1113", 1 ]
								}

							}
, 							{
								"patchline" : 								{
									"destination" : [ "obj-1032", 0 ],
									"order" : 1,
									"source" : [ "obj-1113", 0 ]
								}

							}
, 							{
								"patchline" : 								{
									"destination" : [ "obj-1122", 0 ],
									"order" : 0,
									"source" : [ "obj-1113", 0 ]
								}

							}
, 							{
								"patchline" : 								{
									"destination" : [ "obj-1083", 0 ],
									"source" : [ "obj-1122", 0 ]
								}

							}
, 							{
								"patchline" : 								{
									"destination" : [ "obj-1030", 0 ],
									"order" : 2,
									"source" : [ "obj-164", 1 ]
								}

							}
, 							{
								"patchline" : 								{
									"destination" : [ "obj-1032", 0 ],
									"order" : 1,
									"source" : [ "obj-164", 1 ]
								}

							}
, 							{
								"patchline" : 								{
									"destination" : [ "obj-1122", 0 ],
									"order" : 0,
									"source" : [ "obj-164", 1 ]
								}

							}
, 							{
								"patchline" : 								{
									"destination" : [ "obj-165", 0 ],
									"source" : [ "obj-164", 0 ]
								}

							}
, 							{
								"patchline" : 								{
									"destination" : [ "obj-348", 0 ],
									"source" : [ "obj-165", 0 ]
								}

							}
, 							{
								"patchline" : 								{
									"destination" : [ "obj-350", 0 ],
									"source" : [ "obj-347", 0 ]
								}

							}
, 							{
								"patchline" : 								{
									"destination" : [ "obj-1112", 0 ],
									"source" : [ "obj-350", 1 ]
								}

							}
, 							{
								"patchline" : 								{
									"destination" : [ "obj-1113", 0 ],
									"source" : [ "obj-350", 2 ]
								}

							}
, 							{
								"patchline" : 								{
									"destination" : [ "obj-164", 0 ],
									"source" : [ "obj-350", 0 ]
								}

							}
 ]
					}
,
					"patching_rect" : [ 435.166666666666629, 279.0, 165.0, 22.0 ],
					"saved_object_attributes" : 					{
						"description" : "",
						"digest" : "",
						"globalpatchername" : "",
						"tags" : ""
					}
,
					"text" : "p corpus_status_visualization"
				}

			}
, 			{
				"box" : 				{
					"bgcolor" : [ 0.2, 0.2, 0.2, 0.0 ],
					"hidden" : 1,
					"id" : "obj-1080",
					"ignoreclick" : 1,
					"maxclass" : "led",
					"numinlets" : 1,
					"numoutlets" : 1,
					"offcolor" : [ 0.349019607843137, 0.349019607843137, 0.349019607843137, 1.0 ],
					"oncolor" : [ 0.996078431372549, 0.423529411764706, 0.423529411764706, 1.0 ],
					"outlettype" : [ "int" ],
					"parameter_enable" : 0,
					"patching_rect" : [ 537.581185756646505, 320.322719431758969, 18.0, 18.0 ],
					"presentation" : 1,
					"presentation_rect" : [ 191.41666666666697, 7.931034482758619, 12.0, 12.0 ]
				}

			}
, 			{
				"box" : 				{
					"bgcolor" : [ 0.2, 0.2, 0.2, 0.0 ],
					"id" : "obj-1068",
					"ignoreclick" : 1,
					"maxclass" : "led",
					"numinlets" : 1,
					"numoutlets" : 1,
					"offcolor" : [ 0.349019607843137, 0.349019607843137, 0.349019607843137, 1.0 ],
					"oncolor" : [ 0.482352941176471, 0.847058823529412, 0.36078431372549, 1.0 ],
					"outlettype" : [ "int" ],
					"parameter_enable" : 0,
					"patching_rect" : [ 511.581185756646505, 320.322719431758969, 18.0, 18.0 ],
					"presentation" : 1,
					"presentation_rect" : [ 191.41666666666697, 7.931034482758619, 12.0, 12.0 ]
				}

			}
, 			{
				"box" : 				{
					"bgcolor" : [ 0.2, 0.2, 0.2, 0.0 ],
					"blinkcolor" : [ 1.0, 0.709803921568627, 0.196078431372549, 1.0 ],
					"blinktime" : 250,
					"id" : "obj-1022",
					"ignoreclick" : 1,
					"maxclass" : "button",
					"numinlets" : 1,
					"numoutlets" : 1,
					"outlettype" : [ "bang" ],
					"parameter_enable" : 0,
					"patching_rect" : [ 479.831185756646505, 320.322719431758969, 24.0, 24.0 ],
					"presentation" : 1,
					"presentation_rect" : [ 187.41666666666697, 3.931034482758619, 20.0, 20.0 ]
				}

			}
, 			{
				"box" : 				{
					"id" : "obj-166",
					"maxclass" : "panel",
					"numinlets" : 1,
					"numoutlets" : 0,
					"patching_rect" : [ 435.166666666666629, 318.329801000000089, 36.766666666666538, 27.985836863517761 ],
					"presentation" : 1,
					"presentation_rect" : [ 187.649998450989187, 1.313116050999739, 21.499999240040779, 25.235836863517761 ]
				}

			}
, 			{
				"box" : 				{
					"fontface" : 1,
					"fontsize" : 10.0,
					"id" : "obj-120",
					"maxclass" : "comment",
					"numinlets" : 1,
					"numoutlets" : 0,
					"patching_rect" : [ 297.0, 35.0, 43.0, 18.0 ],
					"presentation" : 1,
					"presentation_rect" : [ 1.905677918418265, 27.913793103448278, 207.354947384154457, 18.0 ],
					"text" : "Corpus",
					"textcolor" : [ 0.933333333333333, 0.933333333333333, 0.933333333333333, 1.0 ],
					"textjustification" : 1
				}

			}
, 			{
				"box" : 				{
					"align" : 1,
					"bgcolor" : [ 0.0, 0.0, 0.0, 0.0 ],
					"bgfillcolor_angle" : 270.0,
					"bgfillcolor_autogradient" : 0.0,
					"bgfillcolor_color" : [ 0.0, 0.0, 0.0, 0.0 ],
					"bgfillcolor_color1" : [ 0.301961, 0.301961, 0.301961, 1.0 ],
					"bgfillcolor_color2" : [ 0.2, 0.2, 0.2, 1.0 ],
					"bgfillcolor_proportion" : 0.5,
					"bgfillcolor_type" : "color",
					"fontface" : 1,
					"fontsize" : 12.0,
					"id" : "obj-26",
					"items" : [ "--", "click", "to", "refresh", "--", ",", "(A) Fabbrizio2c", ",", "(A) Joelle", ",", "(A) shostakovich118no2", ",", "(M) _hehe", ",", "(M) _SomeDebussyCorpus", ",", "(M) Bach_Invention_1", ",", "(M) Carine_Intuition", ",", "(M) debussy_part", ",", "(M) Debussy_Preludes", ",", "(M) Debussy_String_Quartet", ",", "(M) Dutilleux_Sonata_3", ",", "(M) Hehe", ",", "(M) Ligeti_Etudes", ",", "(M) Palestrina_Missa_Papae", ",", "(M) Ravel_Miroirs", ",", "(M) scarbo_part", ",", "(M) Ten_Jazz_Standards", ",", "(M) This_corpus_has_been_renamed" ],
					"maxclass" : "umenu",
					"numinlets" : 1,
					"numoutlets" : 3,
					"outlettype" : [ "int", "", "" ],
					"parameter_enable" : 1,
					"patching_rect" : [ 427.5, 704.0, 214.0, 22.0 ],
					"pattrmode" : 1,
					"presentation" : 1,
					"presentation_rect" : [ 1.905677918418265, 2.931034482758621, 207.354947384154457, 22.0 ],
					"saved_attribute_attributes" : 					{
						"valueof" : 						{
							"parameter_enum" : [ "-- click to refresh --", "(A) Fabbrizio2c", "(A) Joelle", "(A) shostakovich118no2", "(M) _hehe", "(M) _SomeDebussyCorpus", "(M) Bach_Invention_1", "(M) Carine_Intuition", "(M) debussy_part", "(M) Debussy_Preludes", "(M) Debussy_String_Quartet", "(M) Dutilleux_Sonata_3", "(M) Hehe", "(M) Ligeti_Etudes", "(M) Palestrina_Missa_Papae", "(M) Ravel_Miroirs", "(M) scarbo_part", "(M) Ten_Jazz_Standards", "(M) This_corpus_has_been_renamed" ],
							"parameter_invisible" : 1,
							"parameter_longname" : "corpusname[4]",
							"parameter_mmax" : 18,
							"parameter_shortname" : "corpusname",
							"parameter_type" : 2
						}

					}
,
					"textcolor" : [ 1.0, 0.709803921568627, 0.196078431372549, 1.0 ],
					"textjustification" : 1,
					"varname" : "corpusname"
				}

			}
, 			{
				"box" : 				{
					"angle" : 270.0,
					"grad1" : [ 0.301961, 0.301961, 0.301961, 1.0 ],
					"grad2" : [ 0.2, 0.2, 0.2, 1.0 ],
					"id" : "obj-18",
					"maxclass" : "panel",
					"mode" : 1,
					"numinlets" : 1,
					"numoutlets" : 0,
					"patching_rect" : [ 297.0, 35.0, 43.0, 18.0 ],
					"presentation" : 1,
					"presentation_rect" : [ -0.58333333333303, 0.0, 211.354947384154457, 28.0 ],
					"proportion" : 0.5
				}

			}
, 			{
				"box" : 				{
					"id" : "obj-17",
					"maxclass" : "newobj",
					"numinlets" : 1,
					"numoutlets" : 2,
					"outlettype" : [ "", "bang" ],
					"patching_rect" : [ 427.5, 897.670642201834767, 31.0, 22.0 ],
					"text" : "t s b"
				}

			}
, 			{
				"box" : 				{
					"color" : [ 1.0, 0.0, 0.0, 1.0 ],
					"id" : "obj-16",
					"maxclass" : "newobj",
					"numinlets" : 0,
					"numoutlets" : 1,
					"outlettype" : [ "" ],
					"patching_rect" : [ 468.5, 758.0, 87.0, 22.0 ],
					"text" : "r #0_refresh"
				}

			}
, 			{
				"box" : 				{
					"color" : [ 0.1421581805, 0.6723723412, 0.2530546784, 1.0 ],
					"id" : "obj-15",
					"maxclass" : "newobj",
					"numinlets" : 1,
					"numoutlets" : 0,
					"patching_rect" : [ 309.0, 210.0, 89.0, 22.0 ],
					"text" : "s #0_refresh"
				}

			}
, 			{
				"box" : 				{
					"comment" : "(any) messages to corpusview",
					"id" : "obj-12",
					"index" : 1,
					"maxclass" : "inlet",
					"numinlets" : 0,
					"numoutlets" : 1,
					"outlettype" : [ "" ],
					"patching_rect" : [ 242.5, 29.0, 30.0, 30.0 ]
				}

			}
, 			{
				"box" : 				{
					"id" : "obj-7",
					"maxclass" : "newobj",
					"numinlets" : 3,
					"numoutlets" : 3,
					"outlettype" : [ "", "", "" ],
					"patching_rect" : [ 242.5, 181.0, 152.0, 22.0 ],
					"text" : "route corpusview initialized"
				}

			}
, 			{
				"box" : 				{
					"id" : "obj-6",
					"maxclass" : "comment",
					"numinlets" : 1,
					"numoutlets" : 0,
					"patching_rect" : [ 623.0, 242.0, 320.0, 20.0 ],
					"text" : "loaded_corpus: name, type, length, associated_audio_file"
				}

			}
, 			{
				"box" : 				{
					"id" : "obj-4",
					"maxclass" : "newobj",
					"numinlets" : 4,
					"numoutlets" : 4,
					"outlettype" : [ "", "", "", "" ],
					"patching_rect" : [ 242.5, 242.0, 308.0, 22.0 ],
					"text" : "route loaded_corpus corpus_info reading_corpus_status"
				}

			}
, 			{
				"box" : 				{
					"id" : "obj-3",
					"maxclass" : "comment",
					"numinlets" : 1,
					"numoutlets" : 0,
					"patching_rect" : [ 665.0, 862.969724770642188, 69.0, 20.0 ],
					"text" : "name, path"
				}

			}
 ],
		"lines" : [ 			{
				"patchline" : 				{
					"destination" : [ "obj-84", 0 ],
					"source" : [ "obj-1", 0 ]
				}

			}
, 			{
				"patchline" : 				{
					"destination" : [ "obj-66", 0 ],
					"source" : [ "obj-10", 0 ]
				}

			}
, 			{
				"patchline" : 				{
					"destination" : [ "obj-86", 0 ],
					"source" : [ "obj-12", 0 ]
				}

			}
, 			{
				"patchline" : 				{
					"destination" : [ "obj-29", 0 ],
					"source" : [ "obj-16", 0 ]
				}

			}
, 			{
				"patchline" : 				{
					"destination" : [ "obj-24", 0 ],
					"source" : [ "obj-17", 0 ]
				}

			}
, 			{
				"patchline" : 				{
					"destination" : [ "obj-32", 0 ],
					"midpoints" : [ 449.0, 926.670642201834767, 862.0, 926.670642201834767, 862.0, 500.992918431758881, 653.0, 500.992918431758881 ],
					"source" : [ "obj-17", 1 ]
				}

			}
, 			{
				"patchline" : 				{
					"destination" : [ "obj-29", 0 ],
					"source" : [ "obj-19", 0 ]
				}

			}
, 			{
				"patchline" : 				{
					"destination" : [ "obj-87", 0 ],
					"source" : [ "obj-2", 0 ]
				}

			}
, 			{
				"patchline" : 				{
					"destination" : [ "obj-20", 0 ],
					"source" : [ "obj-24", 0 ]
				}

			}
, 			{
				"patchline" : 				{
					"destination" : [ "obj-17", 0 ],
					"source" : [ "obj-25", 0 ]
				}

			}
, 			{
				"patchline" : 				{
					"destination" : [ "obj-19", 0 ],
					"source" : [ "obj-26", 0 ]
				}

			}
, 			{
				"patchline" : 				{
					"destination" : [ "obj-82", 0 ],
					"source" : [ "obj-26", 1 ]
				}

			}
, 			{
				"patchline" : 				{
					"destination" : [ "obj-25", 0 ],
					"source" : [ "obj-29", 0 ]
				}

			}
, 			{
				"patchline" : 				{
					"destination" : [ "obj-48", 0 ],
					"source" : [ "obj-30", 1 ]
				}

			}
, 			{
				"patchline" : 				{
					"destination" : [ "obj-50", 0 ],
					"source" : [ "obj-30", 0 ]
				}

			}
, 			{
				"patchline" : 				{
					"destination" : [ "obj-32", 0 ],
					"source" : [ "obj-31", 0 ]
				}

			}
, 			{
				"patchline" : 				{
					"destination" : [ "obj-26", 0 ],
					"midpoints" : [ 685.0, 644.99645921587944, 437.0, 644.99645921587944 ],
					"order" : 1,
					"source" : [ "obj-32", 1 ]
				}

			}
, 			{
				"patchline" : 				{
					"destination" : [ "obj-35", 0 ],
					"source" : [ "obj-32", 0 ]
				}

			}
, 			{
				"patchline" : 				{
					"destination" : [ "obj-37", 0 ],
					"midpoints" : [ 685.0, 546.154278147638365, 550.5, 546.154278147638365 ],
					"order" : 0,
					"source" : [ "obj-32", 1 ]
				}

			}
, 			{
				"patchline" : 				{
					"destination" : [ "obj-26", 0 ],
					"midpoints" : [ 653.0, 688.0, 437.0, 688.0 ],
					"source" : [ "obj-35", 0 ]
				}

			}
, 			{
				"patchline" : 				{
					"destination" : [ "obj-1022", 0 ],
					"source" : [ "obj-355", 3 ]
				}

			}
, 			{
				"patchline" : 				{
					"destination" : [ "obj-1022", 0 ],
					"order" : 0,
					"source" : [ "obj-355", 0 ]
				}

			}
, 			{
				"patchline" : 				{
					"destination" : [ "obj-1068", 0 ],
					"order" : 1,
					"source" : [ "obj-355", 4 ]
				}

			}
, 			{
				"patchline" : 				{
					"destination" : [ "obj-1068", 0 ],
					"source" : [ "obj-355", 2 ]
				}

			}
, 			{
				"patchline" : 				{
					"destination" : [ "obj-1080", 0 ],
					"order" : 0,
					"source" : [ "obj-355", 4 ]
				}

			}
, 			{
				"patchline" : 				{
					"destination" : [ "obj-1080", 0 ],
					"source" : [ "obj-355", 1 ]
				}

			}
, 			{
				"patchline" : 				{
					"destination" : [ "obj-166", 0 ],
					"order" : 1,
					"source" : [ "obj-355", 0 ]
				}

			}
, 			{
				"patchline" : 				{
					"destination" : [ "obj-51", 0 ],
					"source" : [ "obj-37", 1 ]
				}

			}
, 			{
				"patchline" : 				{
					"destination" : [ "obj-30", 0 ],
					"midpoints" : [ 348.333333333333314, 377.5, 550.5, 377.5 ],
					"source" : [ "obj-4", 1 ]
				}

			}
, 			{
				"patchline" : 				{
					"destination" : [ "obj-355", 0 ],
					"source" : [ "obj-4", 2 ]
				}

			}
, 			{
				"patchline" : 				{
					"destination" : [ "obj-8", 0 ],
					"source" : [ "obj-4", 0 ]
				}

			}
, 			{
				"patchline" : 				{
					"destination" : [ "obj-37", 0 ],
					"source" : [ "obj-48", 0 ]
				}

			}
, 			{
				"patchline" : 				{
					"destination" : [ "obj-37", 0 ],
					"source" : [ "obj-50", 0 ]
				}

			}
, 			{
				"patchline" : 				{
					"destination" : [ "obj-52", 0 ],
					"source" : [ "obj-51", 0 ]
				}

			}
, 			{
				"patchline" : 				{
					"destination" : [ "obj-26", 0 ],
					"midpoints" : [ 550.5, 645.5, 437.0, 645.5 ],
					"source" : [ "obj-52", 0 ]
				}

			}
, 			{
				"patchline" : 				{
					"destination" : [ "obj-26", 0 ],
					"source" : [ "obj-56", 0 ]
				}

			}
, 			{
				"patchline" : 				{
					"destination" : [ "obj-61", 0 ],
					"source" : [ "obj-58", 0 ]
				}

			}
, 			{
				"patchline" : 				{
					"destination" : [ "obj-58", 0 ],
					"source" : [ "obj-59", 1 ]
				}

			}
, 			{
				"patchline" : 				{
					"destination" : [ "obj-60", 1 ],
					"source" : [ "obj-59", 0 ]
				}

			}
, 			{
				"patchline" : 				{
					"destination" : [ "obj-62", 0 ],
					"source" : [ "obj-60", 1 ]
				}

			}
, 			{
				"patchline" : 				{
					"destination" : [ "obj-67", 0 ],
					"source" : [ "obj-60", 0 ]
				}

			}
, 			{
				"patchline" : 				{
					"destination" : [ "obj-60", 0 ],
					"source" : [ "obj-61", 0 ]
				}

			}
, 			{
				"patchline" : 				{
					"destination" : [ "obj-56", 0 ],
					"source" : [ "obj-62", 1 ]
				}

			}
, 			{
				"patchline" : 				{
					"destination" : [ "obj-66", 0 ],
					"midpoints" : [ 252.0, 825.200917431192693, 252.0, 825.200917431192693 ],
					"source" : [ "obj-62", 0 ]
				}

			}
, 			{
				"patchline" : 				{
					"destination" : [ "obj-64", 0 ],
					"source" : [ "obj-66", 0 ]
				}

			}
, 			{
				"patchline" : 				{
					"destination" : [ "obj-66", 0 ],
					"midpoints" : [ 195.0, 772.950917431192693, 252.0, 772.950917431192693 ],
					"source" : [ "obj-67", 1 ]
				}

			}
, 			{
				"patchline" : 				{
					"destination" : [ "obj-68", 0 ],
					"source" : [ "obj-67", 0 ]
				}

			}
, 			{
				"patchline" : 				{
					"destination" : [ "obj-9", 0 ],
					"source" : [ "obj-68", 0 ]
				}

			}
, 			{
				"patchline" : 				{
					"destination" : [ "obj-15", 0 ],
					"source" : [ "obj-7", 1 ]
				}

			}
, 			{
				"patchline" : 				{
					"destination" : [ "obj-4", 0 ],
					"source" : [ "obj-7", 0 ]
				}

			}
, 			{
				"patchline" : 				{
					"destination" : [ "obj-1", 0 ],
					"source" : [ "obj-74", 0 ]
				}

			}
, 			{
				"patchline" : 				{
					"destination" : [ "obj-59", 0 ],
					"source" : [ "obj-8", 0 ]
				}

			}
, 			{
				"patchline" : 				{
					"destination" : [ "obj-98", 0 ],
					"source" : [ "obj-82", 1 ]
				}

			}
, 			{
				"patchline" : 				{
					"destination" : [ "obj-74", 0 ],
					"source" : [ "obj-83", 0 ]
				}

			}
, 			{
				"patchline" : 				{
					"destination" : [ "obj-20", 0 ],
					"source" : [ "obj-84", 0 ]
				}

			}
, 			{
				"patchline" : 				{
					"destination" : [ "obj-2", 0 ],
					"source" : [ "obj-86", 0 ]
				}

			}
, 			{
				"patchline" : 				{
					"destination" : [ "obj-7", 0 ],
					"midpoints" : [ 464.0, 165.5, 252.0, 165.5 ],
					"source" : [ "obj-86", 3 ]
				}

			}
, 			{
				"patchline" : 				{
					"destination" : [ "obj-87", 0 ],
					"midpoints" : [ 322.666666666666686, 127.0, 252.0, 127.0 ],
					"source" : [ "obj-86", 1 ]
				}

			}
, 			{
				"patchline" : 				{
					"destination" : [ "obj-91", 0 ],
					"source" : [ "obj-86", 2 ]
				}

			}
, 			{
				"patchline" : 				{
					"destination" : [ "obj-26", 0 ],
					"source" : [ "obj-88", 0 ]
				}

			}
, 			{
				"patchline" : 				{
					"destination" : [ "obj-99", 0 ],
					"source" : [ "obj-9", 0 ]
				}

			}
, 			{
				"patchline" : 				{
					"destination" : [ "obj-66", 0 ],
					"midpoints" : [ 580.5, 827.051376146788925, 252.0, 827.051376146788925 ],
					"source" : [ "obj-98", 1 ]
				}

			}
, 			{
				"patchline" : 				{
					"destination" : [ "obj-83", 0 ],
					"source" : [ "obj-98", 0 ]
				}

			}
, 			{
				"patchline" : 				{
					"destination" : [ "obj-64", 0 ],
					"source" : [ "obj-99", 0 ]
				}

			}
 ],
		"boxgroups" : [ 			{
				"boxes" : [ "obj-1022", "obj-1080", "obj-1068" ]
			}
, 			{
				"boxes" : [ "obj-95", "obj-64" ]
			}
 ]
	}

}
