{
	"patcher" : 	{
		"fileversion" : 1,
		"appversion" : 		{
			"major" : 9,
			"minor" : 0,
			"revision" : 3,
			"architecture" : "x64",
			"modernui" : 1
		}
,
		"classnamespace" : "box",
		"rect" : [ 843.0, 221.0, 498.0, 276.0 ],
		"openinpresentation" : 1,
		"gridsize" : [ 15.0, 15.0 ],
		"boxes" : [ 			{
				"box" : 				{
					"id" : "obj-32",
					"maxclass" : "message",
					"numinlets" : 2,
					"numoutlets" : 1,
					"outlettype" : [ "" ],
					"patching_rect" : [ 507.627755300445642, 325.331725277691021, 61.0, 22.0 ],
					"text" : "hidden $1"
				}

			}
, 			{
				"box" : 				{
					"id" : "obj-30",
					"maxclass" : "newobj",
					"numinlets" : 1,
					"numoutlets" : 2,
					"outlettype" : [ "int", "int" ],
					"patching_rect" : [ 412.452559786891925, 293.0, 75.5, 22.0 ],
					"text" : "t i i"
				}

			}
, 			{
				"box" : 				{
					"angle" : 270.0,
					"bgcolor" : [ 0.125, 0.125, 0.125, 0.82 ],
					"id" : "obj-105",
					"maxclass" : "panel",
					"mode" : 0,
					"numinlets" : 1,
					"numoutlets" : 0,
					"patching_rect" : [ 507.627755300445642, 362.580104217683584, 19.0, 18.673327137546494 ],
					"presentation" : 1,
					"presentation_rect" : [ 4.0, -3.0, 252.216203451156616, 70.491801261901855 ],
					"proportion" : 0.5,
					"rounded" : 0
				}

			}
, 			{
				"box" : 				{
					"id" : "obj-28",
					"maxclass" : "message",
					"numinlets" : 2,
					"numoutlets" : 1,
					"outlettype" : [ "" ],
					"patching_rect" : [ 412.452559786891925, 396.331725277691021, 68.0, 22.0 ],
					"text" : "enabled $1"
				}

			}
, 			{
				"box" : 				{
					"id" : "obj-26",
					"maxclass" : "message",
					"numinlets" : 2,
					"numoutlets" : 1,
					"outlettype" : [ "" ],
					"patching_rect" : [ 412.452559786891925, 325.331725277691021, 41.0, 22.0 ],
					"text" : "set $1"
				}

			}
, 			{
				"box" : 				{
					"id" : "obj-24",
					"maxclass" : "newobj",
					"numinlets" : 2,
					"numoutlets" : 2,
					"outlettype" : [ "", "" ],
					"patching_rect" : [ 412.452559786891925, 267.331725277691021, 82.0, 22.0 ],
					"text" : "route enabled"
				}

			}
, 			{
				"box" : 				{
					"fontface" : 1,
					"fontsize" : 10.0,
					"id" : "obj-144",
					"maxclass" : "comment",
					"numinlets" : 1,
					"numoutlets" : 0,
					"patching_rect" : [ 443.702559786891925, 361.253431355230077, 51.5, 18.0 ],
					"presentation" : 1,
					"presentation_rect" : [ 21.719928590260793, 73.913211087696993, 41.0, 18.0 ],
					"text" : "Enable",
					"textcolor" : [ 0.933333333333333, 0.933333333333333, 0.933333333333333, 1.0 ],
					"textjustification" : 1
				}

			}
, 			{
				"box" : 				{
					"bgcolor" : [ 0.125, 0.125, 0.125, 1.0 ],
					"checkedcolor" : [ 1.0, 0.709803921568627, 0.196078431372549, 1.0 ],
					"id" : "obj-128",
					"maxclass" : "toggle",
					"numinlets" : 1,
					"numoutlets" : 1,
					"outlettype" : [ "int" ],
					"parameter_enable" : 0,
					"patching_rect" : [ 412.452559786891925, 359.253431355230077, 24.0, 24.0 ],
					"presentation" : 1,
					"presentation_rect" : [ 5.139721221900345, 75.623107403516769, 14.580207368360448, 14.580207368360448 ],
					"svg" : "",
					"uncheckedcolor" : [ 0.6, 0.6, 0.6, 1.0 ],
					"varname" : "enabled"
				}

			}
, 			{
				"box" : 				{
					"angle" : 270.0,
					"bgcolor" : [ 0.125, 0.125, 0.125, 1.0 ],
					"id" : "obj-145",
					"maxclass" : "panel",
					"mode" : 0,
					"numinlets" : 1,
					"numoutlets" : 0,
					"patching_rect" : [ 436.952559786891925, 359.253431355230077, 65.0, 22.0 ],
					"presentation" : 1,
					"presentation_rect" : [ 3.584603340888407, 73.913211087696993, 61.0, 18.0 ],
					"proportion" : 0.5
				}

			}
, 			{
				"box" : 				{
					"id" : "obj-21",
					"maxclass" : "newobj",
					"numinlets" : 4,
					"numoutlets" : 4,
					"outlettype" : [ "", "", "", "" ],
					"patching_rect" : [ 79.833333333333371, 272.331725277691021, 257.0, 22.0 ],
					"text" : "route onset pitch chroma"
				}

			}
, 			{
				"box" : 				{
					"id" : "obj-20",
					"maxclass" : "newobj",
					"numinlets" : 1,
					"numoutlets" : 2,
					"outlettype" : [ "", "" ],
					"patching_rect" : [ 33.15511957378385, 235.0, 65.678213759549521, 22.0 ],
					"text" : "t l l"
				}

			}
, 			{
				"box" : 				{
					"id" : "obj-19",
					"maxclass" : "newobj",
					"numinlets" : 1,
					"numoutlets" : 2,
					"outlettype" : [ "", "" ],
					"patching_rect" : [ 382.952559786891925, 235.0, 48.5, 22.0 ],
					"text" : "t l l"
				}

			}
, 			{
				"box" : 				{
					"comment" : "(any) messages or midi input to midi influencer",
					"id" : "obj-194",
					"index" : 1,
					"maxclass" : "inlet",
					"numinlets" : 0,
					"numoutlets" : 1,
					"outlettype" : [ "int" ],
					"patching_rect" : [ 33.15511957378385, 62.0, 30.0, 30.0 ]
				}

			}
, 			{
				"box" : 				{
					"comment" : "(any) dumpout",
					"id" : "obj-16",
					"index" : 3,
					"maxclass" : "outlet",
					"numinlets" : 1,
					"numoutlets" : 0,
					"patching_rect" : [ 732.75, 524.0, 30.0, 30.0 ]
				}

			}
, 			{
				"box" : 				{
					"comment" : "(list) parameters",
					"id" : "obj-17",
					"index" : 2,
					"maxclass" : "outlet",
					"numinlets" : 1,
					"numoutlets" : 0,
					"patching_rect" : [ 382.952559786891925, 524.0, 30.0, 30.0 ]
				}

			}
, 			{
				"box" : 				{
					"comment" : "(list) influences",
					"id" : "obj-18",
					"index" : 1,
					"maxclass" : "outlet",
					"numinlets" : 1,
					"numoutlets" : 0,
					"patching_rect" : [ 33.15511957378385, 519.73083995400134, 30.0, 30.0 ]
				}

			}
, 			{
				"box" : 				{
					"fontface" : 1,
					"fontsize" : 18.0,
					"id" : "obj-12",
					"maxclass" : "newobj",
					"numinlets" : 1,
					"numoutlets" : 3,
					"outlettype" : [ "", "", "" ],
					"patching_rect" : [ 33.15511957378385, 181.0, 718.59488042621615, 29.0 ],
					"text" : "somax.midiinfluencer",
					"varname" : "somax.audioinfluencer"
				}

			}
, 			{
				"box" : 				{
					"id" : "obj-15",
					"maxclass" : "newobj",
					"numinlets" : 2,
					"numoutlets" : 1,
					"outlettype" : [ "int" ],
					"patching_rect" : [ 159.16997960140867, 359.067610170447551, 36.0, 22.0 ],
					"text" : "% 12"
				}

			}
, 			{
				"box" : 				{
					"id" : "obj-13",
					"maxclass" : "message",
					"numinlets" : 2,
					"numoutlets" : 1,
					"outlettype" : [ "" ],
					"patching_rect" : [ 159.16997960140867, 386.46672484675787, 32.0, 22.0 ],
					"text" : "$1 1"
				}

			}
, 			{
				"box" : 				{
					"id" : "obj-9",
					"maxclass" : "newobj",
					"numinlets" : 1,
					"numoutlets" : 2,
					"outlettype" : [ "int", "clear" ],
					"patching_rect" : [ 159.16997960140867, 328.73588489275653, 47.0, 22.0 ],
					"text" : "t i clear"
				}

			}
, 			{
				"box" : 				{
					"id" : "obj-10",
					"maxclass" : "message",
					"numinlets" : 2,
					"numoutlets" : 1,
					"outlettype" : [ "" ],
					"patching_rect" : [ 126.15511957378385, 131.999779228171747, 75.0, 22.0 ],
					"text" : "openwindow"
				}

			}
, 			{
				"box" : 				{
					"bgcolor" : [ 0.125490196078431, 0.125490196078431, 0.125490196078431, 1.0 ],
					"fontface" : 1,
					"fontsize" : 10.0,
					"id" : "obj-696",
					"maxclass" : "textbutton",
					"numinlets" : 1,
					"numoutlets" : 3,
					"outlettype" : [ "", "", "int" ],
					"outputmode" : 0,
					"parameter_enable" : 0,
					"patching_rect" : [ 126.15511957378385, 105.460853038769528, 68.0, 20.0 ],
					"presentation" : 1,
					"presentation_rect" : [ 191.216203451156616, 73.913211087696993, 61.0, 18.0 ],
					"rounded" : 8.0,
					"text" : "Settings",
					"textcolor" : [ 0.933333333333333, 0.933333333333333, 0.933333333333333, 1.0 ],
					"texton" : "",
					"textoncolor" : [ 1.0, 0.709803921568627, 0.196078431372549, 1.0 ]
				}

			}
, 			{
				"box" : 				{
					"fontface" : 1,
					"fontsize" : 10.0,
					"id" : "obj-295",
					"maxclass" : "comment",
					"numinlets" : 1,
					"numoutlets" : 0,
					"patching_rect" : [ 80.833333333333371, 470.943009158043424, 37.0, 18.0 ],
					"presentation" : 1,
					"presentation_rect" : [ 6.264901013636972, 48.744421899318695, 55.0, 18.0 ],
					"text" : "Onset",
					"textcolor" : [ 0.933333333333333, 0.933333333333333, 0.933333333333333, 1.0 ],
					"textjustification" : 1
				}

			}
, 			{
				"box" : 				{
					"fontface" : 1,
					"fontsize" : 10.0,
					"id" : "obj-250",
					"maxclass" : "comment",
					"numinlets" : 1,
					"numoutlets" : 0,
					"patching_rect" : [ 165.16997960140867, 470.943009158043424, 37.0, 18.0 ],
					"presentation" : 1,
					"presentation_rect" : [ 84.758360624313354, 49.070629835128784, 70.0, 18.0 ],
					"text" : "Pitch",
					"textcolor" : [ 0.933333333333333, 0.933333333333333, 0.933333333333333, 1.0 ],
					"textjustification" : 1
				}

			}
, 			{
				"box" : 				{
					"fontface" : 1,
					"fontsize" : 10.0,
					"id" : "obj-251",
					"maxclass" : "comment",
					"numinlets" : 1,
					"numoutlets" : 0,
					"patching_rect" : [ 242.600001692771912, 472.202516248187294, 56.0, 18.0 ],
					"presentation" : 1,
					"presentation_rect" : [ 178.472709059715271, 49.116169095039368, 73.610235762023876, 18.0 ],
					"text" : "Chroma",
					"textcolor" : [ 0.933333333333333, 0.933333333333333, 0.933333333333333, 1.0 ],
					"textjustification" : 1
				}

			}
, 			{
				"box" : 				{
					"blackkeycolor" : [ 0.2, 0.2, 0.2, 1.0 ],
					"hkeycolor" : [ 0.996078431372549, 0.423529411764706, 0.423529411764706, 1.0 ],
					"id" : "obj-253",
					"ignoreclick" : 1,
					"maxclass" : "kslider",
					"numinlets" : 2,
					"numoutlets" : 2,
					"offset" : 0,
					"outlettype" : [ "int", "int" ],
					"parameter_enable" : 0,
					"patching_rect" : [ 159.16997960140867, 426.168868294541198, 49.0, 34.0 ],
					"presentation" : 1,
					"presentation_rect" : [ 84.758360624313354, 4.460966348648071, 70.0, 45.0 ],
					"range" : 12,
					"selectioncolor" : [ 0.996078431372549, 0.423529411764706, 0.423529411764706, 1.0 ],
					"whitekeycolor" : [ 0.647058823529412, 0.647058823529412, 0.647058823529412, 1.0 ]
				}

			}
, 			{
				"box" : 				{
					"bgcolor" : [ 0.125, 0.125, 0.125, 1.0 ],
					"blinkcolor" : [ 1.0, 0.709803921568627, 0.196078431372549, 1.0 ],
					"id" : "obj-255",
					"ignoreclick" : 1,
					"maxclass" : "button",
					"numinlets" : 1,
					"numoutlets" : 1,
					"outlettype" : [ "bang" ],
					"outlinecolor" : [ 0.6, 0.6, 0.6, 1.0 ],
					"parameter_enable" : 0,
					"patching_rect" : [ 79.833333333333371, 426.168868294541198, 34.0, 34.0 ],
					"presentation" : 1,
					"presentation_rect" : [ 12.584603340888407, 5.25, 43.0, 43.0 ]
				}

			}
, 			{
				"box" : 				{
					"angle" : 270.0,
					"bgcolor" : [ 0.125, 0.125, 0.125, 1.0 ],
					"id" : "obj-256",
					"maxclass" : "panel",
					"mode" : 0,
					"numinlets" : 1,
					"numoutlets" : 0,
					"patching_rect" : [ 75.278215452321433, 469.14300983157591, 48.110235762023876, 21.599998652935028 ],
					"presentation" : 1,
					"presentation_rect" : [ 7.38014260079899, 3.391264021396637, 55.0, 46.0 ],
					"proportion" : 0.5
				}

			}
, 			{
				"box" : 				{
					"bgcolor" : [ 0.125, 0.125, 0.125, 1.0 ],
					"candicane2" : [ 0.92156862745098, 0.23921568627451, 0.23921568627451, 1.0 ],
					"candicane3" : [ 0.423529411764706, 0.494117647058824, 0.996078431372549, 1.0 ],
					"contdata" : 1,
					"ghostbar" : 15,
					"id" : "obj-254",
					"ignoreclick" : 1,
					"maxclass" : "multislider",
					"numinlets" : 1,
					"numoutlets" : 2,
					"outlettype" : [ "", "" ],
					"parameter_enable" : 0,
					"patching_rect" : [ 238.5, 426.168868294541198, 52.0, 34.0 ],
					"presentation" : 1,
					"presentation_rect" : [ 179.216203451156616, 5.25, 73.0, 43.0 ],
					"setminmax" : [ 0.0, 1.0 ],
					"setstyle" : 1,
					"size" : 12,
					"slidercolor" : [ 0.423529411764706, 0.494117647058824, 0.996078431372549, 1.0 ],
					"spacing" : 1
				}

			}
, 			{
				"box" : 				{
					"angle" : 270.0,
					"bgcolor" : [ 0.125, 0.125, 0.125, 1.0 ],
					"id" : "obj-11",
					"maxclass" : "panel",
					"mode" : 0,
					"numinlets" : 1,
					"numoutlets" : 0,
					"patching_rect" : [ 238.544883811759973, 469.40251692171978, 64.110235762023876, 23.599998652935028 ],
					"presentation" : 1,
					"presentation_rect" : [ 146.139721221900345, 3.75, 75.610235762023876, 46.0 ],
					"proportion" : 0.5
				}

			}
, 			{
				"box" : 				{
					"angle" : 270.0,
					"bgcolor" : [ 0.125, 0.125, 0.125, 1.0 ],
					"id" : "obj-6",
					"maxclass" : "panel",
					"mode" : 0,
					"numinlets" : 1,
					"numoutlets" : 0,
					"patching_rect" : [ 159.614861720396732, 469.14300983157591, 48.110235762023876, 21.599998652935028 ],
					"proportion" : 0.5
				}

			}
, 			{
				"box" : 				{
					"angle" : 270.0,
					"bgcolor" : [ 0.125, 0.125, 0.125, 1.0 ],
					"bordercolor" : [ 0.125, 0.125, 0.125, 1.0 ],
					"id" : "obj-463",
					"maxclass" : "panel",
					"mode" : 0,
					"numinlets" : 1,
					"numoutlets" : 0,
					"patching_rect" : [ 815.5, 181.0, 25.680724023055973, 25.0 ],
					"presentation" : 1,
					"presentation_rect" : [ 0.0, 0.0, 260.0, 102.5 ],
					"proportion" : 0.5
				}

			}
 ],
		"lines" : [ 			{
				"patchline" : 				{
					"destination" : [ "obj-12", 0 ],
					"midpoints" : [ 135.65511957378385, 166.999889614085873, 42.65511957378385, 166.999889614085873 ],
					"source" : [ "obj-10", 0 ]
				}

			}
, 			{
				"patchline" : 				{
					"destination" : [ "obj-16", 0 ],
					"source" : [ "obj-12", 2 ]
				}

			}
, 			{
				"patchline" : 				{
					"destination" : [ "obj-19", 0 ],
					"source" : [ "obj-12", 1 ]
				}

			}
, 			{
				"patchline" : 				{
					"destination" : [ "obj-20", 0 ],
					"source" : [ "obj-12", 0 ]
				}

			}
, 			{
				"patchline" : 				{
					"destination" : [ "obj-28", 0 ],
					"source" : [ "obj-128", 0 ]
				}

			}
, 			{
				"patchline" : 				{
					"destination" : [ "obj-253", 0 ],
					"source" : [ "obj-13", 0 ]
				}

			}
, 			{
				"patchline" : 				{
					"destination" : [ "obj-13", 0 ],
					"source" : [ "obj-15", 0 ]
				}

			}
, 			{
				"patchline" : 				{
					"destination" : [ "obj-17", 0 ],
					"source" : [ "obj-19", 0 ]
				}

			}
, 			{
				"patchline" : 				{
					"destination" : [ "obj-24", 0 ],
					"source" : [ "obj-19", 1 ]
				}

			}
, 			{
				"patchline" : 				{
					"destination" : [ "obj-12", 0 ],
					"source" : [ "obj-194", 0 ]
				}

			}
, 			{
				"patchline" : 				{
					"destination" : [ "obj-18", 0 ],
					"source" : [ "obj-20", 0 ]
				}

			}
, 			{
				"patchline" : 				{
					"destination" : [ "obj-21", 0 ],
					"source" : [ "obj-20", 1 ]
				}

			}
, 			{
				"patchline" : 				{
					"destination" : [ "obj-254", 0 ],
					"source" : [ "obj-21", 2 ]
				}

			}
, 			{
				"patchline" : 				{
					"destination" : [ "obj-255", 0 ],
					"source" : [ "obj-21", 0 ]
				}

			}
, 			{
				"patchline" : 				{
					"destination" : [ "obj-9", 0 ],
					"source" : [ "obj-21", 1 ]
				}

			}
, 			{
				"patchline" : 				{
					"destination" : [ "obj-30", 0 ],
					"source" : [ "obj-24", 0 ]
				}

			}
, 			{
				"patchline" : 				{
					"destination" : [ "obj-128", 0 ],
					"source" : [ "obj-26", 0 ]
				}

			}
, 			{
				"patchline" : 				{
					"destination" : [ "obj-12", 0 ],
					"midpoints" : [ 421.952559786891925, 437.331725277691021, 772.303839680337887, 437.331725277691021, 772.303839680337887, 166.0, 42.65511957378385, 166.0 ],
					"source" : [ "obj-28", 0 ]
				}

			}
, 			{
				"patchline" : 				{
					"destination" : [ "obj-26", 0 ],
					"source" : [ "obj-30", 0 ]
				}

			}
, 			{
				"patchline" : 				{
					"destination" : [ "obj-32", 0 ],
					"source" : [ "obj-30", 1 ]
				}

			}
, 			{
				"patchline" : 				{
					"destination" : [ "obj-105", 0 ],
					"source" : [ "obj-32", 0 ]
				}

			}
, 			{
				"patchline" : 				{
					"destination" : [ "obj-10", 0 ],
					"source" : [ "obj-696", 0 ]
				}

			}
, 			{
				"patchline" : 				{
					"destination" : [ "obj-15", 0 ],
					"source" : [ "obj-9", 0 ]
				}

			}
, 			{
				"patchline" : 				{
					"destination" : [ "obj-253", 0 ],
					"source" : [ "obj-9", 1 ]
				}

			}
 ],
		"originid" : "pat-1761",
		"styles" : [ 			{
				"name" : "dUG Yello 01-1",
				"button" : 				{
					"bgcolor" : [ 1.0, 0.941176, 0.803922, 1.0 ]
				}
,
				"default" : 				{
					"bgcolor" : [ 1.0, 0.941176, 0.803922, 1.0 ],
					"bgfillcolor" : 					{
						"angle" : 270.0,
						"autogradient" : 0,
						"color" : [ 0.290196, 0.309804, 0.301961, 1.0 ],
						"color1" : [ 0.94902, 0.992157, 1.0, 1.0 ],
						"color2" : [ 0.862745, 0.870588, 0.878431, 1.0 ],
						"proportion" : 0.39,
						"type" : "gradient"
					}
,
					"fontface" : [ 1 ],
					"fontsize" : [ 10.0 ],
					"textcolor_inverse" : [ 0.0, 0.0, 0.0, 1.0 ]
				}
,
				"newobj" : 				{
					"bgcolor" : [ 1.0, 0.941176, 0.803922, 1.0 ],
					"fontface" : [ 1 ],
					"fontsize" : [ 10.0 ],
					"textcolor_inverse" : [ 0.0, 0.0, 0.0, 1.0 ]
				}
,
				"toggle" : 				{
					"bgcolor" : [ 1.0, 0.941176, 0.803922, 1.0 ]
				}
,
				"message" : 				{
					"bgfillcolor" : 					{
						"angle" : 270.0,
						"autogradient" : 0,
						"color" : [ 0.290196, 0.309804, 0.301961, 1.0 ],
						"color1" : [ 0.94902, 0.992157, 1.0, 1.0 ],
						"color2" : [ 0.862745, 0.870588, 0.878431, 1.0 ],
						"proportion" : 0.39,
						"type" : "gradient"
					}
,
					"fontface" : [ 1 ],
					"fontsize" : [ 10.0 ],
					"textcolor_inverse" : [ 0.0, 0.0, 0.0, 1.0 ]
				}
,
				"parentstyle" : "",
				"multi" : 0
			}
 ]
	}

}
