{
	"patcher" : 	{
		"fileversion" : 1,
		"appversion" : 		{
			"major" : 8,
			"minor" : 1,
			"revision" : 8,
			"architecture" : "x64",
			"modernui" : 1
		}
,
		"classnamespace" : "box",
		"rect" : [ 34.0, 79.0, 2096.0, 1270.0 ],
		"bglocked" : 0,
		"openinpresentation" : 1,
		"default_fontsize" : 12.0,
		"default_fontface" : 0,
		"default_fontname" : "Arial",
		"gridonopen" : 1,
		"gridsize" : [ 15.0, 15.0 ],
		"gridsnaponopen" : 1,
		"objectsnaponopen" : 1,
		"statusbarvisible" : 2,
		"toolbarvisible" : 1,
		"lefttoolbarpinned" : 0,
		"toptoolbarpinned" : 0,
		"righttoolbarpinned" : 0,
		"bottomtoolbarpinned" : 0,
		"toolbars_unpinned_last_save" : 0,
		"tallnewobj" : 0,
		"boxanimatetime" : 200,
		"enablehscroll" : 1,
		"enablevscroll" : 1,
		"devicewidth" : 0.0,
		"description" : "",
		"digest" : "",
		"tags" : "",
		"style" : "",
		"subpatcher_template" : "",
		"assistshowspatchername" : 0,
		"boxes" : [ 			{
				"box" : 				{
					"id" : "obj-15",
					"linecolor" : [ 0.647058823529412, 0.647058823529412, 0.647058823529412, 1.0 ],
					"maxclass" : "live.line",
					"numinlets" : 1,
					"numoutlets" : 0,
					"patching_rect" : [ 0.0, 719.0, 5.0, 100.0 ],
					"presentation" : 1,
					"presentation_rect" : [ 10.0, 754.0, 233.0, 20.0 ]
				}

			}
, 			{
				"box" : 				{
					"angle" : 270.0,
					"bgcolor" : [ 0.368627450980392, 0.368627450980392, 0.368627450980392, 0.82 ],
					"hidden" : 1,
					"id" : "obj-69",
					"ignoreclick" : 0,
					"maxclass" : "panel",
					"mode" : 0,
					"numinlets" : 1,
					"numoutlets" : 0,
					"patching_rect" : [ 1118.0, 1140.663336431226753, 23.0, 24.673327137546494 ],
					"presentation" : 1,
					"presentation_rect" : [ 0.0, 758.0, 250.0, 118.733334243297463 ],
					"proportion" : 0.5,
					"varname" : "serveruidisable"
				}

			}
, 			{
				"box" : 				{
					"id" : "obj-70",
					"maxclass" : "message",
					"numinlets" : 2,
					"numoutlets" : 1,
					"outlettype" : [ "" ],
					"patching_rect" : [ 1118.0, 1106.0, 61.0, 22.0 ],
					"text" : "hidden $1"
				}

			}
, 			{
				"box" : 				{
					"id" : "obj-11",
					"maxclass" : "newobj",
					"numinlets" : 2,
					"numoutlets" : 2,
					"outlettype" : [ "", "" ],
					"patching_rect" : [ 1118.0, 1027.0, 105.0, 22.0 ],
					"text" : "route serveronline"
				}

			}
, 			{
				"box" : 				{
					"id" : "obj-5",
					"maxclass" : "newobj",
					"numinlets" : 1,
					"numoutlets" : 2,
					"outlettype" : [ "", "" ],
					"patching_rect" : [ 994.0, 1008.0, 29.5, 22.0 ],
					"text" : "t l l"
				}

			}
, 			{
				"box" : 				{
					"id" : "obj-12",
					"maxclass" : "newobj",
					"numinlets" : 2,
					"numoutlets" : 2,
					"outlettype" : [ "", "" ],
					"patching_rect" : [ 1004.0, 135.0, 95.0, 22.0 ],
					"text" : "route midioutput"
				}

			}
, 			{
				"box" : 				{
					"id" : "obj-6",
					"maxclass" : "newobj",
					"numinlets" : 1,
					"numoutlets" : 1,
					"outlettype" : [ "" ],
					"patching_rect" : [ 612.0, 1127.0, 111.0, 22.0 ],
					"text" : "prepend midioutput"
				}

			}
, 			{
				"box" : 				{
					"comment" : "(list) Parameters",
					"id" : "obj-164",
					"index" : 7,
					"maxclass" : "outlet",
					"numinlets" : 1,
					"numoutlets" : 0,
					"patching_rect" : [ 1009.149350649350936, 1170.0, 30.0, 30.0 ]
				}

			}
, 			{
				"box" : 				{
					"comment" : "(list) info messages from server",
					"id" : "obj-10",
					"index" : 2,
					"maxclass" : "outlet",
					"numinlets" : 1,
					"numoutlets" : 0,
					"patching_rect" : [ 737.666666666666742, 1170.0, 30.0, 30.0 ],
					"varname" : "fromserver"
				}

			}
, 			{
				"box" : 				{
					"comment" : "(list) Continous chroma output",
					"id" : "obj-9",
					"index" : 6,
					"maxclass" : "outlet",
					"numinlets" : 1,
					"numoutlets" : 0,
					"patching_rect" : [ 954.852813852814052, 1170.0, 30.0, 30.0 ],
					"varname" : "chromaout"
				}

			}
, 			{
				"box" : 				{
					"comment" : "(int) Pitch influence",
					"id" : "obj-8",
					"index" : 5,
					"maxclass" : "outlet",
					"numinlets" : 1,
					"numoutlets" : 0,
					"patching_rect" : [ 900.556277056277168, 1170.0, 30.0, 30.0 ],
					"varname" : "pitchout"
				}

			}
, 			{
				"box" : 				{
					"comment" : "(bang) Influence onset",
					"id" : "obj-7",
					"index" : 4,
					"maxclass" : "outlet",
					"numinlets" : 1,
					"numoutlets" : 0,
					"patching_rect" : [ 846.259740259740283, 1170.0, 30.0, 30.0 ],
					"varname" : "onsetout"
				}

			}
, 			{
				"box" : 				{
					"comment" : "(list) messages to server",
					"id" : "obj-163",
					"index" : 3,
					"maxclass" : "outlet",
					"numinlets" : 1,
					"numoutlets" : 0,
					"patching_rect" : [ 791.963203463203513, 1170.0, 30.0, 30.0 ]
				}

			}
, 			{
				"box" : 				{
					"comment" : "(list) nn ch vel",
					"id" : "obj-165",
					"index" : 1,
					"maxclass" : "outlet",
					"numinlets" : 1,
					"numoutlets" : 0,
					"patching_rect" : [ 352.0, 1170.0, 30.0, 30.0 ]
				}

			}
, 			{
				"box" : 				{
					"comment" : "(bang) External trigger",
					"id" : "obj-2",
					"ignoreclick" : 1,
					"index" : 2,
					"maxclass" : "inlet",
					"numinlets" : 0,
					"numoutlets" : 1,
					"outlettype" : [ "" ],
					"patching_rect" : [ 638.5, 99.0, 30.0, 30.0 ],
					"varname" : "externaltrigger"
				}

			}
, 			{
				"box" : 				{
					"comment" : "(unused)",
					"id" : "obj-4",
					"ignoreclick" : 1,
					"index" : 1,
					"maxclass" : "inlet",
					"numinlets" : 0,
					"numoutlets" : 1,
					"outlettype" : [ "" ],
					"patching_rect" : [ 356.0, 89.0, 30.0, 30.0 ],
					"varname" : "unused"
				}

			}
, 			{
				"box" : 				{
					"comment" : "(list) Parameters",
					"id" : "obj-162",
					"index" : 3,
					"maxclass" : "inlet",
					"numinlets" : 0,
					"numoutlets" : 1,
					"outlettype" : [ "" ],
					"patching_rect" : [ 1004.0, 99.0, 30.0, 30.0 ]
				}

			}
, 			{
				"box" : 				{
					"color" : [ 0.8266150951, 0.1539679319, 0.6292977333, 1.0 ],
					"id" : "obj-14",
					"maxclass" : "newobj",
					"numinlets" : 1,
					"numoutlets" : 2,
					"outlettype" : [ "", "" ],
					"patching_rect" : [ 1240.0, 76.0, 193.0, 22.0 ],
					"text" : "patcherargs Player 1236 127.0.0.1"
				}

			}
, 			{
				"box" : 				{
					"bgmode" : 0,
					"border" : 0,
					"clickthrough" : 0,
					"enablehscroll" : 0,
					"enablevscroll" : 0,
					"id" : "obj-3",
					"lockeddragscroll" : 0,
					"maxclass" : "bpatcher",
					"name" : "somax.midioutput.maxpat",
					"numinlets" : 2,
					"numoutlets" : 2,
					"offset" : [ 0.0, 0.0 ],
					"outlettype" : [ "", "" ],
					"patching_rect" : [ 352.0, 1034.0, 247.0, 123.0 ],
					"presentation" : 1,
					"presentation_rect" : [ 0.0, 758.0, 250.0, 118.733334243297577 ],
					"varname" : "somax.midioutput",
					"viewvisibility" : 1
				}

			}
, 			{
				"box" : 				{
					"args" : [ "#1", "#2", "#3" ],
					"bgmode" : 0,
					"border" : 0,
					"clickthrough" : 0,
					"enablehscroll" : 0,
					"enablevscroll" : 0,
					"id" : "obj-1",
					"lockeddragscroll" : 0,
					"maxclass" : "bpatcher",
					"name" : "somax.player.wireless.maxpat",
					"numinlets" : 3,
					"numoutlets" : 7,
					"offset" : [ 0.0, 0.0 ],
					"outlettype" : [ "", "", "", "", "", "", "" ],
					"patching_rect" : [ 352.0, 169.0, 253.0, 754.0 ],
					"presentation" : 1,
					"presentation_rect" : [ 0.0, 0.0, 263.0, 792.733334243297577 ],
					"varname" : "somax.player.wireless",
					"viewvisibility" : 1
				}

			}
, 			{
				"box" : 				{
					"angle" : 270.0,
					"bgcolor" : [ 0.372549019607843, 0.372549019607843, 0.372549019607843, 1.0 ],
					"bordercolor" : [ 0.647058823529412, 0.647058823529412, 0.647058823529412, 1.0 ],
					"id" : "obj-463",
					"maxclass" : "panel",
					"mode" : 0,
					"numinlets" : 1,
					"numoutlets" : 0,
					"patching_rect" : [ 1457.139764237976124, 128.0, 82.0, 77.0 ],
					"presentation" : 1,
					"presentation_rect" : [ 0.0, 0.0, 255.0, 878.733334243297577 ],
					"proportion" : 0.5
				}

			}
 ],
		"lines" : [ 			{
				"patchline" : 				{
					"destination" : [ "obj-10", 0 ],
					"source" : [ "obj-1", 1 ]
				}

			}
, 			{
				"patchline" : 				{
					"destination" : [ "obj-163", 0 ],
					"source" : [ "obj-1", 2 ]
				}

			}
, 			{
				"patchline" : 				{
					"destination" : [ "obj-3", 0 ],
					"source" : [ "obj-1", 0 ]
				}

			}
, 			{
				"patchline" : 				{
					"destination" : [ "obj-5", 0 ],
					"source" : [ "obj-1", 6 ]
				}

			}
, 			{
				"patchline" : 				{
					"destination" : [ "obj-7", 0 ],
					"source" : [ "obj-1", 3 ]
				}

			}
, 			{
				"patchline" : 				{
					"destination" : [ "obj-8", 0 ],
					"source" : [ "obj-1", 4 ]
				}

			}
, 			{
				"patchline" : 				{
					"destination" : [ "obj-9", 0 ],
					"source" : [ "obj-1", 5 ]
				}

			}
, 			{
				"patchline" : 				{
					"destination" : [ "obj-70", 0 ],
					"source" : [ "obj-11", 0 ]
				}

			}
, 			{
				"patchline" : 				{
					"destination" : [ "obj-1", 2 ],
					"source" : [ "obj-12", 1 ]
				}

			}
, 			{
				"patchline" : 				{
					"destination" : [ "obj-3", 1 ],
					"source" : [ "obj-12", 0 ]
				}

			}
, 			{
				"patchline" : 				{
					"destination" : [ "obj-12", 0 ],
					"source" : [ "obj-162", 0 ]
				}

			}
, 			{
				"patchline" : 				{
					"destination" : [ "obj-1", 1 ],
					"source" : [ "obj-2", 0 ]
				}

			}
, 			{
				"patchline" : 				{
					"destination" : [ "obj-165", 0 ],
					"source" : [ "obj-3", 0 ]
				}

			}
, 			{
				"patchline" : 				{
					"destination" : [ "obj-6", 0 ],
					"source" : [ "obj-3", 1 ]
				}

			}
, 			{
				"patchline" : 				{
					"destination" : [ "obj-1", 0 ],
					"source" : [ "obj-4", 0 ]
				}

			}
, 			{
				"patchline" : 				{
					"destination" : [ "obj-11", 0 ],
					"source" : [ "obj-5", 1 ]
				}

			}
, 			{
				"patchline" : 				{
					"destination" : [ "obj-164", 0 ],
					"source" : [ "obj-5", 0 ]
				}

			}
, 			{
				"patchline" : 				{
					"destination" : [ "obj-164", 0 ],
					"source" : [ "obj-6", 0 ]
				}

			}
, 			{
				"patchline" : 				{
					"destination" : [ "obj-69", 0 ],
					"source" : [ "obj-70", 0 ]
				}

			}
 ],
		"styles" : [ 			{
				"name" : "dUG Yello 01-1",
				"message" : 				{
					"bgfillcolor" : 					{
						"type" : "gradient",
						"color" : [ 0.290196, 0.309804, 0.301961, 1.0 ],
						"color1" : [ 0.94902, 0.992157, 1.0, 1.0 ],
						"color2" : [ 0.862745, 0.870588, 0.878431, 1.0 ],
						"angle" : 270.0,
						"proportion" : 0.39,
						"autogradient" : 0
					}
,
					"fontface" : [ 1 ],
					"fontsize" : [ 10.0 ],
					"textcolor_inverse" : [ 0.0, 0.0, 0.0, 1.0 ]
				}
,
				"default" : 				{
					"bgfillcolor" : 					{
						"type" : "gradient",
						"color" : [ 0.290196, 0.309804, 0.301961, 1.0 ],
						"color1" : [ 0.94902, 0.992157, 1.0, 1.0 ],
						"color2" : [ 0.862745, 0.870588, 0.878431, 1.0 ],
						"angle" : 270.0,
						"proportion" : 0.39,
						"autogradient" : 0
					}
,
					"fontface" : [ 1 ],
					"bgcolor" : [ 1.0, 0.941176, 0.803922, 1.0 ],
					"fontsize" : [ 10.0 ],
					"textcolor_inverse" : [ 0.0, 0.0, 0.0, 1.0 ]
				}
,
				"newobj" : 				{
					"fontface" : [ 1 ],
					"bgcolor" : [ 1.0, 0.941176, 0.803922, 1.0 ],
					"fontsize" : [ 10.0 ],
					"textcolor_inverse" : [ 0.0, 0.0, 0.0, 1.0 ]
				}
,
				"button" : 				{
					"bgcolor" : [ 1.0, 0.941176, 0.803922, 1.0 ]
				}
,
				"toggle" : 				{
					"bgcolor" : [ 1.0, 0.941176, 0.803922, 1.0 ]
				}
,
				"parentstyle" : "",
				"multi" : 0
			}
 ]
	}

}
